G04 MADE WITH FRITZING*
G04 WWW.FRITZING.ORG*
G04 DOUBLE SIDED*
G04 HOLES PLATED*
G04 CONTOUR ON CENTER OF CONTOUR VECTOR*
%ASAXBY*%
%FSLAX23Y23*%
%MOIN*%
%OFA0B0*%
%SFA1.0B1.0*%
%ADD10C,0.075000*%
%ADD11C,0.074000*%
%ADD12R,0.074000X0.074000*%
%ADD13C,0.024000*%
%LNCOPPER1*%
G90*
G70*
G54D10*
X1173Y1615D03*
X1672Y801D03*
X1416Y801D03*
X1672Y978D03*
X1416Y978D03*
X1069Y201D03*
X813Y201D03*
X1069Y378D03*
X813Y378D03*
X469Y801D03*
X213Y801D03*
X469Y978D03*
X213Y978D03*
X1069Y1401D03*
X813Y1401D03*
X1069Y1578D03*
X813Y1578D03*
X1069Y801D03*
X813Y801D03*
X1069Y978D03*
X813Y978D03*
X1192Y501D03*
X1192Y801D03*
X592Y901D03*
X592Y1201D03*
X1292Y901D03*
X1292Y1201D03*
X692Y501D03*
X692Y801D03*
X1292Y501D03*
X1292Y801D03*
X592Y501D03*
X592Y801D03*
G54D11*
X592Y101D03*
X592Y201D03*
X592Y301D03*
G54D10*
X392Y401D03*
X392Y701D03*
G54D12*
X592Y101D03*
G54D13*
X242Y978D02*
X440Y978D01*
D02*
X1040Y1578D02*
X842Y1578D01*
D02*
X242Y801D02*
X440Y801D01*
D02*
X1644Y801D02*
X1445Y801D01*
D02*
X842Y1401D02*
X1040Y1401D01*
D02*
X1040Y978D02*
X842Y978D01*
D02*
X842Y801D02*
X1040Y801D01*
D02*
X842Y201D02*
X1040Y201D01*
D02*
X1644Y978D02*
X1445Y978D01*
D02*
X842Y378D02*
X1040Y378D01*
G36*
X40Y1751D02*
X40Y1675D01*
X1704Y1675D01*
X1704Y1673D01*
X1712Y1673D01*
X1712Y1671D01*
X1718Y1671D01*
X1718Y1669D01*
X1722Y1669D01*
X1722Y1667D01*
X1726Y1667D01*
X1726Y1665D01*
X1730Y1665D01*
X1730Y1663D01*
X1734Y1663D01*
X1734Y1661D01*
X1736Y1661D01*
X1736Y1659D01*
X1738Y1659D01*
X1738Y1657D01*
X1740Y1657D01*
X1740Y1655D01*
X1742Y1655D01*
X1742Y1653D01*
X1746Y1653D01*
X1746Y1649D01*
X1748Y1649D01*
X1748Y1647D01*
X1750Y1647D01*
X1750Y1645D01*
X1752Y1645D01*
X1752Y1643D01*
X1754Y1643D01*
X1754Y1639D01*
X1756Y1639D01*
X1756Y1637D01*
X1758Y1637D01*
X1758Y1633D01*
X1760Y1633D01*
X1760Y1629D01*
X1762Y1629D01*
X1762Y1623D01*
X1764Y1623D01*
X1764Y1617D01*
X1766Y1617D01*
X1766Y1601D01*
X1768Y1601D01*
X1768Y1599D01*
X1766Y1599D01*
X1766Y1583D01*
X1764Y1583D01*
X1764Y1577D01*
X1762Y1577D01*
X1762Y1571D01*
X1760Y1571D01*
X1760Y1567D01*
X1758Y1567D01*
X1758Y1565D01*
X1756Y1565D01*
X1756Y1561D01*
X1754Y1561D01*
X1754Y1557D01*
X1752Y1557D01*
X1752Y1555D01*
X1750Y1555D01*
X1750Y1553D01*
X1748Y1553D01*
X1748Y1551D01*
X1746Y1551D01*
X1746Y1549D01*
X1744Y1549D01*
X1744Y1547D01*
X1742Y1547D01*
X1742Y1545D01*
X1740Y1545D01*
X1740Y1543D01*
X1738Y1543D01*
X1738Y1541D01*
X1736Y1541D01*
X1736Y1539D01*
X1732Y1539D01*
X1732Y1537D01*
X1730Y1537D01*
X1730Y1535D01*
X1726Y1535D01*
X1726Y1533D01*
X1722Y1533D01*
X1722Y1531D01*
X1718Y1531D01*
X1718Y1529D01*
X1712Y1529D01*
X1712Y1527D01*
X1702Y1527D01*
X1702Y1525D01*
X1848Y1525D01*
X1848Y1751D01*
X40Y1751D01*
G37*
D02*
G36*
X40Y1675D02*
X40Y1525D01*
X182Y1525D01*
X182Y1527D01*
X172Y1527D01*
X172Y1529D01*
X168Y1529D01*
X168Y1531D01*
X162Y1531D01*
X162Y1533D01*
X158Y1533D01*
X158Y1535D01*
X154Y1535D01*
X154Y1537D01*
X152Y1537D01*
X152Y1539D01*
X148Y1539D01*
X148Y1541D01*
X146Y1541D01*
X146Y1543D01*
X144Y1543D01*
X144Y1545D01*
X142Y1545D01*
X142Y1547D01*
X140Y1547D01*
X140Y1549D01*
X138Y1549D01*
X138Y1551D01*
X136Y1551D01*
X136Y1553D01*
X134Y1553D01*
X134Y1555D01*
X132Y1555D01*
X132Y1559D01*
X130Y1559D01*
X130Y1561D01*
X128Y1561D01*
X128Y1565D01*
X126Y1565D01*
X126Y1569D01*
X124Y1569D01*
X124Y1573D01*
X122Y1573D01*
X122Y1577D01*
X120Y1577D01*
X120Y1585D01*
X118Y1585D01*
X118Y1617D01*
X120Y1617D01*
X120Y1623D01*
X122Y1623D01*
X122Y1629D01*
X124Y1629D01*
X124Y1633D01*
X126Y1633D01*
X126Y1637D01*
X128Y1637D01*
X128Y1639D01*
X130Y1639D01*
X130Y1643D01*
X132Y1643D01*
X132Y1645D01*
X134Y1645D01*
X134Y1647D01*
X136Y1647D01*
X136Y1649D01*
X138Y1649D01*
X138Y1651D01*
X140Y1651D01*
X140Y1653D01*
X142Y1653D01*
X142Y1655D01*
X144Y1655D01*
X144Y1657D01*
X146Y1657D01*
X146Y1659D01*
X148Y1659D01*
X148Y1661D01*
X150Y1661D01*
X150Y1663D01*
X154Y1663D01*
X154Y1665D01*
X158Y1665D01*
X158Y1667D01*
X162Y1667D01*
X162Y1669D01*
X166Y1669D01*
X166Y1671D01*
X172Y1671D01*
X172Y1673D01*
X180Y1673D01*
X180Y1675D01*
X40Y1675D01*
G37*
D02*
G36*
X204Y1675D02*
X204Y1673D01*
X212Y1673D01*
X212Y1671D01*
X218Y1671D01*
X218Y1669D01*
X222Y1669D01*
X222Y1667D01*
X226Y1667D01*
X226Y1665D01*
X230Y1665D01*
X230Y1663D01*
X234Y1663D01*
X234Y1661D01*
X236Y1661D01*
X236Y1659D01*
X238Y1659D01*
X238Y1657D01*
X240Y1657D01*
X240Y1655D01*
X242Y1655D01*
X242Y1653D01*
X246Y1653D01*
X246Y1649D01*
X248Y1649D01*
X248Y1647D01*
X250Y1647D01*
X250Y1645D01*
X252Y1645D01*
X252Y1643D01*
X254Y1643D01*
X254Y1639D01*
X256Y1639D01*
X256Y1637D01*
X258Y1637D01*
X258Y1633D01*
X260Y1633D01*
X260Y1629D01*
X262Y1629D01*
X262Y1627D01*
X1078Y1627D01*
X1078Y1625D01*
X1084Y1625D01*
X1084Y1623D01*
X1088Y1623D01*
X1088Y1621D01*
X1092Y1621D01*
X1092Y1619D01*
X1094Y1619D01*
X1094Y1617D01*
X1098Y1617D01*
X1098Y1615D01*
X1100Y1615D01*
X1100Y1613D01*
X1102Y1613D01*
X1102Y1611D01*
X1104Y1611D01*
X1104Y1609D01*
X1106Y1609D01*
X1106Y1607D01*
X1108Y1607D01*
X1108Y1605D01*
X1110Y1605D01*
X1110Y1601D01*
X1112Y1601D01*
X1112Y1597D01*
X1114Y1597D01*
X1114Y1593D01*
X1116Y1593D01*
X1116Y1587D01*
X1118Y1587D01*
X1118Y1567D01*
X1116Y1567D01*
X1116Y1561D01*
X1114Y1561D01*
X1114Y1557D01*
X1112Y1557D01*
X1112Y1555D01*
X1110Y1555D01*
X1110Y1551D01*
X1108Y1551D01*
X1108Y1549D01*
X1106Y1549D01*
X1106Y1547D01*
X1104Y1547D01*
X1104Y1543D01*
X1100Y1543D01*
X1100Y1541D01*
X1098Y1541D01*
X1098Y1539D01*
X1096Y1539D01*
X1096Y1537D01*
X1094Y1537D01*
X1094Y1535D01*
X1090Y1535D01*
X1090Y1533D01*
X1086Y1533D01*
X1086Y1531D01*
X1080Y1531D01*
X1080Y1529D01*
X1070Y1529D01*
X1070Y1527D01*
X1672Y1527D01*
X1672Y1529D01*
X1668Y1529D01*
X1668Y1531D01*
X1662Y1531D01*
X1662Y1533D01*
X1658Y1533D01*
X1658Y1535D01*
X1654Y1535D01*
X1654Y1537D01*
X1652Y1537D01*
X1652Y1539D01*
X1648Y1539D01*
X1648Y1541D01*
X1646Y1541D01*
X1646Y1543D01*
X1644Y1543D01*
X1644Y1545D01*
X1642Y1545D01*
X1642Y1547D01*
X1640Y1547D01*
X1640Y1549D01*
X1638Y1549D01*
X1638Y1551D01*
X1636Y1551D01*
X1636Y1553D01*
X1634Y1553D01*
X1634Y1555D01*
X1632Y1555D01*
X1632Y1559D01*
X1630Y1559D01*
X1630Y1561D01*
X1628Y1561D01*
X1628Y1565D01*
X1626Y1565D01*
X1626Y1569D01*
X1624Y1569D01*
X1624Y1573D01*
X1622Y1573D01*
X1622Y1577D01*
X1620Y1577D01*
X1620Y1585D01*
X1618Y1585D01*
X1618Y1617D01*
X1620Y1617D01*
X1620Y1623D01*
X1622Y1623D01*
X1622Y1629D01*
X1624Y1629D01*
X1624Y1633D01*
X1626Y1633D01*
X1626Y1637D01*
X1628Y1637D01*
X1628Y1639D01*
X1630Y1639D01*
X1630Y1643D01*
X1632Y1643D01*
X1632Y1645D01*
X1634Y1645D01*
X1634Y1647D01*
X1636Y1647D01*
X1636Y1649D01*
X1638Y1649D01*
X1638Y1651D01*
X1640Y1651D01*
X1640Y1653D01*
X1642Y1653D01*
X1642Y1655D01*
X1644Y1655D01*
X1644Y1657D01*
X1646Y1657D01*
X1646Y1659D01*
X1648Y1659D01*
X1648Y1661D01*
X1652Y1661D01*
X1652Y1663D01*
X1654Y1663D01*
X1654Y1665D01*
X1658Y1665D01*
X1658Y1667D01*
X1662Y1667D01*
X1662Y1669D01*
X1666Y1669D01*
X1666Y1671D01*
X1672Y1671D01*
X1672Y1673D01*
X1680Y1673D01*
X1680Y1675D01*
X204Y1675D01*
G37*
D02*
G36*
X262Y1627D02*
X262Y1623D01*
X264Y1623D01*
X264Y1617D01*
X266Y1617D01*
X266Y1601D01*
X268Y1601D01*
X268Y1599D01*
X266Y1599D01*
X266Y1583D01*
X264Y1583D01*
X264Y1577D01*
X262Y1577D01*
X262Y1571D01*
X260Y1571D01*
X260Y1567D01*
X258Y1567D01*
X258Y1565D01*
X256Y1565D01*
X256Y1561D01*
X254Y1561D01*
X254Y1557D01*
X252Y1557D01*
X252Y1555D01*
X250Y1555D01*
X250Y1553D01*
X248Y1553D01*
X248Y1551D01*
X246Y1551D01*
X246Y1549D01*
X244Y1549D01*
X244Y1547D01*
X242Y1547D01*
X242Y1545D01*
X240Y1545D01*
X240Y1543D01*
X238Y1543D01*
X238Y1541D01*
X236Y1541D01*
X236Y1539D01*
X232Y1539D01*
X232Y1537D01*
X230Y1537D01*
X230Y1535D01*
X226Y1535D01*
X226Y1533D01*
X222Y1533D01*
X222Y1531D01*
X218Y1531D01*
X218Y1529D01*
X212Y1529D01*
X212Y1527D01*
X812Y1527D01*
X812Y1529D01*
X802Y1529D01*
X802Y1531D01*
X796Y1531D01*
X796Y1533D01*
X792Y1533D01*
X792Y1535D01*
X788Y1535D01*
X788Y1537D01*
X786Y1537D01*
X786Y1539D01*
X784Y1539D01*
X784Y1541D01*
X782Y1541D01*
X782Y1543D01*
X778Y1543D01*
X778Y1547D01*
X776Y1547D01*
X776Y1549D01*
X774Y1549D01*
X774Y1551D01*
X772Y1551D01*
X772Y1555D01*
X770Y1555D01*
X770Y1557D01*
X768Y1557D01*
X768Y1561D01*
X766Y1561D01*
X766Y1567D01*
X764Y1567D01*
X764Y1587D01*
X766Y1587D01*
X766Y1593D01*
X768Y1593D01*
X768Y1597D01*
X770Y1597D01*
X770Y1601D01*
X772Y1601D01*
X772Y1603D01*
X774Y1603D01*
X774Y1607D01*
X776Y1607D01*
X776Y1609D01*
X778Y1609D01*
X778Y1611D01*
X780Y1611D01*
X780Y1613D01*
X782Y1613D01*
X782Y1615D01*
X784Y1615D01*
X784Y1617D01*
X788Y1617D01*
X788Y1619D01*
X790Y1619D01*
X790Y1621D01*
X794Y1621D01*
X794Y1623D01*
X798Y1623D01*
X798Y1625D01*
X804Y1625D01*
X804Y1627D01*
X262Y1627D01*
G37*
D02*
G36*
X822Y1627D02*
X822Y1625D01*
X828Y1625D01*
X828Y1623D01*
X832Y1623D01*
X832Y1621D01*
X836Y1621D01*
X836Y1619D01*
X838Y1619D01*
X838Y1617D01*
X842Y1617D01*
X842Y1615D01*
X844Y1615D01*
X844Y1613D01*
X846Y1613D01*
X846Y1611D01*
X848Y1611D01*
X848Y1609D01*
X850Y1609D01*
X850Y1607D01*
X852Y1607D01*
X852Y1605D01*
X854Y1605D01*
X854Y1601D01*
X1028Y1601D01*
X1028Y1605D01*
X1030Y1605D01*
X1030Y1607D01*
X1032Y1607D01*
X1032Y1609D01*
X1034Y1609D01*
X1034Y1611D01*
X1036Y1611D01*
X1036Y1613D01*
X1038Y1613D01*
X1038Y1615D01*
X1040Y1615D01*
X1040Y1617D01*
X1044Y1617D01*
X1044Y1619D01*
X1046Y1619D01*
X1046Y1621D01*
X1050Y1621D01*
X1050Y1623D01*
X1054Y1623D01*
X1054Y1625D01*
X1060Y1625D01*
X1060Y1627D01*
X822Y1627D01*
G37*
D02*
G36*
X854Y1553D02*
X854Y1551D01*
X852Y1551D01*
X852Y1549D01*
X850Y1549D01*
X850Y1545D01*
X848Y1545D01*
X848Y1543D01*
X846Y1543D01*
X846Y1541D01*
X842Y1541D01*
X842Y1539D01*
X840Y1539D01*
X840Y1537D01*
X838Y1537D01*
X838Y1535D01*
X834Y1535D01*
X834Y1533D01*
X830Y1533D01*
X830Y1531D01*
X824Y1531D01*
X824Y1529D01*
X814Y1529D01*
X814Y1527D01*
X1068Y1527D01*
X1068Y1529D01*
X1058Y1529D01*
X1058Y1531D01*
X1052Y1531D01*
X1052Y1533D01*
X1048Y1533D01*
X1048Y1535D01*
X1044Y1535D01*
X1044Y1537D01*
X1042Y1537D01*
X1042Y1539D01*
X1040Y1539D01*
X1040Y1541D01*
X1038Y1541D01*
X1038Y1543D01*
X1034Y1543D01*
X1034Y1547D01*
X1032Y1547D01*
X1032Y1549D01*
X1030Y1549D01*
X1030Y1551D01*
X1028Y1551D01*
X1028Y1553D01*
X854Y1553D01*
G37*
D02*
G36*
X202Y1527D02*
X202Y1525D01*
X1682Y1525D01*
X1682Y1527D01*
X202Y1527D01*
G37*
D02*
G36*
X202Y1527D02*
X202Y1525D01*
X1682Y1525D01*
X1682Y1527D01*
X202Y1527D01*
G37*
D02*
G36*
X202Y1527D02*
X202Y1525D01*
X1682Y1525D01*
X1682Y1527D01*
X202Y1527D01*
G37*
D02*
G36*
X40Y1525D02*
X40Y1523D01*
X1848Y1523D01*
X1848Y1525D01*
X40Y1525D01*
G37*
D02*
G36*
X40Y1525D02*
X40Y1523D01*
X1848Y1523D01*
X1848Y1525D01*
X40Y1525D01*
G37*
D02*
G36*
X40Y1525D02*
X40Y1523D01*
X1848Y1523D01*
X1848Y1525D01*
X40Y1525D01*
G37*
D02*
G36*
X40Y1523D02*
X40Y1449D01*
X1080Y1449D01*
X1080Y1447D01*
X1086Y1447D01*
X1086Y1445D01*
X1090Y1445D01*
X1090Y1443D01*
X1092Y1443D01*
X1092Y1441D01*
X1096Y1441D01*
X1096Y1439D01*
X1098Y1439D01*
X1098Y1437D01*
X1100Y1437D01*
X1100Y1435D01*
X1102Y1435D01*
X1102Y1433D01*
X1104Y1433D01*
X1104Y1431D01*
X1106Y1431D01*
X1106Y1429D01*
X1108Y1429D01*
X1108Y1427D01*
X1110Y1427D01*
X1110Y1423D01*
X1112Y1423D01*
X1112Y1421D01*
X1114Y1421D01*
X1114Y1417D01*
X1116Y1417D01*
X1116Y1411D01*
X1118Y1411D01*
X1118Y1391D01*
X1116Y1391D01*
X1116Y1385D01*
X1114Y1385D01*
X1114Y1381D01*
X1112Y1381D01*
X1112Y1377D01*
X1110Y1377D01*
X1110Y1373D01*
X1108Y1373D01*
X1108Y1371D01*
X1106Y1371D01*
X1106Y1369D01*
X1104Y1369D01*
X1104Y1367D01*
X1102Y1367D01*
X1102Y1365D01*
X1100Y1365D01*
X1100Y1363D01*
X1098Y1363D01*
X1098Y1361D01*
X1096Y1361D01*
X1096Y1359D01*
X1092Y1359D01*
X1092Y1357D01*
X1088Y1357D01*
X1088Y1355D01*
X1084Y1355D01*
X1084Y1353D01*
X1078Y1353D01*
X1078Y1351D01*
X1848Y1351D01*
X1848Y1523D01*
X40Y1523D01*
G37*
D02*
G36*
X40Y1449D02*
X40Y1351D01*
X804Y1351D01*
X804Y1353D01*
X798Y1353D01*
X798Y1355D01*
X794Y1355D01*
X794Y1357D01*
X790Y1357D01*
X790Y1359D01*
X786Y1359D01*
X786Y1361D01*
X784Y1361D01*
X784Y1363D01*
X782Y1363D01*
X782Y1365D01*
X780Y1365D01*
X780Y1367D01*
X778Y1367D01*
X778Y1369D01*
X776Y1369D01*
X776Y1371D01*
X774Y1371D01*
X774Y1373D01*
X772Y1373D01*
X772Y1377D01*
X770Y1377D01*
X770Y1381D01*
X768Y1381D01*
X768Y1385D01*
X766Y1385D01*
X766Y1391D01*
X764Y1391D01*
X764Y1411D01*
X766Y1411D01*
X766Y1415D01*
X768Y1415D01*
X768Y1421D01*
X770Y1421D01*
X770Y1423D01*
X772Y1423D01*
X772Y1427D01*
X774Y1427D01*
X774Y1429D01*
X776Y1429D01*
X776Y1431D01*
X778Y1431D01*
X778Y1433D01*
X780Y1433D01*
X780Y1435D01*
X782Y1435D01*
X782Y1437D01*
X784Y1437D01*
X784Y1439D01*
X786Y1439D01*
X786Y1441D01*
X790Y1441D01*
X790Y1443D01*
X792Y1443D01*
X792Y1445D01*
X796Y1445D01*
X796Y1447D01*
X802Y1447D01*
X802Y1449D01*
X40Y1449D01*
G37*
D02*
G36*
X824Y1449D02*
X824Y1447D01*
X830Y1447D01*
X830Y1445D01*
X834Y1445D01*
X834Y1443D01*
X836Y1443D01*
X836Y1441D01*
X840Y1441D01*
X840Y1439D01*
X842Y1439D01*
X842Y1437D01*
X844Y1437D01*
X844Y1435D01*
X848Y1435D01*
X848Y1431D01*
X850Y1431D01*
X850Y1429D01*
X852Y1429D01*
X852Y1427D01*
X854Y1427D01*
X854Y1425D01*
X1028Y1425D01*
X1028Y1427D01*
X1030Y1427D01*
X1030Y1429D01*
X1032Y1429D01*
X1032Y1431D01*
X1034Y1431D01*
X1034Y1433D01*
X1036Y1433D01*
X1036Y1435D01*
X1038Y1435D01*
X1038Y1437D01*
X1040Y1437D01*
X1040Y1439D01*
X1042Y1439D01*
X1042Y1441D01*
X1046Y1441D01*
X1046Y1443D01*
X1048Y1443D01*
X1048Y1445D01*
X1052Y1445D01*
X1052Y1447D01*
X1058Y1447D01*
X1058Y1449D01*
X824Y1449D01*
G37*
D02*
G36*
X854Y1377D02*
X854Y1373D01*
X852Y1373D01*
X852Y1371D01*
X850Y1371D01*
X850Y1369D01*
X848Y1369D01*
X848Y1367D01*
X846Y1367D01*
X846Y1365D01*
X844Y1365D01*
X844Y1363D01*
X842Y1363D01*
X842Y1361D01*
X840Y1361D01*
X840Y1359D01*
X836Y1359D01*
X836Y1357D01*
X832Y1357D01*
X832Y1355D01*
X828Y1355D01*
X828Y1353D01*
X822Y1353D01*
X822Y1351D01*
X1060Y1351D01*
X1060Y1353D01*
X1054Y1353D01*
X1054Y1355D01*
X1050Y1355D01*
X1050Y1357D01*
X1046Y1357D01*
X1046Y1359D01*
X1042Y1359D01*
X1042Y1361D01*
X1040Y1361D01*
X1040Y1363D01*
X1038Y1363D01*
X1038Y1365D01*
X1036Y1365D01*
X1036Y1367D01*
X1034Y1367D01*
X1034Y1369D01*
X1032Y1369D01*
X1032Y1371D01*
X1030Y1371D01*
X1030Y1373D01*
X1028Y1373D01*
X1028Y1377D01*
X854Y1377D01*
G37*
D02*
G36*
X40Y1351D02*
X40Y1349D01*
X1848Y1349D01*
X1848Y1351D01*
X40Y1351D01*
G37*
D02*
G36*
X40Y1351D02*
X40Y1349D01*
X1848Y1349D01*
X1848Y1351D01*
X40Y1351D01*
G37*
D02*
G36*
X40Y1351D02*
X40Y1349D01*
X1848Y1349D01*
X1848Y1351D01*
X40Y1351D01*
G37*
D02*
G36*
X40Y1349D02*
X40Y1249D01*
X1302Y1249D01*
X1302Y1247D01*
X1308Y1247D01*
X1308Y1245D01*
X1312Y1245D01*
X1312Y1243D01*
X1316Y1243D01*
X1316Y1241D01*
X1318Y1241D01*
X1318Y1239D01*
X1322Y1239D01*
X1322Y1237D01*
X1324Y1237D01*
X1324Y1235D01*
X1326Y1235D01*
X1326Y1233D01*
X1328Y1233D01*
X1328Y1231D01*
X1330Y1231D01*
X1330Y1229D01*
X1332Y1229D01*
X1332Y1225D01*
X1334Y1225D01*
X1334Y1221D01*
X1336Y1221D01*
X1336Y1219D01*
X1338Y1219D01*
X1338Y1213D01*
X1340Y1213D01*
X1340Y1207D01*
X1342Y1207D01*
X1342Y1195D01*
X1340Y1195D01*
X1340Y1187D01*
X1338Y1187D01*
X1338Y1181D01*
X1336Y1181D01*
X1336Y1179D01*
X1334Y1179D01*
X1334Y1175D01*
X1332Y1175D01*
X1332Y1173D01*
X1330Y1173D01*
X1330Y1169D01*
X1328Y1169D01*
X1328Y1167D01*
X1326Y1167D01*
X1326Y1165D01*
X1324Y1165D01*
X1324Y1163D01*
X1320Y1163D01*
X1320Y1161D01*
X1318Y1161D01*
X1318Y1159D01*
X1316Y1159D01*
X1316Y1157D01*
X1312Y1157D01*
X1312Y1155D01*
X1308Y1155D01*
X1308Y1153D01*
X1302Y1153D01*
X1302Y1151D01*
X1848Y1151D01*
X1848Y1349D01*
X40Y1349D01*
G37*
D02*
G36*
X40Y1249D02*
X40Y1151D01*
X582Y1151D01*
X582Y1153D01*
X576Y1153D01*
X576Y1155D01*
X572Y1155D01*
X572Y1157D01*
X568Y1157D01*
X568Y1159D01*
X566Y1159D01*
X566Y1161D01*
X564Y1161D01*
X564Y1163D01*
X560Y1163D01*
X560Y1165D01*
X558Y1165D01*
X558Y1167D01*
X556Y1167D01*
X556Y1171D01*
X554Y1171D01*
X554Y1173D01*
X552Y1173D01*
X552Y1175D01*
X550Y1175D01*
X550Y1179D01*
X548Y1179D01*
X548Y1183D01*
X546Y1183D01*
X546Y1187D01*
X544Y1187D01*
X544Y1195D01*
X542Y1195D01*
X542Y1205D01*
X544Y1205D01*
X544Y1213D01*
X546Y1213D01*
X546Y1219D01*
X548Y1219D01*
X548Y1221D01*
X550Y1221D01*
X550Y1225D01*
X552Y1225D01*
X552Y1227D01*
X554Y1227D01*
X554Y1231D01*
X556Y1231D01*
X556Y1233D01*
X558Y1233D01*
X558Y1235D01*
X560Y1235D01*
X560Y1237D01*
X562Y1237D01*
X562Y1239D01*
X566Y1239D01*
X566Y1241D01*
X568Y1241D01*
X568Y1243D01*
X572Y1243D01*
X572Y1245D01*
X576Y1245D01*
X576Y1247D01*
X582Y1247D01*
X582Y1249D01*
X40Y1249D01*
G37*
D02*
G36*
X602Y1249D02*
X602Y1247D01*
X608Y1247D01*
X608Y1245D01*
X612Y1245D01*
X612Y1243D01*
X616Y1243D01*
X616Y1241D01*
X618Y1241D01*
X618Y1239D01*
X622Y1239D01*
X622Y1237D01*
X624Y1237D01*
X624Y1235D01*
X626Y1235D01*
X626Y1233D01*
X628Y1233D01*
X628Y1231D01*
X630Y1231D01*
X630Y1229D01*
X632Y1229D01*
X632Y1225D01*
X634Y1225D01*
X634Y1221D01*
X636Y1221D01*
X636Y1219D01*
X638Y1219D01*
X638Y1213D01*
X640Y1213D01*
X640Y1207D01*
X642Y1207D01*
X642Y1195D01*
X640Y1195D01*
X640Y1187D01*
X638Y1187D01*
X638Y1181D01*
X636Y1181D01*
X636Y1179D01*
X634Y1179D01*
X634Y1175D01*
X632Y1175D01*
X632Y1173D01*
X630Y1173D01*
X630Y1169D01*
X628Y1169D01*
X628Y1167D01*
X626Y1167D01*
X626Y1165D01*
X624Y1165D01*
X624Y1163D01*
X620Y1163D01*
X620Y1161D01*
X618Y1161D01*
X618Y1159D01*
X616Y1159D01*
X616Y1157D01*
X612Y1157D01*
X612Y1155D01*
X608Y1155D01*
X608Y1153D01*
X602Y1153D01*
X602Y1151D01*
X1282Y1151D01*
X1282Y1153D01*
X1276Y1153D01*
X1276Y1155D01*
X1272Y1155D01*
X1272Y1157D01*
X1268Y1157D01*
X1268Y1159D01*
X1266Y1159D01*
X1266Y1161D01*
X1264Y1161D01*
X1264Y1163D01*
X1260Y1163D01*
X1260Y1165D01*
X1258Y1165D01*
X1258Y1167D01*
X1256Y1167D01*
X1256Y1171D01*
X1254Y1171D01*
X1254Y1173D01*
X1252Y1173D01*
X1252Y1175D01*
X1250Y1175D01*
X1250Y1179D01*
X1248Y1179D01*
X1248Y1183D01*
X1246Y1183D01*
X1246Y1187D01*
X1244Y1187D01*
X1244Y1195D01*
X1242Y1195D01*
X1242Y1205D01*
X1244Y1205D01*
X1244Y1213D01*
X1246Y1213D01*
X1246Y1219D01*
X1248Y1219D01*
X1248Y1221D01*
X1250Y1221D01*
X1250Y1225D01*
X1252Y1225D01*
X1252Y1227D01*
X1254Y1227D01*
X1254Y1231D01*
X1256Y1231D01*
X1256Y1233D01*
X1258Y1233D01*
X1258Y1235D01*
X1260Y1235D01*
X1260Y1237D01*
X1262Y1237D01*
X1262Y1239D01*
X1266Y1239D01*
X1266Y1241D01*
X1268Y1241D01*
X1268Y1243D01*
X1272Y1243D01*
X1272Y1245D01*
X1276Y1245D01*
X1276Y1247D01*
X1282Y1247D01*
X1282Y1249D01*
X602Y1249D01*
G37*
D02*
G36*
X40Y1151D02*
X40Y1149D01*
X1848Y1149D01*
X1848Y1151D01*
X40Y1151D01*
G37*
D02*
G36*
X40Y1151D02*
X40Y1149D01*
X1848Y1149D01*
X1848Y1151D01*
X40Y1151D01*
G37*
D02*
G36*
X40Y1151D02*
X40Y1149D01*
X1848Y1149D01*
X1848Y1151D01*
X40Y1151D01*
G37*
D02*
G36*
X40Y1149D02*
X40Y1027D01*
X1682Y1027D01*
X1682Y1025D01*
X1688Y1025D01*
X1688Y1023D01*
X1692Y1023D01*
X1692Y1021D01*
X1696Y1021D01*
X1696Y1019D01*
X1698Y1019D01*
X1698Y1017D01*
X1700Y1017D01*
X1700Y1015D01*
X1704Y1015D01*
X1704Y1013D01*
X1706Y1013D01*
X1706Y1011D01*
X1708Y1011D01*
X1708Y1009D01*
X1710Y1009D01*
X1710Y1005D01*
X1712Y1005D01*
X1712Y1003D01*
X1714Y1003D01*
X1714Y999D01*
X1716Y999D01*
X1716Y997D01*
X1718Y997D01*
X1718Y991D01*
X1720Y991D01*
X1720Y985D01*
X1722Y985D01*
X1722Y971D01*
X1720Y971D01*
X1720Y963D01*
X1718Y963D01*
X1718Y959D01*
X1716Y959D01*
X1716Y955D01*
X1714Y955D01*
X1714Y953D01*
X1712Y953D01*
X1712Y949D01*
X1710Y949D01*
X1710Y947D01*
X1708Y947D01*
X1708Y945D01*
X1706Y945D01*
X1706Y943D01*
X1704Y943D01*
X1704Y941D01*
X1702Y941D01*
X1702Y939D01*
X1700Y939D01*
X1700Y937D01*
X1696Y937D01*
X1696Y935D01*
X1692Y935D01*
X1692Y933D01*
X1688Y933D01*
X1688Y931D01*
X1684Y931D01*
X1684Y929D01*
X1848Y929D01*
X1848Y1149D01*
X40Y1149D01*
G37*
D02*
G36*
X40Y1027D02*
X40Y929D01*
X202Y929D01*
X202Y931D01*
X196Y931D01*
X196Y933D01*
X192Y933D01*
X192Y935D01*
X190Y935D01*
X190Y937D01*
X186Y937D01*
X186Y939D01*
X184Y939D01*
X184Y941D01*
X182Y941D01*
X182Y943D01*
X180Y943D01*
X180Y945D01*
X178Y945D01*
X178Y947D01*
X176Y947D01*
X176Y949D01*
X174Y949D01*
X174Y951D01*
X172Y951D01*
X172Y955D01*
X170Y955D01*
X170Y957D01*
X168Y957D01*
X168Y963D01*
X166Y963D01*
X166Y967D01*
X164Y967D01*
X164Y987D01*
X166Y987D01*
X166Y993D01*
X168Y993D01*
X168Y997D01*
X170Y997D01*
X170Y1001D01*
X172Y1001D01*
X172Y1005D01*
X174Y1005D01*
X174Y1007D01*
X176Y1007D01*
X176Y1009D01*
X178Y1009D01*
X178Y1011D01*
X180Y1011D01*
X180Y1013D01*
X182Y1013D01*
X182Y1015D01*
X184Y1015D01*
X184Y1017D01*
X186Y1017D01*
X186Y1019D01*
X190Y1019D01*
X190Y1021D01*
X194Y1021D01*
X194Y1023D01*
X198Y1023D01*
X198Y1025D01*
X204Y1025D01*
X204Y1027D01*
X40Y1027D01*
G37*
D02*
G36*
X222Y1027D02*
X222Y1025D01*
X228Y1025D01*
X228Y1023D01*
X232Y1023D01*
X232Y1021D01*
X236Y1021D01*
X236Y1019D01*
X240Y1019D01*
X240Y1017D01*
X242Y1017D01*
X242Y1015D01*
X244Y1015D01*
X244Y1013D01*
X246Y1013D01*
X246Y1011D01*
X248Y1011D01*
X248Y1009D01*
X250Y1009D01*
X250Y1007D01*
X252Y1007D01*
X252Y1005D01*
X254Y1005D01*
X254Y1001D01*
X428Y1001D01*
X428Y1005D01*
X430Y1005D01*
X430Y1007D01*
X432Y1007D01*
X432Y1009D01*
X434Y1009D01*
X434Y1011D01*
X436Y1011D01*
X436Y1013D01*
X438Y1013D01*
X438Y1015D01*
X440Y1015D01*
X440Y1017D01*
X442Y1017D01*
X442Y1019D01*
X446Y1019D01*
X446Y1021D01*
X450Y1021D01*
X450Y1023D01*
X454Y1023D01*
X454Y1025D01*
X460Y1025D01*
X460Y1027D01*
X222Y1027D01*
G37*
D02*
G36*
X478Y1027D02*
X478Y1025D01*
X484Y1025D01*
X484Y1023D01*
X488Y1023D01*
X488Y1021D01*
X492Y1021D01*
X492Y1019D01*
X496Y1019D01*
X496Y1017D01*
X498Y1017D01*
X498Y1015D01*
X500Y1015D01*
X500Y1013D01*
X502Y1013D01*
X502Y1011D01*
X504Y1011D01*
X504Y1009D01*
X506Y1009D01*
X506Y1007D01*
X508Y1007D01*
X508Y1005D01*
X510Y1005D01*
X510Y1001D01*
X512Y1001D01*
X512Y997D01*
X514Y997D01*
X514Y993D01*
X516Y993D01*
X516Y987D01*
X518Y987D01*
X518Y967D01*
X516Y967D01*
X516Y961D01*
X514Y961D01*
X514Y957D01*
X512Y957D01*
X512Y955D01*
X510Y955D01*
X510Y951D01*
X508Y951D01*
X508Y949D01*
X602Y949D01*
X602Y947D01*
X608Y947D01*
X608Y945D01*
X612Y945D01*
X612Y943D01*
X616Y943D01*
X616Y941D01*
X618Y941D01*
X618Y939D01*
X622Y939D01*
X622Y937D01*
X624Y937D01*
X624Y935D01*
X626Y935D01*
X626Y933D01*
X628Y933D01*
X628Y931D01*
X630Y931D01*
X630Y929D01*
X802Y929D01*
X802Y931D01*
X796Y931D01*
X796Y933D01*
X792Y933D01*
X792Y935D01*
X790Y935D01*
X790Y937D01*
X786Y937D01*
X786Y939D01*
X784Y939D01*
X784Y941D01*
X782Y941D01*
X782Y943D01*
X780Y943D01*
X780Y945D01*
X778Y945D01*
X778Y947D01*
X776Y947D01*
X776Y949D01*
X774Y949D01*
X774Y951D01*
X772Y951D01*
X772Y955D01*
X770Y955D01*
X770Y957D01*
X768Y957D01*
X768Y963D01*
X766Y963D01*
X766Y967D01*
X764Y967D01*
X764Y987D01*
X766Y987D01*
X766Y993D01*
X768Y993D01*
X768Y997D01*
X770Y997D01*
X770Y1001D01*
X772Y1001D01*
X772Y1005D01*
X774Y1005D01*
X774Y1007D01*
X776Y1007D01*
X776Y1009D01*
X778Y1009D01*
X778Y1011D01*
X780Y1011D01*
X780Y1013D01*
X782Y1013D01*
X782Y1015D01*
X784Y1015D01*
X784Y1017D01*
X786Y1017D01*
X786Y1019D01*
X790Y1019D01*
X790Y1021D01*
X794Y1021D01*
X794Y1023D01*
X798Y1023D01*
X798Y1025D01*
X804Y1025D01*
X804Y1027D01*
X478Y1027D01*
G37*
D02*
G36*
X822Y1027D02*
X822Y1025D01*
X828Y1025D01*
X828Y1023D01*
X832Y1023D01*
X832Y1021D01*
X836Y1021D01*
X836Y1019D01*
X840Y1019D01*
X840Y1017D01*
X842Y1017D01*
X842Y1015D01*
X844Y1015D01*
X844Y1013D01*
X846Y1013D01*
X846Y1011D01*
X848Y1011D01*
X848Y1009D01*
X850Y1009D01*
X850Y1007D01*
X852Y1007D01*
X852Y1005D01*
X854Y1005D01*
X854Y1001D01*
X1028Y1001D01*
X1028Y1005D01*
X1030Y1005D01*
X1030Y1007D01*
X1032Y1007D01*
X1032Y1009D01*
X1034Y1009D01*
X1034Y1011D01*
X1036Y1011D01*
X1036Y1013D01*
X1038Y1013D01*
X1038Y1015D01*
X1040Y1015D01*
X1040Y1017D01*
X1042Y1017D01*
X1042Y1019D01*
X1046Y1019D01*
X1046Y1021D01*
X1050Y1021D01*
X1050Y1023D01*
X1054Y1023D01*
X1054Y1025D01*
X1060Y1025D01*
X1060Y1027D01*
X822Y1027D01*
G37*
D02*
G36*
X1078Y1027D02*
X1078Y1025D01*
X1084Y1025D01*
X1084Y1023D01*
X1088Y1023D01*
X1088Y1021D01*
X1092Y1021D01*
X1092Y1019D01*
X1096Y1019D01*
X1096Y1017D01*
X1098Y1017D01*
X1098Y1015D01*
X1100Y1015D01*
X1100Y1013D01*
X1102Y1013D01*
X1102Y1011D01*
X1104Y1011D01*
X1104Y1009D01*
X1106Y1009D01*
X1106Y1007D01*
X1108Y1007D01*
X1108Y1005D01*
X1110Y1005D01*
X1110Y1001D01*
X1112Y1001D01*
X1112Y997D01*
X1114Y997D01*
X1114Y993D01*
X1116Y993D01*
X1116Y987D01*
X1118Y987D01*
X1118Y967D01*
X1116Y967D01*
X1116Y961D01*
X1114Y961D01*
X1114Y957D01*
X1112Y957D01*
X1112Y955D01*
X1110Y955D01*
X1110Y951D01*
X1108Y951D01*
X1108Y949D01*
X1302Y949D01*
X1302Y947D01*
X1308Y947D01*
X1308Y945D01*
X1312Y945D01*
X1312Y943D01*
X1316Y943D01*
X1316Y941D01*
X1318Y941D01*
X1318Y939D01*
X1322Y939D01*
X1322Y937D01*
X1324Y937D01*
X1324Y935D01*
X1326Y935D01*
X1326Y933D01*
X1328Y933D01*
X1328Y931D01*
X1330Y931D01*
X1330Y929D01*
X1406Y929D01*
X1406Y931D01*
X1400Y931D01*
X1400Y933D01*
X1396Y933D01*
X1396Y935D01*
X1392Y935D01*
X1392Y937D01*
X1390Y937D01*
X1390Y939D01*
X1388Y939D01*
X1388Y941D01*
X1384Y941D01*
X1384Y943D01*
X1382Y943D01*
X1382Y945D01*
X1380Y945D01*
X1380Y947D01*
X1378Y947D01*
X1378Y951D01*
X1376Y951D01*
X1376Y953D01*
X1374Y953D01*
X1374Y957D01*
X1372Y957D01*
X1372Y961D01*
X1370Y961D01*
X1370Y965D01*
X1368Y965D01*
X1368Y977D01*
X1366Y977D01*
X1366Y979D01*
X1368Y979D01*
X1368Y989D01*
X1370Y989D01*
X1370Y995D01*
X1372Y995D01*
X1372Y999D01*
X1374Y999D01*
X1374Y1003D01*
X1376Y1003D01*
X1376Y1005D01*
X1378Y1005D01*
X1378Y1007D01*
X1380Y1007D01*
X1380Y1009D01*
X1382Y1009D01*
X1382Y1011D01*
X1384Y1011D01*
X1384Y1013D01*
X1386Y1013D01*
X1386Y1015D01*
X1388Y1015D01*
X1388Y1017D01*
X1390Y1017D01*
X1390Y1019D01*
X1394Y1019D01*
X1394Y1021D01*
X1396Y1021D01*
X1396Y1023D01*
X1402Y1023D01*
X1402Y1025D01*
X1408Y1025D01*
X1408Y1027D01*
X1078Y1027D01*
G37*
D02*
G36*
X1426Y1027D02*
X1426Y1025D01*
X1432Y1025D01*
X1432Y1023D01*
X1436Y1023D01*
X1436Y1021D01*
X1440Y1021D01*
X1440Y1019D01*
X1442Y1019D01*
X1442Y1017D01*
X1446Y1017D01*
X1446Y1015D01*
X1448Y1015D01*
X1448Y1013D01*
X1450Y1013D01*
X1450Y1011D01*
X1452Y1011D01*
X1452Y1009D01*
X1454Y1009D01*
X1454Y1005D01*
X1456Y1005D01*
X1456Y1003D01*
X1458Y1003D01*
X1458Y1001D01*
X1630Y1001D01*
X1630Y1003D01*
X1632Y1003D01*
X1632Y1005D01*
X1634Y1005D01*
X1634Y1007D01*
X1636Y1007D01*
X1636Y1009D01*
X1638Y1009D01*
X1638Y1013D01*
X1642Y1013D01*
X1642Y1015D01*
X1644Y1015D01*
X1644Y1017D01*
X1646Y1017D01*
X1646Y1019D01*
X1650Y1019D01*
X1650Y1021D01*
X1652Y1021D01*
X1652Y1023D01*
X1658Y1023D01*
X1658Y1025D01*
X1664Y1025D01*
X1664Y1027D01*
X1426Y1027D01*
G37*
D02*
G36*
X254Y953D02*
X254Y951D01*
X252Y951D01*
X252Y949D01*
X250Y949D01*
X250Y947D01*
X248Y947D01*
X248Y943D01*
X244Y943D01*
X244Y941D01*
X242Y941D01*
X242Y939D01*
X240Y939D01*
X240Y937D01*
X238Y937D01*
X238Y935D01*
X234Y935D01*
X234Y933D01*
X230Y933D01*
X230Y931D01*
X224Y931D01*
X224Y929D01*
X458Y929D01*
X458Y931D01*
X452Y931D01*
X452Y933D01*
X448Y933D01*
X448Y935D01*
X446Y935D01*
X446Y937D01*
X442Y937D01*
X442Y939D01*
X440Y939D01*
X440Y941D01*
X438Y941D01*
X438Y943D01*
X436Y943D01*
X436Y945D01*
X434Y945D01*
X434Y947D01*
X432Y947D01*
X432Y949D01*
X430Y949D01*
X430Y951D01*
X428Y951D01*
X428Y953D01*
X254Y953D01*
G37*
D02*
G36*
X854Y953D02*
X854Y951D01*
X852Y951D01*
X852Y949D01*
X850Y949D01*
X850Y947D01*
X848Y947D01*
X848Y943D01*
X844Y943D01*
X844Y941D01*
X842Y941D01*
X842Y939D01*
X840Y939D01*
X840Y937D01*
X838Y937D01*
X838Y935D01*
X834Y935D01*
X834Y933D01*
X830Y933D01*
X830Y931D01*
X824Y931D01*
X824Y929D01*
X1058Y929D01*
X1058Y931D01*
X1052Y931D01*
X1052Y933D01*
X1048Y933D01*
X1048Y935D01*
X1046Y935D01*
X1046Y937D01*
X1042Y937D01*
X1042Y939D01*
X1040Y939D01*
X1040Y941D01*
X1038Y941D01*
X1038Y943D01*
X1036Y943D01*
X1036Y945D01*
X1034Y945D01*
X1034Y947D01*
X1032Y947D01*
X1032Y949D01*
X1030Y949D01*
X1030Y951D01*
X1028Y951D01*
X1028Y953D01*
X854Y953D01*
G37*
D02*
G36*
X1458Y953D02*
X1458Y951D01*
X1456Y951D01*
X1456Y949D01*
X1454Y949D01*
X1454Y947D01*
X1452Y947D01*
X1452Y945D01*
X1450Y945D01*
X1450Y943D01*
X1448Y943D01*
X1448Y941D01*
X1446Y941D01*
X1446Y939D01*
X1444Y939D01*
X1444Y937D01*
X1440Y937D01*
X1440Y935D01*
X1436Y935D01*
X1436Y933D01*
X1432Y933D01*
X1432Y931D01*
X1428Y931D01*
X1428Y929D01*
X1662Y929D01*
X1662Y931D01*
X1656Y931D01*
X1656Y933D01*
X1652Y933D01*
X1652Y935D01*
X1648Y935D01*
X1648Y937D01*
X1646Y937D01*
X1646Y939D01*
X1642Y939D01*
X1642Y941D01*
X1640Y941D01*
X1640Y943D01*
X1638Y943D01*
X1638Y945D01*
X1636Y945D01*
X1636Y947D01*
X1634Y947D01*
X1634Y951D01*
X1632Y951D01*
X1632Y953D01*
X1458Y953D01*
G37*
D02*
G36*
X506Y949D02*
X506Y947D01*
X504Y947D01*
X504Y945D01*
X502Y945D01*
X502Y943D01*
X500Y943D01*
X500Y941D01*
X498Y941D01*
X498Y939D01*
X496Y939D01*
X496Y937D01*
X492Y937D01*
X492Y935D01*
X490Y935D01*
X490Y933D01*
X486Y933D01*
X486Y931D01*
X480Y931D01*
X480Y929D01*
X554Y929D01*
X554Y931D01*
X556Y931D01*
X556Y933D01*
X558Y933D01*
X558Y935D01*
X560Y935D01*
X560Y937D01*
X562Y937D01*
X562Y939D01*
X566Y939D01*
X566Y941D01*
X568Y941D01*
X568Y943D01*
X572Y943D01*
X572Y945D01*
X576Y945D01*
X576Y947D01*
X582Y947D01*
X582Y949D01*
X506Y949D01*
G37*
D02*
G36*
X1106Y949D02*
X1106Y947D01*
X1104Y947D01*
X1104Y945D01*
X1102Y945D01*
X1102Y943D01*
X1100Y943D01*
X1100Y941D01*
X1098Y941D01*
X1098Y939D01*
X1096Y939D01*
X1096Y937D01*
X1092Y937D01*
X1092Y935D01*
X1090Y935D01*
X1090Y933D01*
X1086Y933D01*
X1086Y931D01*
X1080Y931D01*
X1080Y929D01*
X1254Y929D01*
X1254Y931D01*
X1256Y931D01*
X1256Y933D01*
X1258Y933D01*
X1258Y935D01*
X1260Y935D01*
X1260Y937D01*
X1262Y937D01*
X1262Y939D01*
X1266Y939D01*
X1266Y941D01*
X1268Y941D01*
X1268Y943D01*
X1272Y943D01*
X1272Y945D01*
X1276Y945D01*
X1276Y947D01*
X1282Y947D01*
X1282Y949D01*
X1106Y949D01*
G37*
D02*
G36*
X40Y929D02*
X40Y927D01*
X554Y927D01*
X554Y929D01*
X40Y929D01*
G37*
D02*
G36*
X40Y929D02*
X40Y927D01*
X554Y927D01*
X554Y929D01*
X40Y929D01*
G37*
D02*
G36*
X40Y929D02*
X40Y927D01*
X554Y927D01*
X554Y929D01*
X40Y929D01*
G37*
D02*
G36*
X632Y929D02*
X632Y927D01*
X1254Y927D01*
X1254Y929D01*
X632Y929D01*
G37*
D02*
G36*
X632Y929D02*
X632Y927D01*
X1254Y927D01*
X1254Y929D01*
X632Y929D01*
G37*
D02*
G36*
X632Y929D02*
X632Y927D01*
X1254Y927D01*
X1254Y929D01*
X632Y929D01*
G37*
D02*
G36*
X1332Y929D02*
X1332Y927D01*
X1848Y927D01*
X1848Y929D01*
X1332Y929D01*
G37*
D02*
G36*
X1332Y929D02*
X1332Y927D01*
X1848Y927D01*
X1848Y929D01*
X1332Y929D01*
G37*
D02*
G36*
X1332Y929D02*
X1332Y927D01*
X1848Y927D01*
X1848Y929D01*
X1332Y929D01*
G37*
D02*
G36*
X40Y927D02*
X40Y849D01*
X480Y849D01*
X480Y847D01*
X486Y847D01*
X486Y845D01*
X490Y845D01*
X490Y843D01*
X494Y843D01*
X494Y841D01*
X496Y841D01*
X496Y839D01*
X498Y839D01*
X498Y837D01*
X500Y837D01*
X500Y835D01*
X504Y835D01*
X504Y831D01*
X506Y831D01*
X506Y829D01*
X508Y829D01*
X508Y827D01*
X510Y827D01*
X510Y823D01*
X512Y823D01*
X512Y821D01*
X514Y821D01*
X514Y817D01*
X516Y817D01*
X516Y811D01*
X518Y811D01*
X518Y791D01*
X516Y791D01*
X516Y785D01*
X514Y785D01*
X514Y781D01*
X512Y781D01*
X512Y777D01*
X510Y777D01*
X510Y773D01*
X508Y773D01*
X508Y771D01*
X506Y771D01*
X506Y769D01*
X504Y769D01*
X504Y767D01*
X502Y767D01*
X502Y765D01*
X500Y765D01*
X500Y763D01*
X498Y763D01*
X498Y761D01*
X494Y761D01*
X494Y759D01*
X492Y759D01*
X492Y757D01*
X488Y757D01*
X488Y755D01*
X484Y755D01*
X484Y753D01*
X478Y753D01*
X478Y751D01*
X582Y751D01*
X582Y753D01*
X576Y753D01*
X576Y755D01*
X572Y755D01*
X572Y757D01*
X568Y757D01*
X568Y759D01*
X566Y759D01*
X566Y761D01*
X564Y761D01*
X564Y763D01*
X560Y763D01*
X560Y765D01*
X558Y765D01*
X558Y767D01*
X556Y767D01*
X556Y771D01*
X554Y771D01*
X554Y773D01*
X552Y773D01*
X552Y775D01*
X550Y775D01*
X550Y779D01*
X548Y779D01*
X548Y783D01*
X546Y783D01*
X546Y787D01*
X544Y787D01*
X544Y795D01*
X542Y795D01*
X542Y805D01*
X544Y805D01*
X544Y813D01*
X546Y813D01*
X546Y819D01*
X548Y819D01*
X548Y821D01*
X550Y821D01*
X550Y825D01*
X552Y825D01*
X552Y827D01*
X554Y827D01*
X554Y831D01*
X556Y831D01*
X556Y833D01*
X558Y833D01*
X558Y835D01*
X560Y835D01*
X560Y837D01*
X562Y837D01*
X562Y839D01*
X566Y839D01*
X566Y861D01*
X564Y861D01*
X564Y863D01*
X560Y863D01*
X560Y865D01*
X558Y865D01*
X558Y867D01*
X556Y867D01*
X556Y871D01*
X554Y871D01*
X554Y873D01*
X552Y873D01*
X552Y875D01*
X550Y875D01*
X550Y879D01*
X548Y879D01*
X548Y883D01*
X546Y883D01*
X546Y887D01*
X544Y887D01*
X544Y895D01*
X542Y895D01*
X542Y905D01*
X544Y905D01*
X544Y913D01*
X546Y913D01*
X546Y919D01*
X548Y919D01*
X548Y921D01*
X550Y921D01*
X550Y925D01*
X552Y925D01*
X552Y927D01*
X40Y927D01*
G37*
D02*
G36*
X632Y927D02*
X632Y925D01*
X634Y925D01*
X634Y921D01*
X636Y921D01*
X636Y919D01*
X638Y919D01*
X638Y913D01*
X640Y913D01*
X640Y907D01*
X642Y907D01*
X642Y895D01*
X640Y895D01*
X640Y887D01*
X638Y887D01*
X638Y881D01*
X636Y881D01*
X636Y879D01*
X634Y879D01*
X634Y875D01*
X632Y875D01*
X632Y873D01*
X630Y873D01*
X630Y869D01*
X628Y869D01*
X628Y867D01*
X626Y867D01*
X626Y865D01*
X624Y865D01*
X624Y863D01*
X620Y863D01*
X620Y861D01*
X618Y861D01*
X618Y849D01*
X1202Y849D01*
X1202Y847D01*
X1208Y847D01*
X1208Y845D01*
X1212Y845D01*
X1212Y843D01*
X1216Y843D01*
X1216Y841D01*
X1218Y841D01*
X1218Y839D01*
X1222Y839D01*
X1222Y837D01*
X1224Y837D01*
X1224Y835D01*
X1226Y835D01*
X1226Y833D01*
X1228Y833D01*
X1228Y831D01*
X1230Y831D01*
X1230Y829D01*
X1232Y829D01*
X1232Y825D01*
X1252Y825D01*
X1252Y827D01*
X1254Y827D01*
X1254Y831D01*
X1256Y831D01*
X1256Y833D01*
X1258Y833D01*
X1258Y835D01*
X1260Y835D01*
X1260Y837D01*
X1262Y837D01*
X1262Y839D01*
X1266Y839D01*
X1266Y861D01*
X1264Y861D01*
X1264Y863D01*
X1260Y863D01*
X1260Y865D01*
X1258Y865D01*
X1258Y867D01*
X1256Y867D01*
X1256Y871D01*
X1254Y871D01*
X1254Y873D01*
X1252Y873D01*
X1252Y875D01*
X1250Y875D01*
X1250Y879D01*
X1248Y879D01*
X1248Y883D01*
X1246Y883D01*
X1246Y887D01*
X1244Y887D01*
X1244Y895D01*
X1242Y895D01*
X1242Y905D01*
X1244Y905D01*
X1244Y913D01*
X1246Y913D01*
X1246Y919D01*
X1248Y919D01*
X1248Y921D01*
X1250Y921D01*
X1250Y925D01*
X1252Y925D01*
X1252Y927D01*
X632Y927D01*
G37*
D02*
G36*
X1332Y927D02*
X1332Y925D01*
X1334Y925D01*
X1334Y921D01*
X1336Y921D01*
X1336Y919D01*
X1338Y919D01*
X1338Y913D01*
X1340Y913D01*
X1340Y907D01*
X1342Y907D01*
X1342Y895D01*
X1340Y895D01*
X1340Y887D01*
X1338Y887D01*
X1338Y881D01*
X1336Y881D01*
X1336Y879D01*
X1334Y879D01*
X1334Y875D01*
X1332Y875D01*
X1332Y873D01*
X1330Y873D01*
X1330Y869D01*
X1328Y869D01*
X1328Y867D01*
X1326Y867D01*
X1326Y865D01*
X1324Y865D01*
X1324Y863D01*
X1320Y863D01*
X1320Y861D01*
X1318Y861D01*
X1318Y849D01*
X1684Y849D01*
X1684Y847D01*
X1690Y847D01*
X1690Y845D01*
X1694Y845D01*
X1694Y843D01*
X1696Y843D01*
X1696Y841D01*
X1700Y841D01*
X1700Y839D01*
X1702Y839D01*
X1702Y837D01*
X1704Y837D01*
X1704Y835D01*
X1706Y835D01*
X1706Y833D01*
X1708Y833D01*
X1708Y831D01*
X1710Y831D01*
X1710Y829D01*
X1712Y829D01*
X1712Y827D01*
X1714Y827D01*
X1714Y823D01*
X1716Y823D01*
X1716Y819D01*
X1718Y819D01*
X1718Y815D01*
X1720Y815D01*
X1720Y807D01*
X1722Y807D01*
X1722Y793D01*
X1720Y793D01*
X1720Y787D01*
X1718Y787D01*
X1718Y781D01*
X1716Y781D01*
X1716Y779D01*
X1714Y779D01*
X1714Y775D01*
X1712Y775D01*
X1712Y773D01*
X1710Y773D01*
X1710Y769D01*
X1708Y769D01*
X1708Y767D01*
X1706Y767D01*
X1706Y765D01*
X1704Y765D01*
X1704Y763D01*
X1700Y763D01*
X1700Y761D01*
X1698Y761D01*
X1698Y759D01*
X1694Y759D01*
X1694Y757D01*
X1692Y757D01*
X1692Y755D01*
X1686Y755D01*
X1686Y753D01*
X1680Y753D01*
X1680Y751D01*
X1848Y751D01*
X1848Y927D01*
X1332Y927D01*
G37*
D02*
G36*
X40Y849D02*
X40Y751D01*
X204Y751D01*
X204Y753D01*
X198Y753D01*
X198Y755D01*
X194Y755D01*
X194Y757D01*
X190Y757D01*
X190Y759D01*
X188Y759D01*
X188Y761D01*
X184Y761D01*
X184Y763D01*
X182Y763D01*
X182Y765D01*
X180Y765D01*
X180Y767D01*
X178Y767D01*
X178Y769D01*
X176Y769D01*
X176Y771D01*
X174Y771D01*
X174Y775D01*
X172Y775D01*
X172Y777D01*
X170Y777D01*
X170Y781D01*
X168Y781D01*
X168Y785D01*
X166Y785D01*
X166Y791D01*
X164Y791D01*
X164Y811D01*
X166Y811D01*
X166Y815D01*
X168Y815D01*
X168Y821D01*
X170Y821D01*
X170Y823D01*
X172Y823D01*
X172Y827D01*
X174Y827D01*
X174Y829D01*
X176Y829D01*
X176Y831D01*
X178Y831D01*
X178Y835D01*
X182Y835D01*
X182Y837D01*
X184Y837D01*
X184Y839D01*
X186Y839D01*
X186Y841D01*
X188Y841D01*
X188Y843D01*
X192Y843D01*
X192Y845D01*
X196Y845D01*
X196Y847D01*
X202Y847D01*
X202Y849D01*
X40Y849D01*
G37*
D02*
G36*
X224Y849D02*
X224Y847D01*
X230Y847D01*
X230Y845D01*
X234Y845D01*
X234Y843D01*
X238Y843D01*
X238Y841D01*
X240Y841D01*
X240Y839D01*
X242Y839D01*
X242Y837D01*
X246Y837D01*
X246Y835D01*
X248Y835D01*
X248Y831D01*
X250Y831D01*
X250Y829D01*
X252Y829D01*
X252Y827D01*
X254Y827D01*
X254Y825D01*
X428Y825D01*
X428Y827D01*
X430Y827D01*
X430Y829D01*
X432Y829D01*
X432Y831D01*
X434Y831D01*
X434Y835D01*
X438Y835D01*
X438Y837D01*
X440Y837D01*
X440Y839D01*
X442Y839D01*
X442Y841D01*
X444Y841D01*
X444Y843D01*
X448Y843D01*
X448Y845D01*
X452Y845D01*
X452Y847D01*
X458Y847D01*
X458Y849D01*
X224Y849D01*
G37*
D02*
G36*
X618Y849D02*
X618Y839D01*
X622Y839D01*
X622Y837D01*
X624Y837D01*
X624Y835D01*
X626Y835D01*
X626Y833D01*
X628Y833D01*
X628Y831D01*
X630Y831D01*
X630Y829D01*
X632Y829D01*
X632Y825D01*
X652Y825D01*
X652Y827D01*
X654Y827D01*
X654Y831D01*
X656Y831D01*
X656Y833D01*
X658Y833D01*
X658Y835D01*
X660Y835D01*
X660Y837D01*
X662Y837D01*
X662Y839D01*
X666Y839D01*
X666Y841D01*
X668Y841D01*
X668Y843D01*
X672Y843D01*
X672Y845D01*
X676Y845D01*
X676Y847D01*
X682Y847D01*
X682Y849D01*
X618Y849D01*
G37*
D02*
G36*
X702Y849D02*
X702Y847D01*
X708Y847D01*
X708Y845D01*
X712Y845D01*
X712Y843D01*
X716Y843D01*
X716Y841D01*
X718Y841D01*
X718Y839D01*
X722Y839D01*
X722Y837D01*
X724Y837D01*
X724Y835D01*
X726Y835D01*
X726Y833D01*
X728Y833D01*
X728Y831D01*
X730Y831D01*
X730Y829D01*
X732Y829D01*
X732Y825D01*
X734Y825D01*
X734Y821D01*
X736Y821D01*
X736Y819D01*
X738Y819D01*
X738Y813D01*
X740Y813D01*
X740Y807D01*
X742Y807D01*
X742Y795D01*
X740Y795D01*
X740Y787D01*
X738Y787D01*
X738Y781D01*
X736Y781D01*
X736Y779D01*
X734Y779D01*
X734Y775D01*
X732Y775D01*
X732Y773D01*
X730Y773D01*
X730Y769D01*
X728Y769D01*
X728Y767D01*
X726Y767D01*
X726Y765D01*
X724Y765D01*
X724Y763D01*
X720Y763D01*
X720Y761D01*
X718Y761D01*
X718Y759D01*
X716Y759D01*
X716Y757D01*
X712Y757D01*
X712Y755D01*
X708Y755D01*
X708Y753D01*
X702Y753D01*
X702Y751D01*
X804Y751D01*
X804Y753D01*
X798Y753D01*
X798Y755D01*
X794Y755D01*
X794Y757D01*
X790Y757D01*
X790Y759D01*
X788Y759D01*
X788Y761D01*
X784Y761D01*
X784Y763D01*
X782Y763D01*
X782Y765D01*
X780Y765D01*
X780Y767D01*
X778Y767D01*
X778Y769D01*
X776Y769D01*
X776Y771D01*
X774Y771D01*
X774Y775D01*
X772Y775D01*
X772Y777D01*
X770Y777D01*
X770Y781D01*
X768Y781D01*
X768Y785D01*
X766Y785D01*
X766Y791D01*
X764Y791D01*
X764Y811D01*
X766Y811D01*
X766Y815D01*
X768Y815D01*
X768Y821D01*
X770Y821D01*
X770Y823D01*
X772Y823D01*
X772Y827D01*
X774Y827D01*
X774Y829D01*
X776Y829D01*
X776Y831D01*
X778Y831D01*
X778Y835D01*
X782Y835D01*
X782Y837D01*
X784Y837D01*
X784Y839D01*
X786Y839D01*
X786Y841D01*
X788Y841D01*
X788Y843D01*
X792Y843D01*
X792Y845D01*
X796Y845D01*
X796Y847D01*
X802Y847D01*
X802Y849D01*
X702Y849D01*
G37*
D02*
G36*
X824Y849D02*
X824Y847D01*
X830Y847D01*
X830Y845D01*
X834Y845D01*
X834Y843D01*
X838Y843D01*
X838Y841D01*
X840Y841D01*
X840Y839D01*
X842Y839D01*
X842Y837D01*
X846Y837D01*
X846Y835D01*
X848Y835D01*
X848Y831D01*
X850Y831D01*
X850Y829D01*
X852Y829D01*
X852Y827D01*
X854Y827D01*
X854Y825D01*
X1028Y825D01*
X1028Y827D01*
X1030Y827D01*
X1030Y829D01*
X1032Y829D01*
X1032Y831D01*
X1034Y831D01*
X1034Y835D01*
X1038Y835D01*
X1038Y837D01*
X1040Y837D01*
X1040Y839D01*
X1042Y839D01*
X1042Y841D01*
X1044Y841D01*
X1044Y843D01*
X1048Y843D01*
X1048Y845D01*
X1052Y845D01*
X1052Y847D01*
X1058Y847D01*
X1058Y849D01*
X824Y849D01*
G37*
D02*
G36*
X1080Y849D02*
X1080Y847D01*
X1086Y847D01*
X1086Y845D01*
X1090Y845D01*
X1090Y843D01*
X1094Y843D01*
X1094Y841D01*
X1096Y841D01*
X1096Y839D01*
X1098Y839D01*
X1098Y837D01*
X1100Y837D01*
X1100Y835D01*
X1104Y835D01*
X1104Y831D01*
X1106Y831D01*
X1106Y829D01*
X1108Y829D01*
X1108Y827D01*
X1110Y827D01*
X1110Y823D01*
X1112Y823D01*
X1112Y821D01*
X1114Y821D01*
X1114Y817D01*
X1116Y817D01*
X1116Y811D01*
X1118Y811D01*
X1118Y791D01*
X1116Y791D01*
X1116Y785D01*
X1114Y785D01*
X1114Y781D01*
X1112Y781D01*
X1112Y777D01*
X1110Y777D01*
X1110Y773D01*
X1108Y773D01*
X1108Y771D01*
X1106Y771D01*
X1106Y769D01*
X1104Y769D01*
X1104Y767D01*
X1102Y767D01*
X1102Y765D01*
X1100Y765D01*
X1100Y763D01*
X1098Y763D01*
X1098Y761D01*
X1094Y761D01*
X1094Y759D01*
X1092Y759D01*
X1092Y757D01*
X1088Y757D01*
X1088Y755D01*
X1084Y755D01*
X1084Y753D01*
X1078Y753D01*
X1078Y751D01*
X1182Y751D01*
X1182Y753D01*
X1176Y753D01*
X1176Y755D01*
X1172Y755D01*
X1172Y757D01*
X1168Y757D01*
X1168Y759D01*
X1166Y759D01*
X1166Y761D01*
X1164Y761D01*
X1164Y763D01*
X1160Y763D01*
X1160Y765D01*
X1158Y765D01*
X1158Y767D01*
X1156Y767D01*
X1156Y771D01*
X1154Y771D01*
X1154Y773D01*
X1152Y773D01*
X1152Y775D01*
X1150Y775D01*
X1150Y779D01*
X1148Y779D01*
X1148Y783D01*
X1146Y783D01*
X1146Y787D01*
X1144Y787D01*
X1144Y795D01*
X1142Y795D01*
X1142Y805D01*
X1144Y805D01*
X1144Y813D01*
X1146Y813D01*
X1146Y819D01*
X1148Y819D01*
X1148Y821D01*
X1150Y821D01*
X1150Y825D01*
X1152Y825D01*
X1152Y827D01*
X1154Y827D01*
X1154Y831D01*
X1156Y831D01*
X1156Y833D01*
X1158Y833D01*
X1158Y835D01*
X1160Y835D01*
X1160Y837D01*
X1162Y837D01*
X1162Y839D01*
X1166Y839D01*
X1166Y841D01*
X1168Y841D01*
X1168Y843D01*
X1172Y843D01*
X1172Y845D01*
X1176Y845D01*
X1176Y847D01*
X1182Y847D01*
X1182Y849D01*
X1080Y849D01*
G37*
D02*
G36*
X1318Y849D02*
X1318Y839D01*
X1322Y839D01*
X1322Y837D01*
X1324Y837D01*
X1324Y835D01*
X1326Y835D01*
X1326Y833D01*
X1328Y833D01*
X1328Y831D01*
X1330Y831D01*
X1330Y829D01*
X1332Y829D01*
X1332Y825D01*
X1334Y825D01*
X1334Y821D01*
X1336Y821D01*
X1336Y819D01*
X1338Y819D01*
X1338Y813D01*
X1340Y813D01*
X1340Y807D01*
X1342Y807D01*
X1342Y795D01*
X1340Y795D01*
X1340Y787D01*
X1338Y787D01*
X1338Y781D01*
X1336Y781D01*
X1336Y779D01*
X1334Y779D01*
X1334Y775D01*
X1332Y775D01*
X1332Y773D01*
X1330Y773D01*
X1330Y769D01*
X1328Y769D01*
X1328Y767D01*
X1326Y767D01*
X1326Y765D01*
X1324Y765D01*
X1324Y763D01*
X1320Y763D01*
X1320Y761D01*
X1318Y761D01*
X1318Y759D01*
X1316Y759D01*
X1316Y757D01*
X1312Y757D01*
X1312Y755D01*
X1308Y755D01*
X1308Y753D01*
X1302Y753D01*
X1302Y751D01*
X1408Y751D01*
X1408Y753D01*
X1402Y753D01*
X1402Y755D01*
X1398Y755D01*
X1398Y757D01*
X1394Y757D01*
X1394Y759D01*
X1390Y759D01*
X1390Y761D01*
X1388Y761D01*
X1388Y763D01*
X1386Y763D01*
X1386Y765D01*
X1384Y765D01*
X1384Y767D01*
X1382Y767D01*
X1382Y769D01*
X1380Y769D01*
X1380Y771D01*
X1378Y771D01*
X1378Y773D01*
X1376Y773D01*
X1376Y777D01*
X1374Y777D01*
X1374Y779D01*
X1372Y779D01*
X1372Y783D01*
X1370Y783D01*
X1370Y789D01*
X1368Y789D01*
X1368Y799D01*
X1366Y799D01*
X1366Y803D01*
X1368Y803D01*
X1368Y813D01*
X1370Y813D01*
X1370Y817D01*
X1372Y817D01*
X1372Y821D01*
X1374Y821D01*
X1374Y825D01*
X1376Y825D01*
X1376Y827D01*
X1378Y827D01*
X1378Y831D01*
X1380Y831D01*
X1380Y833D01*
X1382Y833D01*
X1382Y835D01*
X1384Y835D01*
X1384Y837D01*
X1386Y837D01*
X1386Y839D01*
X1390Y839D01*
X1390Y841D01*
X1392Y841D01*
X1392Y843D01*
X1396Y843D01*
X1396Y845D01*
X1400Y845D01*
X1400Y847D01*
X1404Y847D01*
X1404Y849D01*
X1318Y849D01*
G37*
D02*
G36*
X1428Y849D02*
X1428Y847D01*
X1434Y847D01*
X1434Y845D01*
X1438Y845D01*
X1438Y843D01*
X1440Y843D01*
X1440Y841D01*
X1444Y841D01*
X1444Y839D01*
X1446Y839D01*
X1446Y837D01*
X1448Y837D01*
X1448Y835D01*
X1450Y835D01*
X1450Y833D01*
X1452Y833D01*
X1452Y831D01*
X1454Y831D01*
X1454Y829D01*
X1456Y829D01*
X1456Y827D01*
X1458Y827D01*
X1458Y825D01*
X1632Y825D01*
X1632Y827D01*
X1634Y827D01*
X1634Y831D01*
X1636Y831D01*
X1636Y833D01*
X1638Y833D01*
X1638Y835D01*
X1640Y835D01*
X1640Y837D01*
X1642Y837D01*
X1642Y839D01*
X1646Y839D01*
X1646Y841D01*
X1648Y841D01*
X1648Y843D01*
X1652Y843D01*
X1652Y845D01*
X1656Y845D01*
X1656Y847D01*
X1660Y847D01*
X1660Y849D01*
X1428Y849D01*
G37*
D02*
G36*
X254Y777D02*
X254Y773D01*
X252Y773D01*
X252Y771D01*
X250Y771D01*
X250Y769D01*
X248Y769D01*
X248Y767D01*
X246Y767D01*
X246Y765D01*
X244Y765D01*
X244Y763D01*
X242Y763D01*
X242Y761D01*
X238Y761D01*
X238Y759D01*
X236Y759D01*
X236Y757D01*
X232Y757D01*
X232Y755D01*
X228Y755D01*
X228Y753D01*
X222Y753D01*
X222Y751D01*
X460Y751D01*
X460Y753D01*
X454Y753D01*
X454Y755D01*
X450Y755D01*
X450Y757D01*
X446Y757D01*
X446Y759D01*
X444Y759D01*
X444Y761D01*
X440Y761D01*
X440Y763D01*
X438Y763D01*
X438Y765D01*
X436Y765D01*
X436Y767D01*
X434Y767D01*
X434Y769D01*
X432Y769D01*
X432Y771D01*
X430Y771D01*
X430Y773D01*
X428Y773D01*
X428Y777D01*
X254Y777D01*
G37*
D02*
G36*
X854Y777D02*
X854Y773D01*
X852Y773D01*
X852Y771D01*
X850Y771D01*
X850Y769D01*
X848Y769D01*
X848Y767D01*
X846Y767D01*
X846Y765D01*
X844Y765D01*
X844Y763D01*
X842Y763D01*
X842Y761D01*
X838Y761D01*
X838Y759D01*
X836Y759D01*
X836Y757D01*
X832Y757D01*
X832Y755D01*
X828Y755D01*
X828Y753D01*
X822Y753D01*
X822Y751D01*
X1060Y751D01*
X1060Y753D01*
X1054Y753D01*
X1054Y755D01*
X1050Y755D01*
X1050Y757D01*
X1046Y757D01*
X1046Y759D01*
X1044Y759D01*
X1044Y761D01*
X1040Y761D01*
X1040Y763D01*
X1038Y763D01*
X1038Y765D01*
X1036Y765D01*
X1036Y767D01*
X1034Y767D01*
X1034Y769D01*
X1032Y769D01*
X1032Y771D01*
X1030Y771D01*
X1030Y773D01*
X1028Y773D01*
X1028Y777D01*
X854Y777D01*
G37*
D02*
G36*
X1458Y777D02*
X1458Y775D01*
X1456Y775D01*
X1456Y773D01*
X1454Y773D01*
X1454Y769D01*
X1452Y769D01*
X1452Y767D01*
X1450Y767D01*
X1450Y765D01*
X1448Y765D01*
X1448Y763D01*
X1444Y763D01*
X1444Y761D01*
X1442Y761D01*
X1442Y759D01*
X1438Y759D01*
X1438Y757D01*
X1436Y757D01*
X1436Y755D01*
X1430Y755D01*
X1430Y753D01*
X1424Y753D01*
X1424Y751D01*
X1664Y751D01*
X1664Y753D01*
X1658Y753D01*
X1658Y755D01*
X1654Y755D01*
X1654Y757D01*
X1650Y757D01*
X1650Y759D01*
X1646Y759D01*
X1646Y761D01*
X1644Y761D01*
X1644Y763D01*
X1642Y763D01*
X1642Y765D01*
X1640Y765D01*
X1640Y767D01*
X1638Y767D01*
X1638Y769D01*
X1636Y769D01*
X1636Y771D01*
X1634Y771D01*
X1634Y773D01*
X1632Y773D01*
X1632Y775D01*
X1630Y775D01*
X1630Y777D01*
X1458Y777D01*
G37*
D02*
G36*
X632Y775D02*
X632Y773D01*
X630Y773D01*
X630Y769D01*
X628Y769D01*
X628Y767D01*
X626Y767D01*
X626Y765D01*
X624Y765D01*
X624Y763D01*
X620Y763D01*
X620Y761D01*
X618Y761D01*
X618Y759D01*
X616Y759D01*
X616Y757D01*
X612Y757D01*
X612Y755D01*
X608Y755D01*
X608Y753D01*
X602Y753D01*
X602Y751D01*
X682Y751D01*
X682Y753D01*
X676Y753D01*
X676Y755D01*
X672Y755D01*
X672Y757D01*
X668Y757D01*
X668Y759D01*
X666Y759D01*
X666Y761D01*
X664Y761D01*
X664Y763D01*
X660Y763D01*
X660Y765D01*
X658Y765D01*
X658Y767D01*
X656Y767D01*
X656Y771D01*
X654Y771D01*
X654Y773D01*
X652Y773D01*
X652Y775D01*
X632Y775D01*
G37*
D02*
G36*
X1232Y775D02*
X1232Y773D01*
X1230Y773D01*
X1230Y769D01*
X1228Y769D01*
X1228Y767D01*
X1226Y767D01*
X1226Y765D01*
X1224Y765D01*
X1224Y763D01*
X1220Y763D01*
X1220Y761D01*
X1218Y761D01*
X1218Y759D01*
X1216Y759D01*
X1216Y757D01*
X1212Y757D01*
X1212Y755D01*
X1208Y755D01*
X1208Y753D01*
X1202Y753D01*
X1202Y751D01*
X1282Y751D01*
X1282Y753D01*
X1276Y753D01*
X1276Y755D01*
X1272Y755D01*
X1272Y757D01*
X1268Y757D01*
X1268Y759D01*
X1266Y759D01*
X1266Y761D01*
X1264Y761D01*
X1264Y763D01*
X1260Y763D01*
X1260Y765D01*
X1258Y765D01*
X1258Y767D01*
X1256Y767D01*
X1256Y771D01*
X1254Y771D01*
X1254Y773D01*
X1252Y773D01*
X1252Y775D01*
X1232Y775D01*
G37*
D02*
G36*
X40Y751D02*
X40Y749D01*
X1848Y749D01*
X1848Y751D01*
X40Y751D01*
G37*
D02*
G36*
X40Y751D02*
X40Y749D01*
X1848Y749D01*
X1848Y751D01*
X40Y751D01*
G37*
D02*
G36*
X40Y751D02*
X40Y749D01*
X1848Y749D01*
X1848Y751D01*
X40Y751D01*
G37*
D02*
G36*
X40Y751D02*
X40Y749D01*
X1848Y749D01*
X1848Y751D01*
X40Y751D01*
G37*
D02*
G36*
X40Y751D02*
X40Y749D01*
X1848Y749D01*
X1848Y751D01*
X40Y751D01*
G37*
D02*
G36*
X40Y751D02*
X40Y749D01*
X1848Y749D01*
X1848Y751D01*
X40Y751D01*
G37*
D02*
G36*
X40Y751D02*
X40Y749D01*
X1848Y749D01*
X1848Y751D01*
X40Y751D01*
G37*
D02*
G36*
X40Y751D02*
X40Y749D01*
X1848Y749D01*
X1848Y751D01*
X40Y751D01*
G37*
D02*
G36*
X40Y751D02*
X40Y749D01*
X1848Y749D01*
X1848Y751D01*
X40Y751D01*
G37*
D02*
G36*
X40Y751D02*
X40Y749D01*
X1848Y749D01*
X1848Y751D01*
X40Y751D01*
G37*
D02*
G36*
X40Y751D02*
X40Y749D01*
X1848Y749D01*
X1848Y751D01*
X40Y751D01*
G37*
D02*
G36*
X40Y749D02*
X40Y651D01*
X382Y651D01*
X382Y653D01*
X376Y653D01*
X376Y655D01*
X372Y655D01*
X372Y657D01*
X368Y657D01*
X368Y659D01*
X366Y659D01*
X366Y661D01*
X364Y661D01*
X364Y663D01*
X360Y663D01*
X360Y665D01*
X358Y665D01*
X358Y667D01*
X356Y667D01*
X356Y671D01*
X354Y671D01*
X354Y673D01*
X352Y673D01*
X352Y675D01*
X350Y675D01*
X350Y679D01*
X348Y679D01*
X348Y683D01*
X346Y683D01*
X346Y687D01*
X344Y687D01*
X344Y695D01*
X342Y695D01*
X342Y705D01*
X344Y705D01*
X344Y713D01*
X346Y713D01*
X346Y719D01*
X348Y719D01*
X348Y721D01*
X350Y721D01*
X350Y725D01*
X352Y725D01*
X352Y727D01*
X354Y727D01*
X354Y731D01*
X356Y731D01*
X356Y733D01*
X358Y733D01*
X358Y735D01*
X360Y735D01*
X360Y737D01*
X362Y737D01*
X362Y739D01*
X366Y739D01*
X366Y741D01*
X368Y741D01*
X368Y743D01*
X372Y743D01*
X372Y745D01*
X376Y745D01*
X376Y747D01*
X382Y747D01*
X382Y749D01*
X40Y749D01*
G37*
D02*
G36*
X402Y749D02*
X402Y747D01*
X408Y747D01*
X408Y745D01*
X412Y745D01*
X412Y743D01*
X416Y743D01*
X416Y741D01*
X418Y741D01*
X418Y739D01*
X422Y739D01*
X422Y737D01*
X424Y737D01*
X424Y735D01*
X426Y735D01*
X426Y733D01*
X428Y733D01*
X428Y731D01*
X430Y731D01*
X430Y729D01*
X432Y729D01*
X432Y725D01*
X434Y725D01*
X434Y721D01*
X436Y721D01*
X436Y719D01*
X438Y719D01*
X438Y713D01*
X440Y713D01*
X440Y707D01*
X442Y707D01*
X442Y695D01*
X440Y695D01*
X440Y687D01*
X438Y687D01*
X438Y681D01*
X436Y681D01*
X436Y679D01*
X434Y679D01*
X434Y675D01*
X432Y675D01*
X432Y673D01*
X430Y673D01*
X430Y669D01*
X428Y669D01*
X428Y667D01*
X426Y667D01*
X426Y665D01*
X424Y665D01*
X424Y663D01*
X420Y663D01*
X420Y661D01*
X418Y661D01*
X418Y659D01*
X416Y659D01*
X416Y657D01*
X412Y657D01*
X412Y655D01*
X408Y655D01*
X408Y653D01*
X402Y653D01*
X402Y651D01*
X1848Y651D01*
X1848Y749D01*
X402Y749D01*
G37*
D02*
G36*
X40Y651D02*
X40Y649D01*
X1848Y649D01*
X1848Y651D01*
X40Y651D01*
G37*
D02*
G36*
X40Y651D02*
X40Y649D01*
X1848Y649D01*
X1848Y651D01*
X40Y651D01*
G37*
D02*
G36*
X40Y649D02*
X40Y549D01*
X1302Y549D01*
X1302Y547D01*
X1308Y547D01*
X1308Y545D01*
X1312Y545D01*
X1312Y543D01*
X1316Y543D01*
X1316Y541D01*
X1318Y541D01*
X1318Y539D01*
X1322Y539D01*
X1322Y537D01*
X1324Y537D01*
X1324Y535D01*
X1326Y535D01*
X1326Y533D01*
X1328Y533D01*
X1328Y531D01*
X1330Y531D01*
X1330Y529D01*
X1332Y529D01*
X1332Y525D01*
X1334Y525D01*
X1334Y521D01*
X1336Y521D01*
X1336Y519D01*
X1338Y519D01*
X1338Y513D01*
X1340Y513D01*
X1340Y507D01*
X1342Y507D01*
X1342Y495D01*
X1340Y495D01*
X1340Y487D01*
X1338Y487D01*
X1338Y481D01*
X1336Y481D01*
X1336Y479D01*
X1334Y479D01*
X1334Y475D01*
X1332Y475D01*
X1332Y473D01*
X1330Y473D01*
X1330Y469D01*
X1328Y469D01*
X1328Y467D01*
X1326Y467D01*
X1326Y465D01*
X1324Y465D01*
X1324Y463D01*
X1320Y463D01*
X1320Y461D01*
X1318Y461D01*
X1318Y459D01*
X1316Y459D01*
X1316Y457D01*
X1312Y457D01*
X1312Y455D01*
X1308Y455D01*
X1308Y453D01*
X1302Y453D01*
X1302Y451D01*
X1848Y451D01*
X1848Y649D01*
X40Y649D01*
G37*
D02*
G36*
X40Y549D02*
X40Y451D01*
X582Y451D01*
X582Y453D01*
X576Y453D01*
X576Y455D01*
X572Y455D01*
X572Y457D01*
X568Y457D01*
X568Y459D01*
X566Y459D01*
X566Y461D01*
X564Y461D01*
X564Y463D01*
X560Y463D01*
X560Y465D01*
X558Y465D01*
X558Y467D01*
X556Y467D01*
X556Y471D01*
X554Y471D01*
X554Y473D01*
X552Y473D01*
X552Y475D01*
X550Y475D01*
X550Y479D01*
X548Y479D01*
X548Y483D01*
X546Y483D01*
X546Y487D01*
X544Y487D01*
X544Y495D01*
X542Y495D01*
X542Y505D01*
X544Y505D01*
X544Y513D01*
X546Y513D01*
X546Y519D01*
X548Y519D01*
X548Y521D01*
X550Y521D01*
X550Y525D01*
X552Y525D01*
X552Y527D01*
X554Y527D01*
X554Y531D01*
X556Y531D01*
X556Y533D01*
X558Y533D01*
X558Y535D01*
X560Y535D01*
X560Y537D01*
X562Y537D01*
X562Y539D01*
X566Y539D01*
X566Y541D01*
X568Y541D01*
X568Y543D01*
X572Y543D01*
X572Y545D01*
X576Y545D01*
X576Y547D01*
X582Y547D01*
X582Y549D01*
X40Y549D01*
G37*
D02*
G36*
X602Y549D02*
X602Y547D01*
X608Y547D01*
X608Y545D01*
X612Y545D01*
X612Y543D01*
X616Y543D01*
X616Y541D01*
X618Y541D01*
X618Y539D01*
X622Y539D01*
X622Y537D01*
X624Y537D01*
X624Y535D01*
X626Y535D01*
X626Y533D01*
X628Y533D01*
X628Y531D01*
X630Y531D01*
X630Y529D01*
X632Y529D01*
X632Y525D01*
X652Y525D01*
X652Y527D01*
X654Y527D01*
X654Y531D01*
X656Y531D01*
X656Y533D01*
X658Y533D01*
X658Y535D01*
X660Y535D01*
X660Y537D01*
X662Y537D01*
X662Y539D01*
X666Y539D01*
X666Y541D01*
X668Y541D01*
X668Y543D01*
X672Y543D01*
X672Y545D01*
X676Y545D01*
X676Y547D01*
X682Y547D01*
X682Y549D01*
X602Y549D01*
G37*
D02*
G36*
X702Y549D02*
X702Y547D01*
X708Y547D01*
X708Y545D01*
X712Y545D01*
X712Y543D01*
X716Y543D01*
X716Y541D01*
X718Y541D01*
X718Y539D01*
X722Y539D01*
X722Y537D01*
X724Y537D01*
X724Y535D01*
X726Y535D01*
X726Y533D01*
X728Y533D01*
X728Y531D01*
X730Y531D01*
X730Y529D01*
X732Y529D01*
X732Y525D01*
X734Y525D01*
X734Y521D01*
X736Y521D01*
X736Y519D01*
X738Y519D01*
X738Y513D01*
X740Y513D01*
X740Y507D01*
X742Y507D01*
X742Y495D01*
X740Y495D01*
X740Y487D01*
X738Y487D01*
X738Y481D01*
X736Y481D01*
X736Y479D01*
X734Y479D01*
X734Y475D01*
X732Y475D01*
X732Y473D01*
X730Y473D01*
X730Y469D01*
X728Y469D01*
X728Y467D01*
X726Y467D01*
X726Y465D01*
X724Y465D01*
X724Y463D01*
X720Y463D01*
X720Y461D01*
X718Y461D01*
X718Y459D01*
X716Y459D01*
X716Y457D01*
X712Y457D01*
X712Y455D01*
X708Y455D01*
X708Y453D01*
X702Y453D01*
X702Y451D01*
X1182Y451D01*
X1182Y453D01*
X1176Y453D01*
X1176Y455D01*
X1172Y455D01*
X1172Y457D01*
X1168Y457D01*
X1168Y459D01*
X1166Y459D01*
X1166Y461D01*
X1164Y461D01*
X1164Y463D01*
X1160Y463D01*
X1160Y465D01*
X1158Y465D01*
X1158Y467D01*
X1156Y467D01*
X1156Y471D01*
X1154Y471D01*
X1154Y473D01*
X1152Y473D01*
X1152Y475D01*
X1150Y475D01*
X1150Y479D01*
X1148Y479D01*
X1148Y483D01*
X1146Y483D01*
X1146Y487D01*
X1144Y487D01*
X1144Y495D01*
X1142Y495D01*
X1142Y505D01*
X1144Y505D01*
X1144Y513D01*
X1146Y513D01*
X1146Y519D01*
X1148Y519D01*
X1148Y521D01*
X1150Y521D01*
X1150Y525D01*
X1152Y525D01*
X1152Y527D01*
X1154Y527D01*
X1154Y531D01*
X1156Y531D01*
X1156Y533D01*
X1158Y533D01*
X1158Y535D01*
X1160Y535D01*
X1160Y537D01*
X1162Y537D01*
X1162Y539D01*
X1166Y539D01*
X1166Y541D01*
X1168Y541D01*
X1168Y543D01*
X1172Y543D01*
X1172Y545D01*
X1176Y545D01*
X1176Y547D01*
X1182Y547D01*
X1182Y549D01*
X702Y549D01*
G37*
D02*
G36*
X1202Y549D02*
X1202Y547D01*
X1208Y547D01*
X1208Y545D01*
X1212Y545D01*
X1212Y543D01*
X1216Y543D01*
X1216Y541D01*
X1218Y541D01*
X1218Y539D01*
X1222Y539D01*
X1222Y537D01*
X1224Y537D01*
X1224Y535D01*
X1226Y535D01*
X1226Y533D01*
X1228Y533D01*
X1228Y531D01*
X1230Y531D01*
X1230Y529D01*
X1232Y529D01*
X1232Y525D01*
X1252Y525D01*
X1252Y527D01*
X1254Y527D01*
X1254Y531D01*
X1256Y531D01*
X1256Y533D01*
X1258Y533D01*
X1258Y535D01*
X1260Y535D01*
X1260Y537D01*
X1262Y537D01*
X1262Y539D01*
X1266Y539D01*
X1266Y541D01*
X1268Y541D01*
X1268Y543D01*
X1272Y543D01*
X1272Y545D01*
X1276Y545D01*
X1276Y547D01*
X1282Y547D01*
X1282Y549D01*
X1202Y549D01*
G37*
D02*
G36*
X632Y475D02*
X632Y473D01*
X630Y473D01*
X630Y469D01*
X628Y469D01*
X628Y467D01*
X626Y467D01*
X626Y465D01*
X624Y465D01*
X624Y463D01*
X620Y463D01*
X620Y461D01*
X618Y461D01*
X618Y459D01*
X616Y459D01*
X616Y457D01*
X612Y457D01*
X612Y455D01*
X608Y455D01*
X608Y453D01*
X602Y453D01*
X602Y451D01*
X682Y451D01*
X682Y453D01*
X676Y453D01*
X676Y455D01*
X672Y455D01*
X672Y457D01*
X668Y457D01*
X668Y459D01*
X666Y459D01*
X666Y461D01*
X664Y461D01*
X664Y463D01*
X660Y463D01*
X660Y465D01*
X658Y465D01*
X658Y467D01*
X656Y467D01*
X656Y471D01*
X654Y471D01*
X654Y473D01*
X652Y473D01*
X652Y475D01*
X632Y475D01*
G37*
D02*
G36*
X1232Y475D02*
X1232Y473D01*
X1230Y473D01*
X1230Y469D01*
X1228Y469D01*
X1228Y467D01*
X1226Y467D01*
X1226Y465D01*
X1224Y465D01*
X1224Y463D01*
X1220Y463D01*
X1220Y461D01*
X1218Y461D01*
X1218Y459D01*
X1216Y459D01*
X1216Y457D01*
X1212Y457D01*
X1212Y455D01*
X1208Y455D01*
X1208Y453D01*
X1202Y453D01*
X1202Y451D01*
X1282Y451D01*
X1282Y453D01*
X1276Y453D01*
X1276Y455D01*
X1272Y455D01*
X1272Y457D01*
X1268Y457D01*
X1268Y459D01*
X1266Y459D01*
X1266Y461D01*
X1264Y461D01*
X1264Y463D01*
X1260Y463D01*
X1260Y465D01*
X1258Y465D01*
X1258Y467D01*
X1256Y467D01*
X1256Y471D01*
X1254Y471D01*
X1254Y473D01*
X1252Y473D01*
X1252Y475D01*
X1232Y475D01*
G37*
D02*
G36*
X40Y451D02*
X40Y449D01*
X1848Y449D01*
X1848Y451D01*
X40Y451D01*
G37*
D02*
G36*
X40Y451D02*
X40Y449D01*
X1848Y449D01*
X1848Y451D01*
X40Y451D01*
G37*
D02*
G36*
X40Y451D02*
X40Y449D01*
X1848Y449D01*
X1848Y451D01*
X40Y451D01*
G37*
D02*
G36*
X40Y451D02*
X40Y449D01*
X1848Y449D01*
X1848Y451D01*
X40Y451D01*
G37*
D02*
G36*
X40Y451D02*
X40Y449D01*
X1848Y449D01*
X1848Y451D01*
X40Y451D01*
G37*
D02*
G36*
X40Y449D02*
X40Y351D01*
X382Y351D01*
X382Y353D01*
X376Y353D01*
X376Y355D01*
X372Y355D01*
X372Y357D01*
X368Y357D01*
X368Y359D01*
X366Y359D01*
X366Y361D01*
X364Y361D01*
X364Y363D01*
X360Y363D01*
X360Y365D01*
X358Y365D01*
X358Y367D01*
X356Y367D01*
X356Y371D01*
X354Y371D01*
X354Y373D01*
X352Y373D01*
X352Y375D01*
X350Y375D01*
X350Y379D01*
X348Y379D01*
X348Y383D01*
X346Y383D01*
X346Y387D01*
X344Y387D01*
X344Y395D01*
X342Y395D01*
X342Y405D01*
X344Y405D01*
X344Y413D01*
X346Y413D01*
X346Y419D01*
X348Y419D01*
X348Y421D01*
X350Y421D01*
X350Y425D01*
X352Y425D01*
X352Y427D01*
X354Y427D01*
X354Y431D01*
X356Y431D01*
X356Y433D01*
X358Y433D01*
X358Y435D01*
X360Y435D01*
X360Y437D01*
X362Y437D01*
X362Y439D01*
X366Y439D01*
X366Y441D01*
X368Y441D01*
X368Y443D01*
X372Y443D01*
X372Y445D01*
X376Y445D01*
X376Y447D01*
X382Y447D01*
X382Y449D01*
X40Y449D01*
G37*
D02*
G36*
X402Y449D02*
X402Y447D01*
X408Y447D01*
X408Y445D01*
X412Y445D01*
X412Y443D01*
X416Y443D01*
X416Y441D01*
X418Y441D01*
X418Y439D01*
X422Y439D01*
X422Y437D01*
X424Y437D01*
X424Y435D01*
X426Y435D01*
X426Y433D01*
X428Y433D01*
X428Y431D01*
X430Y431D01*
X430Y429D01*
X432Y429D01*
X432Y427D01*
X1078Y427D01*
X1078Y425D01*
X1084Y425D01*
X1084Y423D01*
X1088Y423D01*
X1088Y421D01*
X1092Y421D01*
X1092Y419D01*
X1096Y419D01*
X1096Y417D01*
X1098Y417D01*
X1098Y415D01*
X1100Y415D01*
X1100Y413D01*
X1102Y413D01*
X1102Y411D01*
X1104Y411D01*
X1104Y409D01*
X1106Y409D01*
X1106Y407D01*
X1108Y407D01*
X1108Y405D01*
X1110Y405D01*
X1110Y401D01*
X1112Y401D01*
X1112Y397D01*
X1114Y397D01*
X1114Y393D01*
X1116Y393D01*
X1116Y387D01*
X1118Y387D01*
X1118Y367D01*
X1116Y367D01*
X1116Y361D01*
X1114Y361D01*
X1114Y357D01*
X1112Y357D01*
X1112Y355D01*
X1110Y355D01*
X1110Y351D01*
X1108Y351D01*
X1108Y349D01*
X1106Y349D01*
X1106Y347D01*
X1104Y347D01*
X1104Y345D01*
X1102Y345D01*
X1102Y343D01*
X1100Y343D01*
X1100Y341D01*
X1098Y341D01*
X1098Y339D01*
X1096Y339D01*
X1096Y337D01*
X1092Y337D01*
X1092Y335D01*
X1090Y335D01*
X1090Y333D01*
X1086Y333D01*
X1086Y331D01*
X1080Y331D01*
X1080Y329D01*
X1848Y329D01*
X1848Y449D01*
X402Y449D01*
G37*
D02*
G36*
X432Y427D02*
X432Y425D01*
X434Y425D01*
X434Y421D01*
X436Y421D01*
X436Y419D01*
X438Y419D01*
X438Y413D01*
X440Y413D01*
X440Y407D01*
X442Y407D01*
X442Y395D01*
X440Y395D01*
X440Y387D01*
X438Y387D01*
X438Y381D01*
X436Y381D01*
X436Y379D01*
X434Y379D01*
X434Y375D01*
X432Y375D01*
X432Y373D01*
X430Y373D01*
X430Y369D01*
X428Y369D01*
X428Y367D01*
X426Y367D01*
X426Y365D01*
X424Y365D01*
X424Y363D01*
X420Y363D01*
X420Y361D01*
X418Y361D01*
X418Y359D01*
X416Y359D01*
X416Y357D01*
X412Y357D01*
X412Y355D01*
X408Y355D01*
X408Y353D01*
X402Y353D01*
X402Y351D01*
X772Y351D01*
X772Y355D01*
X770Y355D01*
X770Y357D01*
X768Y357D01*
X768Y363D01*
X766Y363D01*
X766Y367D01*
X764Y367D01*
X764Y387D01*
X766Y387D01*
X766Y393D01*
X768Y393D01*
X768Y397D01*
X770Y397D01*
X770Y401D01*
X772Y401D01*
X772Y405D01*
X774Y405D01*
X774Y407D01*
X776Y407D01*
X776Y409D01*
X778Y409D01*
X778Y411D01*
X780Y411D01*
X780Y413D01*
X782Y413D01*
X782Y415D01*
X784Y415D01*
X784Y417D01*
X786Y417D01*
X786Y419D01*
X790Y419D01*
X790Y421D01*
X794Y421D01*
X794Y423D01*
X798Y423D01*
X798Y425D01*
X804Y425D01*
X804Y427D01*
X432Y427D01*
G37*
D02*
G36*
X822Y427D02*
X822Y425D01*
X828Y425D01*
X828Y423D01*
X832Y423D01*
X832Y421D01*
X836Y421D01*
X836Y419D01*
X840Y419D01*
X840Y417D01*
X842Y417D01*
X842Y415D01*
X844Y415D01*
X844Y413D01*
X846Y413D01*
X846Y411D01*
X848Y411D01*
X848Y409D01*
X850Y409D01*
X850Y407D01*
X852Y407D01*
X852Y405D01*
X854Y405D01*
X854Y401D01*
X1028Y401D01*
X1028Y405D01*
X1030Y405D01*
X1030Y407D01*
X1032Y407D01*
X1032Y409D01*
X1034Y409D01*
X1034Y411D01*
X1036Y411D01*
X1036Y413D01*
X1038Y413D01*
X1038Y415D01*
X1040Y415D01*
X1040Y417D01*
X1042Y417D01*
X1042Y419D01*
X1046Y419D01*
X1046Y421D01*
X1050Y421D01*
X1050Y423D01*
X1054Y423D01*
X1054Y425D01*
X1060Y425D01*
X1060Y427D01*
X822Y427D01*
G37*
D02*
G36*
X854Y353D02*
X854Y351D01*
X852Y351D01*
X852Y349D01*
X850Y349D01*
X850Y347D01*
X848Y347D01*
X848Y343D01*
X844Y343D01*
X844Y341D01*
X842Y341D01*
X842Y339D01*
X840Y339D01*
X840Y337D01*
X838Y337D01*
X838Y335D01*
X834Y335D01*
X834Y333D01*
X830Y333D01*
X830Y331D01*
X824Y331D01*
X824Y329D01*
X1058Y329D01*
X1058Y331D01*
X1052Y331D01*
X1052Y333D01*
X1048Y333D01*
X1048Y335D01*
X1046Y335D01*
X1046Y337D01*
X1042Y337D01*
X1042Y339D01*
X1040Y339D01*
X1040Y341D01*
X1038Y341D01*
X1038Y343D01*
X1036Y343D01*
X1036Y345D01*
X1034Y345D01*
X1034Y347D01*
X1032Y347D01*
X1032Y349D01*
X1030Y349D01*
X1030Y351D01*
X1028Y351D01*
X1028Y353D01*
X854Y353D01*
G37*
D02*
G36*
X40Y351D02*
X40Y349D01*
X774Y349D01*
X774Y351D01*
X40Y351D01*
G37*
D02*
G36*
X40Y351D02*
X40Y349D01*
X774Y349D01*
X774Y351D01*
X40Y351D01*
G37*
D02*
G36*
X40Y349D02*
X40Y275D01*
X204Y275D01*
X204Y273D01*
X212Y273D01*
X212Y271D01*
X218Y271D01*
X218Y269D01*
X222Y269D01*
X222Y267D01*
X226Y267D01*
X226Y265D01*
X230Y265D01*
X230Y263D01*
X234Y263D01*
X234Y261D01*
X236Y261D01*
X236Y259D01*
X238Y259D01*
X238Y257D01*
X240Y257D01*
X240Y255D01*
X242Y255D01*
X242Y253D01*
X246Y253D01*
X246Y249D01*
X248Y249D01*
X248Y247D01*
X250Y247D01*
X250Y245D01*
X252Y245D01*
X252Y243D01*
X254Y243D01*
X254Y239D01*
X256Y239D01*
X256Y237D01*
X258Y237D01*
X258Y233D01*
X260Y233D01*
X260Y229D01*
X262Y229D01*
X262Y223D01*
X264Y223D01*
X264Y217D01*
X266Y217D01*
X266Y201D01*
X268Y201D01*
X268Y199D01*
X266Y199D01*
X266Y183D01*
X264Y183D01*
X264Y177D01*
X262Y177D01*
X262Y171D01*
X260Y171D01*
X260Y167D01*
X258Y167D01*
X258Y165D01*
X256Y165D01*
X256Y161D01*
X254Y161D01*
X254Y157D01*
X252Y157D01*
X252Y155D01*
X250Y155D01*
X250Y153D01*
X248Y153D01*
X248Y151D01*
X246Y151D01*
X246Y149D01*
X244Y149D01*
X244Y147D01*
X242Y147D01*
X242Y145D01*
X240Y145D01*
X240Y143D01*
X238Y143D01*
X238Y141D01*
X236Y141D01*
X236Y139D01*
X232Y139D01*
X232Y137D01*
X230Y137D01*
X230Y135D01*
X226Y135D01*
X226Y133D01*
X222Y133D01*
X222Y131D01*
X218Y131D01*
X218Y129D01*
X212Y129D01*
X212Y127D01*
X202Y127D01*
X202Y125D01*
X544Y125D01*
X544Y149D01*
X558Y149D01*
X558Y169D01*
X556Y169D01*
X556Y171D01*
X554Y171D01*
X554Y173D01*
X552Y173D01*
X552Y177D01*
X550Y177D01*
X550Y179D01*
X548Y179D01*
X548Y183D01*
X546Y183D01*
X546Y189D01*
X544Y189D01*
X544Y211D01*
X546Y211D01*
X546Y217D01*
X548Y217D01*
X548Y221D01*
X550Y221D01*
X550Y225D01*
X552Y225D01*
X552Y227D01*
X554Y227D01*
X554Y229D01*
X556Y229D01*
X556Y233D01*
X558Y233D01*
X558Y235D01*
X562Y235D01*
X562Y237D01*
X564Y237D01*
X564Y239D01*
X566Y239D01*
X566Y261D01*
X564Y261D01*
X564Y263D01*
X562Y263D01*
X562Y265D01*
X560Y265D01*
X560Y267D01*
X558Y267D01*
X558Y269D01*
X556Y269D01*
X556Y271D01*
X554Y271D01*
X554Y273D01*
X552Y273D01*
X552Y277D01*
X550Y277D01*
X550Y279D01*
X548Y279D01*
X548Y283D01*
X546Y283D01*
X546Y289D01*
X544Y289D01*
X544Y311D01*
X546Y311D01*
X546Y317D01*
X548Y317D01*
X548Y321D01*
X550Y321D01*
X550Y325D01*
X552Y325D01*
X552Y327D01*
X554Y327D01*
X554Y329D01*
X556Y329D01*
X556Y333D01*
X558Y333D01*
X558Y335D01*
X562Y335D01*
X562Y337D01*
X564Y337D01*
X564Y339D01*
X566Y339D01*
X566Y341D01*
X570Y341D01*
X570Y343D01*
X572Y343D01*
X572Y345D01*
X578Y345D01*
X578Y347D01*
X582Y347D01*
X582Y349D01*
X40Y349D01*
G37*
D02*
G36*
X602Y349D02*
X602Y347D01*
X606Y347D01*
X606Y345D01*
X612Y345D01*
X612Y343D01*
X614Y343D01*
X614Y341D01*
X618Y341D01*
X618Y339D01*
X620Y339D01*
X620Y337D01*
X624Y337D01*
X624Y335D01*
X626Y335D01*
X626Y333D01*
X628Y333D01*
X628Y329D01*
X802Y329D01*
X802Y331D01*
X796Y331D01*
X796Y333D01*
X792Y333D01*
X792Y335D01*
X790Y335D01*
X790Y337D01*
X786Y337D01*
X786Y339D01*
X784Y339D01*
X784Y341D01*
X782Y341D01*
X782Y343D01*
X780Y343D01*
X780Y345D01*
X778Y345D01*
X778Y347D01*
X776Y347D01*
X776Y349D01*
X602Y349D01*
G37*
D02*
G36*
X630Y329D02*
X630Y327D01*
X1848Y327D01*
X1848Y329D01*
X630Y329D01*
G37*
D02*
G36*
X630Y329D02*
X630Y327D01*
X1848Y327D01*
X1848Y329D01*
X630Y329D01*
G37*
D02*
G36*
X630Y329D02*
X630Y327D01*
X1848Y327D01*
X1848Y329D01*
X630Y329D01*
G37*
D02*
G36*
X632Y327D02*
X632Y325D01*
X634Y325D01*
X634Y321D01*
X636Y321D01*
X636Y317D01*
X638Y317D01*
X638Y311D01*
X640Y311D01*
X640Y301D01*
X642Y301D01*
X642Y299D01*
X640Y299D01*
X640Y289D01*
X638Y289D01*
X638Y283D01*
X636Y283D01*
X636Y279D01*
X634Y279D01*
X634Y275D01*
X1704Y275D01*
X1704Y273D01*
X1712Y273D01*
X1712Y271D01*
X1718Y271D01*
X1718Y269D01*
X1722Y269D01*
X1722Y267D01*
X1726Y267D01*
X1726Y265D01*
X1730Y265D01*
X1730Y263D01*
X1734Y263D01*
X1734Y261D01*
X1736Y261D01*
X1736Y259D01*
X1738Y259D01*
X1738Y257D01*
X1740Y257D01*
X1740Y255D01*
X1742Y255D01*
X1742Y253D01*
X1746Y253D01*
X1746Y249D01*
X1748Y249D01*
X1748Y247D01*
X1750Y247D01*
X1750Y245D01*
X1752Y245D01*
X1752Y243D01*
X1754Y243D01*
X1754Y239D01*
X1756Y239D01*
X1756Y237D01*
X1758Y237D01*
X1758Y233D01*
X1760Y233D01*
X1760Y229D01*
X1762Y229D01*
X1762Y223D01*
X1764Y223D01*
X1764Y217D01*
X1766Y217D01*
X1766Y201D01*
X1768Y201D01*
X1768Y199D01*
X1766Y199D01*
X1766Y183D01*
X1764Y183D01*
X1764Y177D01*
X1762Y177D01*
X1762Y171D01*
X1760Y171D01*
X1760Y167D01*
X1758Y167D01*
X1758Y165D01*
X1756Y165D01*
X1756Y161D01*
X1754Y161D01*
X1754Y157D01*
X1752Y157D01*
X1752Y155D01*
X1750Y155D01*
X1750Y153D01*
X1748Y153D01*
X1748Y151D01*
X1746Y151D01*
X1746Y149D01*
X1744Y149D01*
X1744Y147D01*
X1742Y147D01*
X1742Y145D01*
X1740Y145D01*
X1740Y143D01*
X1738Y143D01*
X1738Y141D01*
X1736Y141D01*
X1736Y139D01*
X1732Y139D01*
X1732Y137D01*
X1730Y137D01*
X1730Y135D01*
X1726Y135D01*
X1726Y133D01*
X1722Y133D01*
X1722Y131D01*
X1718Y131D01*
X1718Y129D01*
X1712Y129D01*
X1712Y127D01*
X1702Y127D01*
X1702Y125D01*
X1848Y125D01*
X1848Y327D01*
X632Y327D01*
G37*
D02*
G36*
X40Y275D02*
X40Y125D01*
X182Y125D01*
X182Y127D01*
X172Y127D01*
X172Y129D01*
X168Y129D01*
X168Y131D01*
X162Y131D01*
X162Y133D01*
X158Y133D01*
X158Y135D01*
X154Y135D01*
X154Y137D01*
X152Y137D01*
X152Y139D01*
X148Y139D01*
X148Y141D01*
X146Y141D01*
X146Y143D01*
X144Y143D01*
X144Y145D01*
X142Y145D01*
X142Y147D01*
X140Y147D01*
X140Y149D01*
X138Y149D01*
X138Y151D01*
X136Y151D01*
X136Y153D01*
X134Y153D01*
X134Y155D01*
X132Y155D01*
X132Y159D01*
X130Y159D01*
X130Y161D01*
X128Y161D01*
X128Y165D01*
X126Y165D01*
X126Y169D01*
X124Y169D01*
X124Y173D01*
X122Y173D01*
X122Y177D01*
X120Y177D01*
X120Y185D01*
X118Y185D01*
X118Y217D01*
X120Y217D01*
X120Y223D01*
X122Y223D01*
X122Y229D01*
X124Y229D01*
X124Y233D01*
X126Y233D01*
X126Y237D01*
X128Y237D01*
X128Y239D01*
X130Y239D01*
X130Y243D01*
X132Y243D01*
X132Y245D01*
X134Y245D01*
X134Y247D01*
X136Y247D01*
X136Y249D01*
X138Y249D01*
X138Y251D01*
X140Y251D01*
X140Y253D01*
X142Y253D01*
X142Y255D01*
X144Y255D01*
X144Y257D01*
X146Y257D01*
X146Y259D01*
X148Y259D01*
X148Y261D01*
X150Y261D01*
X150Y263D01*
X154Y263D01*
X154Y265D01*
X158Y265D01*
X158Y267D01*
X162Y267D01*
X162Y269D01*
X166Y269D01*
X166Y271D01*
X172Y271D01*
X172Y273D01*
X180Y273D01*
X180Y275D01*
X40Y275D01*
G37*
D02*
G36*
X632Y275D02*
X632Y273D01*
X630Y273D01*
X630Y271D01*
X628Y271D01*
X628Y269D01*
X626Y269D01*
X626Y267D01*
X624Y267D01*
X624Y265D01*
X622Y265D01*
X622Y263D01*
X620Y263D01*
X620Y261D01*
X618Y261D01*
X618Y251D01*
X1070Y251D01*
X1070Y249D01*
X1080Y249D01*
X1080Y247D01*
X1086Y247D01*
X1086Y245D01*
X1090Y245D01*
X1090Y243D01*
X1094Y243D01*
X1094Y241D01*
X1096Y241D01*
X1096Y239D01*
X1098Y239D01*
X1098Y237D01*
X1100Y237D01*
X1100Y235D01*
X1104Y235D01*
X1104Y231D01*
X1106Y231D01*
X1106Y229D01*
X1108Y229D01*
X1108Y227D01*
X1110Y227D01*
X1110Y223D01*
X1112Y223D01*
X1112Y221D01*
X1114Y221D01*
X1114Y217D01*
X1116Y217D01*
X1116Y211D01*
X1118Y211D01*
X1118Y191D01*
X1116Y191D01*
X1116Y185D01*
X1114Y185D01*
X1114Y181D01*
X1112Y181D01*
X1112Y177D01*
X1110Y177D01*
X1110Y173D01*
X1108Y173D01*
X1108Y171D01*
X1106Y171D01*
X1106Y169D01*
X1104Y169D01*
X1104Y167D01*
X1102Y167D01*
X1102Y165D01*
X1100Y165D01*
X1100Y163D01*
X1098Y163D01*
X1098Y161D01*
X1094Y161D01*
X1094Y159D01*
X1092Y159D01*
X1092Y157D01*
X1088Y157D01*
X1088Y155D01*
X1084Y155D01*
X1084Y153D01*
X1078Y153D01*
X1078Y151D01*
X1636Y151D01*
X1636Y153D01*
X1634Y153D01*
X1634Y155D01*
X1632Y155D01*
X1632Y159D01*
X1630Y159D01*
X1630Y161D01*
X1628Y161D01*
X1628Y165D01*
X1626Y165D01*
X1626Y169D01*
X1624Y169D01*
X1624Y173D01*
X1622Y173D01*
X1622Y177D01*
X1620Y177D01*
X1620Y185D01*
X1618Y185D01*
X1618Y217D01*
X1620Y217D01*
X1620Y223D01*
X1622Y223D01*
X1622Y229D01*
X1624Y229D01*
X1624Y233D01*
X1626Y233D01*
X1626Y237D01*
X1628Y237D01*
X1628Y239D01*
X1630Y239D01*
X1630Y243D01*
X1632Y243D01*
X1632Y245D01*
X1634Y245D01*
X1634Y247D01*
X1636Y247D01*
X1636Y249D01*
X1638Y249D01*
X1638Y251D01*
X1640Y251D01*
X1640Y253D01*
X1642Y253D01*
X1642Y255D01*
X1644Y255D01*
X1644Y257D01*
X1646Y257D01*
X1646Y259D01*
X1648Y259D01*
X1648Y261D01*
X1652Y261D01*
X1652Y263D01*
X1654Y263D01*
X1654Y265D01*
X1658Y265D01*
X1658Y267D01*
X1662Y267D01*
X1662Y269D01*
X1666Y269D01*
X1666Y271D01*
X1672Y271D01*
X1672Y273D01*
X1680Y273D01*
X1680Y275D01*
X632Y275D01*
G37*
D02*
G36*
X618Y251D02*
X618Y239D01*
X620Y239D01*
X620Y237D01*
X624Y237D01*
X624Y235D01*
X626Y235D01*
X626Y233D01*
X628Y233D01*
X628Y229D01*
X630Y229D01*
X630Y227D01*
X632Y227D01*
X632Y225D01*
X634Y225D01*
X634Y221D01*
X636Y221D01*
X636Y217D01*
X638Y217D01*
X638Y211D01*
X640Y211D01*
X640Y201D01*
X642Y201D01*
X642Y199D01*
X640Y199D01*
X640Y189D01*
X638Y189D01*
X638Y183D01*
X636Y183D01*
X636Y179D01*
X634Y179D01*
X634Y175D01*
X632Y175D01*
X632Y173D01*
X630Y173D01*
X630Y171D01*
X628Y171D01*
X628Y169D01*
X626Y169D01*
X626Y151D01*
X804Y151D01*
X804Y153D01*
X798Y153D01*
X798Y155D01*
X794Y155D01*
X794Y157D01*
X790Y157D01*
X790Y159D01*
X788Y159D01*
X788Y161D01*
X784Y161D01*
X784Y163D01*
X782Y163D01*
X782Y165D01*
X780Y165D01*
X780Y167D01*
X778Y167D01*
X778Y169D01*
X776Y169D01*
X776Y171D01*
X774Y171D01*
X774Y175D01*
X772Y175D01*
X772Y177D01*
X770Y177D01*
X770Y181D01*
X768Y181D01*
X768Y185D01*
X766Y185D01*
X766Y191D01*
X764Y191D01*
X764Y211D01*
X766Y211D01*
X766Y215D01*
X768Y215D01*
X768Y221D01*
X770Y221D01*
X770Y223D01*
X772Y223D01*
X772Y227D01*
X774Y227D01*
X774Y229D01*
X776Y229D01*
X776Y231D01*
X778Y231D01*
X778Y235D01*
X782Y235D01*
X782Y237D01*
X784Y237D01*
X784Y239D01*
X786Y239D01*
X786Y241D01*
X788Y241D01*
X788Y243D01*
X792Y243D01*
X792Y245D01*
X796Y245D01*
X796Y247D01*
X802Y247D01*
X802Y249D01*
X812Y249D01*
X812Y251D01*
X618Y251D01*
G37*
D02*
G36*
X814Y251D02*
X814Y249D01*
X824Y249D01*
X824Y247D01*
X830Y247D01*
X830Y245D01*
X834Y245D01*
X834Y243D01*
X838Y243D01*
X838Y241D01*
X840Y241D01*
X840Y239D01*
X842Y239D01*
X842Y237D01*
X846Y237D01*
X846Y235D01*
X848Y235D01*
X848Y231D01*
X850Y231D01*
X850Y229D01*
X852Y229D01*
X852Y227D01*
X854Y227D01*
X854Y225D01*
X1028Y225D01*
X1028Y227D01*
X1030Y227D01*
X1030Y229D01*
X1032Y229D01*
X1032Y231D01*
X1034Y231D01*
X1034Y235D01*
X1038Y235D01*
X1038Y237D01*
X1040Y237D01*
X1040Y239D01*
X1042Y239D01*
X1042Y241D01*
X1044Y241D01*
X1044Y243D01*
X1048Y243D01*
X1048Y245D01*
X1052Y245D01*
X1052Y247D01*
X1058Y247D01*
X1058Y249D01*
X1068Y249D01*
X1068Y251D01*
X814Y251D01*
G37*
D02*
G36*
X854Y177D02*
X854Y173D01*
X852Y173D01*
X852Y171D01*
X850Y171D01*
X850Y169D01*
X848Y169D01*
X848Y167D01*
X846Y167D01*
X846Y165D01*
X844Y165D01*
X844Y163D01*
X842Y163D01*
X842Y161D01*
X838Y161D01*
X838Y159D01*
X836Y159D01*
X836Y157D01*
X832Y157D01*
X832Y155D01*
X828Y155D01*
X828Y153D01*
X822Y153D01*
X822Y151D01*
X1060Y151D01*
X1060Y153D01*
X1054Y153D01*
X1054Y155D01*
X1050Y155D01*
X1050Y157D01*
X1046Y157D01*
X1046Y159D01*
X1044Y159D01*
X1044Y161D01*
X1040Y161D01*
X1040Y163D01*
X1038Y163D01*
X1038Y165D01*
X1036Y165D01*
X1036Y167D01*
X1034Y167D01*
X1034Y169D01*
X1032Y169D01*
X1032Y171D01*
X1030Y171D01*
X1030Y173D01*
X1028Y173D01*
X1028Y177D01*
X854Y177D01*
G37*
D02*
G36*
X626Y151D02*
X626Y149D01*
X1638Y149D01*
X1638Y151D01*
X626Y151D01*
G37*
D02*
G36*
X626Y151D02*
X626Y149D01*
X1638Y149D01*
X1638Y151D01*
X626Y151D01*
G37*
D02*
G36*
X626Y151D02*
X626Y149D01*
X1638Y149D01*
X1638Y151D01*
X626Y151D01*
G37*
D02*
G36*
X642Y149D02*
X642Y125D01*
X1682Y125D01*
X1682Y127D01*
X1672Y127D01*
X1672Y129D01*
X1668Y129D01*
X1668Y131D01*
X1662Y131D01*
X1662Y133D01*
X1658Y133D01*
X1658Y135D01*
X1654Y135D01*
X1654Y137D01*
X1652Y137D01*
X1652Y139D01*
X1648Y139D01*
X1648Y141D01*
X1646Y141D01*
X1646Y143D01*
X1644Y143D01*
X1644Y145D01*
X1642Y145D01*
X1642Y147D01*
X1640Y147D01*
X1640Y149D01*
X642Y149D01*
G37*
D02*
G36*
X40Y125D02*
X40Y123D01*
X544Y123D01*
X544Y125D01*
X40Y125D01*
G37*
D02*
G36*
X40Y125D02*
X40Y123D01*
X544Y123D01*
X544Y125D01*
X40Y125D01*
G37*
D02*
G36*
X642Y125D02*
X642Y123D01*
X1848Y123D01*
X1848Y125D01*
X642Y125D01*
G37*
D02*
G36*
X642Y125D02*
X642Y123D01*
X1848Y123D01*
X1848Y125D01*
X642Y125D01*
G37*
D02*
G36*
X40Y123D02*
X40Y41D01*
X544Y41D01*
X544Y123D01*
X40Y123D01*
G37*
D02*
G36*
X642Y123D02*
X642Y41D01*
X1848Y41D01*
X1848Y123D01*
X642Y123D01*
G37*
D02*
G04 End of Copper1*
M02*