G04 MADE WITH FRITZING*
G04 WWW.FRITZING.ORG*
G04 DOUBLE SIDED*
G04 HOLES PLATED*
G04 CONTOUR ON CENTER OF CONTOUR VECTOR*
%ASAXBY*%
%FSLAX23Y23*%
%MOIN*%
%OFA0B0*%
%SFA1.0B1.0*%
%ADD10C,0.075000*%
%ADD11C,0.078000*%
%ADD12C,0.074000*%
%ADD13R,0.074000X0.074000*%
%ADD14C,0.024000*%
%LNCOPPER1*%
G90*
G70*
G54D10*
X1195Y1612D03*
G54D11*
X201Y498D03*
X201Y598D03*
G54D10*
X1681Y798D03*
X1425Y798D03*
X1681Y975D03*
X1425Y975D03*
X1078Y198D03*
X822Y198D03*
X1078Y375D03*
X822Y375D03*
X478Y798D03*
X222Y798D03*
X478Y975D03*
X222Y975D03*
X1078Y1398D03*
X822Y1398D03*
X1078Y1575D03*
X822Y1575D03*
X1078Y798D03*
X822Y798D03*
X1078Y975D03*
X822Y975D03*
X1201Y498D03*
X1201Y798D03*
X601Y898D03*
X601Y1198D03*
X1201Y898D03*
X1201Y1198D03*
X701Y498D03*
X701Y798D03*
X1301Y498D03*
X1301Y798D03*
X601Y498D03*
X601Y798D03*
G54D12*
X601Y98D03*
X601Y198D03*
X601Y298D03*
G54D10*
X301Y398D03*
X301Y698D03*
G54D13*
X601Y98D03*
G54D14*
X250Y975D02*
X449Y975D01*
D02*
X1049Y1575D02*
X850Y1575D01*
D02*
X250Y798D02*
X449Y798D01*
D02*
X1652Y798D02*
X1454Y798D01*
D02*
X850Y1398D02*
X1049Y1398D01*
D02*
X1049Y975D02*
X850Y975D01*
D02*
X850Y798D02*
X1049Y798D01*
D02*
X850Y198D02*
X1049Y198D01*
D02*
X1652Y975D02*
X1454Y975D01*
D02*
X850Y375D02*
X1049Y375D01*
G36*
X40Y1759D02*
X40Y1671D01*
X1710Y1671D01*
X1710Y1669D01*
X1720Y1669D01*
X1720Y1667D01*
X1726Y1667D01*
X1726Y1665D01*
X1730Y1665D01*
X1730Y1663D01*
X1734Y1663D01*
X1734Y1661D01*
X1738Y1661D01*
X1738Y1659D01*
X1740Y1659D01*
X1740Y1657D01*
X1744Y1657D01*
X1744Y1655D01*
X1746Y1655D01*
X1746Y1653D01*
X1748Y1653D01*
X1748Y1651D01*
X1750Y1651D01*
X1750Y1649D01*
X1752Y1649D01*
X1752Y1647D01*
X1754Y1647D01*
X1754Y1645D01*
X1756Y1645D01*
X1756Y1643D01*
X1758Y1643D01*
X1758Y1641D01*
X1760Y1641D01*
X1760Y1637D01*
X1762Y1637D01*
X1762Y1635D01*
X1764Y1635D01*
X1764Y1631D01*
X1766Y1631D01*
X1766Y1627D01*
X1768Y1627D01*
X1768Y1623D01*
X1770Y1623D01*
X1770Y1617D01*
X1772Y1617D01*
X1772Y1607D01*
X1774Y1607D01*
X1774Y1589D01*
X1772Y1589D01*
X1772Y1579D01*
X1770Y1579D01*
X1770Y1573D01*
X1768Y1573D01*
X1768Y1569D01*
X1766Y1569D01*
X1766Y1565D01*
X1764Y1565D01*
X1764Y1561D01*
X1762Y1561D01*
X1762Y1557D01*
X1760Y1557D01*
X1760Y1555D01*
X1758Y1555D01*
X1758Y1553D01*
X1756Y1553D01*
X1756Y1551D01*
X1754Y1551D01*
X1754Y1549D01*
X1752Y1549D01*
X1752Y1545D01*
X1748Y1545D01*
X1748Y1543D01*
X1746Y1543D01*
X1746Y1541D01*
X1744Y1541D01*
X1744Y1539D01*
X1742Y1539D01*
X1742Y1537D01*
X1738Y1537D01*
X1738Y1535D01*
X1736Y1535D01*
X1736Y1533D01*
X1732Y1533D01*
X1732Y1531D01*
X1726Y1531D01*
X1726Y1529D01*
X1722Y1529D01*
X1722Y1527D01*
X1714Y1527D01*
X1714Y1525D01*
X1856Y1525D01*
X1856Y1759D01*
X40Y1759D01*
G37*
D02*
G36*
X40Y1671D02*
X40Y1525D01*
X188Y1525D01*
X188Y1527D01*
X180Y1527D01*
X180Y1529D01*
X174Y1529D01*
X174Y1531D01*
X170Y1531D01*
X170Y1533D01*
X166Y1533D01*
X166Y1535D01*
X164Y1535D01*
X164Y1537D01*
X160Y1537D01*
X160Y1539D01*
X158Y1539D01*
X158Y1541D01*
X154Y1541D01*
X154Y1543D01*
X152Y1543D01*
X152Y1545D01*
X150Y1545D01*
X150Y1547D01*
X148Y1547D01*
X148Y1549D01*
X146Y1549D01*
X146Y1551D01*
X144Y1551D01*
X144Y1555D01*
X142Y1555D01*
X142Y1557D01*
X140Y1557D01*
X140Y1559D01*
X138Y1559D01*
X138Y1563D01*
X136Y1563D01*
X136Y1567D01*
X134Y1567D01*
X134Y1571D01*
X132Y1571D01*
X132Y1577D01*
X130Y1577D01*
X130Y1585D01*
X128Y1585D01*
X128Y1611D01*
X130Y1611D01*
X130Y1619D01*
X132Y1619D01*
X132Y1623D01*
X134Y1623D01*
X134Y1629D01*
X136Y1629D01*
X136Y1633D01*
X138Y1633D01*
X138Y1635D01*
X140Y1635D01*
X140Y1639D01*
X142Y1639D01*
X142Y1641D01*
X144Y1641D01*
X144Y1643D01*
X146Y1643D01*
X146Y1647D01*
X148Y1647D01*
X148Y1649D01*
X150Y1649D01*
X150Y1651D01*
X154Y1651D01*
X154Y1653D01*
X156Y1653D01*
X156Y1655D01*
X158Y1655D01*
X158Y1657D01*
X160Y1657D01*
X160Y1659D01*
X164Y1659D01*
X164Y1661D01*
X168Y1661D01*
X168Y1663D01*
X172Y1663D01*
X172Y1665D01*
X176Y1665D01*
X176Y1667D01*
X182Y1667D01*
X182Y1669D01*
X192Y1669D01*
X192Y1671D01*
X40Y1671D01*
G37*
D02*
G36*
X210Y1671D02*
X210Y1669D01*
X220Y1669D01*
X220Y1667D01*
X226Y1667D01*
X226Y1665D01*
X230Y1665D01*
X230Y1663D01*
X234Y1663D01*
X234Y1661D01*
X238Y1661D01*
X238Y1659D01*
X240Y1659D01*
X240Y1657D01*
X244Y1657D01*
X244Y1655D01*
X246Y1655D01*
X246Y1653D01*
X248Y1653D01*
X248Y1651D01*
X250Y1651D01*
X250Y1649D01*
X252Y1649D01*
X252Y1647D01*
X254Y1647D01*
X254Y1645D01*
X256Y1645D01*
X256Y1643D01*
X258Y1643D01*
X258Y1641D01*
X260Y1641D01*
X260Y1637D01*
X262Y1637D01*
X262Y1635D01*
X264Y1635D01*
X264Y1631D01*
X266Y1631D01*
X266Y1627D01*
X268Y1627D01*
X268Y1623D01*
X1084Y1623D01*
X1084Y1621D01*
X1090Y1621D01*
X1090Y1619D01*
X1096Y1619D01*
X1096Y1617D01*
X1100Y1617D01*
X1100Y1615D01*
X1102Y1615D01*
X1102Y1613D01*
X1104Y1613D01*
X1104Y1611D01*
X1108Y1611D01*
X1108Y1609D01*
X1110Y1609D01*
X1110Y1607D01*
X1112Y1607D01*
X1112Y1605D01*
X1114Y1605D01*
X1114Y1601D01*
X1116Y1601D01*
X1116Y1599D01*
X1118Y1599D01*
X1118Y1595D01*
X1120Y1595D01*
X1120Y1593D01*
X1122Y1593D01*
X1122Y1587D01*
X1124Y1587D01*
X1124Y1577D01*
X1126Y1577D01*
X1126Y1573D01*
X1124Y1573D01*
X1124Y1563D01*
X1122Y1563D01*
X1122Y1557D01*
X1120Y1557D01*
X1120Y1555D01*
X1118Y1555D01*
X1118Y1551D01*
X1116Y1551D01*
X1116Y1549D01*
X1114Y1549D01*
X1114Y1545D01*
X1112Y1545D01*
X1112Y1543D01*
X1110Y1543D01*
X1110Y1541D01*
X1108Y1541D01*
X1108Y1539D01*
X1104Y1539D01*
X1104Y1537D01*
X1102Y1537D01*
X1102Y1535D01*
X1098Y1535D01*
X1098Y1533D01*
X1096Y1533D01*
X1096Y1531D01*
X1090Y1531D01*
X1090Y1529D01*
X1084Y1529D01*
X1084Y1527D01*
X1680Y1527D01*
X1680Y1529D01*
X1674Y1529D01*
X1674Y1531D01*
X1670Y1531D01*
X1670Y1533D01*
X1666Y1533D01*
X1666Y1535D01*
X1664Y1535D01*
X1664Y1537D01*
X1660Y1537D01*
X1660Y1539D01*
X1658Y1539D01*
X1658Y1541D01*
X1654Y1541D01*
X1654Y1543D01*
X1652Y1543D01*
X1652Y1545D01*
X1650Y1545D01*
X1650Y1547D01*
X1648Y1547D01*
X1648Y1549D01*
X1646Y1549D01*
X1646Y1551D01*
X1644Y1551D01*
X1644Y1555D01*
X1642Y1555D01*
X1642Y1557D01*
X1640Y1557D01*
X1640Y1559D01*
X1638Y1559D01*
X1638Y1563D01*
X1636Y1563D01*
X1636Y1567D01*
X1634Y1567D01*
X1634Y1571D01*
X1632Y1571D01*
X1632Y1577D01*
X1630Y1577D01*
X1630Y1585D01*
X1628Y1585D01*
X1628Y1611D01*
X1630Y1611D01*
X1630Y1619D01*
X1632Y1619D01*
X1632Y1625D01*
X1634Y1625D01*
X1634Y1629D01*
X1636Y1629D01*
X1636Y1633D01*
X1638Y1633D01*
X1638Y1635D01*
X1640Y1635D01*
X1640Y1639D01*
X1642Y1639D01*
X1642Y1641D01*
X1644Y1641D01*
X1644Y1643D01*
X1646Y1643D01*
X1646Y1647D01*
X1648Y1647D01*
X1648Y1649D01*
X1650Y1649D01*
X1650Y1651D01*
X1654Y1651D01*
X1654Y1653D01*
X1656Y1653D01*
X1656Y1655D01*
X1658Y1655D01*
X1658Y1657D01*
X1660Y1657D01*
X1660Y1659D01*
X1664Y1659D01*
X1664Y1661D01*
X1668Y1661D01*
X1668Y1663D01*
X1672Y1663D01*
X1672Y1665D01*
X1676Y1665D01*
X1676Y1667D01*
X1682Y1667D01*
X1682Y1669D01*
X1692Y1669D01*
X1692Y1671D01*
X210Y1671D01*
G37*
D02*
G36*
X270Y1623D02*
X270Y1617D01*
X272Y1617D01*
X272Y1607D01*
X274Y1607D01*
X274Y1589D01*
X272Y1589D01*
X272Y1579D01*
X270Y1579D01*
X270Y1573D01*
X268Y1573D01*
X268Y1569D01*
X266Y1569D01*
X266Y1565D01*
X264Y1565D01*
X264Y1561D01*
X262Y1561D01*
X262Y1557D01*
X260Y1557D01*
X260Y1555D01*
X258Y1555D01*
X258Y1553D01*
X256Y1553D01*
X256Y1551D01*
X254Y1551D01*
X254Y1547D01*
X252Y1547D01*
X252Y1545D01*
X248Y1545D01*
X248Y1543D01*
X246Y1543D01*
X246Y1541D01*
X244Y1541D01*
X244Y1539D01*
X242Y1539D01*
X242Y1537D01*
X238Y1537D01*
X238Y1535D01*
X236Y1535D01*
X236Y1533D01*
X232Y1533D01*
X232Y1531D01*
X226Y1531D01*
X226Y1529D01*
X222Y1529D01*
X222Y1527D01*
X816Y1527D01*
X816Y1529D01*
X808Y1529D01*
X808Y1531D01*
X804Y1531D01*
X804Y1533D01*
X800Y1533D01*
X800Y1535D01*
X796Y1535D01*
X796Y1537D01*
X794Y1537D01*
X794Y1539D01*
X792Y1539D01*
X792Y1541D01*
X790Y1541D01*
X790Y1543D01*
X788Y1543D01*
X788Y1545D01*
X786Y1545D01*
X786Y1547D01*
X784Y1547D01*
X784Y1549D01*
X782Y1549D01*
X782Y1553D01*
X780Y1553D01*
X780Y1557D01*
X778Y1557D01*
X778Y1561D01*
X776Y1561D01*
X776Y1567D01*
X774Y1567D01*
X774Y1583D01*
X776Y1583D01*
X776Y1589D01*
X778Y1589D01*
X778Y1593D01*
X780Y1593D01*
X780Y1597D01*
X782Y1597D01*
X782Y1601D01*
X784Y1601D01*
X784Y1603D01*
X786Y1603D01*
X786Y1605D01*
X788Y1605D01*
X788Y1607D01*
X790Y1607D01*
X790Y1609D01*
X792Y1609D01*
X792Y1611D01*
X794Y1611D01*
X794Y1613D01*
X796Y1613D01*
X796Y1615D01*
X800Y1615D01*
X800Y1617D01*
X804Y1617D01*
X804Y1619D01*
X808Y1619D01*
X808Y1621D01*
X816Y1621D01*
X816Y1623D01*
X270Y1623D01*
G37*
D02*
G36*
X828Y1623D02*
X828Y1621D01*
X834Y1621D01*
X834Y1619D01*
X840Y1619D01*
X840Y1617D01*
X844Y1617D01*
X844Y1615D01*
X846Y1615D01*
X846Y1613D01*
X850Y1613D01*
X850Y1611D01*
X852Y1611D01*
X852Y1609D01*
X854Y1609D01*
X854Y1607D01*
X856Y1607D01*
X856Y1605D01*
X858Y1605D01*
X858Y1601D01*
X860Y1601D01*
X860Y1599D01*
X862Y1599D01*
X862Y1597D01*
X1038Y1597D01*
X1038Y1601D01*
X1040Y1601D01*
X1040Y1603D01*
X1042Y1603D01*
X1042Y1605D01*
X1044Y1605D01*
X1044Y1607D01*
X1046Y1607D01*
X1046Y1609D01*
X1048Y1609D01*
X1048Y1611D01*
X1050Y1611D01*
X1050Y1613D01*
X1052Y1613D01*
X1052Y1615D01*
X1056Y1615D01*
X1056Y1617D01*
X1060Y1617D01*
X1060Y1619D01*
X1064Y1619D01*
X1064Y1621D01*
X1072Y1621D01*
X1072Y1623D01*
X828Y1623D01*
G37*
D02*
G36*
X862Y1553D02*
X862Y1551D01*
X860Y1551D01*
X860Y1549D01*
X858Y1549D01*
X858Y1545D01*
X856Y1545D01*
X856Y1543D01*
X854Y1543D01*
X854Y1541D01*
X852Y1541D01*
X852Y1539D01*
X848Y1539D01*
X848Y1537D01*
X846Y1537D01*
X846Y1535D01*
X844Y1535D01*
X844Y1533D01*
X840Y1533D01*
X840Y1531D01*
X834Y1531D01*
X834Y1529D01*
X828Y1529D01*
X828Y1527D01*
X1072Y1527D01*
X1072Y1529D01*
X1064Y1529D01*
X1064Y1531D01*
X1060Y1531D01*
X1060Y1533D01*
X1056Y1533D01*
X1056Y1535D01*
X1052Y1535D01*
X1052Y1537D01*
X1050Y1537D01*
X1050Y1539D01*
X1048Y1539D01*
X1048Y1541D01*
X1046Y1541D01*
X1046Y1543D01*
X1044Y1543D01*
X1044Y1545D01*
X1042Y1545D01*
X1042Y1547D01*
X1040Y1547D01*
X1040Y1549D01*
X1038Y1549D01*
X1038Y1553D01*
X862Y1553D01*
G37*
D02*
G36*
X214Y1527D02*
X214Y1525D01*
X1688Y1525D01*
X1688Y1527D01*
X214Y1527D01*
G37*
D02*
G36*
X214Y1527D02*
X214Y1525D01*
X1688Y1525D01*
X1688Y1527D01*
X214Y1527D01*
G37*
D02*
G36*
X214Y1527D02*
X214Y1525D01*
X1688Y1525D01*
X1688Y1527D01*
X214Y1527D01*
G37*
D02*
G36*
X40Y1525D02*
X40Y1523D01*
X1856Y1523D01*
X1856Y1525D01*
X40Y1525D01*
G37*
D02*
G36*
X40Y1525D02*
X40Y1523D01*
X1856Y1523D01*
X1856Y1525D01*
X40Y1525D01*
G37*
D02*
G36*
X40Y1525D02*
X40Y1523D01*
X1856Y1523D01*
X1856Y1525D01*
X40Y1525D01*
G37*
D02*
G36*
X40Y1523D02*
X40Y1445D01*
X1088Y1445D01*
X1088Y1443D01*
X1092Y1443D01*
X1092Y1441D01*
X1098Y1441D01*
X1098Y1439D01*
X1100Y1439D01*
X1100Y1437D01*
X1104Y1437D01*
X1104Y1435D01*
X1106Y1435D01*
X1106Y1433D01*
X1108Y1433D01*
X1108Y1431D01*
X1110Y1431D01*
X1110Y1429D01*
X1112Y1429D01*
X1112Y1427D01*
X1114Y1427D01*
X1114Y1425D01*
X1116Y1425D01*
X1116Y1421D01*
X1118Y1421D01*
X1118Y1419D01*
X1120Y1419D01*
X1120Y1415D01*
X1122Y1415D01*
X1122Y1409D01*
X1124Y1409D01*
X1124Y1399D01*
X1126Y1399D01*
X1126Y1395D01*
X1124Y1395D01*
X1124Y1387D01*
X1122Y1387D01*
X1122Y1381D01*
X1120Y1381D01*
X1120Y1377D01*
X1118Y1377D01*
X1118Y1373D01*
X1116Y1373D01*
X1116Y1371D01*
X1114Y1371D01*
X1114Y1369D01*
X1112Y1369D01*
X1112Y1367D01*
X1110Y1367D01*
X1110Y1365D01*
X1108Y1365D01*
X1108Y1363D01*
X1106Y1363D01*
X1106Y1361D01*
X1104Y1361D01*
X1104Y1359D01*
X1100Y1359D01*
X1100Y1357D01*
X1098Y1357D01*
X1098Y1355D01*
X1094Y1355D01*
X1094Y1353D01*
X1088Y1353D01*
X1088Y1351D01*
X1856Y1351D01*
X1856Y1523D01*
X40Y1523D01*
G37*
D02*
G36*
X40Y1445D02*
X40Y1351D01*
X812Y1351D01*
X812Y1353D01*
X806Y1353D01*
X806Y1355D01*
X802Y1355D01*
X802Y1357D01*
X798Y1357D01*
X798Y1359D01*
X796Y1359D01*
X796Y1361D01*
X794Y1361D01*
X794Y1363D01*
X790Y1363D01*
X790Y1365D01*
X788Y1365D01*
X788Y1367D01*
X786Y1367D01*
X786Y1371D01*
X784Y1371D01*
X784Y1373D01*
X782Y1373D01*
X782Y1375D01*
X780Y1375D01*
X780Y1379D01*
X778Y1379D01*
X778Y1385D01*
X776Y1385D01*
X776Y1391D01*
X774Y1391D01*
X774Y1405D01*
X776Y1405D01*
X776Y1411D01*
X778Y1411D01*
X778Y1417D01*
X780Y1417D01*
X780Y1419D01*
X782Y1419D01*
X782Y1423D01*
X784Y1423D01*
X784Y1425D01*
X786Y1425D01*
X786Y1427D01*
X788Y1427D01*
X788Y1431D01*
X792Y1431D01*
X792Y1433D01*
X794Y1433D01*
X794Y1435D01*
X796Y1435D01*
X796Y1437D01*
X798Y1437D01*
X798Y1439D01*
X802Y1439D01*
X802Y1441D01*
X806Y1441D01*
X806Y1443D01*
X812Y1443D01*
X812Y1445D01*
X40Y1445D01*
G37*
D02*
G36*
X832Y1445D02*
X832Y1443D01*
X836Y1443D01*
X836Y1441D01*
X842Y1441D01*
X842Y1439D01*
X844Y1439D01*
X844Y1437D01*
X848Y1437D01*
X848Y1435D01*
X850Y1435D01*
X850Y1433D01*
X852Y1433D01*
X852Y1431D01*
X854Y1431D01*
X854Y1429D01*
X856Y1429D01*
X856Y1427D01*
X858Y1427D01*
X858Y1425D01*
X860Y1425D01*
X860Y1423D01*
X862Y1423D01*
X862Y1419D01*
X1038Y1419D01*
X1038Y1423D01*
X1040Y1423D01*
X1040Y1425D01*
X1042Y1425D01*
X1042Y1427D01*
X1044Y1427D01*
X1044Y1431D01*
X1046Y1431D01*
X1046Y1433D01*
X1050Y1433D01*
X1050Y1435D01*
X1052Y1435D01*
X1052Y1437D01*
X1054Y1437D01*
X1054Y1439D01*
X1058Y1439D01*
X1058Y1441D01*
X1062Y1441D01*
X1062Y1443D01*
X1068Y1443D01*
X1068Y1445D01*
X832Y1445D01*
G37*
D02*
G36*
X862Y1375D02*
X862Y1373D01*
X860Y1373D01*
X860Y1371D01*
X858Y1371D01*
X858Y1369D01*
X856Y1369D01*
X856Y1367D01*
X854Y1367D01*
X854Y1365D01*
X852Y1365D01*
X852Y1363D01*
X850Y1363D01*
X850Y1361D01*
X848Y1361D01*
X848Y1359D01*
X846Y1359D01*
X846Y1357D01*
X842Y1357D01*
X842Y1355D01*
X838Y1355D01*
X838Y1353D01*
X832Y1353D01*
X832Y1351D01*
X1068Y1351D01*
X1068Y1353D01*
X1062Y1353D01*
X1062Y1355D01*
X1058Y1355D01*
X1058Y1357D01*
X1054Y1357D01*
X1054Y1359D01*
X1052Y1359D01*
X1052Y1361D01*
X1048Y1361D01*
X1048Y1363D01*
X1046Y1363D01*
X1046Y1365D01*
X1044Y1365D01*
X1044Y1367D01*
X1042Y1367D01*
X1042Y1371D01*
X1040Y1371D01*
X1040Y1373D01*
X1038Y1373D01*
X1038Y1375D01*
X862Y1375D01*
G37*
D02*
G36*
X40Y1351D02*
X40Y1349D01*
X1856Y1349D01*
X1856Y1351D01*
X40Y1351D01*
G37*
D02*
G36*
X40Y1351D02*
X40Y1349D01*
X1856Y1349D01*
X1856Y1351D01*
X40Y1351D01*
G37*
D02*
G36*
X40Y1351D02*
X40Y1349D01*
X1856Y1349D01*
X1856Y1351D01*
X40Y1351D01*
G37*
D02*
G36*
X40Y1349D02*
X40Y1245D01*
X1210Y1245D01*
X1210Y1243D01*
X1216Y1243D01*
X1216Y1241D01*
X1220Y1241D01*
X1220Y1239D01*
X1224Y1239D01*
X1224Y1237D01*
X1226Y1237D01*
X1226Y1235D01*
X1228Y1235D01*
X1228Y1233D01*
X1232Y1233D01*
X1232Y1231D01*
X1234Y1231D01*
X1234Y1229D01*
X1236Y1229D01*
X1236Y1225D01*
X1238Y1225D01*
X1238Y1223D01*
X1240Y1223D01*
X1240Y1221D01*
X1242Y1221D01*
X1242Y1217D01*
X1244Y1217D01*
X1244Y1213D01*
X1246Y1213D01*
X1246Y1207D01*
X1248Y1207D01*
X1248Y1189D01*
X1246Y1189D01*
X1246Y1183D01*
X1244Y1183D01*
X1244Y1179D01*
X1242Y1179D01*
X1242Y1175D01*
X1240Y1175D01*
X1240Y1173D01*
X1238Y1173D01*
X1238Y1169D01*
X1236Y1169D01*
X1236Y1167D01*
X1234Y1167D01*
X1234Y1165D01*
X1232Y1165D01*
X1232Y1163D01*
X1230Y1163D01*
X1230Y1161D01*
X1228Y1161D01*
X1228Y1159D01*
X1224Y1159D01*
X1224Y1157D01*
X1220Y1157D01*
X1220Y1155D01*
X1216Y1155D01*
X1216Y1153D01*
X1212Y1153D01*
X1212Y1151D01*
X1856Y1151D01*
X1856Y1349D01*
X40Y1349D01*
G37*
D02*
G36*
X40Y1245D02*
X40Y1151D01*
X590Y1151D01*
X590Y1153D01*
X584Y1153D01*
X584Y1155D01*
X580Y1155D01*
X580Y1157D01*
X578Y1157D01*
X578Y1159D01*
X574Y1159D01*
X574Y1161D01*
X572Y1161D01*
X572Y1163D01*
X570Y1163D01*
X570Y1165D01*
X568Y1165D01*
X568Y1167D01*
X566Y1167D01*
X566Y1169D01*
X564Y1169D01*
X564Y1171D01*
X562Y1171D01*
X562Y1175D01*
X560Y1175D01*
X560Y1177D01*
X558Y1177D01*
X558Y1181D01*
X556Y1181D01*
X556Y1187D01*
X554Y1187D01*
X554Y1209D01*
X556Y1209D01*
X556Y1215D01*
X558Y1215D01*
X558Y1219D01*
X560Y1219D01*
X560Y1221D01*
X562Y1221D01*
X562Y1225D01*
X564Y1225D01*
X564Y1227D01*
X566Y1227D01*
X566Y1229D01*
X568Y1229D01*
X568Y1231D01*
X570Y1231D01*
X570Y1233D01*
X572Y1233D01*
X572Y1235D01*
X574Y1235D01*
X574Y1237D01*
X578Y1237D01*
X578Y1239D01*
X582Y1239D01*
X582Y1241D01*
X586Y1241D01*
X586Y1243D01*
X592Y1243D01*
X592Y1245D01*
X40Y1245D01*
G37*
D02*
G36*
X610Y1245D02*
X610Y1243D01*
X616Y1243D01*
X616Y1241D01*
X620Y1241D01*
X620Y1239D01*
X624Y1239D01*
X624Y1237D01*
X626Y1237D01*
X626Y1235D01*
X628Y1235D01*
X628Y1233D01*
X632Y1233D01*
X632Y1231D01*
X634Y1231D01*
X634Y1229D01*
X636Y1229D01*
X636Y1225D01*
X638Y1225D01*
X638Y1223D01*
X640Y1223D01*
X640Y1221D01*
X642Y1221D01*
X642Y1217D01*
X644Y1217D01*
X644Y1213D01*
X646Y1213D01*
X646Y1207D01*
X648Y1207D01*
X648Y1189D01*
X646Y1189D01*
X646Y1183D01*
X644Y1183D01*
X644Y1179D01*
X642Y1179D01*
X642Y1175D01*
X640Y1175D01*
X640Y1173D01*
X638Y1173D01*
X638Y1169D01*
X636Y1169D01*
X636Y1167D01*
X634Y1167D01*
X634Y1165D01*
X632Y1165D01*
X632Y1163D01*
X630Y1163D01*
X630Y1161D01*
X628Y1161D01*
X628Y1159D01*
X624Y1159D01*
X624Y1157D01*
X620Y1157D01*
X620Y1155D01*
X616Y1155D01*
X616Y1153D01*
X612Y1153D01*
X612Y1151D01*
X1190Y1151D01*
X1190Y1153D01*
X1184Y1153D01*
X1184Y1155D01*
X1180Y1155D01*
X1180Y1157D01*
X1178Y1157D01*
X1178Y1159D01*
X1174Y1159D01*
X1174Y1161D01*
X1172Y1161D01*
X1172Y1163D01*
X1170Y1163D01*
X1170Y1165D01*
X1168Y1165D01*
X1168Y1167D01*
X1166Y1167D01*
X1166Y1169D01*
X1164Y1169D01*
X1164Y1171D01*
X1162Y1171D01*
X1162Y1175D01*
X1160Y1175D01*
X1160Y1177D01*
X1158Y1177D01*
X1158Y1181D01*
X1156Y1181D01*
X1156Y1187D01*
X1154Y1187D01*
X1154Y1209D01*
X1156Y1209D01*
X1156Y1215D01*
X1158Y1215D01*
X1158Y1219D01*
X1160Y1219D01*
X1160Y1221D01*
X1162Y1221D01*
X1162Y1225D01*
X1164Y1225D01*
X1164Y1227D01*
X1166Y1227D01*
X1166Y1229D01*
X1168Y1229D01*
X1168Y1231D01*
X1170Y1231D01*
X1170Y1233D01*
X1172Y1233D01*
X1172Y1235D01*
X1174Y1235D01*
X1174Y1237D01*
X1178Y1237D01*
X1178Y1239D01*
X1182Y1239D01*
X1182Y1241D01*
X1186Y1241D01*
X1186Y1243D01*
X1192Y1243D01*
X1192Y1245D01*
X610Y1245D01*
G37*
D02*
G36*
X40Y1151D02*
X40Y1149D01*
X1856Y1149D01*
X1856Y1151D01*
X40Y1151D01*
G37*
D02*
G36*
X40Y1151D02*
X40Y1149D01*
X1856Y1149D01*
X1856Y1151D01*
X40Y1151D01*
G37*
D02*
G36*
X40Y1151D02*
X40Y1149D01*
X1856Y1149D01*
X1856Y1151D01*
X40Y1151D01*
G37*
D02*
G36*
X40Y1149D02*
X40Y1023D01*
X1688Y1023D01*
X1688Y1021D01*
X1694Y1021D01*
X1694Y1019D01*
X1700Y1019D01*
X1700Y1017D01*
X1702Y1017D01*
X1702Y1015D01*
X1706Y1015D01*
X1706Y1013D01*
X1708Y1013D01*
X1708Y1011D01*
X1710Y1011D01*
X1710Y1009D01*
X1714Y1009D01*
X1714Y1005D01*
X1716Y1005D01*
X1716Y1003D01*
X1718Y1003D01*
X1718Y1001D01*
X1720Y1001D01*
X1720Y999D01*
X1722Y999D01*
X1722Y995D01*
X1724Y995D01*
X1724Y991D01*
X1726Y991D01*
X1726Y985D01*
X1728Y985D01*
X1728Y965D01*
X1726Y965D01*
X1726Y959D01*
X1724Y959D01*
X1724Y955D01*
X1722Y955D01*
X1722Y953D01*
X1720Y953D01*
X1720Y949D01*
X1718Y949D01*
X1718Y947D01*
X1716Y947D01*
X1716Y945D01*
X1714Y945D01*
X1714Y943D01*
X1712Y943D01*
X1712Y941D01*
X1710Y941D01*
X1710Y939D01*
X1708Y939D01*
X1708Y937D01*
X1706Y937D01*
X1706Y935D01*
X1702Y935D01*
X1702Y933D01*
X1698Y933D01*
X1698Y931D01*
X1692Y931D01*
X1692Y929D01*
X1684Y929D01*
X1684Y927D01*
X1856Y927D01*
X1856Y1149D01*
X40Y1149D01*
G37*
D02*
G36*
X40Y1023D02*
X40Y927D01*
X218Y927D01*
X218Y929D01*
X210Y929D01*
X210Y931D01*
X204Y931D01*
X204Y933D01*
X200Y933D01*
X200Y935D01*
X198Y935D01*
X198Y937D01*
X194Y937D01*
X194Y939D01*
X192Y939D01*
X192Y941D01*
X190Y941D01*
X190Y943D01*
X188Y943D01*
X188Y945D01*
X186Y945D01*
X186Y947D01*
X184Y947D01*
X184Y951D01*
X182Y951D01*
X182Y953D01*
X180Y953D01*
X180Y957D01*
X178Y957D01*
X178Y961D01*
X176Y961D01*
X176Y967D01*
X174Y967D01*
X174Y983D01*
X176Y983D01*
X176Y989D01*
X178Y989D01*
X178Y993D01*
X180Y993D01*
X180Y997D01*
X182Y997D01*
X182Y1001D01*
X184Y1001D01*
X184Y1003D01*
X186Y1003D01*
X186Y1005D01*
X188Y1005D01*
X188Y1007D01*
X190Y1007D01*
X190Y1009D01*
X192Y1009D01*
X192Y1011D01*
X194Y1011D01*
X194Y1013D01*
X196Y1013D01*
X196Y1015D01*
X200Y1015D01*
X200Y1017D01*
X204Y1017D01*
X204Y1019D01*
X208Y1019D01*
X208Y1021D01*
X214Y1021D01*
X214Y1023D01*
X40Y1023D01*
G37*
D02*
G36*
X228Y1023D02*
X228Y1021D01*
X236Y1021D01*
X236Y1019D01*
X240Y1019D01*
X240Y1017D01*
X244Y1017D01*
X244Y1015D01*
X246Y1015D01*
X246Y1013D01*
X250Y1013D01*
X250Y1011D01*
X252Y1011D01*
X252Y1009D01*
X254Y1009D01*
X254Y1007D01*
X256Y1007D01*
X256Y1005D01*
X258Y1005D01*
X258Y1003D01*
X260Y1003D01*
X260Y999D01*
X262Y999D01*
X262Y997D01*
X438Y997D01*
X438Y1001D01*
X440Y1001D01*
X440Y1003D01*
X442Y1003D01*
X442Y1005D01*
X444Y1005D01*
X444Y1007D01*
X446Y1007D01*
X446Y1009D01*
X448Y1009D01*
X448Y1011D01*
X450Y1011D01*
X450Y1013D01*
X452Y1013D01*
X452Y1015D01*
X456Y1015D01*
X456Y1017D01*
X460Y1017D01*
X460Y1019D01*
X464Y1019D01*
X464Y1021D01*
X470Y1021D01*
X470Y1023D01*
X228Y1023D01*
G37*
D02*
G36*
X484Y1023D02*
X484Y1021D01*
X492Y1021D01*
X492Y1019D01*
X496Y1019D01*
X496Y1017D01*
X500Y1017D01*
X500Y1015D01*
X502Y1015D01*
X502Y1013D01*
X506Y1013D01*
X506Y1011D01*
X508Y1011D01*
X508Y1009D01*
X510Y1009D01*
X510Y1007D01*
X512Y1007D01*
X512Y1005D01*
X514Y1005D01*
X514Y1003D01*
X516Y1003D01*
X516Y999D01*
X518Y999D01*
X518Y995D01*
X520Y995D01*
X520Y993D01*
X522Y993D01*
X522Y987D01*
X524Y987D01*
X524Y977D01*
X526Y977D01*
X526Y973D01*
X524Y973D01*
X524Y963D01*
X522Y963D01*
X522Y959D01*
X520Y959D01*
X520Y955D01*
X518Y955D01*
X518Y951D01*
X516Y951D01*
X516Y949D01*
X514Y949D01*
X514Y947D01*
X512Y947D01*
X512Y945D01*
X610Y945D01*
X610Y943D01*
X616Y943D01*
X616Y941D01*
X620Y941D01*
X620Y939D01*
X624Y939D01*
X624Y937D01*
X626Y937D01*
X626Y935D01*
X628Y935D01*
X628Y933D01*
X632Y933D01*
X632Y931D01*
X634Y931D01*
X634Y929D01*
X636Y929D01*
X636Y927D01*
X818Y927D01*
X818Y929D01*
X810Y929D01*
X810Y931D01*
X804Y931D01*
X804Y933D01*
X800Y933D01*
X800Y935D01*
X798Y935D01*
X798Y937D01*
X794Y937D01*
X794Y939D01*
X792Y939D01*
X792Y941D01*
X790Y941D01*
X790Y943D01*
X788Y943D01*
X788Y945D01*
X786Y945D01*
X786Y947D01*
X784Y947D01*
X784Y951D01*
X782Y951D01*
X782Y953D01*
X780Y953D01*
X780Y957D01*
X778Y957D01*
X778Y961D01*
X776Y961D01*
X776Y967D01*
X774Y967D01*
X774Y983D01*
X776Y983D01*
X776Y989D01*
X778Y989D01*
X778Y993D01*
X780Y993D01*
X780Y997D01*
X782Y997D01*
X782Y1001D01*
X784Y1001D01*
X784Y1003D01*
X786Y1003D01*
X786Y1005D01*
X788Y1005D01*
X788Y1007D01*
X790Y1007D01*
X790Y1009D01*
X792Y1009D01*
X792Y1011D01*
X794Y1011D01*
X794Y1013D01*
X796Y1013D01*
X796Y1015D01*
X800Y1015D01*
X800Y1017D01*
X804Y1017D01*
X804Y1019D01*
X808Y1019D01*
X808Y1021D01*
X814Y1021D01*
X814Y1023D01*
X484Y1023D01*
G37*
D02*
G36*
X828Y1023D02*
X828Y1021D01*
X836Y1021D01*
X836Y1019D01*
X840Y1019D01*
X840Y1017D01*
X844Y1017D01*
X844Y1015D01*
X846Y1015D01*
X846Y1013D01*
X850Y1013D01*
X850Y1011D01*
X852Y1011D01*
X852Y1009D01*
X854Y1009D01*
X854Y1007D01*
X856Y1007D01*
X856Y1005D01*
X858Y1005D01*
X858Y1003D01*
X860Y1003D01*
X860Y999D01*
X862Y999D01*
X862Y997D01*
X1038Y997D01*
X1038Y1001D01*
X1040Y1001D01*
X1040Y1003D01*
X1042Y1003D01*
X1042Y1005D01*
X1044Y1005D01*
X1044Y1007D01*
X1046Y1007D01*
X1046Y1009D01*
X1048Y1009D01*
X1048Y1011D01*
X1050Y1011D01*
X1050Y1013D01*
X1052Y1013D01*
X1052Y1015D01*
X1056Y1015D01*
X1056Y1017D01*
X1060Y1017D01*
X1060Y1019D01*
X1064Y1019D01*
X1064Y1021D01*
X1070Y1021D01*
X1070Y1023D01*
X828Y1023D01*
G37*
D02*
G36*
X1084Y1023D02*
X1084Y1021D01*
X1092Y1021D01*
X1092Y1019D01*
X1096Y1019D01*
X1096Y1017D01*
X1100Y1017D01*
X1100Y1015D01*
X1102Y1015D01*
X1102Y1013D01*
X1106Y1013D01*
X1106Y1011D01*
X1108Y1011D01*
X1108Y1009D01*
X1110Y1009D01*
X1110Y1007D01*
X1112Y1007D01*
X1112Y1005D01*
X1114Y1005D01*
X1114Y1003D01*
X1116Y1003D01*
X1116Y999D01*
X1118Y999D01*
X1118Y995D01*
X1120Y995D01*
X1120Y993D01*
X1122Y993D01*
X1122Y987D01*
X1124Y987D01*
X1124Y977D01*
X1126Y977D01*
X1126Y973D01*
X1124Y973D01*
X1124Y963D01*
X1122Y963D01*
X1122Y959D01*
X1120Y959D01*
X1120Y955D01*
X1118Y955D01*
X1118Y951D01*
X1116Y951D01*
X1116Y949D01*
X1114Y949D01*
X1114Y947D01*
X1112Y947D01*
X1112Y945D01*
X1210Y945D01*
X1210Y943D01*
X1216Y943D01*
X1216Y941D01*
X1220Y941D01*
X1220Y939D01*
X1224Y939D01*
X1224Y937D01*
X1226Y937D01*
X1226Y935D01*
X1228Y935D01*
X1228Y933D01*
X1232Y933D01*
X1232Y931D01*
X1234Y931D01*
X1234Y929D01*
X1236Y929D01*
X1236Y927D01*
X1422Y927D01*
X1422Y929D01*
X1412Y929D01*
X1412Y931D01*
X1408Y931D01*
X1408Y933D01*
X1404Y933D01*
X1404Y935D01*
X1400Y935D01*
X1400Y937D01*
X1398Y937D01*
X1398Y939D01*
X1396Y939D01*
X1396Y941D01*
X1394Y941D01*
X1394Y943D01*
X1392Y943D01*
X1392Y945D01*
X1390Y945D01*
X1390Y947D01*
X1388Y947D01*
X1388Y949D01*
X1386Y949D01*
X1386Y953D01*
X1384Y953D01*
X1384Y955D01*
X1382Y955D01*
X1382Y959D01*
X1380Y959D01*
X1380Y965D01*
X1378Y965D01*
X1378Y985D01*
X1380Y985D01*
X1380Y991D01*
X1382Y991D01*
X1382Y995D01*
X1384Y995D01*
X1384Y999D01*
X1386Y999D01*
X1386Y1001D01*
X1388Y1001D01*
X1388Y1003D01*
X1390Y1003D01*
X1390Y1007D01*
X1392Y1007D01*
X1392Y1009D01*
X1396Y1009D01*
X1396Y1011D01*
X1398Y1011D01*
X1398Y1013D01*
X1400Y1013D01*
X1400Y1015D01*
X1404Y1015D01*
X1404Y1017D01*
X1406Y1017D01*
X1406Y1019D01*
X1412Y1019D01*
X1412Y1021D01*
X1418Y1021D01*
X1418Y1023D01*
X1084Y1023D01*
G37*
D02*
G36*
X1432Y1023D02*
X1432Y1021D01*
X1438Y1021D01*
X1438Y1019D01*
X1444Y1019D01*
X1444Y1017D01*
X1446Y1017D01*
X1446Y1015D01*
X1450Y1015D01*
X1450Y1013D01*
X1452Y1013D01*
X1452Y1011D01*
X1454Y1011D01*
X1454Y1009D01*
X1458Y1009D01*
X1458Y1007D01*
X1460Y1007D01*
X1460Y1003D01*
X1462Y1003D01*
X1462Y1001D01*
X1464Y1001D01*
X1464Y999D01*
X1466Y999D01*
X1466Y997D01*
X1640Y997D01*
X1640Y999D01*
X1642Y999D01*
X1642Y1001D01*
X1644Y1001D01*
X1644Y1003D01*
X1646Y1003D01*
X1646Y1007D01*
X1648Y1007D01*
X1648Y1009D01*
X1650Y1009D01*
X1650Y1011D01*
X1654Y1011D01*
X1654Y1013D01*
X1656Y1013D01*
X1656Y1015D01*
X1660Y1015D01*
X1660Y1017D01*
X1662Y1017D01*
X1662Y1019D01*
X1668Y1019D01*
X1668Y1021D01*
X1674Y1021D01*
X1674Y1023D01*
X1432Y1023D01*
G37*
D02*
G36*
X262Y953D02*
X262Y951D01*
X260Y951D01*
X260Y949D01*
X258Y949D01*
X258Y945D01*
X256Y945D01*
X256Y943D01*
X254Y943D01*
X254Y941D01*
X252Y941D01*
X252Y939D01*
X248Y939D01*
X248Y937D01*
X246Y937D01*
X246Y935D01*
X242Y935D01*
X242Y933D01*
X240Y933D01*
X240Y931D01*
X234Y931D01*
X234Y929D01*
X226Y929D01*
X226Y927D01*
X474Y927D01*
X474Y929D01*
X466Y929D01*
X466Y931D01*
X460Y931D01*
X460Y933D01*
X456Y933D01*
X456Y935D01*
X454Y935D01*
X454Y937D01*
X450Y937D01*
X450Y939D01*
X448Y939D01*
X448Y941D01*
X446Y941D01*
X446Y943D01*
X444Y943D01*
X444Y945D01*
X442Y945D01*
X442Y947D01*
X440Y947D01*
X440Y949D01*
X438Y949D01*
X438Y953D01*
X262Y953D01*
G37*
D02*
G36*
X862Y953D02*
X862Y951D01*
X860Y951D01*
X860Y949D01*
X858Y949D01*
X858Y945D01*
X856Y945D01*
X856Y943D01*
X854Y943D01*
X854Y941D01*
X852Y941D01*
X852Y939D01*
X848Y939D01*
X848Y937D01*
X846Y937D01*
X846Y935D01*
X842Y935D01*
X842Y933D01*
X840Y933D01*
X840Y931D01*
X834Y931D01*
X834Y929D01*
X826Y929D01*
X826Y927D01*
X1074Y927D01*
X1074Y929D01*
X1066Y929D01*
X1066Y931D01*
X1060Y931D01*
X1060Y933D01*
X1056Y933D01*
X1056Y935D01*
X1054Y935D01*
X1054Y937D01*
X1050Y937D01*
X1050Y939D01*
X1048Y939D01*
X1048Y941D01*
X1046Y941D01*
X1046Y943D01*
X1044Y943D01*
X1044Y945D01*
X1042Y945D01*
X1042Y947D01*
X1040Y947D01*
X1040Y949D01*
X1038Y949D01*
X1038Y953D01*
X862Y953D01*
G37*
D02*
G36*
X1464Y953D02*
X1464Y949D01*
X1462Y949D01*
X1462Y947D01*
X1460Y947D01*
X1460Y945D01*
X1458Y945D01*
X1458Y943D01*
X1456Y943D01*
X1456Y941D01*
X1454Y941D01*
X1454Y939D01*
X1452Y939D01*
X1452Y937D01*
X1450Y937D01*
X1450Y935D01*
X1446Y935D01*
X1446Y933D01*
X1442Y933D01*
X1442Y931D01*
X1438Y931D01*
X1438Y929D01*
X1428Y929D01*
X1428Y927D01*
X1678Y927D01*
X1678Y929D01*
X1668Y929D01*
X1668Y931D01*
X1664Y931D01*
X1664Y933D01*
X1660Y933D01*
X1660Y935D01*
X1656Y935D01*
X1656Y937D01*
X1654Y937D01*
X1654Y939D01*
X1652Y939D01*
X1652Y941D01*
X1650Y941D01*
X1650Y943D01*
X1648Y943D01*
X1648Y945D01*
X1646Y945D01*
X1646Y947D01*
X1644Y947D01*
X1644Y949D01*
X1642Y949D01*
X1642Y953D01*
X1464Y953D01*
G37*
D02*
G36*
X512Y945D02*
X512Y943D01*
X510Y943D01*
X510Y941D01*
X506Y941D01*
X506Y939D01*
X504Y939D01*
X504Y937D01*
X502Y937D01*
X502Y935D01*
X498Y935D01*
X498Y933D01*
X496Y933D01*
X496Y931D01*
X490Y931D01*
X490Y929D01*
X482Y929D01*
X482Y927D01*
X566Y927D01*
X566Y929D01*
X568Y929D01*
X568Y931D01*
X570Y931D01*
X570Y933D01*
X572Y933D01*
X572Y935D01*
X574Y935D01*
X574Y937D01*
X578Y937D01*
X578Y939D01*
X582Y939D01*
X582Y941D01*
X586Y941D01*
X586Y943D01*
X592Y943D01*
X592Y945D01*
X512Y945D01*
G37*
D02*
G36*
X1112Y945D02*
X1112Y943D01*
X1110Y943D01*
X1110Y941D01*
X1106Y941D01*
X1106Y939D01*
X1104Y939D01*
X1104Y937D01*
X1102Y937D01*
X1102Y935D01*
X1098Y935D01*
X1098Y933D01*
X1096Y933D01*
X1096Y931D01*
X1090Y931D01*
X1090Y929D01*
X1082Y929D01*
X1082Y927D01*
X1166Y927D01*
X1166Y929D01*
X1168Y929D01*
X1168Y931D01*
X1170Y931D01*
X1170Y933D01*
X1172Y933D01*
X1172Y935D01*
X1174Y935D01*
X1174Y937D01*
X1178Y937D01*
X1178Y939D01*
X1182Y939D01*
X1182Y941D01*
X1186Y941D01*
X1186Y943D01*
X1192Y943D01*
X1192Y945D01*
X1112Y945D01*
G37*
D02*
G36*
X40Y927D02*
X40Y925D01*
X564Y925D01*
X564Y927D01*
X40Y927D01*
G37*
D02*
G36*
X40Y927D02*
X40Y925D01*
X564Y925D01*
X564Y927D01*
X40Y927D01*
G37*
D02*
G36*
X40Y927D02*
X40Y925D01*
X564Y925D01*
X564Y927D01*
X40Y927D01*
G37*
D02*
G36*
X636Y927D02*
X636Y925D01*
X1164Y925D01*
X1164Y927D01*
X636Y927D01*
G37*
D02*
G36*
X636Y927D02*
X636Y925D01*
X1164Y925D01*
X1164Y927D01*
X636Y927D01*
G37*
D02*
G36*
X636Y927D02*
X636Y925D01*
X1164Y925D01*
X1164Y927D01*
X636Y927D01*
G37*
D02*
G36*
X1236Y927D02*
X1236Y925D01*
X1856Y925D01*
X1856Y927D01*
X1236Y927D01*
G37*
D02*
G36*
X1236Y927D02*
X1236Y925D01*
X1856Y925D01*
X1856Y927D01*
X1236Y927D01*
G37*
D02*
G36*
X1236Y927D02*
X1236Y925D01*
X1856Y925D01*
X1856Y927D01*
X1236Y927D01*
G37*
D02*
G36*
X40Y925D02*
X40Y845D01*
X488Y845D01*
X488Y843D01*
X494Y843D01*
X494Y841D01*
X498Y841D01*
X498Y839D01*
X500Y839D01*
X500Y837D01*
X504Y837D01*
X504Y835D01*
X506Y835D01*
X506Y833D01*
X508Y833D01*
X508Y831D01*
X510Y831D01*
X510Y829D01*
X512Y829D01*
X512Y827D01*
X514Y827D01*
X514Y825D01*
X516Y825D01*
X516Y823D01*
X518Y823D01*
X518Y819D01*
X520Y819D01*
X520Y815D01*
X522Y815D01*
X522Y809D01*
X524Y809D01*
X524Y801D01*
X526Y801D01*
X526Y797D01*
X524Y797D01*
X524Y787D01*
X522Y787D01*
X522Y781D01*
X520Y781D01*
X520Y777D01*
X518Y777D01*
X518Y773D01*
X516Y773D01*
X516Y771D01*
X514Y771D01*
X514Y769D01*
X512Y769D01*
X512Y767D01*
X510Y767D01*
X510Y765D01*
X508Y765D01*
X508Y763D01*
X506Y763D01*
X506Y761D01*
X504Y761D01*
X504Y759D01*
X500Y759D01*
X500Y757D01*
X498Y757D01*
X498Y755D01*
X494Y755D01*
X494Y753D01*
X488Y753D01*
X488Y751D01*
X590Y751D01*
X590Y753D01*
X584Y753D01*
X584Y755D01*
X580Y755D01*
X580Y757D01*
X578Y757D01*
X578Y759D01*
X574Y759D01*
X574Y761D01*
X572Y761D01*
X572Y763D01*
X570Y763D01*
X570Y765D01*
X568Y765D01*
X568Y767D01*
X566Y767D01*
X566Y769D01*
X564Y769D01*
X564Y771D01*
X562Y771D01*
X562Y775D01*
X560Y775D01*
X560Y777D01*
X558Y777D01*
X558Y781D01*
X556Y781D01*
X556Y787D01*
X554Y787D01*
X554Y809D01*
X556Y809D01*
X556Y815D01*
X558Y815D01*
X558Y819D01*
X560Y819D01*
X560Y821D01*
X562Y821D01*
X562Y825D01*
X564Y825D01*
X564Y827D01*
X566Y827D01*
X566Y829D01*
X568Y829D01*
X568Y831D01*
X570Y831D01*
X570Y833D01*
X572Y833D01*
X572Y835D01*
X574Y835D01*
X574Y837D01*
X578Y837D01*
X578Y859D01*
X574Y859D01*
X574Y861D01*
X572Y861D01*
X572Y863D01*
X570Y863D01*
X570Y865D01*
X568Y865D01*
X568Y867D01*
X566Y867D01*
X566Y869D01*
X564Y869D01*
X564Y871D01*
X562Y871D01*
X562Y875D01*
X560Y875D01*
X560Y877D01*
X558Y877D01*
X558Y881D01*
X556Y881D01*
X556Y887D01*
X554Y887D01*
X554Y909D01*
X556Y909D01*
X556Y915D01*
X558Y915D01*
X558Y919D01*
X560Y919D01*
X560Y921D01*
X562Y921D01*
X562Y925D01*
X40Y925D01*
G37*
D02*
G36*
X638Y925D02*
X638Y923D01*
X640Y923D01*
X640Y921D01*
X642Y921D01*
X642Y917D01*
X644Y917D01*
X644Y913D01*
X646Y913D01*
X646Y907D01*
X648Y907D01*
X648Y889D01*
X646Y889D01*
X646Y883D01*
X644Y883D01*
X644Y879D01*
X642Y879D01*
X642Y875D01*
X640Y875D01*
X640Y873D01*
X638Y873D01*
X638Y869D01*
X636Y869D01*
X636Y867D01*
X634Y867D01*
X634Y865D01*
X632Y865D01*
X632Y863D01*
X630Y863D01*
X630Y861D01*
X628Y861D01*
X628Y859D01*
X624Y859D01*
X624Y845D01*
X1088Y845D01*
X1088Y843D01*
X1094Y843D01*
X1094Y841D01*
X1098Y841D01*
X1098Y839D01*
X1100Y839D01*
X1100Y837D01*
X1104Y837D01*
X1104Y835D01*
X1106Y835D01*
X1106Y833D01*
X1108Y833D01*
X1108Y831D01*
X1110Y831D01*
X1110Y829D01*
X1112Y829D01*
X1112Y827D01*
X1114Y827D01*
X1114Y825D01*
X1116Y825D01*
X1116Y823D01*
X1118Y823D01*
X1118Y819D01*
X1120Y819D01*
X1120Y815D01*
X1122Y815D01*
X1122Y809D01*
X1124Y809D01*
X1124Y801D01*
X1126Y801D01*
X1126Y797D01*
X1124Y797D01*
X1124Y787D01*
X1122Y787D01*
X1122Y781D01*
X1120Y781D01*
X1120Y777D01*
X1118Y777D01*
X1118Y773D01*
X1116Y773D01*
X1116Y771D01*
X1114Y771D01*
X1114Y769D01*
X1112Y769D01*
X1112Y767D01*
X1110Y767D01*
X1110Y765D01*
X1108Y765D01*
X1108Y763D01*
X1106Y763D01*
X1106Y761D01*
X1104Y761D01*
X1104Y759D01*
X1100Y759D01*
X1100Y757D01*
X1098Y757D01*
X1098Y755D01*
X1094Y755D01*
X1094Y753D01*
X1088Y753D01*
X1088Y751D01*
X1190Y751D01*
X1190Y753D01*
X1184Y753D01*
X1184Y755D01*
X1180Y755D01*
X1180Y757D01*
X1178Y757D01*
X1178Y759D01*
X1174Y759D01*
X1174Y761D01*
X1172Y761D01*
X1172Y763D01*
X1170Y763D01*
X1170Y765D01*
X1168Y765D01*
X1168Y767D01*
X1166Y767D01*
X1166Y769D01*
X1164Y769D01*
X1164Y771D01*
X1162Y771D01*
X1162Y775D01*
X1160Y775D01*
X1160Y777D01*
X1158Y777D01*
X1158Y781D01*
X1156Y781D01*
X1156Y787D01*
X1154Y787D01*
X1154Y809D01*
X1156Y809D01*
X1156Y815D01*
X1158Y815D01*
X1158Y819D01*
X1160Y819D01*
X1160Y821D01*
X1162Y821D01*
X1162Y825D01*
X1164Y825D01*
X1164Y827D01*
X1166Y827D01*
X1166Y829D01*
X1168Y829D01*
X1168Y831D01*
X1170Y831D01*
X1170Y833D01*
X1172Y833D01*
X1172Y835D01*
X1174Y835D01*
X1174Y837D01*
X1178Y837D01*
X1178Y859D01*
X1174Y859D01*
X1174Y861D01*
X1172Y861D01*
X1172Y863D01*
X1170Y863D01*
X1170Y865D01*
X1168Y865D01*
X1168Y867D01*
X1166Y867D01*
X1166Y869D01*
X1164Y869D01*
X1164Y871D01*
X1162Y871D01*
X1162Y875D01*
X1160Y875D01*
X1160Y877D01*
X1158Y877D01*
X1158Y881D01*
X1156Y881D01*
X1156Y887D01*
X1154Y887D01*
X1154Y909D01*
X1156Y909D01*
X1156Y915D01*
X1158Y915D01*
X1158Y919D01*
X1160Y919D01*
X1160Y921D01*
X1162Y921D01*
X1162Y925D01*
X638Y925D01*
G37*
D02*
G36*
X1238Y925D02*
X1238Y923D01*
X1240Y923D01*
X1240Y921D01*
X1242Y921D01*
X1242Y917D01*
X1244Y917D01*
X1244Y913D01*
X1246Y913D01*
X1246Y907D01*
X1248Y907D01*
X1248Y889D01*
X1246Y889D01*
X1246Y883D01*
X1244Y883D01*
X1244Y879D01*
X1242Y879D01*
X1242Y875D01*
X1240Y875D01*
X1240Y873D01*
X1238Y873D01*
X1238Y869D01*
X1236Y869D01*
X1236Y867D01*
X1234Y867D01*
X1234Y865D01*
X1232Y865D01*
X1232Y863D01*
X1230Y863D01*
X1230Y861D01*
X1228Y861D01*
X1228Y859D01*
X1224Y859D01*
X1224Y845D01*
X1692Y845D01*
X1692Y843D01*
X1696Y843D01*
X1696Y841D01*
X1700Y841D01*
X1700Y839D01*
X1704Y839D01*
X1704Y837D01*
X1708Y837D01*
X1708Y835D01*
X1710Y835D01*
X1710Y833D01*
X1712Y833D01*
X1712Y831D01*
X1714Y831D01*
X1714Y829D01*
X1716Y829D01*
X1716Y827D01*
X1718Y827D01*
X1718Y825D01*
X1720Y825D01*
X1720Y821D01*
X1722Y821D01*
X1722Y817D01*
X1724Y817D01*
X1724Y813D01*
X1726Y813D01*
X1726Y807D01*
X1728Y807D01*
X1728Y789D01*
X1726Y789D01*
X1726Y783D01*
X1724Y783D01*
X1724Y779D01*
X1722Y779D01*
X1722Y775D01*
X1720Y775D01*
X1720Y773D01*
X1718Y773D01*
X1718Y769D01*
X1716Y769D01*
X1716Y767D01*
X1714Y767D01*
X1714Y765D01*
X1712Y765D01*
X1712Y763D01*
X1710Y763D01*
X1710Y761D01*
X1706Y761D01*
X1706Y759D01*
X1704Y759D01*
X1704Y757D01*
X1700Y757D01*
X1700Y755D01*
X1696Y755D01*
X1696Y753D01*
X1690Y753D01*
X1690Y751D01*
X1856Y751D01*
X1856Y925D01*
X1238Y925D01*
G37*
D02*
G36*
X40Y845D02*
X40Y751D01*
X212Y751D01*
X212Y753D01*
X206Y753D01*
X206Y755D01*
X202Y755D01*
X202Y757D01*
X198Y757D01*
X198Y759D01*
X196Y759D01*
X196Y761D01*
X194Y761D01*
X194Y763D01*
X190Y763D01*
X190Y765D01*
X188Y765D01*
X188Y769D01*
X186Y769D01*
X186Y771D01*
X184Y771D01*
X184Y773D01*
X182Y773D01*
X182Y777D01*
X180Y777D01*
X180Y779D01*
X178Y779D01*
X178Y785D01*
X176Y785D01*
X176Y791D01*
X174Y791D01*
X174Y805D01*
X176Y805D01*
X176Y811D01*
X178Y811D01*
X178Y817D01*
X180Y817D01*
X180Y819D01*
X182Y819D01*
X182Y823D01*
X184Y823D01*
X184Y825D01*
X186Y825D01*
X186Y829D01*
X188Y829D01*
X188Y831D01*
X190Y831D01*
X190Y833D01*
X194Y833D01*
X194Y835D01*
X196Y835D01*
X196Y837D01*
X198Y837D01*
X198Y839D01*
X202Y839D01*
X202Y841D01*
X206Y841D01*
X206Y843D01*
X212Y843D01*
X212Y845D01*
X40Y845D01*
G37*
D02*
G36*
X232Y845D02*
X232Y843D01*
X238Y843D01*
X238Y841D01*
X242Y841D01*
X242Y839D01*
X244Y839D01*
X244Y837D01*
X248Y837D01*
X248Y835D01*
X250Y835D01*
X250Y833D01*
X252Y833D01*
X252Y831D01*
X254Y831D01*
X254Y829D01*
X256Y829D01*
X256Y827D01*
X258Y827D01*
X258Y825D01*
X260Y825D01*
X260Y823D01*
X262Y823D01*
X262Y821D01*
X438Y821D01*
X438Y823D01*
X440Y823D01*
X440Y825D01*
X442Y825D01*
X442Y829D01*
X444Y829D01*
X444Y831D01*
X446Y831D01*
X446Y833D01*
X450Y833D01*
X450Y835D01*
X452Y835D01*
X452Y837D01*
X454Y837D01*
X454Y839D01*
X458Y839D01*
X458Y841D01*
X462Y841D01*
X462Y843D01*
X468Y843D01*
X468Y845D01*
X232Y845D01*
G37*
D02*
G36*
X624Y845D02*
X624Y837D01*
X626Y837D01*
X626Y835D01*
X628Y835D01*
X628Y833D01*
X632Y833D01*
X632Y831D01*
X634Y831D01*
X634Y829D01*
X636Y829D01*
X636Y825D01*
X638Y825D01*
X638Y823D01*
X640Y823D01*
X640Y821D01*
X662Y821D01*
X662Y825D01*
X664Y825D01*
X664Y827D01*
X666Y827D01*
X666Y829D01*
X668Y829D01*
X668Y831D01*
X670Y831D01*
X670Y833D01*
X672Y833D01*
X672Y835D01*
X674Y835D01*
X674Y837D01*
X678Y837D01*
X678Y839D01*
X682Y839D01*
X682Y841D01*
X686Y841D01*
X686Y843D01*
X692Y843D01*
X692Y845D01*
X624Y845D01*
G37*
D02*
G36*
X710Y845D02*
X710Y843D01*
X716Y843D01*
X716Y841D01*
X720Y841D01*
X720Y839D01*
X724Y839D01*
X724Y837D01*
X726Y837D01*
X726Y835D01*
X728Y835D01*
X728Y833D01*
X732Y833D01*
X732Y831D01*
X734Y831D01*
X734Y829D01*
X736Y829D01*
X736Y825D01*
X738Y825D01*
X738Y823D01*
X740Y823D01*
X740Y821D01*
X742Y821D01*
X742Y817D01*
X744Y817D01*
X744Y813D01*
X746Y813D01*
X746Y807D01*
X748Y807D01*
X748Y789D01*
X746Y789D01*
X746Y783D01*
X744Y783D01*
X744Y779D01*
X742Y779D01*
X742Y775D01*
X740Y775D01*
X740Y773D01*
X738Y773D01*
X738Y769D01*
X736Y769D01*
X736Y767D01*
X734Y767D01*
X734Y765D01*
X732Y765D01*
X732Y763D01*
X730Y763D01*
X730Y761D01*
X728Y761D01*
X728Y759D01*
X724Y759D01*
X724Y757D01*
X720Y757D01*
X720Y755D01*
X716Y755D01*
X716Y753D01*
X712Y753D01*
X712Y751D01*
X812Y751D01*
X812Y753D01*
X806Y753D01*
X806Y755D01*
X802Y755D01*
X802Y757D01*
X798Y757D01*
X798Y759D01*
X796Y759D01*
X796Y761D01*
X794Y761D01*
X794Y763D01*
X790Y763D01*
X790Y765D01*
X788Y765D01*
X788Y769D01*
X786Y769D01*
X786Y771D01*
X784Y771D01*
X784Y773D01*
X782Y773D01*
X782Y777D01*
X780Y777D01*
X780Y779D01*
X778Y779D01*
X778Y785D01*
X776Y785D01*
X776Y791D01*
X774Y791D01*
X774Y805D01*
X776Y805D01*
X776Y811D01*
X778Y811D01*
X778Y817D01*
X780Y817D01*
X780Y819D01*
X782Y819D01*
X782Y823D01*
X784Y823D01*
X784Y825D01*
X786Y825D01*
X786Y829D01*
X788Y829D01*
X788Y831D01*
X790Y831D01*
X790Y833D01*
X794Y833D01*
X794Y835D01*
X796Y835D01*
X796Y837D01*
X798Y837D01*
X798Y839D01*
X802Y839D01*
X802Y841D01*
X806Y841D01*
X806Y843D01*
X812Y843D01*
X812Y845D01*
X710Y845D01*
G37*
D02*
G36*
X832Y845D02*
X832Y843D01*
X838Y843D01*
X838Y841D01*
X842Y841D01*
X842Y839D01*
X844Y839D01*
X844Y837D01*
X848Y837D01*
X848Y835D01*
X850Y835D01*
X850Y833D01*
X852Y833D01*
X852Y831D01*
X854Y831D01*
X854Y829D01*
X856Y829D01*
X856Y827D01*
X858Y827D01*
X858Y825D01*
X860Y825D01*
X860Y823D01*
X862Y823D01*
X862Y821D01*
X1038Y821D01*
X1038Y823D01*
X1040Y823D01*
X1040Y825D01*
X1042Y825D01*
X1042Y829D01*
X1044Y829D01*
X1044Y831D01*
X1046Y831D01*
X1046Y833D01*
X1050Y833D01*
X1050Y835D01*
X1052Y835D01*
X1052Y837D01*
X1054Y837D01*
X1054Y839D01*
X1058Y839D01*
X1058Y841D01*
X1062Y841D01*
X1062Y843D01*
X1068Y843D01*
X1068Y845D01*
X832Y845D01*
G37*
D02*
G36*
X1224Y845D02*
X1224Y837D01*
X1226Y837D01*
X1226Y835D01*
X1228Y835D01*
X1228Y833D01*
X1232Y833D01*
X1232Y831D01*
X1234Y831D01*
X1234Y829D01*
X1236Y829D01*
X1236Y825D01*
X1238Y825D01*
X1238Y823D01*
X1240Y823D01*
X1240Y821D01*
X1262Y821D01*
X1262Y825D01*
X1264Y825D01*
X1264Y827D01*
X1266Y827D01*
X1266Y829D01*
X1268Y829D01*
X1268Y831D01*
X1270Y831D01*
X1270Y833D01*
X1272Y833D01*
X1272Y835D01*
X1274Y835D01*
X1274Y837D01*
X1278Y837D01*
X1278Y839D01*
X1282Y839D01*
X1282Y841D01*
X1286Y841D01*
X1286Y843D01*
X1292Y843D01*
X1292Y845D01*
X1224Y845D01*
G37*
D02*
G36*
X1310Y845D02*
X1310Y843D01*
X1316Y843D01*
X1316Y841D01*
X1320Y841D01*
X1320Y839D01*
X1324Y839D01*
X1324Y837D01*
X1326Y837D01*
X1326Y835D01*
X1328Y835D01*
X1328Y833D01*
X1332Y833D01*
X1332Y831D01*
X1334Y831D01*
X1334Y829D01*
X1336Y829D01*
X1336Y825D01*
X1338Y825D01*
X1338Y823D01*
X1340Y823D01*
X1340Y821D01*
X1342Y821D01*
X1342Y817D01*
X1344Y817D01*
X1344Y813D01*
X1346Y813D01*
X1346Y807D01*
X1348Y807D01*
X1348Y789D01*
X1346Y789D01*
X1346Y783D01*
X1344Y783D01*
X1344Y779D01*
X1342Y779D01*
X1342Y775D01*
X1340Y775D01*
X1340Y773D01*
X1338Y773D01*
X1338Y769D01*
X1336Y769D01*
X1336Y767D01*
X1334Y767D01*
X1334Y765D01*
X1332Y765D01*
X1332Y763D01*
X1330Y763D01*
X1330Y761D01*
X1328Y761D01*
X1328Y759D01*
X1324Y759D01*
X1324Y757D01*
X1320Y757D01*
X1320Y755D01*
X1316Y755D01*
X1316Y753D01*
X1312Y753D01*
X1312Y751D01*
X1416Y751D01*
X1416Y753D01*
X1410Y753D01*
X1410Y755D01*
X1406Y755D01*
X1406Y757D01*
X1402Y757D01*
X1402Y759D01*
X1398Y759D01*
X1398Y761D01*
X1396Y761D01*
X1396Y763D01*
X1394Y763D01*
X1394Y765D01*
X1392Y765D01*
X1392Y767D01*
X1390Y767D01*
X1390Y769D01*
X1388Y769D01*
X1388Y771D01*
X1386Y771D01*
X1386Y775D01*
X1384Y775D01*
X1384Y779D01*
X1382Y779D01*
X1382Y783D01*
X1380Y783D01*
X1380Y789D01*
X1378Y789D01*
X1378Y809D01*
X1380Y809D01*
X1380Y813D01*
X1382Y813D01*
X1382Y817D01*
X1384Y817D01*
X1384Y821D01*
X1386Y821D01*
X1386Y825D01*
X1388Y825D01*
X1388Y827D01*
X1390Y827D01*
X1390Y829D01*
X1392Y829D01*
X1392Y831D01*
X1394Y831D01*
X1394Y833D01*
X1396Y833D01*
X1396Y835D01*
X1398Y835D01*
X1398Y837D01*
X1402Y837D01*
X1402Y839D01*
X1406Y839D01*
X1406Y841D01*
X1410Y841D01*
X1410Y843D01*
X1414Y843D01*
X1414Y845D01*
X1310Y845D01*
G37*
D02*
G36*
X1436Y845D02*
X1436Y843D01*
X1440Y843D01*
X1440Y841D01*
X1444Y841D01*
X1444Y839D01*
X1448Y839D01*
X1448Y837D01*
X1452Y837D01*
X1452Y835D01*
X1454Y835D01*
X1454Y833D01*
X1456Y833D01*
X1456Y831D01*
X1458Y831D01*
X1458Y829D01*
X1460Y829D01*
X1460Y827D01*
X1462Y827D01*
X1462Y825D01*
X1464Y825D01*
X1464Y821D01*
X1642Y821D01*
X1642Y825D01*
X1644Y825D01*
X1644Y827D01*
X1646Y827D01*
X1646Y829D01*
X1648Y829D01*
X1648Y831D01*
X1650Y831D01*
X1650Y833D01*
X1652Y833D01*
X1652Y835D01*
X1654Y835D01*
X1654Y837D01*
X1658Y837D01*
X1658Y839D01*
X1662Y839D01*
X1662Y841D01*
X1666Y841D01*
X1666Y843D01*
X1670Y843D01*
X1670Y845D01*
X1436Y845D01*
G37*
D02*
G36*
X262Y777D02*
X262Y773D01*
X260Y773D01*
X260Y771D01*
X258Y771D01*
X258Y769D01*
X256Y769D01*
X256Y767D01*
X254Y767D01*
X254Y765D01*
X252Y765D01*
X252Y763D01*
X250Y763D01*
X250Y761D01*
X248Y761D01*
X248Y759D01*
X244Y759D01*
X244Y757D01*
X242Y757D01*
X242Y755D01*
X238Y755D01*
X238Y753D01*
X232Y753D01*
X232Y751D01*
X468Y751D01*
X468Y753D01*
X462Y753D01*
X462Y755D01*
X458Y755D01*
X458Y757D01*
X454Y757D01*
X454Y759D01*
X452Y759D01*
X452Y761D01*
X450Y761D01*
X450Y763D01*
X446Y763D01*
X446Y765D01*
X444Y765D01*
X444Y767D01*
X442Y767D01*
X442Y771D01*
X440Y771D01*
X440Y773D01*
X438Y773D01*
X438Y777D01*
X262Y777D01*
G37*
D02*
G36*
X862Y777D02*
X862Y773D01*
X860Y773D01*
X860Y771D01*
X858Y771D01*
X858Y769D01*
X856Y769D01*
X856Y767D01*
X854Y767D01*
X854Y765D01*
X852Y765D01*
X852Y763D01*
X850Y763D01*
X850Y761D01*
X848Y761D01*
X848Y759D01*
X844Y759D01*
X844Y757D01*
X842Y757D01*
X842Y755D01*
X838Y755D01*
X838Y753D01*
X832Y753D01*
X832Y751D01*
X1068Y751D01*
X1068Y753D01*
X1062Y753D01*
X1062Y755D01*
X1058Y755D01*
X1058Y757D01*
X1054Y757D01*
X1054Y759D01*
X1052Y759D01*
X1052Y761D01*
X1050Y761D01*
X1050Y763D01*
X1046Y763D01*
X1046Y765D01*
X1044Y765D01*
X1044Y767D01*
X1042Y767D01*
X1042Y771D01*
X1040Y771D01*
X1040Y773D01*
X1038Y773D01*
X1038Y777D01*
X862Y777D01*
G37*
D02*
G36*
X1466Y777D02*
X1466Y775D01*
X1464Y775D01*
X1464Y771D01*
X1462Y771D01*
X1462Y769D01*
X1460Y769D01*
X1460Y767D01*
X1458Y767D01*
X1458Y765D01*
X1456Y765D01*
X1456Y763D01*
X1454Y763D01*
X1454Y761D01*
X1452Y761D01*
X1452Y759D01*
X1448Y759D01*
X1448Y757D01*
X1444Y757D01*
X1444Y755D01*
X1440Y755D01*
X1440Y753D01*
X1434Y753D01*
X1434Y751D01*
X1672Y751D01*
X1672Y753D01*
X1666Y753D01*
X1666Y755D01*
X1662Y755D01*
X1662Y757D01*
X1658Y757D01*
X1658Y759D01*
X1654Y759D01*
X1654Y761D01*
X1652Y761D01*
X1652Y763D01*
X1650Y763D01*
X1650Y765D01*
X1648Y765D01*
X1648Y767D01*
X1646Y767D01*
X1646Y769D01*
X1644Y769D01*
X1644Y771D01*
X1642Y771D01*
X1642Y775D01*
X1640Y775D01*
X1640Y777D01*
X1466Y777D01*
G37*
D02*
G36*
X640Y775D02*
X640Y773D01*
X638Y773D01*
X638Y769D01*
X636Y769D01*
X636Y767D01*
X634Y767D01*
X634Y765D01*
X632Y765D01*
X632Y763D01*
X630Y763D01*
X630Y761D01*
X628Y761D01*
X628Y759D01*
X624Y759D01*
X624Y757D01*
X620Y757D01*
X620Y755D01*
X616Y755D01*
X616Y753D01*
X612Y753D01*
X612Y751D01*
X690Y751D01*
X690Y753D01*
X684Y753D01*
X684Y755D01*
X680Y755D01*
X680Y757D01*
X678Y757D01*
X678Y759D01*
X674Y759D01*
X674Y761D01*
X672Y761D01*
X672Y763D01*
X670Y763D01*
X670Y765D01*
X668Y765D01*
X668Y767D01*
X666Y767D01*
X666Y769D01*
X664Y769D01*
X664Y771D01*
X662Y771D01*
X662Y775D01*
X640Y775D01*
G37*
D02*
G36*
X1240Y775D02*
X1240Y773D01*
X1238Y773D01*
X1238Y769D01*
X1236Y769D01*
X1236Y767D01*
X1234Y767D01*
X1234Y765D01*
X1232Y765D01*
X1232Y763D01*
X1230Y763D01*
X1230Y761D01*
X1228Y761D01*
X1228Y759D01*
X1224Y759D01*
X1224Y757D01*
X1220Y757D01*
X1220Y755D01*
X1216Y755D01*
X1216Y753D01*
X1212Y753D01*
X1212Y751D01*
X1290Y751D01*
X1290Y753D01*
X1284Y753D01*
X1284Y755D01*
X1280Y755D01*
X1280Y757D01*
X1278Y757D01*
X1278Y759D01*
X1274Y759D01*
X1274Y761D01*
X1272Y761D01*
X1272Y763D01*
X1270Y763D01*
X1270Y765D01*
X1268Y765D01*
X1268Y767D01*
X1266Y767D01*
X1266Y769D01*
X1264Y769D01*
X1264Y771D01*
X1262Y771D01*
X1262Y775D01*
X1240Y775D01*
G37*
D02*
G36*
X40Y751D02*
X40Y749D01*
X1856Y749D01*
X1856Y751D01*
X40Y751D01*
G37*
D02*
G36*
X40Y751D02*
X40Y749D01*
X1856Y749D01*
X1856Y751D01*
X40Y751D01*
G37*
D02*
G36*
X40Y751D02*
X40Y749D01*
X1856Y749D01*
X1856Y751D01*
X40Y751D01*
G37*
D02*
G36*
X40Y751D02*
X40Y749D01*
X1856Y749D01*
X1856Y751D01*
X40Y751D01*
G37*
D02*
G36*
X40Y751D02*
X40Y749D01*
X1856Y749D01*
X1856Y751D01*
X40Y751D01*
G37*
D02*
G36*
X40Y751D02*
X40Y749D01*
X1856Y749D01*
X1856Y751D01*
X40Y751D01*
G37*
D02*
G36*
X40Y751D02*
X40Y749D01*
X1856Y749D01*
X1856Y751D01*
X40Y751D01*
G37*
D02*
G36*
X40Y751D02*
X40Y749D01*
X1856Y749D01*
X1856Y751D01*
X40Y751D01*
G37*
D02*
G36*
X40Y751D02*
X40Y749D01*
X1856Y749D01*
X1856Y751D01*
X40Y751D01*
G37*
D02*
G36*
X40Y751D02*
X40Y749D01*
X1856Y749D01*
X1856Y751D01*
X40Y751D01*
G37*
D02*
G36*
X40Y751D02*
X40Y749D01*
X1856Y749D01*
X1856Y751D01*
X40Y751D01*
G37*
D02*
G36*
X40Y749D02*
X40Y745D01*
X310Y745D01*
X310Y743D01*
X316Y743D01*
X316Y741D01*
X320Y741D01*
X320Y739D01*
X324Y739D01*
X324Y737D01*
X326Y737D01*
X326Y735D01*
X328Y735D01*
X328Y733D01*
X332Y733D01*
X332Y731D01*
X334Y731D01*
X334Y729D01*
X336Y729D01*
X336Y725D01*
X338Y725D01*
X338Y723D01*
X340Y723D01*
X340Y721D01*
X342Y721D01*
X342Y717D01*
X344Y717D01*
X344Y713D01*
X346Y713D01*
X346Y707D01*
X348Y707D01*
X348Y689D01*
X346Y689D01*
X346Y683D01*
X344Y683D01*
X344Y679D01*
X342Y679D01*
X342Y675D01*
X340Y675D01*
X340Y673D01*
X338Y673D01*
X338Y669D01*
X336Y669D01*
X336Y667D01*
X334Y667D01*
X334Y665D01*
X332Y665D01*
X332Y663D01*
X330Y663D01*
X330Y661D01*
X328Y661D01*
X328Y659D01*
X324Y659D01*
X324Y657D01*
X320Y657D01*
X320Y655D01*
X316Y655D01*
X316Y653D01*
X312Y653D01*
X312Y651D01*
X1856Y651D01*
X1856Y749D01*
X40Y749D01*
G37*
D02*
G36*
X40Y745D02*
X40Y651D01*
X290Y651D01*
X290Y653D01*
X284Y653D01*
X284Y655D01*
X280Y655D01*
X280Y657D01*
X278Y657D01*
X278Y659D01*
X274Y659D01*
X274Y661D01*
X272Y661D01*
X272Y663D01*
X270Y663D01*
X270Y665D01*
X268Y665D01*
X268Y667D01*
X266Y667D01*
X266Y669D01*
X264Y669D01*
X264Y671D01*
X262Y671D01*
X262Y675D01*
X260Y675D01*
X260Y677D01*
X258Y677D01*
X258Y681D01*
X256Y681D01*
X256Y687D01*
X254Y687D01*
X254Y709D01*
X256Y709D01*
X256Y715D01*
X258Y715D01*
X258Y719D01*
X260Y719D01*
X260Y721D01*
X262Y721D01*
X262Y725D01*
X264Y725D01*
X264Y727D01*
X266Y727D01*
X266Y729D01*
X268Y729D01*
X268Y731D01*
X270Y731D01*
X270Y733D01*
X272Y733D01*
X272Y735D01*
X274Y735D01*
X274Y737D01*
X278Y737D01*
X278Y739D01*
X282Y739D01*
X282Y741D01*
X286Y741D01*
X286Y743D01*
X292Y743D01*
X292Y745D01*
X40Y745D01*
G37*
D02*
G36*
X40Y651D02*
X40Y649D01*
X1856Y649D01*
X1856Y651D01*
X40Y651D01*
G37*
D02*
G36*
X40Y651D02*
X40Y649D01*
X1856Y649D01*
X1856Y651D01*
X40Y651D01*
G37*
D02*
G36*
X40Y649D02*
X40Y647D01*
X208Y647D01*
X208Y645D01*
X214Y645D01*
X214Y643D01*
X220Y643D01*
X220Y641D01*
X222Y641D01*
X222Y639D01*
X226Y639D01*
X226Y637D01*
X228Y637D01*
X228Y635D01*
X232Y635D01*
X232Y633D01*
X234Y633D01*
X234Y631D01*
X236Y631D01*
X236Y629D01*
X238Y629D01*
X238Y625D01*
X240Y625D01*
X240Y623D01*
X242Y623D01*
X242Y619D01*
X244Y619D01*
X244Y617D01*
X246Y617D01*
X246Y611D01*
X248Y611D01*
X248Y605D01*
X250Y605D01*
X250Y591D01*
X248Y591D01*
X248Y585D01*
X246Y585D01*
X246Y579D01*
X244Y579D01*
X244Y575D01*
X242Y575D01*
X242Y573D01*
X240Y573D01*
X240Y569D01*
X238Y569D01*
X238Y567D01*
X236Y567D01*
X236Y565D01*
X234Y565D01*
X234Y563D01*
X232Y563D01*
X232Y561D01*
X230Y561D01*
X230Y559D01*
X226Y559D01*
X226Y545D01*
X1310Y545D01*
X1310Y543D01*
X1316Y543D01*
X1316Y541D01*
X1320Y541D01*
X1320Y539D01*
X1324Y539D01*
X1324Y537D01*
X1326Y537D01*
X1326Y535D01*
X1328Y535D01*
X1328Y533D01*
X1332Y533D01*
X1332Y531D01*
X1334Y531D01*
X1334Y529D01*
X1336Y529D01*
X1336Y525D01*
X1338Y525D01*
X1338Y523D01*
X1340Y523D01*
X1340Y521D01*
X1342Y521D01*
X1342Y517D01*
X1344Y517D01*
X1344Y513D01*
X1346Y513D01*
X1346Y507D01*
X1348Y507D01*
X1348Y489D01*
X1346Y489D01*
X1346Y483D01*
X1344Y483D01*
X1344Y479D01*
X1342Y479D01*
X1342Y475D01*
X1340Y475D01*
X1340Y473D01*
X1338Y473D01*
X1338Y469D01*
X1336Y469D01*
X1336Y467D01*
X1334Y467D01*
X1334Y465D01*
X1332Y465D01*
X1332Y463D01*
X1330Y463D01*
X1330Y461D01*
X1328Y461D01*
X1328Y459D01*
X1324Y459D01*
X1324Y457D01*
X1320Y457D01*
X1320Y455D01*
X1316Y455D01*
X1316Y453D01*
X1312Y453D01*
X1312Y451D01*
X1856Y451D01*
X1856Y649D01*
X40Y649D01*
G37*
D02*
G36*
X40Y647D02*
X40Y449D01*
X192Y449D01*
X192Y451D01*
X186Y451D01*
X186Y453D01*
X182Y453D01*
X182Y455D01*
X178Y455D01*
X178Y457D01*
X174Y457D01*
X174Y459D01*
X172Y459D01*
X172Y461D01*
X170Y461D01*
X170Y463D01*
X168Y463D01*
X168Y465D01*
X166Y465D01*
X166Y467D01*
X164Y467D01*
X164Y469D01*
X162Y469D01*
X162Y471D01*
X160Y471D01*
X160Y475D01*
X158Y475D01*
X158Y477D01*
X156Y477D01*
X156Y483D01*
X154Y483D01*
X154Y489D01*
X152Y489D01*
X152Y507D01*
X154Y507D01*
X154Y513D01*
X156Y513D01*
X156Y517D01*
X158Y517D01*
X158Y521D01*
X160Y521D01*
X160Y525D01*
X162Y525D01*
X162Y527D01*
X164Y527D01*
X164Y529D01*
X166Y529D01*
X166Y531D01*
X168Y531D01*
X168Y533D01*
X170Y533D01*
X170Y535D01*
X172Y535D01*
X172Y537D01*
X176Y537D01*
X176Y557D01*
X174Y557D01*
X174Y559D01*
X172Y559D01*
X172Y561D01*
X170Y561D01*
X170Y563D01*
X168Y563D01*
X168Y565D01*
X166Y565D01*
X166Y567D01*
X164Y567D01*
X164Y569D01*
X162Y569D01*
X162Y571D01*
X160Y571D01*
X160Y575D01*
X158Y575D01*
X158Y577D01*
X156Y577D01*
X156Y583D01*
X154Y583D01*
X154Y589D01*
X152Y589D01*
X152Y607D01*
X154Y607D01*
X154Y613D01*
X156Y613D01*
X156Y617D01*
X158Y617D01*
X158Y621D01*
X160Y621D01*
X160Y625D01*
X162Y625D01*
X162Y627D01*
X164Y627D01*
X164Y629D01*
X166Y629D01*
X166Y631D01*
X168Y631D01*
X168Y633D01*
X170Y633D01*
X170Y635D01*
X172Y635D01*
X172Y637D01*
X176Y637D01*
X176Y639D01*
X178Y639D01*
X178Y641D01*
X182Y641D01*
X182Y643D01*
X186Y643D01*
X186Y645D01*
X194Y645D01*
X194Y647D01*
X40Y647D01*
G37*
D02*
G36*
X226Y545D02*
X226Y537D01*
X228Y537D01*
X228Y535D01*
X232Y535D01*
X232Y533D01*
X234Y533D01*
X234Y531D01*
X236Y531D01*
X236Y529D01*
X238Y529D01*
X238Y525D01*
X240Y525D01*
X240Y523D01*
X242Y523D01*
X242Y519D01*
X244Y519D01*
X244Y517D01*
X246Y517D01*
X246Y511D01*
X248Y511D01*
X248Y505D01*
X250Y505D01*
X250Y491D01*
X248Y491D01*
X248Y485D01*
X246Y485D01*
X246Y479D01*
X244Y479D01*
X244Y475D01*
X242Y475D01*
X242Y473D01*
X240Y473D01*
X240Y469D01*
X238Y469D01*
X238Y467D01*
X236Y467D01*
X236Y465D01*
X234Y465D01*
X234Y463D01*
X232Y463D01*
X232Y461D01*
X230Y461D01*
X230Y459D01*
X226Y459D01*
X226Y457D01*
X224Y457D01*
X224Y455D01*
X220Y455D01*
X220Y453D01*
X216Y453D01*
X216Y451D01*
X590Y451D01*
X590Y453D01*
X584Y453D01*
X584Y455D01*
X580Y455D01*
X580Y457D01*
X578Y457D01*
X578Y459D01*
X574Y459D01*
X574Y461D01*
X572Y461D01*
X572Y463D01*
X570Y463D01*
X570Y465D01*
X568Y465D01*
X568Y467D01*
X566Y467D01*
X566Y469D01*
X564Y469D01*
X564Y471D01*
X562Y471D01*
X562Y475D01*
X560Y475D01*
X560Y477D01*
X558Y477D01*
X558Y481D01*
X556Y481D01*
X556Y487D01*
X554Y487D01*
X554Y509D01*
X556Y509D01*
X556Y515D01*
X558Y515D01*
X558Y519D01*
X560Y519D01*
X560Y521D01*
X562Y521D01*
X562Y525D01*
X564Y525D01*
X564Y527D01*
X566Y527D01*
X566Y529D01*
X568Y529D01*
X568Y531D01*
X570Y531D01*
X570Y533D01*
X572Y533D01*
X572Y535D01*
X574Y535D01*
X574Y537D01*
X578Y537D01*
X578Y539D01*
X582Y539D01*
X582Y541D01*
X586Y541D01*
X586Y543D01*
X592Y543D01*
X592Y545D01*
X226Y545D01*
G37*
D02*
G36*
X610Y545D02*
X610Y543D01*
X616Y543D01*
X616Y541D01*
X620Y541D01*
X620Y539D01*
X624Y539D01*
X624Y537D01*
X626Y537D01*
X626Y535D01*
X628Y535D01*
X628Y533D01*
X632Y533D01*
X632Y531D01*
X634Y531D01*
X634Y529D01*
X636Y529D01*
X636Y525D01*
X638Y525D01*
X638Y523D01*
X640Y523D01*
X640Y521D01*
X662Y521D01*
X662Y525D01*
X664Y525D01*
X664Y527D01*
X666Y527D01*
X666Y529D01*
X668Y529D01*
X668Y531D01*
X670Y531D01*
X670Y533D01*
X672Y533D01*
X672Y535D01*
X674Y535D01*
X674Y537D01*
X678Y537D01*
X678Y539D01*
X682Y539D01*
X682Y541D01*
X686Y541D01*
X686Y543D01*
X692Y543D01*
X692Y545D01*
X610Y545D01*
G37*
D02*
G36*
X710Y545D02*
X710Y543D01*
X716Y543D01*
X716Y541D01*
X720Y541D01*
X720Y539D01*
X724Y539D01*
X724Y537D01*
X726Y537D01*
X726Y535D01*
X728Y535D01*
X728Y533D01*
X732Y533D01*
X732Y531D01*
X734Y531D01*
X734Y529D01*
X736Y529D01*
X736Y525D01*
X738Y525D01*
X738Y523D01*
X740Y523D01*
X740Y521D01*
X742Y521D01*
X742Y517D01*
X744Y517D01*
X744Y513D01*
X746Y513D01*
X746Y507D01*
X748Y507D01*
X748Y489D01*
X746Y489D01*
X746Y483D01*
X744Y483D01*
X744Y479D01*
X742Y479D01*
X742Y475D01*
X740Y475D01*
X740Y473D01*
X738Y473D01*
X738Y469D01*
X736Y469D01*
X736Y467D01*
X734Y467D01*
X734Y465D01*
X732Y465D01*
X732Y463D01*
X730Y463D01*
X730Y461D01*
X728Y461D01*
X728Y459D01*
X724Y459D01*
X724Y457D01*
X720Y457D01*
X720Y455D01*
X716Y455D01*
X716Y453D01*
X712Y453D01*
X712Y451D01*
X1190Y451D01*
X1190Y453D01*
X1184Y453D01*
X1184Y455D01*
X1180Y455D01*
X1180Y457D01*
X1178Y457D01*
X1178Y459D01*
X1174Y459D01*
X1174Y461D01*
X1172Y461D01*
X1172Y463D01*
X1170Y463D01*
X1170Y465D01*
X1168Y465D01*
X1168Y467D01*
X1166Y467D01*
X1166Y469D01*
X1164Y469D01*
X1164Y471D01*
X1162Y471D01*
X1162Y475D01*
X1160Y475D01*
X1160Y477D01*
X1158Y477D01*
X1158Y481D01*
X1156Y481D01*
X1156Y487D01*
X1154Y487D01*
X1154Y509D01*
X1156Y509D01*
X1156Y515D01*
X1158Y515D01*
X1158Y519D01*
X1160Y519D01*
X1160Y521D01*
X1162Y521D01*
X1162Y525D01*
X1164Y525D01*
X1164Y527D01*
X1166Y527D01*
X1166Y529D01*
X1168Y529D01*
X1168Y531D01*
X1170Y531D01*
X1170Y533D01*
X1172Y533D01*
X1172Y535D01*
X1174Y535D01*
X1174Y537D01*
X1178Y537D01*
X1178Y539D01*
X1182Y539D01*
X1182Y541D01*
X1186Y541D01*
X1186Y543D01*
X1192Y543D01*
X1192Y545D01*
X710Y545D01*
G37*
D02*
G36*
X1210Y545D02*
X1210Y543D01*
X1216Y543D01*
X1216Y541D01*
X1220Y541D01*
X1220Y539D01*
X1224Y539D01*
X1224Y537D01*
X1226Y537D01*
X1226Y535D01*
X1228Y535D01*
X1228Y533D01*
X1232Y533D01*
X1232Y531D01*
X1234Y531D01*
X1234Y529D01*
X1236Y529D01*
X1236Y525D01*
X1238Y525D01*
X1238Y523D01*
X1240Y523D01*
X1240Y521D01*
X1262Y521D01*
X1262Y525D01*
X1264Y525D01*
X1264Y527D01*
X1266Y527D01*
X1266Y529D01*
X1268Y529D01*
X1268Y531D01*
X1270Y531D01*
X1270Y533D01*
X1272Y533D01*
X1272Y535D01*
X1274Y535D01*
X1274Y537D01*
X1278Y537D01*
X1278Y539D01*
X1282Y539D01*
X1282Y541D01*
X1286Y541D01*
X1286Y543D01*
X1292Y543D01*
X1292Y545D01*
X1210Y545D01*
G37*
D02*
G36*
X640Y475D02*
X640Y473D01*
X638Y473D01*
X638Y469D01*
X636Y469D01*
X636Y467D01*
X634Y467D01*
X634Y465D01*
X632Y465D01*
X632Y463D01*
X630Y463D01*
X630Y461D01*
X628Y461D01*
X628Y459D01*
X624Y459D01*
X624Y457D01*
X620Y457D01*
X620Y455D01*
X616Y455D01*
X616Y453D01*
X612Y453D01*
X612Y451D01*
X690Y451D01*
X690Y453D01*
X684Y453D01*
X684Y455D01*
X680Y455D01*
X680Y457D01*
X678Y457D01*
X678Y459D01*
X674Y459D01*
X674Y461D01*
X672Y461D01*
X672Y463D01*
X670Y463D01*
X670Y465D01*
X668Y465D01*
X668Y467D01*
X666Y467D01*
X666Y469D01*
X664Y469D01*
X664Y471D01*
X662Y471D01*
X662Y475D01*
X640Y475D01*
G37*
D02*
G36*
X1240Y475D02*
X1240Y473D01*
X1238Y473D01*
X1238Y469D01*
X1236Y469D01*
X1236Y467D01*
X1234Y467D01*
X1234Y465D01*
X1232Y465D01*
X1232Y463D01*
X1230Y463D01*
X1230Y461D01*
X1228Y461D01*
X1228Y459D01*
X1224Y459D01*
X1224Y457D01*
X1220Y457D01*
X1220Y455D01*
X1216Y455D01*
X1216Y453D01*
X1212Y453D01*
X1212Y451D01*
X1290Y451D01*
X1290Y453D01*
X1284Y453D01*
X1284Y455D01*
X1280Y455D01*
X1280Y457D01*
X1278Y457D01*
X1278Y459D01*
X1274Y459D01*
X1274Y461D01*
X1272Y461D01*
X1272Y463D01*
X1270Y463D01*
X1270Y465D01*
X1268Y465D01*
X1268Y467D01*
X1266Y467D01*
X1266Y469D01*
X1264Y469D01*
X1264Y471D01*
X1262Y471D01*
X1262Y475D01*
X1240Y475D01*
G37*
D02*
G36*
X210Y451D02*
X210Y449D01*
X1856Y449D01*
X1856Y451D01*
X210Y451D01*
G37*
D02*
G36*
X210Y451D02*
X210Y449D01*
X1856Y449D01*
X1856Y451D01*
X210Y451D01*
G37*
D02*
G36*
X210Y451D02*
X210Y449D01*
X1856Y449D01*
X1856Y451D01*
X210Y451D01*
G37*
D02*
G36*
X210Y451D02*
X210Y449D01*
X1856Y449D01*
X1856Y451D01*
X210Y451D01*
G37*
D02*
G36*
X210Y451D02*
X210Y449D01*
X1856Y449D01*
X1856Y451D01*
X210Y451D01*
G37*
D02*
G36*
X40Y449D02*
X40Y447D01*
X1856Y447D01*
X1856Y449D01*
X40Y449D01*
G37*
D02*
G36*
X40Y449D02*
X40Y447D01*
X1856Y447D01*
X1856Y449D01*
X40Y449D01*
G37*
D02*
G36*
X40Y447D02*
X40Y445D01*
X310Y445D01*
X310Y443D01*
X316Y443D01*
X316Y441D01*
X320Y441D01*
X320Y439D01*
X324Y439D01*
X324Y437D01*
X326Y437D01*
X326Y435D01*
X328Y435D01*
X328Y433D01*
X332Y433D01*
X332Y431D01*
X334Y431D01*
X334Y429D01*
X336Y429D01*
X336Y425D01*
X338Y425D01*
X338Y423D01*
X1084Y423D01*
X1084Y421D01*
X1092Y421D01*
X1092Y419D01*
X1096Y419D01*
X1096Y417D01*
X1100Y417D01*
X1100Y415D01*
X1102Y415D01*
X1102Y413D01*
X1106Y413D01*
X1106Y411D01*
X1108Y411D01*
X1108Y409D01*
X1110Y409D01*
X1110Y407D01*
X1112Y407D01*
X1112Y405D01*
X1114Y405D01*
X1114Y403D01*
X1116Y403D01*
X1116Y399D01*
X1118Y399D01*
X1118Y395D01*
X1120Y395D01*
X1120Y393D01*
X1122Y393D01*
X1122Y387D01*
X1124Y387D01*
X1124Y377D01*
X1126Y377D01*
X1126Y373D01*
X1124Y373D01*
X1124Y363D01*
X1122Y363D01*
X1122Y359D01*
X1120Y359D01*
X1120Y355D01*
X1118Y355D01*
X1118Y351D01*
X1116Y351D01*
X1116Y349D01*
X1114Y349D01*
X1114Y347D01*
X1112Y347D01*
X1112Y343D01*
X1110Y343D01*
X1110Y341D01*
X1106Y341D01*
X1106Y339D01*
X1104Y339D01*
X1104Y337D01*
X1102Y337D01*
X1102Y335D01*
X1098Y335D01*
X1098Y333D01*
X1096Y333D01*
X1096Y331D01*
X1090Y331D01*
X1090Y329D01*
X1082Y329D01*
X1082Y327D01*
X1856Y327D01*
X1856Y447D01*
X40Y447D01*
G37*
D02*
G36*
X40Y445D02*
X40Y351D01*
X290Y351D01*
X290Y353D01*
X284Y353D01*
X284Y355D01*
X280Y355D01*
X280Y357D01*
X278Y357D01*
X278Y359D01*
X274Y359D01*
X274Y361D01*
X272Y361D01*
X272Y363D01*
X270Y363D01*
X270Y365D01*
X268Y365D01*
X268Y367D01*
X266Y367D01*
X266Y369D01*
X264Y369D01*
X264Y371D01*
X262Y371D01*
X262Y375D01*
X260Y375D01*
X260Y377D01*
X258Y377D01*
X258Y381D01*
X256Y381D01*
X256Y387D01*
X254Y387D01*
X254Y409D01*
X256Y409D01*
X256Y415D01*
X258Y415D01*
X258Y419D01*
X260Y419D01*
X260Y421D01*
X262Y421D01*
X262Y425D01*
X264Y425D01*
X264Y427D01*
X266Y427D01*
X266Y429D01*
X268Y429D01*
X268Y431D01*
X270Y431D01*
X270Y433D01*
X272Y433D01*
X272Y435D01*
X274Y435D01*
X274Y437D01*
X278Y437D01*
X278Y439D01*
X282Y439D01*
X282Y441D01*
X286Y441D01*
X286Y443D01*
X292Y443D01*
X292Y445D01*
X40Y445D01*
G37*
D02*
G36*
X340Y423D02*
X340Y421D01*
X342Y421D01*
X342Y417D01*
X344Y417D01*
X344Y413D01*
X346Y413D01*
X346Y407D01*
X348Y407D01*
X348Y389D01*
X346Y389D01*
X346Y383D01*
X344Y383D01*
X344Y379D01*
X342Y379D01*
X342Y375D01*
X340Y375D01*
X340Y373D01*
X338Y373D01*
X338Y369D01*
X336Y369D01*
X336Y367D01*
X334Y367D01*
X334Y365D01*
X332Y365D01*
X332Y363D01*
X330Y363D01*
X330Y361D01*
X328Y361D01*
X328Y359D01*
X324Y359D01*
X324Y357D01*
X320Y357D01*
X320Y355D01*
X316Y355D01*
X316Y353D01*
X312Y353D01*
X312Y351D01*
X782Y351D01*
X782Y353D01*
X780Y353D01*
X780Y357D01*
X778Y357D01*
X778Y361D01*
X776Y361D01*
X776Y367D01*
X774Y367D01*
X774Y383D01*
X776Y383D01*
X776Y389D01*
X778Y389D01*
X778Y393D01*
X780Y393D01*
X780Y397D01*
X782Y397D01*
X782Y401D01*
X784Y401D01*
X784Y403D01*
X786Y403D01*
X786Y405D01*
X788Y405D01*
X788Y407D01*
X790Y407D01*
X790Y409D01*
X792Y409D01*
X792Y411D01*
X794Y411D01*
X794Y413D01*
X796Y413D01*
X796Y415D01*
X800Y415D01*
X800Y417D01*
X804Y417D01*
X804Y419D01*
X808Y419D01*
X808Y421D01*
X814Y421D01*
X814Y423D01*
X340Y423D01*
G37*
D02*
G36*
X828Y423D02*
X828Y421D01*
X836Y421D01*
X836Y419D01*
X840Y419D01*
X840Y417D01*
X844Y417D01*
X844Y415D01*
X846Y415D01*
X846Y413D01*
X850Y413D01*
X850Y411D01*
X852Y411D01*
X852Y409D01*
X854Y409D01*
X854Y407D01*
X856Y407D01*
X856Y405D01*
X858Y405D01*
X858Y403D01*
X860Y403D01*
X860Y399D01*
X862Y399D01*
X862Y397D01*
X1038Y397D01*
X1038Y401D01*
X1040Y401D01*
X1040Y403D01*
X1042Y403D01*
X1042Y405D01*
X1044Y405D01*
X1044Y407D01*
X1046Y407D01*
X1046Y409D01*
X1048Y409D01*
X1048Y411D01*
X1050Y411D01*
X1050Y413D01*
X1052Y413D01*
X1052Y415D01*
X1056Y415D01*
X1056Y417D01*
X1060Y417D01*
X1060Y419D01*
X1064Y419D01*
X1064Y421D01*
X1070Y421D01*
X1070Y423D01*
X828Y423D01*
G37*
D02*
G36*
X862Y353D02*
X862Y351D01*
X860Y351D01*
X860Y349D01*
X858Y349D01*
X858Y345D01*
X856Y345D01*
X856Y343D01*
X854Y343D01*
X854Y341D01*
X852Y341D01*
X852Y339D01*
X848Y339D01*
X848Y337D01*
X846Y337D01*
X846Y335D01*
X842Y335D01*
X842Y333D01*
X840Y333D01*
X840Y331D01*
X834Y331D01*
X834Y329D01*
X826Y329D01*
X826Y327D01*
X1074Y327D01*
X1074Y329D01*
X1066Y329D01*
X1066Y331D01*
X1060Y331D01*
X1060Y333D01*
X1056Y333D01*
X1056Y335D01*
X1054Y335D01*
X1054Y337D01*
X1050Y337D01*
X1050Y339D01*
X1048Y339D01*
X1048Y341D01*
X1046Y341D01*
X1046Y343D01*
X1044Y343D01*
X1044Y345D01*
X1042Y345D01*
X1042Y347D01*
X1040Y347D01*
X1040Y349D01*
X1038Y349D01*
X1038Y353D01*
X862Y353D01*
G37*
D02*
G36*
X40Y351D02*
X40Y349D01*
X784Y349D01*
X784Y351D01*
X40Y351D01*
G37*
D02*
G36*
X40Y351D02*
X40Y349D01*
X784Y349D01*
X784Y351D01*
X40Y351D01*
G37*
D02*
G36*
X40Y349D02*
X40Y345D01*
X608Y345D01*
X608Y343D01*
X614Y343D01*
X614Y341D01*
X620Y341D01*
X620Y339D01*
X622Y339D01*
X622Y337D01*
X626Y337D01*
X626Y335D01*
X628Y335D01*
X628Y333D01*
X630Y333D01*
X630Y331D01*
X632Y331D01*
X632Y329D01*
X634Y329D01*
X634Y327D01*
X818Y327D01*
X818Y329D01*
X810Y329D01*
X810Y331D01*
X804Y331D01*
X804Y333D01*
X800Y333D01*
X800Y335D01*
X798Y335D01*
X798Y337D01*
X794Y337D01*
X794Y339D01*
X792Y339D01*
X792Y341D01*
X790Y341D01*
X790Y343D01*
X788Y343D01*
X788Y345D01*
X786Y345D01*
X786Y347D01*
X784Y347D01*
X784Y349D01*
X40Y349D01*
G37*
D02*
G36*
X40Y345D02*
X40Y271D01*
X210Y271D01*
X210Y269D01*
X220Y269D01*
X220Y267D01*
X226Y267D01*
X226Y265D01*
X230Y265D01*
X230Y263D01*
X234Y263D01*
X234Y261D01*
X238Y261D01*
X238Y259D01*
X240Y259D01*
X240Y257D01*
X244Y257D01*
X244Y255D01*
X246Y255D01*
X246Y253D01*
X248Y253D01*
X248Y251D01*
X250Y251D01*
X250Y249D01*
X252Y249D01*
X252Y247D01*
X254Y247D01*
X254Y245D01*
X256Y245D01*
X256Y243D01*
X258Y243D01*
X258Y241D01*
X260Y241D01*
X260Y237D01*
X262Y237D01*
X262Y235D01*
X264Y235D01*
X264Y231D01*
X266Y231D01*
X266Y227D01*
X268Y227D01*
X268Y223D01*
X270Y223D01*
X270Y217D01*
X272Y217D01*
X272Y207D01*
X274Y207D01*
X274Y189D01*
X272Y189D01*
X272Y179D01*
X270Y179D01*
X270Y173D01*
X268Y173D01*
X268Y169D01*
X266Y169D01*
X266Y165D01*
X264Y165D01*
X264Y161D01*
X262Y161D01*
X262Y157D01*
X260Y157D01*
X260Y155D01*
X258Y155D01*
X258Y153D01*
X256Y153D01*
X256Y151D01*
X254Y151D01*
X254Y147D01*
X252Y147D01*
X252Y145D01*
X248Y145D01*
X248Y143D01*
X246Y143D01*
X246Y141D01*
X244Y141D01*
X244Y139D01*
X242Y139D01*
X242Y137D01*
X238Y137D01*
X238Y135D01*
X236Y135D01*
X236Y133D01*
X232Y133D01*
X232Y131D01*
X226Y131D01*
X226Y129D01*
X222Y129D01*
X222Y127D01*
X214Y127D01*
X214Y125D01*
X554Y125D01*
X554Y145D01*
X570Y145D01*
X570Y165D01*
X568Y165D01*
X568Y167D01*
X566Y167D01*
X566Y169D01*
X564Y169D01*
X564Y171D01*
X562Y171D01*
X562Y175D01*
X560Y175D01*
X560Y179D01*
X558Y179D01*
X558Y183D01*
X556Y183D01*
X556Y189D01*
X554Y189D01*
X554Y207D01*
X556Y207D01*
X556Y213D01*
X558Y213D01*
X558Y217D01*
X560Y217D01*
X560Y221D01*
X562Y221D01*
X562Y223D01*
X564Y223D01*
X564Y227D01*
X566Y227D01*
X566Y229D01*
X568Y229D01*
X568Y231D01*
X570Y231D01*
X570Y233D01*
X574Y233D01*
X574Y235D01*
X576Y235D01*
X576Y237D01*
X578Y237D01*
X578Y259D01*
X574Y259D01*
X574Y261D01*
X572Y261D01*
X572Y263D01*
X570Y263D01*
X570Y265D01*
X568Y265D01*
X568Y267D01*
X566Y267D01*
X566Y269D01*
X564Y269D01*
X564Y271D01*
X562Y271D01*
X562Y275D01*
X560Y275D01*
X560Y279D01*
X558Y279D01*
X558Y283D01*
X556Y283D01*
X556Y289D01*
X554Y289D01*
X554Y307D01*
X556Y307D01*
X556Y313D01*
X558Y313D01*
X558Y317D01*
X560Y317D01*
X560Y321D01*
X562Y321D01*
X562Y323D01*
X564Y323D01*
X564Y327D01*
X566Y327D01*
X566Y329D01*
X568Y329D01*
X568Y331D01*
X570Y331D01*
X570Y333D01*
X574Y333D01*
X574Y335D01*
X576Y335D01*
X576Y337D01*
X578Y337D01*
X578Y339D01*
X582Y339D01*
X582Y341D01*
X588Y341D01*
X588Y343D01*
X594Y343D01*
X594Y345D01*
X40Y345D01*
G37*
D02*
G36*
X636Y327D02*
X636Y325D01*
X1856Y325D01*
X1856Y327D01*
X636Y327D01*
G37*
D02*
G36*
X636Y327D02*
X636Y325D01*
X1856Y325D01*
X1856Y327D01*
X636Y327D01*
G37*
D02*
G36*
X636Y327D02*
X636Y325D01*
X1856Y325D01*
X1856Y327D01*
X636Y327D01*
G37*
D02*
G36*
X638Y325D02*
X638Y323D01*
X640Y323D01*
X640Y319D01*
X642Y319D01*
X642Y317D01*
X644Y317D01*
X644Y311D01*
X646Y311D01*
X646Y305D01*
X648Y305D01*
X648Y291D01*
X646Y291D01*
X646Y285D01*
X644Y285D01*
X644Y279D01*
X642Y279D01*
X642Y277D01*
X640Y277D01*
X640Y273D01*
X638Y273D01*
X638Y271D01*
X1710Y271D01*
X1710Y269D01*
X1720Y269D01*
X1720Y267D01*
X1726Y267D01*
X1726Y265D01*
X1730Y265D01*
X1730Y263D01*
X1734Y263D01*
X1734Y261D01*
X1738Y261D01*
X1738Y259D01*
X1740Y259D01*
X1740Y257D01*
X1744Y257D01*
X1744Y255D01*
X1746Y255D01*
X1746Y253D01*
X1748Y253D01*
X1748Y251D01*
X1750Y251D01*
X1750Y249D01*
X1752Y249D01*
X1752Y247D01*
X1754Y247D01*
X1754Y245D01*
X1756Y245D01*
X1756Y243D01*
X1758Y243D01*
X1758Y241D01*
X1760Y241D01*
X1760Y237D01*
X1762Y237D01*
X1762Y235D01*
X1764Y235D01*
X1764Y231D01*
X1766Y231D01*
X1766Y227D01*
X1768Y227D01*
X1768Y223D01*
X1770Y223D01*
X1770Y217D01*
X1772Y217D01*
X1772Y207D01*
X1774Y207D01*
X1774Y189D01*
X1772Y189D01*
X1772Y179D01*
X1770Y179D01*
X1770Y173D01*
X1768Y173D01*
X1768Y169D01*
X1766Y169D01*
X1766Y165D01*
X1764Y165D01*
X1764Y161D01*
X1762Y161D01*
X1762Y157D01*
X1760Y157D01*
X1760Y155D01*
X1758Y155D01*
X1758Y153D01*
X1756Y153D01*
X1756Y151D01*
X1754Y151D01*
X1754Y149D01*
X1752Y149D01*
X1752Y145D01*
X1748Y145D01*
X1748Y143D01*
X1746Y143D01*
X1746Y141D01*
X1744Y141D01*
X1744Y139D01*
X1742Y139D01*
X1742Y137D01*
X1738Y137D01*
X1738Y135D01*
X1736Y135D01*
X1736Y133D01*
X1732Y133D01*
X1732Y131D01*
X1726Y131D01*
X1726Y129D01*
X1722Y129D01*
X1722Y127D01*
X1714Y127D01*
X1714Y125D01*
X1856Y125D01*
X1856Y325D01*
X638Y325D01*
G37*
D02*
G36*
X40Y271D02*
X40Y125D01*
X188Y125D01*
X188Y127D01*
X180Y127D01*
X180Y129D01*
X174Y129D01*
X174Y131D01*
X170Y131D01*
X170Y133D01*
X166Y133D01*
X166Y135D01*
X164Y135D01*
X164Y137D01*
X160Y137D01*
X160Y139D01*
X158Y139D01*
X158Y141D01*
X154Y141D01*
X154Y143D01*
X152Y143D01*
X152Y145D01*
X150Y145D01*
X150Y147D01*
X148Y147D01*
X148Y149D01*
X146Y149D01*
X146Y151D01*
X144Y151D01*
X144Y155D01*
X142Y155D01*
X142Y157D01*
X140Y157D01*
X140Y159D01*
X138Y159D01*
X138Y163D01*
X136Y163D01*
X136Y167D01*
X134Y167D01*
X134Y171D01*
X132Y171D01*
X132Y177D01*
X130Y177D01*
X130Y185D01*
X128Y185D01*
X128Y211D01*
X130Y211D01*
X130Y219D01*
X132Y219D01*
X132Y223D01*
X134Y223D01*
X134Y229D01*
X136Y229D01*
X136Y233D01*
X138Y233D01*
X138Y235D01*
X140Y235D01*
X140Y239D01*
X142Y239D01*
X142Y241D01*
X144Y241D01*
X144Y243D01*
X146Y243D01*
X146Y247D01*
X148Y247D01*
X148Y249D01*
X150Y249D01*
X150Y251D01*
X154Y251D01*
X154Y253D01*
X156Y253D01*
X156Y255D01*
X158Y255D01*
X158Y257D01*
X160Y257D01*
X160Y259D01*
X164Y259D01*
X164Y261D01*
X168Y261D01*
X168Y263D01*
X172Y263D01*
X172Y265D01*
X176Y265D01*
X176Y267D01*
X182Y267D01*
X182Y269D01*
X192Y269D01*
X192Y271D01*
X40Y271D01*
G37*
D02*
G36*
X636Y271D02*
X636Y267D01*
X634Y267D01*
X634Y265D01*
X632Y265D01*
X632Y263D01*
X628Y263D01*
X628Y261D01*
X626Y261D01*
X626Y259D01*
X624Y259D01*
X624Y257D01*
X622Y257D01*
X622Y245D01*
X1088Y245D01*
X1088Y243D01*
X1094Y243D01*
X1094Y241D01*
X1098Y241D01*
X1098Y239D01*
X1100Y239D01*
X1100Y237D01*
X1104Y237D01*
X1104Y235D01*
X1106Y235D01*
X1106Y233D01*
X1108Y233D01*
X1108Y231D01*
X1110Y231D01*
X1110Y229D01*
X1112Y229D01*
X1112Y227D01*
X1114Y227D01*
X1114Y225D01*
X1116Y225D01*
X1116Y223D01*
X1118Y223D01*
X1118Y219D01*
X1120Y219D01*
X1120Y215D01*
X1122Y215D01*
X1122Y209D01*
X1124Y209D01*
X1124Y201D01*
X1126Y201D01*
X1126Y197D01*
X1124Y197D01*
X1124Y187D01*
X1122Y187D01*
X1122Y181D01*
X1120Y181D01*
X1120Y177D01*
X1118Y177D01*
X1118Y173D01*
X1116Y173D01*
X1116Y171D01*
X1114Y171D01*
X1114Y169D01*
X1112Y169D01*
X1112Y167D01*
X1110Y167D01*
X1110Y165D01*
X1108Y165D01*
X1108Y163D01*
X1106Y163D01*
X1106Y161D01*
X1104Y161D01*
X1104Y159D01*
X1100Y159D01*
X1100Y157D01*
X1098Y157D01*
X1098Y155D01*
X1092Y155D01*
X1092Y153D01*
X1088Y153D01*
X1088Y151D01*
X1644Y151D01*
X1644Y155D01*
X1642Y155D01*
X1642Y157D01*
X1640Y157D01*
X1640Y159D01*
X1638Y159D01*
X1638Y163D01*
X1636Y163D01*
X1636Y167D01*
X1634Y167D01*
X1634Y171D01*
X1632Y171D01*
X1632Y177D01*
X1630Y177D01*
X1630Y185D01*
X1628Y185D01*
X1628Y211D01*
X1630Y211D01*
X1630Y219D01*
X1632Y219D01*
X1632Y225D01*
X1634Y225D01*
X1634Y229D01*
X1636Y229D01*
X1636Y233D01*
X1638Y233D01*
X1638Y235D01*
X1640Y235D01*
X1640Y239D01*
X1642Y239D01*
X1642Y241D01*
X1644Y241D01*
X1644Y243D01*
X1646Y243D01*
X1646Y247D01*
X1648Y247D01*
X1648Y249D01*
X1650Y249D01*
X1650Y251D01*
X1654Y251D01*
X1654Y253D01*
X1656Y253D01*
X1656Y255D01*
X1658Y255D01*
X1658Y257D01*
X1660Y257D01*
X1660Y259D01*
X1664Y259D01*
X1664Y261D01*
X1668Y261D01*
X1668Y263D01*
X1672Y263D01*
X1672Y265D01*
X1676Y265D01*
X1676Y267D01*
X1682Y267D01*
X1682Y269D01*
X1692Y269D01*
X1692Y271D01*
X636Y271D01*
G37*
D02*
G36*
X622Y245D02*
X622Y237D01*
X626Y237D01*
X626Y235D01*
X628Y235D01*
X628Y233D01*
X630Y233D01*
X630Y231D01*
X632Y231D01*
X632Y229D01*
X634Y229D01*
X634Y227D01*
X636Y227D01*
X636Y225D01*
X638Y225D01*
X638Y223D01*
X640Y223D01*
X640Y219D01*
X642Y219D01*
X642Y217D01*
X644Y217D01*
X644Y211D01*
X646Y211D01*
X646Y205D01*
X648Y205D01*
X648Y191D01*
X646Y191D01*
X646Y185D01*
X644Y185D01*
X644Y179D01*
X642Y179D01*
X642Y177D01*
X640Y177D01*
X640Y173D01*
X638Y173D01*
X638Y171D01*
X636Y171D01*
X636Y167D01*
X634Y167D01*
X634Y165D01*
X632Y165D01*
X632Y151D01*
X812Y151D01*
X812Y153D01*
X806Y153D01*
X806Y155D01*
X802Y155D01*
X802Y157D01*
X798Y157D01*
X798Y159D01*
X796Y159D01*
X796Y161D01*
X794Y161D01*
X794Y163D01*
X790Y163D01*
X790Y165D01*
X788Y165D01*
X788Y169D01*
X786Y169D01*
X786Y171D01*
X784Y171D01*
X784Y173D01*
X782Y173D01*
X782Y177D01*
X780Y177D01*
X780Y179D01*
X778Y179D01*
X778Y185D01*
X776Y185D01*
X776Y191D01*
X774Y191D01*
X774Y205D01*
X776Y205D01*
X776Y211D01*
X778Y211D01*
X778Y217D01*
X780Y217D01*
X780Y219D01*
X782Y219D01*
X782Y223D01*
X784Y223D01*
X784Y225D01*
X786Y225D01*
X786Y229D01*
X788Y229D01*
X788Y231D01*
X790Y231D01*
X790Y233D01*
X794Y233D01*
X794Y235D01*
X796Y235D01*
X796Y237D01*
X798Y237D01*
X798Y239D01*
X802Y239D01*
X802Y241D01*
X806Y241D01*
X806Y243D01*
X812Y243D01*
X812Y245D01*
X622Y245D01*
G37*
D02*
G36*
X832Y245D02*
X832Y243D01*
X838Y243D01*
X838Y241D01*
X842Y241D01*
X842Y239D01*
X844Y239D01*
X844Y237D01*
X848Y237D01*
X848Y235D01*
X850Y235D01*
X850Y233D01*
X852Y233D01*
X852Y231D01*
X854Y231D01*
X854Y229D01*
X856Y229D01*
X856Y227D01*
X858Y227D01*
X858Y225D01*
X860Y225D01*
X860Y223D01*
X862Y223D01*
X862Y221D01*
X1038Y221D01*
X1038Y223D01*
X1040Y223D01*
X1040Y225D01*
X1042Y225D01*
X1042Y229D01*
X1044Y229D01*
X1044Y231D01*
X1046Y231D01*
X1046Y233D01*
X1050Y233D01*
X1050Y235D01*
X1052Y235D01*
X1052Y237D01*
X1054Y237D01*
X1054Y239D01*
X1058Y239D01*
X1058Y241D01*
X1062Y241D01*
X1062Y243D01*
X1068Y243D01*
X1068Y245D01*
X832Y245D01*
G37*
D02*
G36*
X862Y177D02*
X862Y173D01*
X860Y173D01*
X860Y171D01*
X858Y171D01*
X858Y169D01*
X856Y169D01*
X856Y167D01*
X854Y167D01*
X854Y165D01*
X852Y165D01*
X852Y163D01*
X850Y163D01*
X850Y161D01*
X848Y161D01*
X848Y159D01*
X844Y159D01*
X844Y157D01*
X842Y157D01*
X842Y155D01*
X838Y155D01*
X838Y153D01*
X832Y153D01*
X832Y151D01*
X1068Y151D01*
X1068Y153D01*
X1062Y153D01*
X1062Y155D01*
X1058Y155D01*
X1058Y157D01*
X1054Y157D01*
X1054Y159D01*
X1052Y159D01*
X1052Y161D01*
X1050Y161D01*
X1050Y163D01*
X1046Y163D01*
X1046Y165D01*
X1044Y165D01*
X1044Y167D01*
X1042Y167D01*
X1042Y171D01*
X1040Y171D01*
X1040Y173D01*
X1038Y173D01*
X1038Y177D01*
X862Y177D01*
G37*
D02*
G36*
X632Y151D02*
X632Y149D01*
X1646Y149D01*
X1646Y151D01*
X632Y151D01*
G37*
D02*
G36*
X632Y151D02*
X632Y149D01*
X1646Y149D01*
X1646Y151D01*
X632Y151D01*
G37*
D02*
G36*
X632Y151D02*
X632Y149D01*
X1646Y149D01*
X1646Y151D01*
X632Y151D01*
G37*
D02*
G36*
X632Y149D02*
X632Y145D01*
X648Y145D01*
X648Y125D01*
X1688Y125D01*
X1688Y127D01*
X1680Y127D01*
X1680Y129D01*
X1674Y129D01*
X1674Y131D01*
X1670Y131D01*
X1670Y133D01*
X1666Y133D01*
X1666Y135D01*
X1664Y135D01*
X1664Y137D01*
X1660Y137D01*
X1660Y139D01*
X1658Y139D01*
X1658Y141D01*
X1654Y141D01*
X1654Y143D01*
X1652Y143D01*
X1652Y145D01*
X1650Y145D01*
X1650Y147D01*
X1648Y147D01*
X1648Y149D01*
X632Y149D01*
G37*
D02*
G36*
X40Y125D02*
X40Y123D01*
X554Y123D01*
X554Y125D01*
X40Y125D01*
G37*
D02*
G36*
X40Y125D02*
X40Y123D01*
X554Y123D01*
X554Y125D01*
X40Y125D01*
G37*
D02*
G36*
X648Y125D02*
X648Y123D01*
X1856Y123D01*
X1856Y125D01*
X648Y125D01*
G37*
D02*
G36*
X648Y125D02*
X648Y123D01*
X1856Y123D01*
X1856Y125D01*
X648Y125D01*
G37*
D02*
G36*
X40Y123D02*
X40Y41D01*
X554Y41D01*
X554Y123D01*
X40Y123D01*
G37*
D02*
G36*
X648Y123D02*
X648Y41D01*
X1856Y41D01*
X1856Y123D01*
X648Y123D01*
G37*
D02*
G04 End of Copper1*
M02*