G04 MADE WITH FRITZING*
G04 WWW.FRITZING.ORG*
G04 DOUBLE SIDED*
G04 HOLES PLATED*
G04 CONTOUR ON CENTER OF CONTOUR VECTOR*
%ASAXBY*%
%FSLAX23Y23*%
%MOIN*%
%OFA0B0*%
%SFA1.0B1.0*%
%ADD10R,0.225000X0.305000X0.215000X0.295000*%
%ADD11C,0.005000*%
%ADD12R,0.055000X0.205000X0.045000X0.195000*%
%ADD13C,0.010000*%
%ADD14R,0.001000X0.001000*%
%LNSILK1*%
G90*
G70*
G54D11*
X501Y348D02*
X721Y348D01*
X721Y48D01*
X501Y48D01*
X501Y348D01*
D02*
X501Y298D02*
X551Y298D01*
X551Y98D01*
X501Y98D01*
X501Y298D01*
D02*
G54D13*
X251Y448D02*
X251Y648D01*
D02*
X251Y648D02*
X151Y648D01*
D02*
X151Y648D02*
X151Y448D01*
D02*
X151Y448D02*
X251Y448D01*
G54D11*
D02*
X251Y483D02*
X216Y448D01*
G54D13*
D02*
X1671Y926D02*
X1671Y847D01*
D02*
X1474Y1005D02*
X1642Y1005D01*
D02*
X1474Y769D02*
X1642Y769D01*
D02*
X1435Y926D02*
X1435Y847D01*
D02*
X1553Y907D02*
X1553Y867D01*
D02*
X1573Y887D02*
X1533Y887D01*
D02*
X1068Y326D02*
X1068Y248D01*
D02*
X871Y405D02*
X1038Y405D01*
D02*
X871Y169D02*
X1038Y169D01*
D02*
X832Y326D02*
X832Y248D01*
D02*
X950Y307D02*
X950Y267D01*
D02*
X969Y287D02*
X930Y287D01*
D02*
X468Y926D02*
X468Y847D01*
D02*
X271Y1005D02*
X438Y1005D01*
D02*
X271Y769D02*
X438Y769D01*
D02*
X232Y926D02*
X232Y847D01*
D02*
X350Y907D02*
X350Y867D01*
D02*
X369Y887D02*
X330Y887D01*
D02*
X1068Y1526D02*
X1068Y1447D01*
D02*
X871Y1605D02*
X1038Y1605D01*
D02*
X871Y1369D02*
X1038Y1369D01*
D02*
X832Y1526D02*
X832Y1447D01*
D02*
X950Y1506D02*
X950Y1467D01*
D02*
X969Y1487D02*
X930Y1487D01*
D02*
X1068Y926D02*
X1068Y847D01*
D02*
X871Y1005D02*
X1038Y1005D01*
D02*
X871Y769D02*
X1038Y769D01*
D02*
X832Y926D02*
X832Y847D01*
D02*
X950Y907D02*
X950Y867D01*
D02*
X969Y887D02*
X930Y887D01*
D02*
X1176Y572D02*
X1176Y722D01*
D02*
X1176Y722D02*
X1226Y722D01*
D02*
X1226Y722D02*
X1226Y572D01*
D02*
X1226Y572D02*
X1176Y572D01*
D02*
X576Y972D02*
X576Y1122D01*
D02*
X576Y1122D02*
X626Y1122D01*
D02*
X626Y1122D02*
X626Y972D01*
D02*
X626Y972D02*
X576Y972D01*
D02*
X1176Y972D02*
X1176Y1122D01*
D02*
X1176Y1122D02*
X1226Y1122D01*
D02*
X1226Y1122D02*
X1226Y972D01*
D02*
X1226Y972D02*
X1176Y972D01*
D02*
X676Y572D02*
X676Y722D01*
D02*
X676Y722D02*
X726Y722D01*
D02*
X726Y722D02*
X726Y572D01*
D02*
X726Y572D02*
X676Y572D01*
D02*
X1276Y572D02*
X1276Y722D01*
D02*
X1276Y722D02*
X1326Y722D01*
D02*
X1326Y722D02*
X1326Y572D01*
D02*
X1326Y572D02*
X1276Y572D01*
D02*
X576Y572D02*
X576Y722D01*
D02*
X576Y722D02*
X626Y722D01*
D02*
X626Y722D02*
X626Y572D01*
D02*
X626Y572D02*
X576Y572D01*
D02*
X276Y472D02*
X276Y622D01*
D02*
X276Y622D02*
X326Y622D01*
D02*
X326Y622D02*
X326Y472D01*
D02*
X326Y472D02*
X276Y472D01*
G54D14*
X0Y1799D02*
X1896Y1799D01*
X0Y1798D02*
X1896Y1798D01*
X0Y1797D02*
X1896Y1797D01*
X0Y1796D02*
X1896Y1796D01*
X0Y1795D02*
X1896Y1795D01*
X0Y1794D02*
X1896Y1794D01*
X0Y1793D02*
X1896Y1793D01*
X0Y1792D02*
X1896Y1792D01*
X0Y1791D02*
X7Y1791D01*
X1889Y1791D02*
X1896Y1791D01*
X0Y1790D02*
X7Y1790D01*
X1889Y1790D02*
X1896Y1790D01*
X0Y1789D02*
X7Y1789D01*
X1889Y1789D02*
X1896Y1789D01*
X0Y1788D02*
X7Y1788D01*
X1889Y1788D02*
X1896Y1788D01*
X0Y1787D02*
X7Y1787D01*
X1889Y1787D02*
X1896Y1787D01*
X0Y1786D02*
X7Y1786D01*
X1889Y1786D02*
X1896Y1786D01*
X0Y1785D02*
X7Y1785D01*
X1889Y1785D02*
X1896Y1785D01*
X0Y1784D02*
X7Y1784D01*
X1889Y1784D02*
X1896Y1784D01*
X0Y1783D02*
X7Y1783D01*
X1889Y1783D02*
X1896Y1783D01*
X0Y1782D02*
X7Y1782D01*
X1889Y1782D02*
X1896Y1782D01*
X0Y1781D02*
X7Y1781D01*
X1889Y1781D02*
X1896Y1781D01*
X0Y1780D02*
X7Y1780D01*
X1889Y1780D02*
X1896Y1780D01*
X0Y1779D02*
X7Y1779D01*
X1889Y1779D02*
X1896Y1779D01*
X0Y1778D02*
X7Y1778D01*
X1889Y1778D02*
X1896Y1778D01*
X0Y1777D02*
X7Y1777D01*
X1889Y1777D02*
X1896Y1777D01*
X0Y1776D02*
X7Y1776D01*
X1889Y1776D02*
X1896Y1776D01*
X0Y1775D02*
X7Y1775D01*
X1889Y1775D02*
X1896Y1775D01*
X0Y1774D02*
X7Y1774D01*
X1889Y1774D02*
X1896Y1774D01*
X0Y1773D02*
X7Y1773D01*
X1889Y1773D02*
X1896Y1773D01*
X0Y1772D02*
X7Y1772D01*
X1889Y1772D02*
X1896Y1772D01*
X0Y1771D02*
X7Y1771D01*
X1889Y1771D02*
X1896Y1771D01*
X0Y1770D02*
X7Y1770D01*
X1889Y1770D02*
X1896Y1770D01*
X0Y1769D02*
X7Y1769D01*
X1889Y1769D02*
X1896Y1769D01*
X0Y1768D02*
X7Y1768D01*
X1889Y1768D02*
X1896Y1768D01*
X0Y1767D02*
X7Y1767D01*
X1889Y1767D02*
X1896Y1767D01*
X0Y1766D02*
X7Y1766D01*
X1889Y1766D02*
X1896Y1766D01*
X0Y1765D02*
X7Y1765D01*
X1889Y1765D02*
X1896Y1765D01*
X0Y1764D02*
X7Y1764D01*
X1889Y1764D02*
X1896Y1764D01*
X0Y1763D02*
X7Y1763D01*
X1889Y1763D02*
X1896Y1763D01*
X0Y1762D02*
X7Y1762D01*
X1889Y1762D02*
X1896Y1762D01*
X0Y1761D02*
X7Y1761D01*
X1889Y1761D02*
X1896Y1761D01*
X0Y1760D02*
X7Y1760D01*
X1889Y1760D02*
X1896Y1760D01*
X0Y1759D02*
X7Y1759D01*
X1889Y1759D02*
X1896Y1759D01*
X0Y1758D02*
X7Y1758D01*
X1889Y1758D02*
X1896Y1758D01*
X0Y1757D02*
X7Y1757D01*
X1889Y1757D02*
X1896Y1757D01*
X0Y1756D02*
X7Y1756D01*
X1889Y1756D02*
X1896Y1756D01*
X0Y1755D02*
X7Y1755D01*
X1889Y1755D02*
X1896Y1755D01*
X0Y1754D02*
X7Y1754D01*
X1889Y1754D02*
X1896Y1754D01*
X0Y1753D02*
X7Y1753D01*
X1889Y1753D02*
X1896Y1753D01*
X0Y1752D02*
X7Y1752D01*
X1889Y1752D02*
X1896Y1752D01*
X0Y1751D02*
X7Y1751D01*
X1889Y1751D02*
X1896Y1751D01*
X0Y1750D02*
X7Y1750D01*
X1889Y1750D02*
X1896Y1750D01*
X0Y1749D02*
X7Y1749D01*
X1889Y1749D02*
X1896Y1749D01*
X0Y1748D02*
X7Y1748D01*
X1889Y1748D02*
X1896Y1748D01*
X0Y1747D02*
X7Y1747D01*
X1889Y1747D02*
X1896Y1747D01*
X0Y1746D02*
X7Y1746D01*
X1889Y1746D02*
X1896Y1746D01*
X0Y1745D02*
X7Y1745D01*
X1889Y1745D02*
X1896Y1745D01*
X0Y1744D02*
X7Y1744D01*
X1889Y1744D02*
X1896Y1744D01*
X0Y1743D02*
X7Y1743D01*
X1889Y1743D02*
X1896Y1743D01*
X0Y1742D02*
X7Y1742D01*
X1889Y1742D02*
X1896Y1742D01*
X0Y1741D02*
X7Y1741D01*
X1889Y1741D02*
X1896Y1741D01*
X0Y1740D02*
X7Y1740D01*
X1889Y1740D02*
X1896Y1740D01*
X0Y1739D02*
X7Y1739D01*
X1889Y1739D02*
X1896Y1739D01*
X0Y1738D02*
X7Y1738D01*
X1889Y1738D02*
X1896Y1738D01*
X0Y1737D02*
X7Y1737D01*
X1889Y1737D02*
X1896Y1737D01*
X0Y1736D02*
X7Y1736D01*
X1889Y1736D02*
X1896Y1736D01*
X0Y1735D02*
X7Y1735D01*
X1889Y1735D02*
X1896Y1735D01*
X0Y1734D02*
X7Y1734D01*
X1889Y1734D02*
X1896Y1734D01*
X0Y1733D02*
X7Y1733D01*
X1889Y1733D02*
X1896Y1733D01*
X0Y1732D02*
X7Y1732D01*
X1889Y1732D02*
X1896Y1732D01*
X0Y1731D02*
X7Y1731D01*
X1889Y1731D02*
X1896Y1731D01*
X0Y1730D02*
X7Y1730D01*
X1889Y1730D02*
X1896Y1730D01*
X0Y1729D02*
X7Y1729D01*
X1889Y1729D02*
X1896Y1729D01*
X0Y1728D02*
X7Y1728D01*
X1889Y1728D02*
X1896Y1728D01*
X0Y1727D02*
X7Y1727D01*
X1889Y1727D02*
X1896Y1727D01*
X0Y1726D02*
X7Y1726D01*
X1889Y1726D02*
X1896Y1726D01*
X0Y1725D02*
X7Y1725D01*
X1889Y1725D02*
X1896Y1725D01*
X0Y1724D02*
X7Y1724D01*
X1889Y1724D02*
X1896Y1724D01*
X0Y1723D02*
X7Y1723D01*
X1889Y1723D02*
X1896Y1723D01*
X0Y1722D02*
X7Y1722D01*
X1889Y1722D02*
X1896Y1722D01*
X0Y1721D02*
X7Y1721D01*
X1889Y1721D02*
X1896Y1721D01*
X0Y1720D02*
X7Y1720D01*
X1889Y1720D02*
X1896Y1720D01*
X0Y1719D02*
X7Y1719D01*
X1889Y1719D02*
X1896Y1719D01*
X0Y1718D02*
X7Y1718D01*
X1889Y1718D02*
X1896Y1718D01*
X0Y1717D02*
X7Y1717D01*
X1889Y1717D02*
X1896Y1717D01*
X0Y1716D02*
X7Y1716D01*
X1889Y1716D02*
X1896Y1716D01*
X0Y1715D02*
X7Y1715D01*
X1889Y1715D02*
X1896Y1715D01*
X0Y1714D02*
X7Y1714D01*
X1889Y1714D02*
X1896Y1714D01*
X0Y1713D02*
X7Y1713D01*
X1889Y1713D02*
X1896Y1713D01*
X0Y1712D02*
X7Y1712D01*
X1889Y1712D02*
X1896Y1712D01*
X0Y1711D02*
X7Y1711D01*
X1889Y1711D02*
X1896Y1711D01*
X0Y1710D02*
X7Y1710D01*
X1889Y1710D02*
X1896Y1710D01*
X0Y1709D02*
X7Y1709D01*
X1889Y1709D02*
X1896Y1709D01*
X0Y1708D02*
X7Y1708D01*
X1889Y1708D02*
X1896Y1708D01*
X0Y1707D02*
X7Y1707D01*
X1889Y1707D02*
X1896Y1707D01*
X0Y1706D02*
X7Y1706D01*
X1889Y1706D02*
X1896Y1706D01*
X0Y1705D02*
X7Y1705D01*
X1889Y1705D02*
X1896Y1705D01*
X0Y1704D02*
X7Y1704D01*
X1889Y1704D02*
X1896Y1704D01*
X0Y1703D02*
X7Y1703D01*
X1889Y1703D02*
X1896Y1703D01*
X0Y1702D02*
X7Y1702D01*
X1889Y1702D02*
X1896Y1702D01*
X0Y1701D02*
X7Y1701D01*
X1889Y1701D02*
X1896Y1701D01*
X0Y1700D02*
X7Y1700D01*
X1889Y1700D02*
X1896Y1700D01*
X0Y1699D02*
X7Y1699D01*
X1889Y1699D02*
X1896Y1699D01*
X0Y1698D02*
X7Y1698D01*
X1889Y1698D02*
X1896Y1698D01*
X0Y1697D02*
X7Y1697D01*
X1889Y1697D02*
X1896Y1697D01*
X0Y1696D02*
X7Y1696D01*
X1889Y1696D02*
X1896Y1696D01*
X0Y1695D02*
X7Y1695D01*
X1889Y1695D02*
X1896Y1695D01*
X0Y1694D02*
X7Y1694D01*
X1889Y1694D02*
X1896Y1694D01*
X0Y1693D02*
X7Y1693D01*
X1889Y1693D02*
X1896Y1693D01*
X0Y1692D02*
X7Y1692D01*
X1889Y1692D02*
X1896Y1692D01*
X0Y1691D02*
X7Y1691D01*
X1889Y1691D02*
X1896Y1691D01*
X0Y1690D02*
X7Y1690D01*
X916Y1690D02*
X939Y1690D01*
X962Y1690D02*
X990Y1690D01*
X1889Y1690D02*
X1896Y1690D01*
X0Y1689D02*
X7Y1689D01*
X914Y1689D02*
X940Y1689D01*
X962Y1689D02*
X992Y1689D01*
X1889Y1689D02*
X1896Y1689D01*
X0Y1688D02*
X7Y1688D01*
X913Y1688D02*
X942Y1688D01*
X961Y1688D02*
X993Y1688D01*
X1889Y1688D02*
X1896Y1688D01*
X0Y1687D02*
X7Y1687D01*
X912Y1687D02*
X943Y1687D01*
X961Y1687D02*
X993Y1687D01*
X1889Y1687D02*
X1896Y1687D01*
X0Y1686D02*
X7Y1686D01*
X912Y1686D02*
X943Y1686D01*
X961Y1686D02*
X994Y1686D01*
X1889Y1686D02*
X1896Y1686D01*
X0Y1685D02*
X7Y1685D01*
X912Y1685D02*
X944Y1685D01*
X962Y1685D02*
X994Y1685D01*
X1889Y1685D02*
X1896Y1685D01*
X0Y1684D02*
X7Y1684D01*
X911Y1684D02*
X944Y1684D01*
X963Y1684D02*
X994Y1684D01*
X1889Y1684D02*
X1896Y1684D01*
X0Y1683D02*
X7Y1683D01*
X911Y1683D02*
X917Y1683D01*
X938Y1683D02*
X944Y1683D01*
X988Y1683D02*
X994Y1683D01*
X1889Y1683D02*
X1896Y1683D01*
X0Y1682D02*
X7Y1682D01*
X911Y1682D02*
X918Y1682D01*
X938Y1682D02*
X944Y1682D01*
X988Y1682D02*
X994Y1682D01*
X1889Y1682D02*
X1896Y1682D01*
X0Y1681D02*
X7Y1681D01*
X912Y1681D02*
X918Y1681D01*
X939Y1681D02*
X944Y1681D01*
X988Y1681D02*
X994Y1681D01*
X1889Y1681D02*
X1896Y1681D01*
X0Y1680D02*
X7Y1680D01*
X912Y1680D02*
X919Y1680D01*
X939Y1680D02*
X944Y1680D01*
X988Y1680D02*
X994Y1680D01*
X1889Y1680D02*
X1896Y1680D01*
X0Y1679D02*
X7Y1679D01*
X912Y1679D02*
X920Y1679D01*
X940Y1679D02*
X943Y1679D01*
X988Y1679D02*
X994Y1679D01*
X1889Y1679D02*
X1896Y1679D01*
X0Y1678D02*
X7Y1678D01*
X913Y1678D02*
X921Y1678D01*
X941Y1678D02*
X942Y1678D01*
X988Y1678D02*
X994Y1678D01*
X1889Y1678D02*
X1896Y1678D01*
X0Y1677D02*
X7Y1677D01*
X914Y1677D02*
X922Y1677D01*
X988Y1677D02*
X994Y1677D01*
X1889Y1677D02*
X1896Y1677D01*
X0Y1676D02*
X7Y1676D01*
X914Y1676D02*
X922Y1676D01*
X988Y1676D02*
X994Y1676D01*
X1889Y1676D02*
X1896Y1676D01*
X0Y1675D02*
X7Y1675D01*
X915Y1675D02*
X923Y1675D01*
X988Y1675D02*
X994Y1675D01*
X1889Y1675D02*
X1896Y1675D01*
X0Y1674D02*
X7Y1674D01*
X916Y1674D02*
X924Y1674D01*
X988Y1674D02*
X994Y1674D01*
X1889Y1674D02*
X1896Y1674D01*
X0Y1673D02*
X7Y1673D01*
X917Y1673D02*
X925Y1673D01*
X988Y1673D02*
X994Y1673D01*
X1889Y1673D02*
X1896Y1673D01*
X0Y1672D02*
X7Y1672D01*
X918Y1672D02*
X925Y1672D01*
X988Y1672D02*
X994Y1672D01*
X1889Y1672D02*
X1896Y1672D01*
X0Y1671D02*
X7Y1671D01*
X918Y1671D02*
X926Y1671D01*
X988Y1671D02*
X994Y1671D01*
X1889Y1671D02*
X1896Y1671D01*
X0Y1670D02*
X7Y1670D01*
X919Y1670D02*
X927Y1670D01*
X988Y1670D02*
X994Y1670D01*
X1889Y1670D02*
X1896Y1670D01*
X0Y1669D02*
X7Y1669D01*
X920Y1669D02*
X928Y1669D01*
X988Y1669D02*
X994Y1669D01*
X1889Y1669D02*
X1896Y1669D01*
X0Y1668D02*
X7Y1668D01*
X921Y1668D02*
X929Y1668D01*
X988Y1668D02*
X994Y1668D01*
X1889Y1668D02*
X1896Y1668D01*
X0Y1667D02*
X7Y1667D01*
X921Y1667D02*
X929Y1667D01*
X966Y1667D02*
X994Y1667D01*
X1889Y1667D02*
X1896Y1667D01*
X0Y1666D02*
X7Y1666D01*
X922Y1666D02*
X930Y1666D01*
X964Y1666D02*
X994Y1666D01*
X1889Y1666D02*
X1896Y1666D01*
X0Y1665D02*
X7Y1665D01*
X923Y1665D02*
X931Y1665D01*
X963Y1665D02*
X994Y1665D01*
X1889Y1665D02*
X1896Y1665D01*
X0Y1664D02*
X7Y1664D01*
X924Y1664D02*
X932Y1664D01*
X962Y1664D02*
X993Y1664D01*
X1889Y1664D02*
X1896Y1664D01*
X0Y1663D02*
X7Y1663D01*
X925Y1663D02*
X932Y1663D01*
X961Y1663D02*
X993Y1663D01*
X1889Y1663D02*
X1896Y1663D01*
X0Y1662D02*
X7Y1662D01*
X925Y1662D02*
X933Y1662D01*
X961Y1662D02*
X992Y1662D01*
X1889Y1662D02*
X1896Y1662D01*
X0Y1661D02*
X7Y1661D01*
X926Y1661D02*
X934Y1661D01*
X961Y1661D02*
X990Y1661D01*
X1889Y1661D02*
X1896Y1661D01*
X0Y1660D02*
X7Y1660D01*
X927Y1660D02*
X935Y1660D01*
X961Y1660D02*
X967Y1660D01*
X1889Y1660D02*
X1896Y1660D01*
X0Y1659D02*
X7Y1659D01*
X928Y1659D02*
X936Y1659D01*
X961Y1659D02*
X967Y1659D01*
X1889Y1659D02*
X1896Y1659D01*
X0Y1658D02*
X7Y1658D01*
X928Y1658D02*
X936Y1658D01*
X961Y1658D02*
X967Y1658D01*
X1889Y1658D02*
X1896Y1658D01*
X0Y1657D02*
X7Y1657D01*
X929Y1657D02*
X937Y1657D01*
X961Y1657D02*
X967Y1657D01*
X1889Y1657D02*
X1896Y1657D01*
X0Y1656D02*
X7Y1656D01*
X930Y1656D02*
X938Y1656D01*
X961Y1656D02*
X967Y1656D01*
X1889Y1656D02*
X1896Y1656D01*
X0Y1655D02*
X7Y1655D01*
X931Y1655D02*
X939Y1655D01*
X961Y1655D02*
X967Y1655D01*
X1889Y1655D02*
X1896Y1655D01*
X0Y1654D02*
X7Y1654D01*
X932Y1654D02*
X939Y1654D01*
X961Y1654D02*
X967Y1654D01*
X1889Y1654D02*
X1896Y1654D01*
X0Y1653D02*
X7Y1653D01*
X932Y1653D02*
X940Y1653D01*
X961Y1653D02*
X967Y1653D01*
X1889Y1653D02*
X1896Y1653D01*
X0Y1652D02*
X7Y1652D01*
X933Y1652D02*
X941Y1652D01*
X961Y1652D02*
X967Y1652D01*
X1889Y1652D02*
X1896Y1652D01*
X0Y1651D02*
X7Y1651D01*
X934Y1651D02*
X942Y1651D01*
X961Y1651D02*
X967Y1651D01*
X1889Y1651D02*
X1896Y1651D01*
X0Y1650D02*
X7Y1650D01*
X935Y1650D02*
X943Y1650D01*
X961Y1650D02*
X967Y1650D01*
X1889Y1650D02*
X1896Y1650D01*
X0Y1649D02*
X7Y1649D01*
X913Y1649D02*
X916Y1649D01*
X935Y1649D02*
X943Y1649D01*
X961Y1649D02*
X967Y1649D01*
X1889Y1649D02*
X1896Y1649D01*
X0Y1648D02*
X7Y1648D01*
X912Y1648D02*
X917Y1648D01*
X936Y1648D02*
X944Y1648D01*
X961Y1648D02*
X967Y1648D01*
X1889Y1648D02*
X1896Y1648D01*
X0Y1647D02*
X7Y1647D01*
X911Y1647D02*
X917Y1647D01*
X937Y1647D02*
X944Y1647D01*
X961Y1647D02*
X967Y1647D01*
X1889Y1647D02*
X1896Y1647D01*
X0Y1646D02*
X7Y1646D01*
X911Y1646D02*
X917Y1646D01*
X938Y1646D02*
X944Y1646D01*
X961Y1646D02*
X967Y1646D01*
X1889Y1646D02*
X1896Y1646D01*
X0Y1645D02*
X7Y1645D01*
X911Y1645D02*
X918Y1645D01*
X938Y1645D02*
X944Y1645D01*
X961Y1645D02*
X967Y1645D01*
X1889Y1645D02*
X1896Y1645D01*
X0Y1644D02*
X7Y1644D01*
X912Y1644D02*
X944Y1644D01*
X961Y1644D02*
X990Y1644D01*
X1889Y1644D02*
X1896Y1644D01*
X0Y1643D02*
X7Y1643D01*
X912Y1643D02*
X944Y1643D01*
X961Y1643D02*
X993Y1643D01*
X1889Y1643D02*
X1896Y1643D01*
X0Y1642D02*
X7Y1642D01*
X912Y1642D02*
X944Y1642D01*
X961Y1642D02*
X994Y1642D01*
X1889Y1642D02*
X1896Y1642D01*
X0Y1641D02*
X7Y1641D01*
X913Y1641D02*
X943Y1641D01*
X961Y1641D02*
X994Y1641D01*
X1889Y1641D02*
X1896Y1641D01*
X0Y1640D02*
X7Y1640D01*
X914Y1640D02*
X943Y1640D01*
X961Y1640D02*
X994Y1640D01*
X1889Y1640D02*
X1896Y1640D01*
X0Y1639D02*
X7Y1639D01*
X915Y1639D02*
X942Y1639D01*
X961Y1639D02*
X994Y1639D01*
X1889Y1639D02*
X1896Y1639D01*
X0Y1638D02*
X7Y1638D01*
X917Y1638D02*
X940Y1638D01*
X961Y1638D02*
X993Y1638D01*
X1889Y1638D02*
X1896Y1638D01*
X0Y1637D02*
X7Y1637D01*
X1889Y1637D02*
X1896Y1637D01*
X0Y1636D02*
X7Y1636D01*
X1889Y1636D02*
X1896Y1636D01*
X0Y1635D02*
X7Y1635D01*
X1889Y1635D02*
X1896Y1635D01*
X0Y1634D02*
X7Y1634D01*
X1889Y1634D02*
X1896Y1634D01*
X0Y1633D02*
X7Y1633D01*
X1889Y1633D02*
X1896Y1633D01*
X0Y1632D02*
X7Y1632D01*
X1889Y1632D02*
X1896Y1632D01*
X0Y1631D02*
X7Y1631D01*
X1889Y1631D02*
X1896Y1631D01*
X0Y1630D02*
X7Y1630D01*
X1889Y1630D02*
X1896Y1630D01*
X0Y1629D02*
X7Y1629D01*
X1889Y1629D02*
X1896Y1629D01*
X0Y1628D02*
X7Y1628D01*
X1889Y1628D02*
X1896Y1628D01*
X0Y1627D02*
X7Y1627D01*
X1889Y1627D02*
X1896Y1627D01*
X0Y1626D02*
X7Y1626D01*
X1889Y1626D02*
X1896Y1626D01*
X0Y1625D02*
X7Y1625D01*
X1889Y1625D02*
X1896Y1625D01*
X0Y1624D02*
X7Y1624D01*
X1889Y1624D02*
X1896Y1624D01*
X0Y1623D02*
X7Y1623D01*
X1889Y1623D02*
X1896Y1623D01*
X0Y1622D02*
X7Y1622D01*
X1889Y1622D02*
X1896Y1622D01*
X0Y1621D02*
X7Y1621D01*
X1889Y1621D02*
X1896Y1621D01*
X0Y1620D02*
X7Y1620D01*
X1889Y1620D02*
X1896Y1620D01*
X0Y1619D02*
X7Y1619D01*
X1889Y1619D02*
X1896Y1619D01*
X0Y1618D02*
X7Y1618D01*
X1889Y1618D02*
X1896Y1618D01*
X0Y1617D02*
X7Y1617D01*
X1889Y1617D02*
X1896Y1617D01*
X0Y1616D02*
X7Y1616D01*
X1889Y1616D02*
X1896Y1616D01*
X0Y1615D02*
X7Y1615D01*
X1889Y1615D02*
X1896Y1615D01*
X0Y1614D02*
X7Y1614D01*
X1889Y1614D02*
X1896Y1614D01*
X0Y1613D02*
X7Y1613D01*
X1889Y1613D02*
X1896Y1613D01*
X0Y1612D02*
X7Y1612D01*
X1889Y1612D02*
X1896Y1612D01*
X0Y1611D02*
X7Y1611D01*
X1889Y1611D02*
X1896Y1611D01*
X0Y1610D02*
X7Y1610D01*
X1889Y1610D02*
X1896Y1610D01*
X0Y1609D02*
X7Y1609D01*
X1889Y1609D02*
X1896Y1609D01*
X0Y1608D02*
X7Y1608D01*
X1889Y1608D02*
X1896Y1608D01*
X0Y1607D02*
X7Y1607D01*
X1889Y1607D02*
X1896Y1607D01*
X0Y1606D02*
X7Y1606D01*
X1889Y1606D02*
X1896Y1606D01*
X0Y1605D02*
X7Y1605D01*
X1889Y1605D02*
X1896Y1605D01*
X0Y1604D02*
X7Y1604D01*
X1889Y1604D02*
X1896Y1604D01*
X0Y1603D02*
X7Y1603D01*
X1889Y1603D02*
X1896Y1603D01*
X0Y1602D02*
X7Y1602D01*
X1889Y1602D02*
X1896Y1602D01*
X0Y1601D02*
X7Y1601D01*
X1889Y1601D02*
X1896Y1601D01*
X0Y1600D02*
X7Y1600D01*
X1889Y1600D02*
X1896Y1600D01*
X0Y1599D02*
X7Y1599D01*
X1889Y1599D02*
X1896Y1599D01*
X0Y1598D02*
X7Y1598D01*
X1889Y1598D02*
X1896Y1598D01*
X0Y1597D02*
X7Y1597D01*
X1889Y1597D02*
X1896Y1597D01*
X0Y1596D02*
X7Y1596D01*
X1889Y1596D02*
X1896Y1596D01*
X0Y1595D02*
X7Y1595D01*
X1889Y1595D02*
X1896Y1595D01*
X0Y1594D02*
X7Y1594D01*
X1889Y1594D02*
X1896Y1594D01*
X0Y1593D02*
X7Y1593D01*
X1889Y1593D02*
X1896Y1593D01*
X0Y1592D02*
X7Y1592D01*
X1889Y1592D02*
X1896Y1592D01*
X0Y1591D02*
X7Y1591D01*
X1889Y1591D02*
X1896Y1591D01*
X0Y1590D02*
X7Y1590D01*
X1889Y1590D02*
X1896Y1590D01*
X0Y1589D02*
X7Y1589D01*
X1889Y1589D02*
X1896Y1589D01*
X0Y1588D02*
X7Y1588D01*
X1889Y1588D02*
X1896Y1588D01*
X0Y1587D02*
X7Y1587D01*
X1889Y1587D02*
X1896Y1587D01*
X0Y1586D02*
X7Y1586D01*
X1889Y1586D02*
X1896Y1586D01*
X0Y1585D02*
X7Y1585D01*
X1889Y1585D02*
X1896Y1585D01*
X0Y1584D02*
X7Y1584D01*
X1889Y1584D02*
X1896Y1584D01*
X0Y1583D02*
X7Y1583D01*
X1889Y1583D02*
X1896Y1583D01*
X0Y1582D02*
X7Y1582D01*
X1889Y1582D02*
X1896Y1582D01*
X0Y1581D02*
X7Y1581D01*
X1889Y1581D02*
X1896Y1581D01*
X0Y1580D02*
X7Y1580D01*
X1889Y1580D02*
X1896Y1580D01*
X0Y1579D02*
X7Y1579D01*
X1889Y1579D02*
X1896Y1579D01*
X0Y1578D02*
X7Y1578D01*
X1889Y1578D02*
X1896Y1578D01*
X0Y1577D02*
X7Y1577D01*
X1889Y1577D02*
X1896Y1577D01*
X0Y1576D02*
X7Y1576D01*
X1889Y1576D02*
X1896Y1576D01*
X0Y1575D02*
X7Y1575D01*
X1889Y1575D02*
X1896Y1575D01*
X0Y1574D02*
X7Y1574D01*
X1889Y1574D02*
X1896Y1574D01*
X0Y1573D02*
X7Y1573D01*
X1889Y1573D02*
X1896Y1573D01*
X0Y1572D02*
X7Y1572D01*
X1889Y1572D02*
X1896Y1572D01*
X0Y1571D02*
X7Y1571D01*
X1889Y1571D02*
X1896Y1571D01*
X0Y1570D02*
X7Y1570D01*
X1889Y1570D02*
X1896Y1570D01*
X0Y1569D02*
X7Y1569D01*
X1889Y1569D02*
X1896Y1569D01*
X0Y1568D02*
X7Y1568D01*
X1889Y1568D02*
X1896Y1568D01*
X0Y1567D02*
X7Y1567D01*
X1889Y1567D02*
X1896Y1567D01*
X0Y1566D02*
X7Y1566D01*
X1889Y1566D02*
X1896Y1566D01*
X0Y1565D02*
X7Y1565D01*
X1889Y1565D02*
X1896Y1565D01*
X0Y1564D02*
X7Y1564D01*
X1889Y1564D02*
X1896Y1564D01*
X0Y1563D02*
X7Y1563D01*
X1889Y1563D02*
X1896Y1563D01*
X0Y1562D02*
X7Y1562D01*
X1889Y1562D02*
X1896Y1562D01*
X0Y1561D02*
X7Y1561D01*
X1889Y1561D02*
X1896Y1561D01*
X0Y1560D02*
X7Y1560D01*
X1889Y1560D02*
X1896Y1560D01*
X0Y1559D02*
X7Y1559D01*
X1889Y1559D02*
X1896Y1559D01*
X0Y1558D02*
X7Y1558D01*
X1889Y1558D02*
X1896Y1558D01*
X0Y1557D02*
X7Y1557D01*
X1889Y1557D02*
X1896Y1557D01*
X0Y1556D02*
X7Y1556D01*
X1889Y1556D02*
X1896Y1556D01*
X0Y1555D02*
X7Y1555D01*
X1889Y1555D02*
X1896Y1555D01*
X0Y1554D02*
X7Y1554D01*
X1889Y1554D02*
X1896Y1554D01*
X0Y1553D02*
X7Y1553D01*
X1889Y1553D02*
X1896Y1553D01*
X0Y1552D02*
X7Y1552D01*
X1889Y1552D02*
X1896Y1552D01*
X0Y1551D02*
X7Y1551D01*
X1889Y1551D02*
X1896Y1551D01*
X0Y1550D02*
X7Y1550D01*
X1889Y1550D02*
X1896Y1550D01*
X0Y1549D02*
X7Y1549D01*
X1889Y1549D02*
X1896Y1549D01*
X0Y1548D02*
X7Y1548D01*
X1889Y1548D02*
X1896Y1548D01*
X0Y1547D02*
X7Y1547D01*
X1889Y1547D02*
X1896Y1547D01*
X0Y1546D02*
X7Y1546D01*
X1889Y1546D02*
X1896Y1546D01*
X0Y1545D02*
X7Y1545D01*
X1889Y1545D02*
X1896Y1545D01*
X0Y1544D02*
X7Y1544D01*
X1889Y1544D02*
X1896Y1544D01*
X0Y1543D02*
X7Y1543D01*
X1889Y1543D02*
X1896Y1543D01*
X0Y1542D02*
X7Y1542D01*
X1889Y1542D02*
X1896Y1542D01*
X0Y1541D02*
X7Y1541D01*
X1889Y1541D02*
X1896Y1541D01*
X0Y1540D02*
X7Y1540D01*
X1889Y1540D02*
X1896Y1540D01*
X0Y1539D02*
X7Y1539D01*
X1889Y1539D02*
X1896Y1539D01*
X0Y1538D02*
X7Y1538D01*
X1889Y1538D02*
X1896Y1538D01*
X0Y1537D02*
X7Y1537D01*
X1889Y1537D02*
X1896Y1537D01*
X0Y1536D02*
X7Y1536D01*
X1889Y1536D02*
X1896Y1536D01*
X0Y1535D02*
X7Y1535D01*
X1889Y1535D02*
X1896Y1535D01*
X0Y1534D02*
X7Y1534D01*
X1889Y1534D02*
X1896Y1534D01*
X0Y1533D02*
X7Y1533D01*
X1889Y1533D02*
X1896Y1533D01*
X0Y1532D02*
X7Y1532D01*
X1889Y1532D02*
X1896Y1532D01*
X0Y1531D02*
X7Y1531D01*
X1889Y1531D02*
X1896Y1531D01*
X0Y1530D02*
X7Y1530D01*
X1889Y1530D02*
X1896Y1530D01*
X0Y1529D02*
X7Y1529D01*
X1889Y1529D02*
X1896Y1529D01*
X0Y1528D02*
X7Y1528D01*
X1889Y1528D02*
X1896Y1528D01*
X0Y1527D02*
X7Y1527D01*
X1889Y1527D02*
X1896Y1527D01*
X0Y1526D02*
X7Y1526D01*
X1889Y1526D02*
X1896Y1526D01*
X0Y1525D02*
X7Y1525D01*
X1889Y1525D02*
X1896Y1525D01*
X0Y1524D02*
X7Y1524D01*
X1889Y1524D02*
X1896Y1524D01*
X0Y1523D02*
X7Y1523D01*
X1889Y1523D02*
X1896Y1523D01*
X0Y1522D02*
X7Y1522D01*
X1889Y1522D02*
X1896Y1522D01*
X0Y1521D02*
X7Y1521D01*
X1889Y1521D02*
X1896Y1521D01*
X0Y1520D02*
X7Y1520D01*
X1889Y1520D02*
X1896Y1520D01*
X0Y1519D02*
X7Y1519D01*
X1889Y1519D02*
X1896Y1519D01*
X0Y1518D02*
X7Y1518D01*
X1889Y1518D02*
X1896Y1518D01*
X0Y1517D02*
X7Y1517D01*
X1889Y1517D02*
X1896Y1517D01*
X0Y1516D02*
X7Y1516D01*
X1889Y1516D02*
X1896Y1516D01*
X0Y1515D02*
X7Y1515D01*
X1889Y1515D02*
X1896Y1515D01*
X0Y1514D02*
X7Y1514D01*
X1889Y1514D02*
X1896Y1514D01*
X0Y1513D02*
X7Y1513D01*
X1889Y1513D02*
X1896Y1513D01*
X0Y1512D02*
X7Y1512D01*
X1889Y1512D02*
X1896Y1512D01*
X0Y1511D02*
X7Y1511D01*
X1889Y1511D02*
X1896Y1511D01*
X0Y1510D02*
X7Y1510D01*
X1889Y1510D02*
X1896Y1510D01*
X0Y1509D02*
X7Y1509D01*
X1889Y1509D02*
X1896Y1509D01*
X0Y1508D02*
X7Y1508D01*
X1889Y1508D02*
X1896Y1508D01*
X0Y1507D02*
X7Y1507D01*
X1889Y1507D02*
X1896Y1507D01*
X0Y1506D02*
X7Y1506D01*
X1889Y1506D02*
X1896Y1506D01*
X0Y1505D02*
X7Y1505D01*
X1889Y1505D02*
X1896Y1505D01*
X0Y1504D02*
X7Y1504D01*
X1889Y1504D02*
X1896Y1504D01*
X0Y1503D02*
X7Y1503D01*
X1889Y1503D02*
X1896Y1503D01*
X0Y1502D02*
X7Y1502D01*
X1889Y1502D02*
X1896Y1502D01*
X0Y1501D02*
X7Y1501D01*
X1889Y1501D02*
X1896Y1501D01*
X0Y1500D02*
X7Y1500D01*
X1889Y1500D02*
X1896Y1500D01*
X0Y1499D02*
X7Y1499D01*
X1889Y1499D02*
X1896Y1499D01*
X0Y1498D02*
X7Y1498D01*
X1889Y1498D02*
X1896Y1498D01*
X0Y1497D02*
X7Y1497D01*
X1889Y1497D02*
X1896Y1497D01*
X0Y1496D02*
X7Y1496D01*
X1889Y1496D02*
X1896Y1496D01*
X0Y1495D02*
X7Y1495D01*
X1889Y1495D02*
X1896Y1495D01*
X0Y1494D02*
X7Y1494D01*
X1889Y1494D02*
X1896Y1494D01*
X0Y1493D02*
X7Y1493D01*
X1889Y1493D02*
X1896Y1493D01*
X0Y1492D02*
X7Y1492D01*
X1889Y1492D02*
X1896Y1492D01*
X0Y1491D02*
X7Y1491D01*
X1889Y1491D02*
X1896Y1491D01*
X0Y1490D02*
X7Y1490D01*
X1889Y1490D02*
X1896Y1490D01*
X0Y1489D02*
X7Y1489D01*
X1889Y1489D02*
X1896Y1489D01*
X0Y1488D02*
X7Y1488D01*
X1889Y1488D02*
X1896Y1488D01*
X0Y1487D02*
X7Y1487D01*
X1889Y1487D02*
X1896Y1487D01*
X0Y1486D02*
X7Y1486D01*
X1889Y1486D02*
X1896Y1486D01*
X0Y1485D02*
X7Y1485D01*
X1889Y1485D02*
X1896Y1485D01*
X0Y1484D02*
X7Y1484D01*
X1889Y1484D02*
X1896Y1484D01*
X0Y1483D02*
X7Y1483D01*
X1889Y1483D02*
X1896Y1483D01*
X0Y1482D02*
X7Y1482D01*
X1889Y1482D02*
X1896Y1482D01*
X0Y1481D02*
X7Y1481D01*
X1889Y1481D02*
X1896Y1481D01*
X0Y1480D02*
X7Y1480D01*
X1889Y1480D02*
X1896Y1480D01*
X0Y1479D02*
X7Y1479D01*
X1889Y1479D02*
X1896Y1479D01*
X0Y1478D02*
X7Y1478D01*
X1889Y1478D02*
X1896Y1478D01*
X0Y1477D02*
X7Y1477D01*
X1889Y1477D02*
X1896Y1477D01*
X0Y1476D02*
X7Y1476D01*
X1889Y1476D02*
X1896Y1476D01*
X0Y1475D02*
X7Y1475D01*
X1889Y1475D02*
X1896Y1475D01*
X0Y1474D02*
X7Y1474D01*
X1889Y1474D02*
X1896Y1474D01*
X0Y1473D02*
X7Y1473D01*
X1889Y1473D02*
X1896Y1473D01*
X0Y1472D02*
X7Y1472D01*
X1889Y1472D02*
X1896Y1472D01*
X0Y1471D02*
X7Y1471D01*
X1889Y1471D02*
X1896Y1471D01*
X0Y1470D02*
X7Y1470D01*
X1889Y1470D02*
X1896Y1470D01*
X0Y1469D02*
X7Y1469D01*
X1889Y1469D02*
X1896Y1469D01*
X0Y1468D02*
X7Y1468D01*
X1889Y1468D02*
X1896Y1468D01*
X0Y1467D02*
X7Y1467D01*
X1889Y1467D02*
X1896Y1467D01*
X0Y1466D02*
X7Y1466D01*
X1889Y1466D02*
X1896Y1466D01*
X0Y1465D02*
X7Y1465D01*
X1889Y1465D02*
X1896Y1465D01*
X0Y1464D02*
X7Y1464D01*
X1889Y1464D02*
X1896Y1464D01*
X0Y1463D02*
X7Y1463D01*
X1889Y1463D02*
X1896Y1463D01*
X0Y1462D02*
X7Y1462D01*
X1889Y1462D02*
X1896Y1462D01*
X0Y1461D02*
X7Y1461D01*
X1889Y1461D02*
X1896Y1461D01*
X0Y1460D02*
X7Y1460D01*
X1889Y1460D02*
X1896Y1460D01*
X0Y1459D02*
X7Y1459D01*
X1889Y1459D02*
X1896Y1459D01*
X0Y1458D02*
X7Y1458D01*
X1889Y1458D02*
X1896Y1458D01*
X0Y1457D02*
X7Y1457D01*
X1889Y1457D02*
X1896Y1457D01*
X0Y1456D02*
X7Y1456D01*
X1889Y1456D02*
X1896Y1456D01*
X0Y1455D02*
X7Y1455D01*
X1889Y1455D02*
X1896Y1455D01*
X0Y1454D02*
X7Y1454D01*
X1889Y1454D02*
X1896Y1454D01*
X0Y1453D02*
X7Y1453D01*
X1889Y1453D02*
X1896Y1453D01*
X0Y1452D02*
X7Y1452D01*
X1889Y1452D02*
X1896Y1452D01*
X0Y1451D02*
X7Y1451D01*
X1889Y1451D02*
X1896Y1451D01*
X0Y1450D02*
X7Y1450D01*
X1889Y1450D02*
X1896Y1450D01*
X0Y1449D02*
X7Y1449D01*
X1889Y1449D02*
X1896Y1449D01*
X0Y1448D02*
X7Y1448D01*
X1889Y1448D02*
X1896Y1448D01*
X0Y1447D02*
X7Y1447D01*
X1889Y1447D02*
X1896Y1447D01*
X0Y1446D02*
X7Y1446D01*
X1889Y1446D02*
X1896Y1446D01*
X0Y1445D02*
X7Y1445D01*
X1889Y1445D02*
X1896Y1445D01*
X0Y1444D02*
X7Y1444D01*
X1889Y1444D02*
X1896Y1444D01*
X0Y1443D02*
X7Y1443D01*
X1889Y1443D02*
X1896Y1443D01*
X0Y1442D02*
X7Y1442D01*
X1889Y1442D02*
X1896Y1442D01*
X0Y1441D02*
X7Y1441D01*
X1889Y1441D02*
X1896Y1441D01*
X0Y1440D02*
X7Y1440D01*
X1889Y1440D02*
X1896Y1440D01*
X0Y1439D02*
X7Y1439D01*
X1889Y1439D02*
X1896Y1439D01*
X0Y1438D02*
X7Y1438D01*
X1889Y1438D02*
X1896Y1438D01*
X0Y1437D02*
X7Y1437D01*
X1889Y1437D02*
X1896Y1437D01*
X0Y1436D02*
X7Y1436D01*
X1889Y1436D02*
X1896Y1436D01*
X0Y1435D02*
X7Y1435D01*
X1889Y1435D02*
X1896Y1435D01*
X0Y1434D02*
X7Y1434D01*
X1889Y1434D02*
X1896Y1434D01*
X0Y1433D02*
X7Y1433D01*
X1889Y1433D02*
X1896Y1433D01*
X0Y1432D02*
X7Y1432D01*
X1889Y1432D02*
X1896Y1432D01*
X0Y1431D02*
X7Y1431D01*
X1889Y1431D02*
X1896Y1431D01*
X0Y1430D02*
X7Y1430D01*
X1889Y1430D02*
X1896Y1430D01*
X0Y1429D02*
X7Y1429D01*
X1889Y1429D02*
X1896Y1429D01*
X0Y1428D02*
X7Y1428D01*
X1889Y1428D02*
X1896Y1428D01*
X0Y1427D02*
X7Y1427D01*
X1889Y1427D02*
X1896Y1427D01*
X0Y1426D02*
X7Y1426D01*
X1889Y1426D02*
X1896Y1426D01*
X0Y1425D02*
X7Y1425D01*
X1889Y1425D02*
X1896Y1425D01*
X0Y1424D02*
X7Y1424D01*
X1889Y1424D02*
X1896Y1424D01*
X0Y1423D02*
X7Y1423D01*
X1889Y1423D02*
X1896Y1423D01*
X0Y1422D02*
X7Y1422D01*
X1889Y1422D02*
X1896Y1422D01*
X0Y1421D02*
X7Y1421D01*
X1889Y1421D02*
X1896Y1421D01*
X0Y1420D02*
X7Y1420D01*
X1889Y1420D02*
X1896Y1420D01*
X0Y1419D02*
X7Y1419D01*
X1889Y1419D02*
X1896Y1419D01*
X0Y1418D02*
X7Y1418D01*
X1889Y1418D02*
X1896Y1418D01*
X0Y1417D02*
X7Y1417D01*
X1889Y1417D02*
X1896Y1417D01*
X0Y1416D02*
X7Y1416D01*
X1889Y1416D02*
X1896Y1416D01*
X0Y1415D02*
X7Y1415D01*
X1889Y1415D02*
X1896Y1415D01*
X0Y1414D02*
X7Y1414D01*
X1889Y1414D02*
X1896Y1414D01*
X0Y1413D02*
X7Y1413D01*
X1889Y1413D02*
X1896Y1413D01*
X0Y1412D02*
X7Y1412D01*
X1889Y1412D02*
X1896Y1412D01*
X0Y1411D02*
X7Y1411D01*
X1889Y1411D02*
X1896Y1411D01*
X0Y1410D02*
X7Y1410D01*
X1889Y1410D02*
X1896Y1410D01*
X0Y1409D02*
X7Y1409D01*
X1889Y1409D02*
X1896Y1409D01*
X0Y1408D02*
X7Y1408D01*
X1889Y1408D02*
X1896Y1408D01*
X0Y1407D02*
X7Y1407D01*
X1889Y1407D02*
X1896Y1407D01*
X0Y1406D02*
X7Y1406D01*
X1889Y1406D02*
X1896Y1406D01*
X0Y1405D02*
X7Y1405D01*
X1889Y1405D02*
X1896Y1405D01*
X0Y1404D02*
X7Y1404D01*
X1889Y1404D02*
X1896Y1404D01*
X0Y1403D02*
X7Y1403D01*
X1889Y1403D02*
X1896Y1403D01*
X0Y1402D02*
X7Y1402D01*
X1889Y1402D02*
X1896Y1402D01*
X0Y1401D02*
X7Y1401D01*
X1889Y1401D02*
X1896Y1401D01*
X0Y1400D02*
X7Y1400D01*
X1889Y1400D02*
X1896Y1400D01*
X0Y1399D02*
X7Y1399D01*
X1889Y1399D02*
X1896Y1399D01*
X0Y1398D02*
X7Y1398D01*
X1889Y1398D02*
X1896Y1398D01*
X0Y1397D02*
X7Y1397D01*
X1889Y1397D02*
X1896Y1397D01*
X0Y1396D02*
X7Y1396D01*
X1889Y1396D02*
X1896Y1396D01*
X0Y1395D02*
X7Y1395D01*
X1889Y1395D02*
X1896Y1395D01*
X0Y1394D02*
X7Y1394D01*
X1889Y1394D02*
X1896Y1394D01*
X0Y1393D02*
X7Y1393D01*
X1889Y1393D02*
X1896Y1393D01*
X0Y1392D02*
X7Y1392D01*
X1889Y1392D02*
X1896Y1392D01*
X0Y1391D02*
X7Y1391D01*
X1889Y1391D02*
X1896Y1391D01*
X0Y1390D02*
X7Y1390D01*
X1889Y1390D02*
X1896Y1390D01*
X0Y1389D02*
X7Y1389D01*
X1889Y1389D02*
X1896Y1389D01*
X0Y1388D02*
X7Y1388D01*
X1889Y1388D02*
X1896Y1388D01*
X0Y1387D02*
X7Y1387D01*
X1889Y1387D02*
X1896Y1387D01*
X0Y1386D02*
X7Y1386D01*
X1889Y1386D02*
X1896Y1386D01*
X0Y1385D02*
X7Y1385D01*
X1889Y1385D02*
X1896Y1385D01*
X0Y1384D02*
X7Y1384D01*
X1889Y1384D02*
X1896Y1384D01*
X0Y1383D02*
X7Y1383D01*
X1889Y1383D02*
X1896Y1383D01*
X0Y1382D02*
X7Y1382D01*
X1889Y1382D02*
X1896Y1382D01*
X0Y1381D02*
X7Y1381D01*
X1889Y1381D02*
X1896Y1381D01*
X0Y1380D02*
X7Y1380D01*
X1889Y1380D02*
X1896Y1380D01*
X0Y1379D02*
X7Y1379D01*
X1889Y1379D02*
X1896Y1379D01*
X0Y1378D02*
X7Y1378D01*
X1889Y1378D02*
X1896Y1378D01*
X0Y1377D02*
X7Y1377D01*
X1889Y1377D02*
X1896Y1377D01*
X0Y1376D02*
X7Y1376D01*
X1889Y1376D02*
X1896Y1376D01*
X0Y1375D02*
X7Y1375D01*
X1889Y1375D02*
X1896Y1375D01*
X0Y1374D02*
X7Y1374D01*
X1889Y1374D02*
X1896Y1374D01*
X0Y1373D02*
X7Y1373D01*
X1889Y1373D02*
X1896Y1373D01*
X0Y1372D02*
X7Y1372D01*
X1889Y1372D02*
X1896Y1372D01*
X0Y1371D02*
X7Y1371D01*
X1889Y1371D02*
X1896Y1371D01*
X0Y1370D02*
X7Y1370D01*
X1889Y1370D02*
X1896Y1370D01*
X0Y1369D02*
X7Y1369D01*
X1889Y1369D02*
X1896Y1369D01*
X0Y1368D02*
X7Y1368D01*
X1889Y1368D02*
X1896Y1368D01*
X0Y1367D02*
X7Y1367D01*
X1889Y1367D02*
X1896Y1367D01*
X0Y1366D02*
X7Y1366D01*
X1889Y1366D02*
X1896Y1366D01*
X0Y1365D02*
X7Y1365D01*
X1889Y1365D02*
X1896Y1365D01*
X0Y1364D02*
X7Y1364D01*
X1889Y1364D02*
X1896Y1364D01*
X0Y1363D02*
X7Y1363D01*
X1889Y1363D02*
X1896Y1363D01*
X0Y1362D02*
X7Y1362D01*
X1889Y1362D02*
X1896Y1362D01*
X0Y1361D02*
X7Y1361D01*
X1889Y1361D02*
X1896Y1361D01*
X0Y1360D02*
X7Y1360D01*
X1889Y1360D02*
X1896Y1360D01*
X0Y1359D02*
X7Y1359D01*
X1889Y1359D02*
X1896Y1359D01*
X0Y1358D02*
X7Y1358D01*
X1889Y1358D02*
X1896Y1358D01*
X0Y1357D02*
X7Y1357D01*
X1889Y1357D02*
X1896Y1357D01*
X0Y1356D02*
X7Y1356D01*
X1889Y1356D02*
X1896Y1356D01*
X0Y1355D02*
X7Y1355D01*
X1889Y1355D02*
X1896Y1355D01*
X0Y1354D02*
X7Y1354D01*
X1889Y1354D02*
X1896Y1354D01*
X0Y1353D02*
X7Y1353D01*
X1889Y1353D02*
X1896Y1353D01*
X0Y1352D02*
X7Y1352D01*
X1889Y1352D02*
X1896Y1352D01*
X0Y1351D02*
X7Y1351D01*
X1889Y1351D02*
X1896Y1351D01*
X0Y1350D02*
X7Y1350D01*
X1889Y1350D02*
X1896Y1350D01*
X0Y1349D02*
X7Y1349D01*
X1889Y1349D02*
X1896Y1349D01*
X0Y1348D02*
X7Y1348D01*
X1889Y1348D02*
X1896Y1348D01*
X0Y1347D02*
X7Y1347D01*
X1889Y1347D02*
X1896Y1347D01*
X0Y1346D02*
X7Y1346D01*
X1889Y1346D02*
X1896Y1346D01*
X0Y1345D02*
X7Y1345D01*
X1889Y1345D02*
X1896Y1345D01*
X0Y1344D02*
X7Y1344D01*
X1889Y1344D02*
X1896Y1344D01*
X0Y1343D02*
X7Y1343D01*
X1889Y1343D02*
X1896Y1343D01*
X0Y1342D02*
X7Y1342D01*
X1889Y1342D02*
X1896Y1342D01*
X0Y1341D02*
X7Y1341D01*
X1889Y1341D02*
X1896Y1341D01*
X0Y1340D02*
X7Y1340D01*
X1889Y1340D02*
X1896Y1340D01*
X0Y1339D02*
X7Y1339D01*
X1889Y1339D02*
X1896Y1339D01*
X0Y1338D02*
X7Y1338D01*
X1889Y1338D02*
X1896Y1338D01*
X0Y1337D02*
X7Y1337D01*
X1889Y1337D02*
X1896Y1337D01*
X0Y1336D02*
X7Y1336D01*
X1889Y1336D02*
X1896Y1336D01*
X0Y1335D02*
X7Y1335D01*
X1889Y1335D02*
X1896Y1335D01*
X0Y1334D02*
X7Y1334D01*
X1889Y1334D02*
X1896Y1334D01*
X0Y1333D02*
X7Y1333D01*
X1889Y1333D02*
X1896Y1333D01*
X0Y1332D02*
X7Y1332D01*
X1889Y1332D02*
X1896Y1332D01*
X0Y1331D02*
X7Y1331D01*
X1889Y1331D02*
X1896Y1331D01*
X0Y1330D02*
X7Y1330D01*
X1889Y1330D02*
X1896Y1330D01*
X0Y1329D02*
X7Y1329D01*
X1889Y1329D02*
X1896Y1329D01*
X0Y1328D02*
X7Y1328D01*
X1889Y1328D02*
X1896Y1328D01*
X0Y1327D02*
X7Y1327D01*
X1889Y1327D02*
X1896Y1327D01*
X0Y1326D02*
X7Y1326D01*
X1889Y1326D02*
X1896Y1326D01*
X0Y1325D02*
X7Y1325D01*
X1889Y1325D02*
X1896Y1325D01*
X0Y1324D02*
X7Y1324D01*
X1889Y1324D02*
X1896Y1324D01*
X0Y1323D02*
X7Y1323D01*
X1889Y1323D02*
X1896Y1323D01*
X0Y1322D02*
X7Y1322D01*
X1889Y1322D02*
X1896Y1322D01*
X0Y1321D02*
X7Y1321D01*
X1889Y1321D02*
X1896Y1321D01*
X0Y1320D02*
X7Y1320D01*
X1889Y1320D02*
X1896Y1320D01*
X0Y1319D02*
X7Y1319D01*
X1889Y1319D02*
X1896Y1319D01*
X0Y1318D02*
X7Y1318D01*
X1889Y1318D02*
X1896Y1318D01*
X0Y1317D02*
X7Y1317D01*
X1889Y1317D02*
X1896Y1317D01*
X0Y1316D02*
X7Y1316D01*
X1889Y1316D02*
X1896Y1316D01*
X0Y1315D02*
X7Y1315D01*
X1889Y1315D02*
X1896Y1315D01*
X0Y1314D02*
X7Y1314D01*
X1889Y1314D02*
X1896Y1314D01*
X0Y1313D02*
X7Y1313D01*
X1889Y1313D02*
X1896Y1313D01*
X0Y1312D02*
X7Y1312D01*
X1889Y1312D02*
X1896Y1312D01*
X0Y1311D02*
X7Y1311D01*
X1889Y1311D02*
X1896Y1311D01*
X0Y1310D02*
X7Y1310D01*
X1889Y1310D02*
X1896Y1310D01*
X0Y1309D02*
X7Y1309D01*
X1889Y1309D02*
X1896Y1309D01*
X0Y1308D02*
X7Y1308D01*
X1889Y1308D02*
X1896Y1308D01*
X0Y1307D02*
X7Y1307D01*
X1889Y1307D02*
X1896Y1307D01*
X0Y1306D02*
X7Y1306D01*
X1889Y1306D02*
X1896Y1306D01*
X0Y1305D02*
X7Y1305D01*
X1889Y1305D02*
X1896Y1305D01*
X0Y1304D02*
X7Y1304D01*
X1889Y1304D02*
X1896Y1304D01*
X0Y1303D02*
X7Y1303D01*
X1889Y1303D02*
X1896Y1303D01*
X0Y1302D02*
X7Y1302D01*
X1889Y1302D02*
X1896Y1302D01*
X0Y1301D02*
X7Y1301D01*
X1889Y1301D02*
X1896Y1301D01*
X0Y1300D02*
X7Y1300D01*
X1889Y1300D02*
X1896Y1300D01*
X0Y1299D02*
X7Y1299D01*
X1889Y1299D02*
X1896Y1299D01*
X0Y1298D02*
X7Y1298D01*
X1889Y1298D02*
X1896Y1298D01*
X0Y1297D02*
X7Y1297D01*
X1889Y1297D02*
X1896Y1297D01*
X0Y1296D02*
X7Y1296D01*
X1889Y1296D02*
X1896Y1296D01*
X0Y1295D02*
X7Y1295D01*
X1889Y1295D02*
X1896Y1295D01*
X0Y1294D02*
X7Y1294D01*
X1889Y1294D02*
X1896Y1294D01*
X0Y1293D02*
X7Y1293D01*
X1889Y1293D02*
X1896Y1293D01*
X0Y1292D02*
X7Y1292D01*
X1889Y1292D02*
X1896Y1292D01*
X0Y1291D02*
X7Y1291D01*
X1889Y1291D02*
X1896Y1291D01*
X0Y1290D02*
X7Y1290D01*
X1889Y1290D02*
X1896Y1290D01*
X0Y1289D02*
X7Y1289D01*
X1889Y1289D02*
X1896Y1289D01*
X0Y1288D02*
X7Y1288D01*
X1889Y1288D02*
X1896Y1288D01*
X0Y1287D02*
X7Y1287D01*
X1889Y1287D02*
X1896Y1287D01*
X0Y1286D02*
X7Y1286D01*
X1889Y1286D02*
X1896Y1286D01*
X0Y1285D02*
X7Y1285D01*
X1889Y1285D02*
X1896Y1285D01*
X0Y1284D02*
X7Y1284D01*
X1889Y1284D02*
X1896Y1284D01*
X0Y1283D02*
X7Y1283D01*
X1889Y1283D02*
X1896Y1283D01*
X0Y1282D02*
X7Y1282D01*
X1889Y1282D02*
X1896Y1282D01*
X0Y1281D02*
X7Y1281D01*
X1889Y1281D02*
X1896Y1281D01*
X0Y1280D02*
X7Y1280D01*
X1889Y1280D02*
X1896Y1280D01*
X0Y1279D02*
X7Y1279D01*
X1889Y1279D02*
X1896Y1279D01*
X0Y1278D02*
X7Y1278D01*
X1889Y1278D02*
X1896Y1278D01*
X0Y1277D02*
X7Y1277D01*
X1889Y1277D02*
X1896Y1277D01*
X0Y1276D02*
X7Y1276D01*
X1889Y1276D02*
X1896Y1276D01*
X0Y1275D02*
X7Y1275D01*
X1889Y1275D02*
X1896Y1275D01*
X0Y1274D02*
X7Y1274D01*
X1889Y1274D02*
X1896Y1274D01*
X0Y1273D02*
X7Y1273D01*
X1889Y1273D02*
X1896Y1273D01*
X0Y1272D02*
X7Y1272D01*
X1889Y1272D02*
X1896Y1272D01*
X0Y1271D02*
X7Y1271D01*
X1889Y1271D02*
X1896Y1271D01*
X0Y1270D02*
X7Y1270D01*
X1889Y1270D02*
X1896Y1270D01*
X0Y1269D02*
X7Y1269D01*
X1889Y1269D02*
X1896Y1269D01*
X0Y1268D02*
X7Y1268D01*
X1889Y1268D02*
X1896Y1268D01*
X0Y1267D02*
X7Y1267D01*
X1889Y1267D02*
X1896Y1267D01*
X0Y1266D02*
X7Y1266D01*
X1889Y1266D02*
X1896Y1266D01*
X0Y1265D02*
X7Y1265D01*
X1889Y1265D02*
X1896Y1265D01*
X0Y1264D02*
X7Y1264D01*
X1889Y1264D02*
X1896Y1264D01*
X0Y1263D02*
X7Y1263D01*
X1889Y1263D02*
X1896Y1263D01*
X0Y1262D02*
X7Y1262D01*
X1889Y1262D02*
X1896Y1262D01*
X0Y1261D02*
X7Y1261D01*
X1889Y1261D02*
X1896Y1261D01*
X0Y1260D02*
X7Y1260D01*
X1889Y1260D02*
X1896Y1260D01*
X0Y1259D02*
X7Y1259D01*
X1889Y1259D02*
X1896Y1259D01*
X0Y1258D02*
X7Y1258D01*
X1889Y1258D02*
X1896Y1258D01*
X0Y1257D02*
X7Y1257D01*
X1889Y1257D02*
X1896Y1257D01*
X0Y1256D02*
X7Y1256D01*
X1889Y1256D02*
X1896Y1256D01*
X0Y1255D02*
X7Y1255D01*
X1889Y1255D02*
X1896Y1255D01*
X0Y1254D02*
X7Y1254D01*
X1889Y1254D02*
X1896Y1254D01*
X0Y1253D02*
X7Y1253D01*
X1889Y1253D02*
X1896Y1253D01*
X0Y1252D02*
X7Y1252D01*
X1889Y1252D02*
X1896Y1252D01*
X0Y1251D02*
X7Y1251D01*
X1889Y1251D02*
X1896Y1251D01*
X0Y1250D02*
X7Y1250D01*
X1889Y1250D02*
X1896Y1250D01*
X0Y1249D02*
X7Y1249D01*
X1889Y1249D02*
X1896Y1249D01*
X0Y1248D02*
X7Y1248D01*
X1889Y1248D02*
X1896Y1248D01*
X0Y1247D02*
X7Y1247D01*
X1889Y1247D02*
X1896Y1247D01*
X0Y1246D02*
X7Y1246D01*
X1889Y1246D02*
X1896Y1246D01*
X0Y1245D02*
X7Y1245D01*
X1889Y1245D02*
X1896Y1245D01*
X0Y1244D02*
X7Y1244D01*
X1889Y1244D02*
X1896Y1244D01*
X0Y1243D02*
X7Y1243D01*
X1889Y1243D02*
X1896Y1243D01*
X0Y1242D02*
X7Y1242D01*
X1889Y1242D02*
X1896Y1242D01*
X0Y1241D02*
X7Y1241D01*
X1889Y1241D02*
X1896Y1241D01*
X0Y1240D02*
X7Y1240D01*
X1889Y1240D02*
X1896Y1240D01*
X0Y1239D02*
X7Y1239D01*
X1889Y1239D02*
X1896Y1239D01*
X0Y1238D02*
X7Y1238D01*
X1889Y1238D02*
X1896Y1238D01*
X0Y1237D02*
X7Y1237D01*
X1889Y1237D02*
X1896Y1237D01*
X0Y1236D02*
X7Y1236D01*
X1889Y1236D02*
X1896Y1236D01*
X0Y1235D02*
X7Y1235D01*
X1889Y1235D02*
X1896Y1235D01*
X0Y1234D02*
X7Y1234D01*
X1889Y1234D02*
X1896Y1234D01*
X0Y1233D02*
X7Y1233D01*
X1889Y1233D02*
X1896Y1233D01*
X0Y1232D02*
X7Y1232D01*
X1889Y1232D02*
X1896Y1232D01*
X0Y1231D02*
X7Y1231D01*
X1889Y1231D02*
X1896Y1231D01*
X0Y1230D02*
X7Y1230D01*
X1889Y1230D02*
X1896Y1230D01*
X0Y1229D02*
X7Y1229D01*
X1889Y1229D02*
X1896Y1229D01*
X0Y1228D02*
X7Y1228D01*
X1889Y1228D02*
X1896Y1228D01*
X0Y1227D02*
X7Y1227D01*
X1889Y1227D02*
X1896Y1227D01*
X0Y1226D02*
X7Y1226D01*
X1889Y1226D02*
X1896Y1226D01*
X0Y1225D02*
X7Y1225D01*
X1889Y1225D02*
X1896Y1225D01*
X0Y1224D02*
X7Y1224D01*
X1889Y1224D02*
X1896Y1224D01*
X0Y1223D02*
X7Y1223D01*
X1889Y1223D02*
X1896Y1223D01*
X0Y1222D02*
X7Y1222D01*
X1889Y1222D02*
X1896Y1222D01*
X0Y1221D02*
X7Y1221D01*
X1889Y1221D02*
X1896Y1221D01*
X0Y1220D02*
X7Y1220D01*
X1889Y1220D02*
X1896Y1220D01*
X0Y1219D02*
X7Y1219D01*
X1889Y1219D02*
X1896Y1219D01*
X0Y1218D02*
X7Y1218D01*
X1889Y1218D02*
X1896Y1218D01*
X0Y1217D02*
X7Y1217D01*
X1889Y1217D02*
X1896Y1217D01*
X0Y1216D02*
X7Y1216D01*
X1889Y1216D02*
X1896Y1216D01*
X0Y1215D02*
X7Y1215D01*
X1889Y1215D02*
X1896Y1215D01*
X0Y1214D02*
X7Y1214D01*
X1889Y1214D02*
X1896Y1214D01*
X0Y1213D02*
X7Y1213D01*
X1889Y1213D02*
X1896Y1213D01*
X0Y1212D02*
X7Y1212D01*
X1889Y1212D02*
X1896Y1212D01*
X0Y1211D02*
X7Y1211D01*
X1889Y1211D02*
X1896Y1211D01*
X0Y1210D02*
X7Y1210D01*
X1889Y1210D02*
X1896Y1210D01*
X0Y1209D02*
X7Y1209D01*
X1889Y1209D02*
X1896Y1209D01*
X0Y1208D02*
X7Y1208D01*
X1889Y1208D02*
X1896Y1208D01*
X0Y1207D02*
X7Y1207D01*
X1889Y1207D02*
X1896Y1207D01*
X0Y1206D02*
X7Y1206D01*
X1889Y1206D02*
X1896Y1206D01*
X0Y1205D02*
X7Y1205D01*
X1889Y1205D02*
X1896Y1205D01*
X0Y1204D02*
X7Y1204D01*
X1889Y1204D02*
X1896Y1204D01*
X0Y1203D02*
X7Y1203D01*
X1889Y1203D02*
X1896Y1203D01*
X0Y1202D02*
X7Y1202D01*
X1889Y1202D02*
X1896Y1202D01*
X0Y1201D02*
X7Y1201D01*
X1889Y1201D02*
X1896Y1201D01*
X0Y1200D02*
X7Y1200D01*
X1889Y1200D02*
X1896Y1200D01*
X0Y1199D02*
X7Y1199D01*
X1889Y1199D02*
X1896Y1199D01*
X0Y1198D02*
X7Y1198D01*
X1889Y1198D02*
X1896Y1198D01*
X0Y1197D02*
X7Y1197D01*
X1889Y1197D02*
X1896Y1197D01*
X0Y1196D02*
X7Y1196D01*
X1889Y1196D02*
X1896Y1196D01*
X0Y1195D02*
X7Y1195D01*
X1889Y1195D02*
X1896Y1195D01*
X0Y1194D02*
X7Y1194D01*
X1889Y1194D02*
X1896Y1194D01*
X0Y1193D02*
X7Y1193D01*
X1889Y1193D02*
X1896Y1193D01*
X0Y1192D02*
X7Y1192D01*
X1889Y1192D02*
X1896Y1192D01*
X0Y1191D02*
X7Y1191D01*
X1889Y1191D02*
X1896Y1191D01*
X0Y1190D02*
X7Y1190D01*
X1889Y1190D02*
X1896Y1190D01*
X0Y1189D02*
X7Y1189D01*
X1889Y1189D02*
X1896Y1189D01*
X0Y1188D02*
X7Y1188D01*
X1889Y1188D02*
X1896Y1188D01*
X0Y1187D02*
X7Y1187D01*
X1889Y1187D02*
X1896Y1187D01*
X0Y1186D02*
X7Y1186D01*
X1889Y1186D02*
X1896Y1186D01*
X0Y1185D02*
X7Y1185D01*
X1889Y1185D02*
X1896Y1185D01*
X0Y1184D02*
X7Y1184D01*
X1889Y1184D02*
X1896Y1184D01*
X0Y1183D02*
X7Y1183D01*
X1889Y1183D02*
X1896Y1183D01*
X0Y1182D02*
X7Y1182D01*
X1889Y1182D02*
X1896Y1182D01*
X0Y1181D02*
X7Y1181D01*
X1889Y1181D02*
X1896Y1181D01*
X0Y1180D02*
X7Y1180D01*
X1889Y1180D02*
X1896Y1180D01*
X0Y1179D02*
X7Y1179D01*
X1889Y1179D02*
X1896Y1179D01*
X0Y1178D02*
X7Y1178D01*
X1889Y1178D02*
X1896Y1178D01*
X0Y1177D02*
X7Y1177D01*
X1889Y1177D02*
X1896Y1177D01*
X0Y1176D02*
X7Y1176D01*
X1889Y1176D02*
X1896Y1176D01*
X0Y1175D02*
X7Y1175D01*
X1889Y1175D02*
X1896Y1175D01*
X0Y1174D02*
X7Y1174D01*
X1889Y1174D02*
X1896Y1174D01*
X0Y1173D02*
X7Y1173D01*
X1889Y1173D02*
X1896Y1173D01*
X0Y1172D02*
X7Y1172D01*
X1889Y1172D02*
X1896Y1172D01*
X0Y1171D02*
X7Y1171D01*
X1889Y1171D02*
X1896Y1171D01*
X0Y1170D02*
X7Y1170D01*
X1889Y1170D02*
X1896Y1170D01*
X0Y1169D02*
X7Y1169D01*
X1889Y1169D02*
X1896Y1169D01*
X0Y1168D02*
X7Y1168D01*
X1889Y1168D02*
X1896Y1168D01*
X0Y1167D02*
X7Y1167D01*
X1889Y1167D02*
X1896Y1167D01*
X0Y1166D02*
X7Y1166D01*
X1889Y1166D02*
X1896Y1166D01*
X0Y1165D02*
X7Y1165D01*
X1889Y1165D02*
X1896Y1165D01*
X0Y1164D02*
X7Y1164D01*
X1889Y1164D02*
X1896Y1164D01*
X0Y1163D02*
X7Y1163D01*
X1889Y1163D02*
X1896Y1163D01*
X0Y1162D02*
X7Y1162D01*
X1889Y1162D02*
X1896Y1162D01*
X0Y1161D02*
X7Y1161D01*
X1889Y1161D02*
X1896Y1161D01*
X0Y1160D02*
X7Y1160D01*
X1889Y1160D02*
X1896Y1160D01*
X0Y1159D02*
X7Y1159D01*
X1889Y1159D02*
X1896Y1159D01*
X0Y1158D02*
X7Y1158D01*
X1889Y1158D02*
X1896Y1158D01*
X0Y1157D02*
X7Y1157D01*
X1889Y1157D02*
X1896Y1157D01*
X0Y1156D02*
X7Y1156D01*
X596Y1156D02*
X596Y1156D01*
X603Y1156D02*
X605Y1156D01*
X1196Y1156D02*
X1196Y1156D01*
X1203Y1156D02*
X1205Y1156D01*
X1889Y1156D02*
X1896Y1156D01*
X0Y1155D02*
X7Y1155D01*
X596Y1155D02*
X605Y1155D01*
X1196Y1155D02*
X1205Y1155D01*
X1889Y1155D02*
X1896Y1155D01*
X0Y1154D02*
X7Y1154D01*
X596Y1154D02*
X605Y1154D01*
X1196Y1154D02*
X1205Y1154D01*
X1889Y1154D02*
X1896Y1154D01*
X0Y1153D02*
X7Y1153D01*
X596Y1153D02*
X605Y1153D01*
X1196Y1153D02*
X1205Y1153D01*
X1889Y1153D02*
X1896Y1153D01*
X0Y1152D02*
X7Y1152D01*
X596Y1152D02*
X605Y1152D01*
X1196Y1152D02*
X1205Y1152D01*
X1889Y1152D02*
X1896Y1152D01*
X0Y1151D02*
X7Y1151D01*
X596Y1151D02*
X605Y1151D01*
X1196Y1151D02*
X1205Y1151D01*
X1889Y1151D02*
X1896Y1151D01*
X0Y1150D02*
X7Y1150D01*
X596Y1150D02*
X605Y1150D01*
X1196Y1150D02*
X1205Y1150D01*
X1889Y1150D02*
X1896Y1150D01*
X0Y1149D02*
X7Y1149D01*
X596Y1149D02*
X605Y1149D01*
X1196Y1149D02*
X1205Y1149D01*
X1889Y1149D02*
X1896Y1149D01*
X0Y1148D02*
X7Y1148D01*
X596Y1148D02*
X605Y1148D01*
X1196Y1148D02*
X1205Y1148D01*
X1889Y1148D02*
X1896Y1148D01*
X0Y1147D02*
X7Y1147D01*
X596Y1147D02*
X605Y1147D01*
X1196Y1147D02*
X1205Y1147D01*
X1889Y1147D02*
X1896Y1147D01*
X0Y1146D02*
X7Y1146D01*
X596Y1146D02*
X605Y1146D01*
X1196Y1146D02*
X1205Y1146D01*
X1889Y1146D02*
X1896Y1146D01*
X0Y1145D02*
X7Y1145D01*
X596Y1145D02*
X605Y1145D01*
X1196Y1145D02*
X1205Y1145D01*
X1889Y1145D02*
X1896Y1145D01*
X0Y1144D02*
X7Y1144D01*
X596Y1144D02*
X605Y1144D01*
X1196Y1144D02*
X1205Y1144D01*
X1889Y1144D02*
X1896Y1144D01*
X0Y1143D02*
X7Y1143D01*
X596Y1143D02*
X605Y1143D01*
X1196Y1143D02*
X1205Y1143D01*
X1889Y1143D02*
X1896Y1143D01*
X0Y1142D02*
X7Y1142D01*
X596Y1142D02*
X605Y1142D01*
X1196Y1142D02*
X1205Y1142D01*
X1889Y1142D02*
X1896Y1142D01*
X0Y1141D02*
X7Y1141D01*
X596Y1141D02*
X605Y1141D01*
X1196Y1141D02*
X1205Y1141D01*
X1889Y1141D02*
X1896Y1141D01*
X0Y1140D02*
X7Y1140D01*
X596Y1140D02*
X605Y1140D01*
X1196Y1140D02*
X1205Y1140D01*
X1889Y1140D02*
X1896Y1140D01*
X0Y1139D02*
X7Y1139D01*
X596Y1139D02*
X605Y1139D01*
X1196Y1139D02*
X1205Y1139D01*
X1889Y1139D02*
X1896Y1139D01*
X0Y1138D02*
X7Y1138D01*
X596Y1138D02*
X605Y1138D01*
X1196Y1138D02*
X1205Y1138D01*
X1889Y1138D02*
X1896Y1138D01*
X0Y1137D02*
X7Y1137D01*
X596Y1137D02*
X605Y1137D01*
X1196Y1137D02*
X1205Y1137D01*
X1889Y1137D02*
X1896Y1137D01*
X0Y1136D02*
X7Y1136D01*
X596Y1136D02*
X605Y1136D01*
X1196Y1136D02*
X1205Y1136D01*
X1889Y1136D02*
X1896Y1136D01*
X0Y1135D02*
X7Y1135D01*
X596Y1135D02*
X605Y1135D01*
X1196Y1135D02*
X1205Y1135D01*
X1889Y1135D02*
X1896Y1135D01*
X0Y1134D02*
X7Y1134D01*
X596Y1134D02*
X605Y1134D01*
X1196Y1134D02*
X1205Y1134D01*
X1889Y1134D02*
X1896Y1134D01*
X0Y1133D02*
X7Y1133D01*
X596Y1133D02*
X605Y1133D01*
X1196Y1133D02*
X1205Y1133D01*
X1889Y1133D02*
X1896Y1133D01*
X0Y1132D02*
X7Y1132D01*
X596Y1132D02*
X605Y1132D01*
X1196Y1132D02*
X1205Y1132D01*
X1889Y1132D02*
X1896Y1132D01*
X0Y1131D02*
X7Y1131D01*
X596Y1131D02*
X605Y1131D01*
X1196Y1131D02*
X1205Y1131D01*
X1889Y1131D02*
X1896Y1131D01*
X0Y1130D02*
X7Y1130D01*
X596Y1130D02*
X605Y1130D01*
X1196Y1130D02*
X1205Y1130D01*
X1889Y1130D02*
X1896Y1130D01*
X0Y1129D02*
X7Y1129D01*
X596Y1129D02*
X605Y1129D01*
X1196Y1129D02*
X1205Y1129D01*
X1889Y1129D02*
X1896Y1129D01*
X0Y1128D02*
X7Y1128D01*
X596Y1128D02*
X605Y1128D01*
X1196Y1128D02*
X1205Y1128D01*
X1889Y1128D02*
X1896Y1128D01*
X0Y1127D02*
X7Y1127D01*
X596Y1127D02*
X605Y1127D01*
X1196Y1127D02*
X1205Y1127D01*
X1889Y1127D02*
X1896Y1127D01*
X0Y1126D02*
X7Y1126D01*
X596Y1126D02*
X605Y1126D01*
X1196Y1126D02*
X1205Y1126D01*
X1889Y1126D02*
X1896Y1126D01*
X0Y1125D02*
X7Y1125D01*
X596Y1125D02*
X605Y1125D01*
X1196Y1125D02*
X1205Y1125D01*
X1889Y1125D02*
X1896Y1125D01*
X0Y1124D02*
X7Y1124D01*
X596Y1124D02*
X605Y1124D01*
X1196Y1124D02*
X1205Y1124D01*
X1889Y1124D02*
X1896Y1124D01*
X0Y1123D02*
X7Y1123D01*
X596Y1123D02*
X605Y1123D01*
X1196Y1123D02*
X1205Y1123D01*
X1889Y1123D02*
X1896Y1123D01*
X0Y1122D02*
X7Y1122D01*
X1889Y1122D02*
X1896Y1122D01*
X0Y1121D02*
X7Y1121D01*
X1889Y1121D02*
X1896Y1121D01*
X0Y1120D02*
X7Y1120D01*
X1889Y1120D02*
X1896Y1120D01*
X0Y1119D02*
X7Y1119D01*
X1889Y1119D02*
X1896Y1119D01*
X0Y1118D02*
X7Y1118D01*
X1889Y1118D02*
X1896Y1118D01*
X0Y1117D02*
X7Y1117D01*
X1889Y1117D02*
X1896Y1117D01*
X0Y1116D02*
X7Y1116D01*
X1889Y1116D02*
X1896Y1116D01*
X0Y1115D02*
X7Y1115D01*
X1889Y1115D02*
X1896Y1115D01*
X0Y1114D02*
X7Y1114D01*
X1889Y1114D02*
X1896Y1114D01*
X0Y1113D02*
X7Y1113D01*
X1889Y1113D02*
X1896Y1113D01*
X0Y1112D02*
X7Y1112D01*
X1889Y1112D02*
X1896Y1112D01*
X0Y1111D02*
X7Y1111D01*
X1889Y1111D02*
X1896Y1111D01*
X0Y1110D02*
X7Y1110D01*
X1889Y1110D02*
X1896Y1110D01*
X0Y1109D02*
X7Y1109D01*
X1889Y1109D02*
X1896Y1109D01*
X0Y1108D02*
X7Y1108D01*
X1889Y1108D02*
X1896Y1108D01*
X0Y1107D02*
X7Y1107D01*
X1889Y1107D02*
X1896Y1107D01*
X0Y1106D02*
X7Y1106D01*
X1889Y1106D02*
X1896Y1106D01*
X0Y1105D02*
X7Y1105D01*
X1889Y1105D02*
X1896Y1105D01*
X0Y1104D02*
X7Y1104D01*
X1889Y1104D02*
X1896Y1104D01*
X0Y1103D02*
X7Y1103D01*
X1889Y1103D02*
X1896Y1103D01*
X0Y1102D02*
X7Y1102D01*
X1889Y1102D02*
X1896Y1102D01*
X0Y1101D02*
X7Y1101D01*
X1889Y1101D02*
X1896Y1101D01*
X0Y1100D02*
X7Y1100D01*
X1889Y1100D02*
X1896Y1100D01*
X0Y1099D02*
X7Y1099D01*
X1244Y1099D02*
X1266Y1099D01*
X1289Y1099D02*
X1292Y1099D01*
X1889Y1099D02*
X1896Y1099D01*
X0Y1098D02*
X7Y1098D01*
X1243Y1098D02*
X1267Y1098D01*
X1288Y1098D02*
X1292Y1098D01*
X1889Y1098D02*
X1896Y1098D01*
X0Y1097D02*
X7Y1097D01*
X1242Y1097D02*
X1268Y1097D01*
X1287Y1097D02*
X1293Y1097D01*
X1889Y1097D02*
X1896Y1097D01*
X0Y1096D02*
X7Y1096D01*
X1241Y1096D02*
X1269Y1096D01*
X1287Y1096D02*
X1293Y1096D01*
X1889Y1096D02*
X1896Y1096D01*
X0Y1095D02*
X7Y1095D01*
X1241Y1095D02*
X1269Y1095D01*
X1287Y1095D02*
X1293Y1095D01*
X1889Y1095D02*
X1896Y1095D01*
X0Y1094D02*
X7Y1094D01*
X918Y1094D02*
X940Y1094D01*
X964Y1094D02*
X982Y1094D01*
X1241Y1094D02*
X1270Y1094D01*
X1287Y1094D02*
X1293Y1094D01*
X1889Y1094D02*
X1896Y1094D01*
X0Y1093D02*
X7Y1093D01*
X916Y1093D02*
X942Y1093D01*
X963Y1093D02*
X982Y1093D01*
X1240Y1093D02*
X1270Y1093D01*
X1287Y1093D02*
X1293Y1093D01*
X1889Y1093D02*
X1896Y1093D01*
X0Y1092D02*
X7Y1092D01*
X915Y1092D02*
X943Y1092D01*
X963Y1092D02*
X982Y1092D01*
X1240Y1092D02*
X1246Y1092D01*
X1264Y1092D02*
X1270Y1092D01*
X1287Y1092D02*
X1293Y1092D01*
X1889Y1092D02*
X1896Y1092D01*
X0Y1091D02*
X7Y1091D01*
X649Y1091D02*
X665Y1091D01*
X675Y1091D02*
X692Y1091D01*
X914Y1091D02*
X944Y1091D01*
X963Y1091D02*
X982Y1091D01*
X1240Y1091D02*
X1246Y1091D01*
X1264Y1091D02*
X1270Y1091D01*
X1287Y1091D02*
X1293Y1091D01*
X1889Y1091D02*
X1896Y1091D01*
X0Y1090D02*
X7Y1090D01*
X312Y1090D02*
X336Y1090D01*
X359Y1090D02*
X387Y1090D01*
X647Y1090D02*
X668Y1090D01*
X673Y1090D02*
X694Y1090D01*
X914Y1090D02*
X945Y1090D01*
X963Y1090D02*
X982Y1090D01*
X1240Y1090D02*
X1246Y1090D01*
X1264Y1090D02*
X1270Y1090D01*
X1287Y1090D02*
X1293Y1090D01*
X1889Y1090D02*
X1896Y1090D01*
X0Y1089D02*
X7Y1089D01*
X310Y1089D02*
X337Y1089D01*
X358Y1089D02*
X388Y1089D01*
X646Y1089D02*
X669Y1089D01*
X671Y1089D02*
X695Y1089D01*
X913Y1089D02*
X946Y1089D01*
X964Y1089D02*
X982Y1089D01*
X1240Y1089D02*
X1246Y1089D01*
X1264Y1089D02*
X1270Y1089D01*
X1287Y1089D02*
X1293Y1089D01*
X1889Y1089D02*
X1896Y1089D01*
X0Y1088D02*
X7Y1088D01*
X309Y1088D02*
X338Y1088D01*
X358Y1088D02*
X389Y1088D01*
X645Y1088D02*
X695Y1088D01*
X913Y1088D02*
X946Y1088D01*
X965Y1088D02*
X982Y1088D01*
X1240Y1088D02*
X1246Y1088D01*
X1264Y1088D02*
X1270Y1088D01*
X1287Y1088D02*
X1293Y1088D01*
X1889Y1088D02*
X1896Y1088D01*
X0Y1087D02*
X7Y1087D01*
X309Y1087D02*
X339Y1087D01*
X358Y1087D02*
X390Y1087D01*
X645Y1087D02*
X696Y1087D01*
X913Y1087D02*
X919Y1087D01*
X940Y1087D02*
X946Y1087D01*
X976Y1087D02*
X982Y1087D01*
X1240Y1087D02*
X1246Y1087D01*
X1264Y1087D02*
X1270Y1087D01*
X1287Y1087D02*
X1293Y1087D01*
X1889Y1087D02*
X1896Y1087D01*
X0Y1086D02*
X7Y1086D01*
X308Y1086D02*
X340Y1086D01*
X358Y1086D02*
X390Y1086D01*
X644Y1086D02*
X696Y1086D01*
X913Y1086D02*
X920Y1086D01*
X940Y1086D02*
X946Y1086D01*
X976Y1086D02*
X982Y1086D01*
X1240Y1086D02*
X1246Y1086D01*
X1264Y1086D02*
X1270Y1086D01*
X1287Y1086D02*
X1293Y1086D01*
X1889Y1086D02*
X1896Y1086D01*
X0Y1085D02*
X7Y1085D01*
X308Y1085D02*
X340Y1085D01*
X359Y1085D02*
X391Y1085D01*
X644Y1085D02*
X697Y1085D01*
X913Y1085D02*
X920Y1085D01*
X940Y1085D02*
X946Y1085D01*
X976Y1085D02*
X982Y1085D01*
X1240Y1085D02*
X1246Y1085D01*
X1264Y1085D02*
X1270Y1085D01*
X1287Y1085D02*
X1293Y1085D01*
X1889Y1085D02*
X1896Y1085D01*
X0Y1084D02*
X7Y1084D01*
X308Y1084D02*
X315Y1084D01*
X333Y1084D02*
X341Y1084D01*
X384Y1084D02*
X391Y1084D01*
X644Y1084D02*
X650Y1084D01*
X665Y1084D02*
X675Y1084D01*
X691Y1084D02*
X697Y1084D01*
X914Y1084D02*
X921Y1084D01*
X941Y1084D02*
X946Y1084D01*
X976Y1084D02*
X982Y1084D01*
X1240Y1084D02*
X1246Y1084D01*
X1264Y1084D02*
X1270Y1084D01*
X1287Y1084D02*
X1293Y1084D01*
X1525Y1084D02*
X1548Y1084D01*
X1577Y1084D02*
X1602Y1084D01*
X1889Y1084D02*
X1896Y1084D01*
X0Y1083D02*
X7Y1083D01*
X308Y1083D02*
X314Y1083D01*
X335Y1083D02*
X341Y1083D01*
X385Y1083D02*
X391Y1083D01*
X644Y1083D02*
X650Y1083D01*
X666Y1083D02*
X674Y1083D01*
X691Y1083D02*
X697Y1083D01*
X914Y1083D02*
X922Y1083D01*
X941Y1083D02*
X945Y1083D01*
X976Y1083D02*
X982Y1083D01*
X1240Y1083D02*
X1246Y1083D01*
X1264Y1083D02*
X1270Y1083D01*
X1287Y1083D02*
X1293Y1083D01*
X1524Y1083D02*
X1550Y1083D01*
X1577Y1083D02*
X1603Y1083D01*
X1889Y1083D02*
X1896Y1083D01*
X0Y1082D02*
X7Y1082D01*
X308Y1082D02*
X314Y1082D01*
X335Y1082D02*
X341Y1082D01*
X385Y1082D02*
X391Y1082D01*
X644Y1082D02*
X650Y1082D01*
X667Y1082D02*
X674Y1082D01*
X691Y1082D02*
X697Y1082D01*
X915Y1082D02*
X923Y1082D01*
X943Y1082D02*
X943Y1082D01*
X976Y1082D02*
X982Y1082D01*
X1240Y1082D02*
X1246Y1082D01*
X1264Y1082D02*
X1270Y1082D01*
X1287Y1082D02*
X1293Y1082D01*
X1523Y1082D02*
X1551Y1082D01*
X1577Y1082D02*
X1604Y1082D01*
X1889Y1082D02*
X1896Y1082D01*
X0Y1081D02*
X7Y1081D01*
X308Y1081D02*
X315Y1081D01*
X335Y1081D02*
X341Y1081D01*
X385Y1081D02*
X391Y1081D01*
X644Y1081D02*
X650Y1081D01*
X667Y1081D02*
X673Y1081D01*
X691Y1081D02*
X697Y1081D01*
X916Y1081D02*
X923Y1081D01*
X976Y1081D02*
X982Y1081D01*
X1240Y1081D02*
X1246Y1081D01*
X1264Y1081D02*
X1270Y1081D01*
X1287Y1081D02*
X1293Y1081D01*
X1522Y1081D02*
X1552Y1081D01*
X1577Y1081D02*
X1604Y1081D01*
X1889Y1081D02*
X1896Y1081D01*
X0Y1080D02*
X7Y1080D01*
X309Y1080D02*
X316Y1080D01*
X336Y1080D02*
X341Y1080D01*
X385Y1080D02*
X391Y1080D01*
X644Y1080D02*
X650Y1080D01*
X667Y1080D02*
X673Y1080D01*
X691Y1080D02*
X697Y1080D01*
X916Y1080D02*
X924Y1080D01*
X976Y1080D02*
X982Y1080D01*
X1240Y1080D02*
X1246Y1080D01*
X1264Y1080D02*
X1270Y1080D01*
X1287Y1080D02*
X1293Y1080D01*
X1521Y1080D02*
X1553Y1080D01*
X1577Y1080D02*
X1603Y1080D01*
X1889Y1080D02*
X1896Y1080D01*
X0Y1079D02*
X7Y1079D01*
X309Y1079D02*
X317Y1079D01*
X336Y1079D02*
X340Y1079D01*
X385Y1079D02*
X391Y1079D01*
X644Y1079D02*
X650Y1079D01*
X667Y1079D02*
X673Y1079D01*
X691Y1079D02*
X697Y1079D01*
X917Y1079D02*
X925Y1079D01*
X976Y1079D02*
X982Y1079D01*
X1240Y1079D02*
X1246Y1079D01*
X1264Y1079D02*
X1270Y1079D01*
X1287Y1079D02*
X1293Y1079D01*
X1521Y1079D02*
X1553Y1079D01*
X1577Y1079D02*
X1603Y1079D01*
X1889Y1079D02*
X1896Y1079D01*
X0Y1078D02*
X7Y1078D01*
X310Y1078D02*
X318Y1078D01*
X385Y1078D02*
X391Y1078D01*
X644Y1078D02*
X650Y1078D01*
X667Y1078D02*
X673Y1078D01*
X691Y1078D02*
X697Y1078D01*
X918Y1078D02*
X926Y1078D01*
X976Y1078D02*
X982Y1078D01*
X1240Y1078D02*
X1246Y1078D01*
X1264Y1078D02*
X1270Y1078D01*
X1287Y1078D02*
X1293Y1078D01*
X1521Y1078D02*
X1554Y1078D01*
X1577Y1078D02*
X1601Y1078D01*
X1889Y1078D02*
X1896Y1078D01*
X0Y1077D02*
X7Y1077D01*
X310Y1077D02*
X318Y1077D01*
X385Y1077D02*
X391Y1077D01*
X644Y1077D02*
X650Y1077D01*
X667Y1077D02*
X673Y1077D01*
X691Y1077D02*
X697Y1077D01*
X919Y1077D02*
X927Y1077D01*
X976Y1077D02*
X982Y1077D01*
X1240Y1077D02*
X1246Y1077D01*
X1264Y1077D02*
X1270Y1077D01*
X1287Y1077D02*
X1293Y1077D01*
X1521Y1077D02*
X1527Y1077D01*
X1547Y1077D02*
X1554Y1077D01*
X1577Y1077D02*
X1583Y1077D01*
X1889Y1077D02*
X1896Y1077D01*
X0Y1076D02*
X7Y1076D01*
X311Y1076D02*
X319Y1076D01*
X385Y1076D02*
X391Y1076D01*
X644Y1076D02*
X650Y1076D01*
X667Y1076D02*
X673Y1076D01*
X691Y1076D02*
X697Y1076D01*
X919Y1076D02*
X927Y1076D01*
X976Y1076D02*
X982Y1076D01*
X1240Y1076D02*
X1246Y1076D01*
X1264Y1076D02*
X1270Y1076D01*
X1287Y1076D02*
X1293Y1076D01*
X1521Y1076D02*
X1527Y1076D01*
X1548Y1076D02*
X1554Y1076D01*
X1577Y1076D02*
X1583Y1076D01*
X1889Y1076D02*
X1896Y1076D01*
X0Y1075D02*
X7Y1075D01*
X312Y1075D02*
X320Y1075D01*
X385Y1075D02*
X391Y1075D01*
X644Y1075D02*
X650Y1075D01*
X667Y1075D02*
X673Y1075D01*
X691Y1075D02*
X697Y1075D01*
X920Y1075D02*
X928Y1075D01*
X976Y1075D02*
X982Y1075D01*
X1240Y1075D02*
X1246Y1075D01*
X1264Y1075D02*
X1270Y1075D01*
X1287Y1075D02*
X1293Y1075D01*
X1521Y1075D02*
X1528Y1075D01*
X1548Y1075D02*
X1554Y1075D01*
X1577Y1075D02*
X1583Y1075D01*
X1889Y1075D02*
X1896Y1075D01*
X0Y1074D02*
X7Y1074D01*
X313Y1074D02*
X321Y1074D01*
X385Y1074D02*
X391Y1074D01*
X644Y1074D02*
X650Y1074D01*
X667Y1074D02*
X673Y1074D01*
X691Y1074D02*
X697Y1074D01*
X921Y1074D02*
X929Y1074D01*
X976Y1074D02*
X982Y1074D01*
X1240Y1074D02*
X1246Y1074D01*
X1264Y1074D02*
X1270Y1074D01*
X1287Y1074D02*
X1293Y1074D01*
X1521Y1074D02*
X1529Y1074D01*
X1549Y1074D02*
X1554Y1074D01*
X1577Y1074D02*
X1583Y1074D01*
X1889Y1074D02*
X1896Y1074D01*
X0Y1073D02*
X7Y1073D01*
X314Y1073D02*
X321Y1073D01*
X385Y1073D02*
X391Y1073D01*
X644Y1073D02*
X650Y1073D01*
X667Y1073D02*
X673Y1073D01*
X691Y1073D02*
X697Y1073D01*
X922Y1073D02*
X930Y1073D01*
X976Y1073D02*
X982Y1073D01*
X1240Y1073D02*
X1246Y1073D01*
X1264Y1073D02*
X1270Y1073D01*
X1287Y1073D02*
X1293Y1073D01*
X1522Y1073D02*
X1530Y1073D01*
X1549Y1073D02*
X1553Y1073D01*
X1577Y1073D02*
X1583Y1073D01*
X1889Y1073D02*
X1896Y1073D01*
X0Y1072D02*
X7Y1072D01*
X314Y1072D02*
X322Y1072D01*
X385Y1072D02*
X391Y1072D01*
X644Y1072D02*
X650Y1072D01*
X667Y1072D02*
X673Y1072D01*
X691Y1072D02*
X697Y1072D01*
X923Y1072D02*
X930Y1072D01*
X976Y1072D02*
X982Y1072D01*
X1240Y1072D02*
X1246Y1072D01*
X1264Y1072D02*
X1293Y1072D01*
X1523Y1072D02*
X1530Y1072D01*
X1577Y1072D02*
X1583Y1072D01*
X1889Y1072D02*
X1896Y1072D01*
X0Y1071D02*
X7Y1071D01*
X315Y1071D02*
X323Y1071D01*
X385Y1071D02*
X391Y1071D01*
X644Y1071D02*
X650Y1071D01*
X667Y1071D02*
X673Y1071D01*
X691Y1071D02*
X697Y1071D01*
X923Y1071D02*
X931Y1071D01*
X976Y1071D02*
X982Y1071D01*
X1240Y1071D02*
X1246Y1071D01*
X1264Y1071D02*
X1293Y1071D01*
X1523Y1071D02*
X1531Y1071D01*
X1577Y1071D02*
X1583Y1071D01*
X1889Y1071D02*
X1896Y1071D01*
X0Y1070D02*
X7Y1070D01*
X316Y1070D02*
X324Y1070D01*
X385Y1070D02*
X391Y1070D01*
X644Y1070D02*
X650Y1070D01*
X667Y1070D02*
X673Y1070D01*
X691Y1070D02*
X697Y1070D01*
X924Y1070D02*
X932Y1070D01*
X976Y1070D02*
X982Y1070D01*
X1240Y1070D02*
X1246Y1070D01*
X1264Y1070D02*
X1293Y1070D01*
X1524Y1070D02*
X1532Y1070D01*
X1577Y1070D02*
X1583Y1070D01*
X1889Y1070D02*
X1896Y1070D01*
X0Y1069D02*
X7Y1069D01*
X317Y1069D02*
X324Y1069D01*
X384Y1069D02*
X390Y1069D01*
X644Y1069D02*
X650Y1069D01*
X667Y1069D02*
X673Y1069D01*
X691Y1069D02*
X697Y1069D01*
X925Y1069D02*
X933Y1069D01*
X976Y1069D02*
X982Y1069D01*
X1240Y1069D02*
X1246Y1069D01*
X1265Y1069D02*
X1293Y1069D01*
X1525Y1069D02*
X1533Y1069D01*
X1577Y1069D02*
X1583Y1069D01*
X1889Y1069D02*
X1896Y1069D01*
X0Y1068D02*
X7Y1068D01*
X317Y1068D02*
X325Y1068D01*
X383Y1068D02*
X390Y1068D01*
X644Y1068D02*
X650Y1068D01*
X667Y1068D02*
X673Y1068D01*
X691Y1068D02*
X697Y1068D01*
X926Y1068D02*
X934Y1068D01*
X976Y1068D02*
X982Y1068D01*
X1241Y1068D02*
X1246Y1068D01*
X1265Y1068D02*
X1293Y1068D01*
X1526Y1068D02*
X1534Y1068D01*
X1577Y1068D02*
X1583Y1068D01*
X1889Y1068D02*
X1896Y1068D01*
X0Y1067D02*
X7Y1067D01*
X318Y1067D02*
X326Y1067D01*
X366Y1067D02*
X390Y1067D01*
X644Y1067D02*
X650Y1067D01*
X667Y1067D02*
X673Y1067D01*
X691Y1067D02*
X697Y1067D01*
X926Y1067D02*
X934Y1067D01*
X976Y1067D02*
X982Y1067D01*
X1241Y1067D02*
X1246Y1067D01*
X1266Y1067D02*
X1293Y1067D01*
X1526Y1067D02*
X1534Y1067D01*
X1577Y1067D02*
X1583Y1067D01*
X1889Y1067D02*
X1896Y1067D01*
X0Y1066D02*
X7Y1066D01*
X319Y1066D02*
X327Y1066D01*
X365Y1066D02*
X389Y1066D01*
X644Y1066D02*
X650Y1066D01*
X668Y1066D02*
X673Y1066D01*
X691Y1066D02*
X697Y1066D01*
X927Y1066D02*
X935Y1066D01*
X976Y1066D02*
X982Y1066D01*
X1242Y1066D02*
X1245Y1066D01*
X1268Y1066D02*
X1293Y1066D01*
X1527Y1066D02*
X1535Y1066D01*
X1577Y1066D02*
X1583Y1066D01*
X1889Y1066D02*
X1896Y1066D01*
X0Y1065D02*
X7Y1065D01*
X320Y1065D02*
X328Y1065D01*
X364Y1065D02*
X389Y1065D01*
X644Y1065D02*
X650Y1065D01*
X668Y1065D02*
X672Y1065D01*
X691Y1065D02*
X697Y1065D01*
X928Y1065D02*
X936Y1065D01*
X976Y1065D02*
X982Y1065D01*
X992Y1065D02*
X994Y1065D01*
X1528Y1065D02*
X1536Y1065D01*
X1577Y1065D02*
X1583Y1065D01*
X1889Y1065D02*
X1896Y1065D01*
X0Y1064D02*
X7Y1064D01*
X320Y1064D02*
X328Y1064D01*
X364Y1064D02*
X388Y1064D01*
X644Y1064D02*
X650Y1064D01*
X670Y1064D02*
X671Y1064D01*
X691Y1064D02*
X697Y1064D01*
X929Y1064D02*
X937Y1064D01*
X976Y1064D02*
X982Y1064D01*
X991Y1064D02*
X995Y1064D01*
X1529Y1064D02*
X1537Y1064D01*
X1577Y1064D02*
X1583Y1064D01*
X1889Y1064D02*
X1896Y1064D01*
X0Y1063D02*
X7Y1063D01*
X321Y1063D02*
X329Y1063D01*
X365Y1063D02*
X389Y1063D01*
X644Y1063D02*
X650Y1063D01*
X691Y1063D02*
X697Y1063D01*
X929Y1063D02*
X937Y1063D01*
X976Y1063D02*
X982Y1063D01*
X990Y1063D02*
X996Y1063D01*
X1530Y1063D02*
X1537Y1063D01*
X1577Y1063D02*
X1583Y1063D01*
X1889Y1063D02*
X1896Y1063D01*
X0Y1062D02*
X7Y1062D01*
X322Y1062D02*
X330Y1062D01*
X365Y1062D02*
X389Y1062D01*
X644Y1062D02*
X650Y1062D01*
X691Y1062D02*
X697Y1062D01*
X930Y1062D02*
X938Y1062D01*
X976Y1062D02*
X982Y1062D01*
X990Y1062D02*
X996Y1062D01*
X1530Y1062D02*
X1538Y1062D01*
X1577Y1062D02*
X1583Y1062D01*
X1889Y1062D02*
X1896Y1062D01*
X0Y1061D02*
X7Y1061D01*
X323Y1061D02*
X331Y1061D01*
X366Y1061D02*
X390Y1061D01*
X644Y1061D02*
X650Y1061D01*
X691Y1061D02*
X697Y1061D01*
X931Y1061D02*
X939Y1061D01*
X976Y1061D02*
X982Y1061D01*
X990Y1061D02*
X996Y1061D01*
X1531Y1061D02*
X1539Y1061D01*
X1577Y1061D02*
X1599Y1061D01*
X1889Y1061D02*
X1896Y1061D01*
X0Y1060D02*
X7Y1060D01*
X324Y1060D02*
X331Y1060D01*
X383Y1060D02*
X390Y1060D01*
X644Y1060D02*
X650Y1060D01*
X691Y1060D02*
X697Y1060D01*
X932Y1060D02*
X940Y1060D01*
X976Y1060D02*
X982Y1060D01*
X990Y1060D02*
X996Y1060D01*
X1532Y1060D02*
X1540Y1060D01*
X1577Y1060D02*
X1601Y1060D01*
X1889Y1060D02*
X1896Y1060D01*
X0Y1059D02*
X7Y1059D01*
X324Y1059D02*
X332Y1059D01*
X384Y1059D02*
X391Y1059D01*
X644Y1059D02*
X650Y1059D01*
X691Y1059D02*
X696Y1059D01*
X933Y1059D02*
X940Y1059D01*
X976Y1059D02*
X982Y1059D01*
X990Y1059D02*
X996Y1059D01*
X1533Y1059D02*
X1541Y1059D01*
X1577Y1059D02*
X1602Y1059D01*
X1889Y1059D02*
X1896Y1059D01*
X0Y1058D02*
X7Y1058D01*
X325Y1058D02*
X333Y1058D01*
X385Y1058D02*
X391Y1058D01*
X645Y1058D02*
X649Y1058D01*
X692Y1058D02*
X695Y1058D01*
X933Y1058D02*
X941Y1058D01*
X976Y1058D02*
X982Y1058D01*
X990Y1058D02*
X996Y1058D01*
X1533Y1058D02*
X1541Y1058D01*
X1577Y1058D02*
X1603Y1058D01*
X1889Y1058D02*
X1896Y1058D01*
X0Y1057D02*
X7Y1057D01*
X326Y1057D02*
X334Y1057D01*
X385Y1057D02*
X391Y1057D01*
X934Y1057D02*
X942Y1057D01*
X976Y1057D02*
X982Y1057D01*
X990Y1057D02*
X996Y1057D01*
X1534Y1057D02*
X1542Y1057D01*
X1577Y1057D02*
X1603Y1057D01*
X1889Y1057D02*
X1896Y1057D01*
X0Y1056D02*
X7Y1056D01*
X327Y1056D02*
X335Y1056D01*
X385Y1056D02*
X391Y1056D01*
X935Y1056D02*
X943Y1056D01*
X976Y1056D02*
X982Y1056D01*
X990Y1056D02*
X996Y1056D01*
X1535Y1056D02*
X1543Y1056D01*
X1577Y1056D02*
X1604Y1056D01*
X1889Y1056D02*
X1896Y1056D01*
X0Y1055D02*
X7Y1055D01*
X327Y1055D02*
X335Y1055D01*
X385Y1055D02*
X391Y1055D01*
X936Y1055D02*
X944Y1055D01*
X976Y1055D02*
X982Y1055D01*
X990Y1055D02*
X996Y1055D01*
X1536Y1055D02*
X1544Y1055D01*
X1577Y1055D02*
X1604Y1055D01*
X1889Y1055D02*
X1896Y1055D01*
X0Y1054D02*
X7Y1054D01*
X328Y1054D02*
X336Y1054D01*
X385Y1054D02*
X391Y1054D01*
X936Y1054D02*
X944Y1054D01*
X976Y1054D02*
X982Y1054D01*
X990Y1054D02*
X996Y1054D01*
X1537Y1054D02*
X1544Y1054D01*
X1598Y1054D02*
X1604Y1054D01*
X1889Y1054D02*
X1896Y1054D01*
X0Y1053D02*
X7Y1053D01*
X329Y1053D02*
X337Y1053D01*
X385Y1053D02*
X391Y1053D01*
X914Y1053D02*
X918Y1053D01*
X937Y1053D02*
X945Y1053D01*
X976Y1053D02*
X982Y1053D01*
X990Y1053D02*
X996Y1053D01*
X1537Y1053D02*
X1545Y1053D01*
X1598Y1053D02*
X1604Y1053D01*
X1889Y1053D02*
X1896Y1053D01*
X0Y1052D02*
X7Y1052D01*
X330Y1052D02*
X338Y1052D01*
X385Y1052D02*
X391Y1052D01*
X914Y1052D02*
X919Y1052D01*
X938Y1052D02*
X946Y1052D01*
X976Y1052D02*
X982Y1052D01*
X990Y1052D02*
X996Y1052D01*
X1538Y1052D02*
X1546Y1052D01*
X1598Y1052D02*
X1604Y1052D01*
X1889Y1052D02*
X1896Y1052D01*
X0Y1051D02*
X7Y1051D01*
X331Y1051D02*
X338Y1051D01*
X385Y1051D02*
X391Y1051D01*
X913Y1051D02*
X919Y1051D01*
X939Y1051D02*
X946Y1051D01*
X976Y1051D02*
X982Y1051D01*
X990Y1051D02*
X996Y1051D01*
X1539Y1051D02*
X1547Y1051D01*
X1598Y1051D02*
X1604Y1051D01*
X1889Y1051D02*
X1896Y1051D01*
X0Y1050D02*
X7Y1050D01*
X311Y1050D02*
X311Y1050D01*
X331Y1050D02*
X339Y1050D01*
X385Y1050D02*
X391Y1050D01*
X913Y1050D02*
X919Y1050D01*
X940Y1050D02*
X946Y1050D01*
X976Y1050D02*
X982Y1050D01*
X990Y1050D02*
X996Y1050D01*
X1250Y1050D02*
X1254Y1050D01*
X1540Y1050D02*
X1548Y1050D01*
X1598Y1050D02*
X1604Y1050D01*
X1889Y1050D02*
X1896Y1050D01*
X0Y1049D02*
X7Y1049D01*
X309Y1049D02*
X313Y1049D01*
X332Y1049D02*
X340Y1049D01*
X385Y1049D02*
X391Y1049D01*
X913Y1049D02*
X920Y1049D01*
X940Y1049D02*
X946Y1049D01*
X976Y1049D02*
X982Y1049D01*
X990Y1049D02*
X996Y1049D01*
X1246Y1049D02*
X1258Y1049D01*
X1288Y1049D02*
X1292Y1049D01*
X1540Y1049D02*
X1548Y1049D01*
X1598Y1049D02*
X1604Y1049D01*
X1889Y1049D02*
X1896Y1049D01*
X0Y1048D02*
X7Y1048D01*
X308Y1048D02*
X313Y1048D01*
X333Y1048D02*
X340Y1048D01*
X385Y1048D02*
X391Y1048D01*
X913Y1048D02*
X946Y1048D01*
X967Y1048D02*
X996Y1048D01*
X1245Y1048D02*
X1260Y1048D01*
X1286Y1048D02*
X1293Y1048D01*
X1541Y1048D02*
X1549Y1048D01*
X1598Y1048D02*
X1604Y1048D01*
X1889Y1048D02*
X1896Y1048D01*
X0Y1047D02*
X7Y1047D01*
X308Y1047D02*
X314Y1047D01*
X334Y1047D02*
X341Y1047D01*
X385Y1047D02*
X391Y1047D01*
X914Y1047D02*
X946Y1047D01*
X964Y1047D02*
X996Y1047D01*
X1244Y1047D02*
X1261Y1047D01*
X1284Y1047D02*
X1293Y1047D01*
X1542Y1047D02*
X1550Y1047D01*
X1598Y1047D02*
X1604Y1047D01*
X1889Y1047D02*
X1896Y1047D01*
X0Y1046D02*
X7Y1046D01*
X308Y1046D02*
X314Y1046D01*
X334Y1046D02*
X341Y1046D01*
X385Y1046D02*
X391Y1046D01*
X914Y1046D02*
X946Y1046D01*
X963Y1046D02*
X996Y1046D01*
X1243Y1046D02*
X1262Y1046D01*
X1283Y1046D02*
X1293Y1046D01*
X1543Y1046D02*
X1551Y1046D01*
X1598Y1046D02*
X1604Y1046D01*
X1889Y1046D02*
X1896Y1046D01*
X0Y1045D02*
X7Y1045D01*
X308Y1045D02*
X315Y1045D01*
X335Y1045D02*
X341Y1045D01*
X385Y1045D02*
X391Y1045D01*
X915Y1045D02*
X945Y1045D01*
X963Y1045D02*
X996Y1045D01*
X1242Y1045D02*
X1262Y1045D01*
X1281Y1045D02*
X1293Y1045D01*
X1544Y1045D02*
X1551Y1045D01*
X1598Y1045D02*
X1604Y1045D01*
X1889Y1045D02*
X1896Y1045D01*
X0Y1044D02*
X7Y1044D01*
X308Y1044D02*
X341Y1044D01*
X360Y1044D02*
X391Y1044D01*
X916Y1044D02*
X945Y1044D01*
X963Y1044D02*
X996Y1044D01*
X1241Y1044D02*
X1263Y1044D01*
X1279Y1044D02*
X1292Y1044D01*
X1544Y1044D02*
X1552Y1044D01*
X1598Y1044D02*
X1604Y1044D01*
X1889Y1044D02*
X1896Y1044D01*
X0Y1043D02*
X7Y1043D01*
X309Y1043D02*
X341Y1043D01*
X358Y1043D02*
X391Y1043D01*
X917Y1043D02*
X944Y1043D01*
X963Y1043D02*
X996Y1043D01*
X1241Y1043D02*
X1249Y1043D01*
X1255Y1043D02*
X1263Y1043D01*
X1278Y1043D02*
X1290Y1043D01*
X1522Y1043D02*
X1526Y1043D01*
X1545Y1043D02*
X1553Y1043D01*
X1598Y1043D02*
X1604Y1043D01*
X1889Y1043D02*
X1896Y1043D01*
X0Y1042D02*
X7Y1042D01*
X309Y1042D02*
X340Y1042D01*
X358Y1042D02*
X390Y1042D01*
X918Y1042D02*
X942Y1042D01*
X964Y1042D02*
X995Y1042D01*
X1241Y1042D02*
X1247Y1042D01*
X1257Y1042D02*
X1264Y1042D01*
X1276Y1042D02*
X1289Y1042D01*
X1521Y1042D02*
X1526Y1042D01*
X1546Y1042D02*
X1553Y1042D01*
X1598Y1042D02*
X1604Y1042D01*
X1889Y1042D02*
X1896Y1042D01*
X0Y1041D02*
X7Y1041D01*
X310Y1041D02*
X340Y1041D01*
X358Y1041D02*
X390Y1041D01*
X651Y1041D02*
X660Y1041D01*
X692Y1041D02*
X695Y1041D01*
X1241Y1041D02*
X1247Y1041D01*
X1258Y1041D02*
X1264Y1041D01*
X1274Y1041D02*
X1287Y1041D01*
X1521Y1041D02*
X1527Y1041D01*
X1547Y1041D02*
X1554Y1041D01*
X1598Y1041D02*
X1604Y1041D01*
X1889Y1041D02*
X1896Y1041D01*
X0Y1040D02*
X7Y1040D01*
X311Y1040D02*
X339Y1040D01*
X358Y1040D02*
X389Y1040D01*
X649Y1040D02*
X662Y1040D01*
X690Y1040D02*
X696Y1040D01*
X1240Y1040D02*
X1246Y1040D01*
X1258Y1040D02*
X1264Y1040D01*
X1272Y1040D02*
X1285Y1040D01*
X1521Y1040D02*
X1527Y1040D01*
X1547Y1040D02*
X1554Y1040D01*
X1572Y1040D02*
X1576Y1040D01*
X1598Y1040D02*
X1604Y1040D01*
X1889Y1040D02*
X1896Y1040D01*
X0Y1039D02*
X7Y1039D01*
X312Y1039D02*
X338Y1039D01*
X358Y1039D02*
X388Y1039D01*
X648Y1039D02*
X664Y1039D01*
X689Y1039D02*
X696Y1039D01*
X1240Y1039D02*
X1246Y1039D01*
X1258Y1039D02*
X1264Y1039D01*
X1271Y1039D02*
X1284Y1039D01*
X1521Y1039D02*
X1527Y1039D01*
X1548Y1039D02*
X1554Y1039D01*
X1571Y1039D02*
X1578Y1039D01*
X1598Y1039D02*
X1604Y1039D01*
X1889Y1039D02*
X1896Y1039D01*
X0Y1038D02*
X7Y1038D01*
X314Y1038D02*
X336Y1038D01*
X359Y1038D02*
X386Y1038D01*
X647Y1038D02*
X665Y1038D01*
X687Y1038D02*
X697Y1038D01*
X1240Y1038D02*
X1246Y1038D01*
X1258Y1038D02*
X1264Y1038D01*
X1269Y1038D02*
X1282Y1038D01*
X1521Y1038D02*
X1554Y1038D01*
X1571Y1038D02*
X1604Y1038D01*
X1889Y1038D02*
X1896Y1038D01*
X0Y1037D02*
X7Y1037D01*
X646Y1037D02*
X666Y1037D01*
X685Y1037D02*
X696Y1037D01*
X1240Y1037D02*
X1246Y1037D01*
X1258Y1037D02*
X1264Y1037D01*
X1267Y1037D02*
X1280Y1037D01*
X1522Y1037D02*
X1554Y1037D01*
X1571Y1037D02*
X1604Y1037D01*
X1889Y1037D02*
X1896Y1037D01*
X0Y1036D02*
X7Y1036D01*
X645Y1036D02*
X666Y1036D01*
X684Y1036D02*
X696Y1036D01*
X1240Y1036D02*
X1246Y1036D01*
X1258Y1036D02*
X1264Y1036D01*
X1266Y1036D02*
X1278Y1036D01*
X1522Y1036D02*
X1553Y1036D01*
X1571Y1036D02*
X1603Y1036D01*
X1889Y1036D02*
X1896Y1036D01*
X0Y1035D02*
X7Y1035D01*
X645Y1035D02*
X667Y1035D01*
X682Y1035D02*
X695Y1035D01*
X1240Y1035D02*
X1246Y1035D01*
X1258Y1035D02*
X1277Y1035D01*
X1523Y1035D02*
X1553Y1035D01*
X1572Y1035D02*
X1603Y1035D01*
X1889Y1035D02*
X1896Y1035D01*
X0Y1034D02*
X7Y1034D01*
X644Y1034D02*
X652Y1034D01*
X660Y1034D02*
X667Y1034D01*
X680Y1034D02*
X693Y1034D01*
X1240Y1034D02*
X1246Y1034D01*
X1258Y1034D02*
X1275Y1034D01*
X1524Y1034D02*
X1552Y1034D01*
X1573Y1034D02*
X1602Y1034D01*
X1889Y1034D02*
X1896Y1034D01*
X0Y1033D02*
X7Y1033D01*
X644Y1033D02*
X651Y1033D01*
X661Y1033D02*
X667Y1033D01*
X678Y1033D02*
X691Y1033D01*
X1240Y1033D02*
X1246Y1033D01*
X1258Y1033D02*
X1273Y1033D01*
X1525Y1033D02*
X1551Y1033D01*
X1575Y1033D02*
X1601Y1033D01*
X1889Y1033D02*
X1896Y1033D01*
X0Y1032D02*
X7Y1032D01*
X644Y1032D02*
X650Y1032D01*
X661Y1032D02*
X667Y1032D01*
X677Y1032D02*
X690Y1032D01*
X1240Y1032D02*
X1246Y1032D01*
X1258Y1032D02*
X1272Y1032D01*
X1526Y1032D02*
X1550Y1032D01*
X1578Y1032D02*
X1600Y1032D01*
X1889Y1032D02*
X1896Y1032D01*
X0Y1031D02*
X7Y1031D01*
X644Y1031D02*
X650Y1031D01*
X662Y1031D02*
X667Y1031D01*
X675Y1031D02*
X688Y1031D01*
X1240Y1031D02*
X1246Y1031D01*
X1258Y1031D02*
X1270Y1031D01*
X1889Y1031D02*
X1896Y1031D01*
X0Y1030D02*
X7Y1030D01*
X644Y1030D02*
X650Y1030D01*
X662Y1030D02*
X667Y1030D01*
X673Y1030D02*
X686Y1030D01*
X1240Y1030D02*
X1246Y1030D01*
X1258Y1030D02*
X1268Y1030D01*
X1889Y1030D02*
X1896Y1030D01*
X0Y1029D02*
X7Y1029D01*
X644Y1029D02*
X650Y1029D01*
X662Y1029D02*
X667Y1029D01*
X672Y1029D02*
X684Y1029D01*
X1240Y1029D02*
X1246Y1029D01*
X1258Y1029D02*
X1266Y1029D01*
X1889Y1029D02*
X1896Y1029D01*
X0Y1028D02*
X7Y1028D01*
X644Y1028D02*
X650Y1028D01*
X662Y1028D02*
X667Y1028D01*
X670Y1028D02*
X683Y1028D01*
X1240Y1028D02*
X1246Y1028D01*
X1258Y1028D02*
X1265Y1028D01*
X1889Y1028D02*
X1896Y1028D01*
X0Y1027D02*
X7Y1027D01*
X644Y1027D02*
X650Y1027D01*
X662Y1027D02*
X681Y1027D01*
X1240Y1027D02*
X1246Y1027D01*
X1258Y1027D02*
X1264Y1027D01*
X1889Y1027D02*
X1896Y1027D01*
X0Y1026D02*
X7Y1026D01*
X644Y1026D02*
X650Y1026D01*
X662Y1026D02*
X679Y1026D01*
X1240Y1026D02*
X1246Y1026D01*
X1258Y1026D02*
X1264Y1026D01*
X1889Y1026D02*
X1896Y1026D01*
X0Y1025D02*
X7Y1025D01*
X644Y1025D02*
X650Y1025D01*
X662Y1025D02*
X678Y1025D01*
X1240Y1025D02*
X1246Y1025D01*
X1258Y1025D02*
X1264Y1025D01*
X1889Y1025D02*
X1896Y1025D01*
X0Y1024D02*
X7Y1024D01*
X644Y1024D02*
X650Y1024D01*
X662Y1024D02*
X676Y1024D01*
X1240Y1024D02*
X1246Y1024D01*
X1258Y1024D02*
X1264Y1024D01*
X1889Y1024D02*
X1896Y1024D01*
X0Y1023D02*
X7Y1023D01*
X644Y1023D02*
X650Y1023D01*
X662Y1023D02*
X674Y1023D01*
X1240Y1023D02*
X1247Y1023D01*
X1258Y1023D02*
X1264Y1023D01*
X1889Y1023D02*
X1896Y1023D01*
X0Y1022D02*
X7Y1022D01*
X644Y1022D02*
X650Y1022D01*
X662Y1022D02*
X672Y1022D01*
X1240Y1022D02*
X1292Y1022D01*
X1889Y1022D02*
X1896Y1022D01*
X0Y1021D02*
X7Y1021D01*
X644Y1021D02*
X650Y1021D01*
X662Y1021D02*
X671Y1021D01*
X1240Y1021D02*
X1293Y1021D01*
X1889Y1021D02*
X1896Y1021D01*
X0Y1020D02*
X7Y1020D01*
X644Y1020D02*
X650Y1020D01*
X662Y1020D02*
X669Y1020D01*
X1240Y1020D02*
X1293Y1020D01*
X1889Y1020D02*
X1896Y1020D01*
X0Y1019D02*
X7Y1019D01*
X644Y1019D02*
X650Y1019D01*
X662Y1019D02*
X668Y1019D01*
X1240Y1019D02*
X1293Y1019D01*
X1889Y1019D02*
X1896Y1019D01*
X0Y1018D02*
X7Y1018D01*
X644Y1018D02*
X650Y1018D01*
X662Y1018D02*
X667Y1018D01*
X1240Y1018D02*
X1293Y1018D01*
X1889Y1018D02*
X1896Y1018D01*
X0Y1017D02*
X7Y1017D01*
X644Y1017D02*
X650Y1017D01*
X662Y1017D02*
X667Y1017D01*
X1240Y1017D02*
X1292Y1017D01*
X1889Y1017D02*
X1896Y1017D01*
X0Y1016D02*
X7Y1016D01*
X644Y1016D02*
X650Y1016D01*
X662Y1016D02*
X667Y1016D01*
X1241Y1016D02*
X1291Y1016D01*
X1889Y1016D02*
X1896Y1016D01*
X0Y1015D02*
X7Y1015D01*
X644Y1015D02*
X650Y1015D01*
X662Y1015D02*
X667Y1015D01*
X1889Y1015D02*
X1896Y1015D01*
X0Y1014D02*
X7Y1014D01*
X644Y1014D02*
X694Y1014D01*
X1889Y1014D02*
X1896Y1014D01*
X0Y1013D02*
X7Y1013D01*
X644Y1013D02*
X696Y1013D01*
X1889Y1013D02*
X1896Y1013D01*
X0Y1012D02*
X7Y1012D01*
X644Y1012D02*
X696Y1012D01*
X1889Y1012D02*
X1896Y1012D01*
X0Y1011D02*
X7Y1011D01*
X644Y1011D02*
X697Y1011D01*
X1889Y1011D02*
X1896Y1011D01*
X0Y1010D02*
X7Y1010D01*
X644Y1010D02*
X696Y1010D01*
X1889Y1010D02*
X1896Y1010D01*
X0Y1009D02*
X7Y1009D01*
X644Y1009D02*
X696Y1009D01*
X1889Y1009D02*
X1896Y1009D01*
X0Y1008D02*
X7Y1008D01*
X644Y1008D02*
X695Y1008D01*
X1889Y1008D02*
X1896Y1008D01*
X0Y1007D02*
X7Y1007D01*
X1889Y1007D02*
X1896Y1007D01*
X0Y1006D02*
X7Y1006D01*
X1889Y1006D02*
X1896Y1006D01*
X0Y1005D02*
X7Y1005D01*
X1889Y1005D02*
X1896Y1005D01*
X0Y1004D02*
X7Y1004D01*
X1889Y1004D02*
X1896Y1004D01*
X0Y1003D02*
X7Y1003D01*
X1889Y1003D02*
X1896Y1003D01*
X0Y1002D02*
X7Y1002D01*
X1889Y1002D02*
X1896Y1002D01*
X0Y1001D02*
X7Y1001D01*
X1889Y1001D02*
X1896Y1001D01*
X0Y1000D02*
X7Y1000D01*
X1889Y1000D02*
X1896Y1000D01*
X0Y999D02*
X7Y999D01*
X1889Y999D02*
X1896Y999D01*
X0Y998D02*
X7Y998D01*
X1889Y998D02*
X1896Y998D01*
X0Y997D02*
X7Y997D01*
X1889Y997D02*
X1896Y997D01*
X0Y996D02*
X7Y996D01*
X1889Y996D02*
X1896Y996D01*
X0Y995D02*
X7Y995D01*
X1889Y995D02*
X1896Y995D01*
X0Y994D02*
X7Y994D01*
X1889Y994D02*
X1896Y994D01*
X0Y993D02*
X7Y993D01*
X1889Y993D02*
X1896Y993D01*
X0Y992D02*
X7Y992D01*
X1889Y992D02*
X1896Y992D01*
X0Y991D02*
X7Y991D01*
X1889Y991D02*
X1896Y991D01*
X0Y990D02*
X7Y990D01*
X1889Y990D02*
X1896Y990D01*
X0Y989D02*
X7Y989D01*
X1889Y989D02*
X1896Y989D01*
X0Y988D02*
X7Y988D01*
X1889Y988D02*
X1896Y988D01*
X0Y987D02*
X7Y987D01*
X1889Y987D02*
X1896Y987D01*
X0Y986D02*
X7Y986D01*
X1889Y986D02*
X1896Y986D01*
X0Y985D02*
X7Y985D01*
X1889Y985D02*
X1896Y985D01*
X0Y984D02*
X7Y984D01*
X1889Y984D02*
X1896Y984D01*
X0Y983D02*
X7Y983D01*
X1889Y983D02*
X1896Y983D01*
X0Y982D02*
X7Y982D01*
X1889Y982D02*
X1896Y982D01*
X0Y981D02*
X7Y981D01*
X1889Y981D02*
X1896Y981D01*
X0Y980D02*
X7Y980D01*
X1889Y980D02*
X1896Y980D01*
X0Y979D02*
X7Y979D01*
X1889Y979D02*
X1896Y979D01*
X0Y978D02*
X7Y978D01*
X1889Y978D02*
X1896Y978D01*
X0Y977D02*
X7Y977D01*
X1889Y977D02*
X1896Y977D01*
X0Y976D02*
X7Y976D01*
X1889Y976D02*
X1896Y976D01*
X0Y975D02*
X7Y975D01*
X1889Y975D02*
X1896Y975D01*
X0Y974D02*
X7Y974D01*
X1889Y974D02*
X1896Y974D01*
X0Y973D02*
X7Y973D01*
X1889Y973D02*
X1896Y973D01*
X0Y972D02*
X7Y972D01*
X596Y972D02*
X605Y972D01*
X1196Y972D02*
X1205Y972D01*
X1889Y972D02*
X1896Y972D01*
X0Y971D02*
X7Y971D01*
X596Y971D02*
X605Y971D01*
X1196Y971D02*
X1205Y971D01*
X1889Y971D02*
X1896Y971D01*
X0Y970D02*
X7Y970D01*
X596Y970D02*
X605Y970D01*
X1196Y970D02*
X1205Y970D01*
X1889Y970D02*
X1896Y970D01*
X0Y969D02*
X7Y969D01*
X596Y969D02*
X605Y969D01*
X1196Y969D02*
X1205Y969D01*
X1889Y969D02*
X1896Y969D01*
X0Y968D02*
X7Y968D01*
X596Y968D02*
X605Y968D01*
X1196Y968D02*
X1205Y968D01*
X1889Y968D02*
X1896Y968D01*
X0Y967D02*
X7Y967D01*
X596Y967D02*
X605Y967D01*
X1196Y967D02*
X1205Y967D01*
X1889Y967D02*
X1896Y967D01*
X0Y966D02*
X7Y966D01*
X596Y966D02*
X605Y966D01*
X1196Y966D02*
X1205Y966D01*
X1889Y966D02*
X1896Y966D01*
X0Y965D02*
X7Y965D01*
X596Y965D02*
X605Y965D01*
X1196Y965D02*
X1205Y965D01*
X1889Y965D02*
X1896Y965D01*
X0Y964D02*
X7Y964D01*
X596Y964D02*
X605Y964D01*
X1196Y964D02*
X1205Y964D01*
X1889Y964D02*
X1896Y964D01*
X0Y963D02*
X7Y963D01*
X596Y963D02*
X605Y963D01*
X1196Y963D02*
X1205Y963D01*
X1889Y963D02*
X1896Y963D01*
X0Y962D02*
X7Y962D01*
X596Y962D02*
X605Y962D01*
X1196Y962D02*
X1205Y962D01*
X1889Y962D02*
X1896Y962D01*
X0Y961D02*
X7Y961D01*
X596Y961D02*
X605Y961D01*
X1196Y961D02*
X1205Y961D01*
X1889Y961D02*
X1896Y961D01*
X0Y960D02*
X7Y960D01*
X596Y960D02*
X605Y960D01*
X1196Y960D02*
X1205Y960D01*
X1889Y960D02*
X1896Y960D01*
X0Y959D02*
X7Y959D01*
X596Y959D02*
X605Y959D01*
X1196Y959D02*
X1205Y959D01*
X1889Y959D02*
X1896Y959D01*
X0Y958D02*
X7Y958D01*
X596Y958D02*
X605Y958D01*
X1196Y958D02*
X1205Y958D01*
X1889Y958D02*
X1896Y958D01*
X0Y957D02*
X7Y957D01*
X596Y957D02*
X605Y957D01*
X1196Y957D02*
X1205Y957D01*
X1889Y957D02*
X1896Y957D01*
X0Y956D02*
X7Y956D01*
X596Y956D02*
X605Y956D01*
X1196Y956D02*
X1205Y956D01*
X1889Y956D02*
X1896Y956D01*
X0Y955D02*
X7Y955D01*
X596Y955D02*
X605Y955D01*
X1196Y955D02*
X1205Y955D01*
X1889Y955D02*
X1896Y955D01*
X0Y954D02*
X7Y954D01*
X596Y954D02*
X605Y954D01*
X1196Y954D02*
X1205Y954D01*
X1889Y954D02*
X1896Y954D01*
X0Y953D02*
X7Y953D01*
X596Y953D02*
X605Y953D01*
X1196Y953D02*
X1205Y953D01*
X1889Y953D02*
X1896Y953D01*
X0Y952D02*
X7Y952D01*
X596Y952D02*
X605Y952D01*
X1196Y952D02*
X1205Y952D01*
X1889Y952D02*
X1896Y952D01*
X0Y951D02*
X7Y951D01*
X596Y951D02*
X605Y951D01*
X1196Y951D02*
X1205Y951D01*
X1889Y951D02*
X1896Y951D01*
X0Y950D02*
X7Y950D01*
X596Y950D02*
X605Y950D01*
X1196Y950D02*
X1205Y950D01*
X1889Y950D02*
X1896Y950D01*
X0Y949D02*
X7Y949D01*
X596Y949D02*
X605Y949D01*
X1196Y949D02*
X1205Y949D01*
X1889Y949D02*
X1896Y949D01*
X0Y948D02*
X7Y948D01*
X596Y948D02*
X605Y948D01*
X1196Y948D02*
X1205Y948D01*
X1889Y948D02*
X1896Y948D01*
X0Y947D02*
X7Y947D01*
X596Y947D02*
X605Y947D01*
X1196Y947D02*
X1205Y947D01*
X1889Y947D02*
X1896Y947D01*
X0Y946D02*
X7Y946D01*
X596Y946D02*
X605Y946D01*
X1196Y946D02*
X1205Y946D01*
X1889Y946D02*
X1896Y946D01*
X0Y945D02*
X7Y945D01*
X596Y945D02*
X605Y945D01*
X1196Y945D02*
X1205Y945D01*
X1889Y945D02*
X1896Y945D01*
X0Y944D02*
X7Y944D01*
X596Y944D02*
X605Y944D01*
X1196Y944D02*
X1205Y944D01*
X1889Y944D02*
X1896Y944D01*
X0Y943D02*
X7Y943D01*
X596Y943D02*
X605Y943D01*
X1196Y943D02*
X1205Y943D01*
X1889Y943D02*
X1896Y943D01*
X0Y942D02*
X7Y942D01*
X596Y942D02*
X605Y942D01*
X1196Y942D02*
X1205Y942D01*
X1889Y942D02*
X1896Y942D01*
X0Y941D02*
X7Y941D01*
X596Y941D02*
X605Y941D01*
X1196Y941D02*
X1205Y941D01*
X1889Y941D02*
X1896Y941D01*
X0Y940D02*
X7Y940D01*
X1889Y940D02*
X1896Y940D01*
X0Y939D02*
X7Y939D01*
X1889Y939D02*
X1896Y939D01*
X0Y938D02*
X7Y938D01*
X1889Y938D02*
X1896Y938D01*
X0Y937D02*
X7Y937D01*
X1889Y937D02*
X1896Y937D01*
X0Y936D02*
X7Y936D01*
X1889Y936D02*
X1896Y936D01*
X0Y935D02*
X7Y935D01*
X1889Y935D02*
X1896Y935D01*
X0Y934D02*
X7Y934D01*
X1889Y934D02*
X1896Y934D01*
X0Y933D02*
X7Y933D01*
X1889Y933D02*
X1896Y933D01*
X0Y932D02*
X7Y932D01*
X1889Y932D02*
X1896Y932D01*
X0Y931D02*
X7Y931D01*
X1889Y931D02*
X1896Y931D01*
X0Y930D02*
X7Y930D01*
X1889Y930D02*
X1896Y930D01*
X0Y929D02*
X7Y929D01*
X1889Y929D02*
X1896Y929D01*
X0Y928D02*
X7Y928D01*
X1889Y928D02*
X1896Y928D01*
X0Y927D02*
X7Y927D01*
X1889Y927D02*
X1896Y927D01*
X0Y926D02*
X7Y926D01*
X1889Y926D02*
X1896Y926D01*
X0Y925D02*
X7Y925D01*
X1889Y925D02*
X1896Y925D01*
X0Y924D02*
X7Y924D01*
X1889Y924D02*
X1896Y924D01*
X0Y923D02*
X7Y923D01*
X1889Y923D02*
X1896Y923D01*
X0Y922D02*
X7Y922D01*
X1889Y922D02*
X1896Y922D01*
X0Y921D02*
X7Y921D01*
X1889Y921D02*
X1896Y921D01*
X0Y920D02*
X7Y920D01*
X1889Y920D02*
X1896Y920D01*
X0Y919D02*
X7Y919D01*
X1889Y919D02*
X1896Y919D01*
X0Y918D02*
X7Y918D01*
X1889Y918D02*
X1896Y918D01*
X0Y917D02*
X7Y917D01*
X1889Y917D02*
X1896Y917D01*
X0Y916D02*
X7Y916D01*
X1889Y916D02*
X1896Y916D01*
X0Y915D02*
X7Y915D01*
X1889Y915D02*
X1896Y915D01*
X0Y914D02*
X7Y914D01*
X1889Y914D02*
X1896Y914D01*
X0Y913D02*
X7Y913D01*
X1889Y913D02*
X1896Y913D01*
X0Y912D02*
X7Y912D01*
X1889Y912D02*
X1896Y912D01*
X0Y911D02*
X7Y911D01*
X1889Y911D02*
X1896Y911D01*
X0Y910D02*
X7Y910D01*
X1889Y910D02*
X1896Y910D01*
X0Y909D02*
X7Y909D01*
X1889Y909D02*
X1896Y909D01*
X0Y908D02*
X7Y908D01*
X1889Y908D02*
X1896Y908D01*
X0Y907D02*
X7Y907D01*
X1889Y907D02*
X1896Y907D01*
X0Y906D02*
X7Y906D01*
X1889Y906D02*
X1896Y906D01*
X0Y905D02*
X7Y905D01*
X1889Y905D02*
X1896Y905D01*
X0Y904D02*
X7Y904D01*
X1889Y904D02*
X1896Y904D01*
X0Y903D02*
X7Y903D01*
X1889Y903D02*
X1896Y903D01*
X0Y902D02*
X7Y902D01*
X1889Y902D02*
X1896Y902D01*
X0Y901D02*
X7Y901D01*
X1889Y901D02*
X1896Y901D01*
X0Y900D02*
X7Y900D01*
X1889Y900D02*
X1896Y900D01*
X0Y899D02*
X7Y899D01*
X1889Y899D02*
X1896Y899D01*
X0Y898D02*
X7Y898D01*
X1889Y898D02*
X1896Y898D01*
X0Y897D02*
X7Y897D01*
X1889Y897D02*
X1896Y897D01*
X0Y896D02*
X7Y896D01*
X1889Y896D02*
X1896Y896D01*
X0Y895D02*
X7Y895D01*
X1889Y895D02*
X1896Y895D01*
X0Y894D02*
X7Y894D01*
X1889Y894D02*
X1896Y894D01*
X0Y893D02*
X7Y893D01*
X1889Y893D02*
X1896Y893D01*
X0Y892D02*
X7Y892D01*
X1889Y892D02*
X1896Y892D01*
X0Y891D02*
X7Y891D01*
X1889Y891D02*
X1896Y891D01*
X0Y890D02*
X7Y890D01*
X1889Y890D02*
X1896Y890D01*
X0Y889D02*
X7Y889D01*
X1889Y889D02*
X1896Y889D01*
X0Y888D02*
X7Y888D01*
X1889Y888D02*
X1896Y888D01*
X0Y887D02*
X7Y887D01*
X1889Y887D02*
X1896Y887D01*
X0Y886D02*
X7Y886D01*
X1889Y886D02*
X1896Y886D01*
X0Y885D02*
X7Y885D01*
X1889Y885D02*
X1896Y885D01*
X0Y884D02*
X7Y884D01*
X1889Y884D02*
X1896Y884D01*
X0Y883D02*
X7Y883D01*
X1889Y883D02*
X1896Y883D01*
X0Y882D02*
X7Y882D01*
X1889Y882D02*
X1896Y882D01*
X0Y881D02*
X7Y881D01*
X1889Y881D02*
X1896Y881D01*
X0Y880D02*
X7Y880D01*
X1889Y880D02*
X1896Y880D01*
X0Y879D02*
X7Y879D01*
X1889Y879D02*
X1896Y879D01*
X0Y878D02*
X7Y878D01*
X1889Y878D02*
X1896Y878D01*
X0Y877D02*
X7Y877D01*
X1889Y877D02*
X1896Y877D01*
X0Y876D02*
X7Y876D01*
X1889Y876D02*
X1896Y876D01*
X0Y875D02*
X7Y875D01*
X1889Y875D02*
X1896Y875D01*
X0Y874D02*
X7Y874D01*
X1889Y874D02*
X1896Y874D01*
X0Y873D02*
X7Y873D01*
X1889Y873D02*
X1896Y873D01*
X0Y872D02*
X7Y872D01*
X1889Y872D02*
X1896Y872D01*
X0Y871D02*
X7Y871D01*
X1889Y871D02*
X1896Y871D01*
X0Y870D02*
X7Y870D01*
X1889Y870D02*
X1896Y870D01*
X0Y869D02*
X7Y869D01*
X1889Y869D02*
X1896Y869D01*
X0Y868D02*
X7Y868D01*
X1889Y868D02*
X1896Y868D01*
X0Y867D02*
X7Y867D01*
X1889Y867D02*
X1896Y867D01*
X0Y866D02*
X7Y866D01*
X1889Y866D02*
X1896Y866D01*
X0Y865D02*
X7Y865D01*
X1889Y865D02*
X1896Y865D01*
X0Y864D02*
X7Y864D01*
X1889Y864D02*
X1896Y864D01*
X0Y863D02*
X7Y863D01*
X1889Y863D02*
X1896Y863D01*
X0Y862D02*
X7Y862D01*
X1889Y862D02*
X1896Y862D01*
X0Y861D02*
X7Y861D01*
X1889Y861D02*
X1896Y861D01*
X0Y860D02*
X7Y860D01*
X1889Y860D02*
X1896Y860D01*
X0Y859D02*
X7Y859D01*
X1889Y859D02*
X1896Y859D01*
X0Y858D02*
X7Y858D01*
X1889Y858D02*
X1896Y858D01*
X0Y857D02*
X7Y857D01*
X1889Y857D02*
X1896Y857D01*
X0Y856D02*
X7Y856D01*
X1889Y856D02*
X1896Y856D01*
X0Y855D02*
X7Y855D01*
X1889Y855D02*
X1896Y855D01*
X0Y854D02*
X7Y854D01*
X1889Y854D02*
X1896Y854D01*
X0Y853D02*
X7Y853D01*
X1889Y853D02*
X1896Y853D01*
X0Y852D02*
X7Y852D01*
X1889Y852D02*
X1896Y852D01*
X0Y851D02*
X7Y851D01*
X1889Y851D02*
X1896Y851D01*
X0Y850D02*
X7Y850D01*
X1889Y850D02*
X1896Y850D01*
X0Y849D02*
X7Y849D01*
X1889Y849D02*
X1896Y849D01*
X0Y848D02*
X7Y848D01*
X1889Y848D02*
X1896Y848D01*
X0Y847D02*
X7Y847D01*
X1889Y847D02*
X1896Y847D01*
X0Y846D02*
X7Y846D01*
X1889Y846D02*
X1896Y846D01*
X0Y845D02*
X7Y845D01*
X1889Y845D02*
X1896Y845D01*
X0Y844D02*
X7Y844D01*
X1889Y844D02*
X1896Y844D01*
X0Y843D02*
X7Y843D01*
X1889Y843D02*
X1896Y843D01*
X0Y842D02*
X7Y842D01*
X1889Y842D02*
X1896Y842D01*
X0Y841D02*
X7Y841D01*
X1889Y841D02*
X1896Y841D01*
X0Y840D02*
X7Y840D01*
X1889Y840D02*
X1896Y840D01*
X0Y839D02*
X7Y839D01*
X1889Y839D02*
X1896Y839D01*
X0Y838D02*
X7Y838D01*
X1889Y838D02*
X1896Y838D01*
X0Y837D02*
X7Y837D01*
X1889Y837D02*
X1896Y837D01*
X0Y836D02*
X7Y836D01*
X1889Y836D02*
X1896Y836D01*
X0Y835D02*
X7Y835D01*
X1889Y835D02*
X1896Y835D01*
X0Y834D02*
X7Y834D01*
X1889Y834D02*
X1896Y834D01*
X0Y833D02*
X7Y833D01*
X1889Y833D02*
X1896Y833D01*
X0Y832D02*
X7Y832D01*
X1889Y832D02*
X1896Y832D01*
X0Y831D02*
X7Y831D01*
X1889Y831D02*
X1896Y831D01*
X0Y830D02*
X7Y830D01*
X1889Y830D02*
X1896Y830D01*
X0Y829D02*
X7Y829D01*
X1889Y829D02*
X1896Y829D01*
X0Y828D02*
X7Y828D01*
X1889Y828D02*
X1896Y828D01*
X0Y827D02*
X7Y827D01*
X1889Y827D02*
X1896Y827D01*
X0Y826D02*
X7Y826D01*
X1889Y826D02*
X1896Y826D01*
X0Y825D02*
X7Y825D01*
X1889Y825D02*
X1896Y825D01*
X0Y824D02*
X7Y824D01*
X1889Y824D02*
X1896Y824D01*
X0Y823D02*
X7Y823D01*
X1889Y823D02*
X1896Y823D01*
X0Y822D02*
X7Y822D01*
X1889Y822D02*
X1896Y822D01*
X0Y821D02*
X7Y821D01*
X1889Y821D02*
X1896Y821D01*
X0Y820D02*
X7Y820D01*
X1889Y820D02*
X1896Y820D01*
X0Y819D02*
X7Y819D01*
X1889Y819D02*
X1896Y819D01*
X0Y818D02*
X7Y818D01*
X1889Y818D02*
X1896Y818D01*
X0Y817D02*
X7Y817D01*
X1889Y817D02*
X1896Y817D01*
X0Y816D02*
X7Y816D01*
X1889Y816D02*
X1896Y816D01*
X0Y815D02*
X7Y815D01*
X1889Y815D02*
X1896Y815D01*
X0Y814D02*
X7Y814D01*
X1889Y814D02*
X1896Y814D01*
X0Y813D02*
X7Y813D01*
X1889Y813D02*
X1896Y813D01*
X0Y812D02*
X7Y812D01*
X1889Y812D02*
X1896Y812D01*
X0Y811D02*
X7Y811D01*
X1889Y811D02*
X1896Y811D01*
X0Y810D02*
X7Y810D01*
X1889Y810D02*
X1896Y810D01*
X0Y809D02*
X7Y809D01*
X1889Y809D02*
X1896Y809D01*
X0Y808D02*
X7Y808D01*
X1889Y808D02*
X1896Y808D01*
X0Y807D02*
X7Y807D01*
X1889Y807D02*
X1896Y807D01*
X0Y806D02*
X7Y806D01*
X1889Y806D02*
X1896Y806D01*
X0Y805D02*
X7Y805D01*
X1889Y805D02*
X1896Y805D01*
X0Y804D02*
X7Y804D01*
X1889Y804D02*
X1896Y804D01*
X0Y803D02*
X7Y803D01*
X1889Y803D02*
X1896Y803D01*
X0Y802D02*
X7Y802D01*
X1889Y802D02*
X1896Y802D01*
X0Y801D02*
X7Y801D01*
X1889Y801D02*
X1896Y801D01*
X0Y800D02*
X7Y800D01*
X1889Y800D02*
X1896Y800D01*
X0Y799D02*
X7Y799D01*
X1889Y799D02*
X1896Y799D01*
X0Y798D02*
X7Y798D01*
X1889Y798D02*
X1896Y798D01*
X0Y797D02*
X7Y797D01*
X1889Y797D02*
X1896Y797D01*
X0Y796D02*
X7Y796D01*
X1889Y796D02*
X1896Y796D01*
X0Y795D02*
X7Y795D01*
X1889Y795D02*
X1896Y795D01*
X0Y794D02*
X7Y794D01*
X1889Y794D02*
X1896Y794D01*
X0Y793D02*
X7Y793D01*
X1889Y793D02*
X1896Y793D01*
X0Y792D02*
X7Y792D01*
X1889Y792D02*
X1896Y792D01*
X0Y791D02*
X7Y791D01*
X1889Y791D02*
X1896Y791D01*
X0Y790D02*
X7Y790D01*
X1889Y790D02*
X1896Y790D01*
X0Y789D02*
X7Y789D01*
X1889Y789D02*
X1896Y789D01*
X0Y788D02*
X7Y788D01*
X1889Y788D02*
X1896Y788D01*
X0Y787D02*
X7Y787D01*
X1889Y787D02*
X1896Y787D01*
X0Y786D02*
X7Y786D01*
X1889Y786D02*
X1896Y786D01*
X0Y785D02*
X7Y785D01*
X1889Y785D02*
X1896Y785D01*
X0Y784D02*
X7Y784D01*
X1889Y784D02*
X1896Y784D01*
X0Y783D02*
X7Y783D01*
X1889Y783D02*
X1896Y783D01*
X0Y782D02*
X7Y782D01*
X1889Y782D02*
X1896Y782D01*
X0Y781D02*
X7Y781D01*
X1889Y781D02*
X1896Y781D01*
X0Y780D02*
X7Y780D01*
X1889Y780D02*
X1896Y780D01*
X0Y779D02*
X7Y779D01*
X1889Y779D02*
X1896Y779D01*
X0Y778D02*
X7Y778D01*
X1889Y778D02*
X1896Y778D01*
X0Y777D02*
X7Y777D01*
X1889Y777D02*
X1896Y777D01*
X0Y776D02*
X7Y776D01*
X1889Y776D02*
X1896Y776D01*
X0Y775D02*
X7Y775D01*
X1889Y775D02*
X1896Y775D01*
X0Y774D02*
X7Y774D01*
X1889Y774D02*
X1896Y774D01*
X0Y773D02*
X7Y773D01*
X1889Y773D02*
X1896Y773D01*
X0Y772D02*
X7Y772D01*
X1889Y772D02*
X1896Y772D01*
X0Y771D02*
X7Y771D01*
X1889Y771D02*
X1896Y771D01*
X0Y770D02*
X7Y770D01*
X1889Y770D02*
X1896Y770D01*
X0Y769D02*
X7Y769D01*
X1889Y769D02*
X1896Y769D01*
X0Y768D02*
X7Y768D01*
X1889Y768D02*
X1896Y768D01*
X0Y767D02*
X7Y767D01*
X1889Y767D02*
X1896Y767D01*
X0Y766D02*
X7Y766D01*
X1889Y766D02*
X1896Y766D01*
X0Y765D02*
X7Y765D01*
X1889Y765D02*
X1896Y765D01*
X0Y764D02*
X7Y764D01*
X1889Y764D02*
X1896Y764D01*
X0Y763D02*
X7Y763D01*
X1889Y763D02*
X1896Y763D01*
X0Y762D02*
X7Y762D01*
X1889Y762D02*
X1896Y762D01*
X0Y761D02*
X7Y761D01*
X1889Y761D02*
X1896Y761D01*
X0Y760D02*
X7Y760D01*
X1889Y760D02*
X1896Y760D01*
X0Y759D02*
X7Y759D01*
X1889Y759D02*
X1896Y759D01*
X0Y758D02*
X7Y758D01*
X1889Y758D02*
X1896Y758D01*
X0Y757D02*
X7Y757D01*
X1889Y757D02*
X1896Y757D01*
X0Y756D02*
X7Y756D01*
X596Y756D02*
X597Y756D01*
X603Y756D02*
X605Y756D01*
X696Y756D02*
X697Y756D01*
X703Y756D02*
X705Y756D01*
X1196Y756D02*
X1197Y756D01*
X1202Y756D02*
X1205Y756D01*
X1296Y756D02*
X1297Y756D01*
X1302Y756D02*
X1305Y756D01*
X1889Y756D02*
X1896Y756D01*
X0Y755D02*
X7Y755D01*
X596Y755D02*
X605Y755D01*
X696Y755D02*
X705Y755D01*
X1196Y755D02*
X1205Y755D01*
X1296Y755D02*
X1305Y755D01*
X1889Y755D02*
X1896Y755D01*
X0Y754D02*
X7Y754D01*
X596Y754D02*
X605Y754D01*
X696Y754D02*
X705Y754D01*
X1196Y754D02*
X1205Y754D01*
X1296Y754D02*
X1305Y754D01*
X1889Y754D02*
X1896Y754D01*
X0Y753D02*
X7Y753D01*
X596Y753D02*
X605Y753D01*
X696Y753D02*
X705Y753D01*
X1196Y753D02*
X1205Y753D01*
X1296Y753D02*
X1305Y753D01*
X1889Y753D02*
X1896Y753D01*
X0Y752D02*
X7Y752D01*
X596Y752D02*
X605Y752D01*
X696Y752D02*
X705Y752D01*
X1196Y752D02*
X1205Y752D01*
X1296Y752D02*
X1305Y752D01*
X1889Y752D02*
X1896Y752D01*
X0Y751D02*
X7Y751D01*
X596Y751D02*
X605Y751D01*
X696Y751D02*
X705Y751D01*
X1196Y751D02*
X1205Y751D01*
X1296Y751D02*
X1305Y751D01*
X1889Y751D02*
X1896Y751D01*
X0Y750D02*
X7Y750D01*
X596Y750D02*
X605Y750D01*
X696Y750D02*
X705Y750D01*
X1196Y750D02*
X1205Y750D01*
X1296Y750D02*
X1305Y750D01*
X1889Y750D02*
X1896Y750D01*
X0Y749D02*
X7Y749D01*
X596Y749D02*
X605Y749D01*
X696Y749D02*
X705Y749D01*
X1196Y749D02*
X1205Y749D01*
X1296Y749D02*
X1305Y749D01*
X1889Y749D02*
X1896Y749D01*
X0Y748D02*
X7Y748D01*
X596Y748D02*
X605Y748D01*
X696Y748D02*
X705Y748D01*
X1196Y748D02*
X1205Y748D01*
X1296Y748D02*
X1305Y748D01*
X1889Y748D02*
X1896Y748D01*
X0Y747D02*
X7Y747D01*
X596Y747D02*
X605Y747D01*
X696Y747D02*
X705Y747D01*
X1196Y747D02*
X1205Y747D01*
X1296Y747D02*
X1305Y747D01*
X1889Y747D02*
X1896Y747D01*
X0Y746D02*
X7Y746D01*
X596Y746D02*
X605Y746D01*
X696Y746D02*
X705Y746D01*
X1196Y746D02*
X1205Y746D01*
X1296Y746D02*
X1305Y746D01*
X1889Y746D02*
X1896Y746D01*
X0Y745D02*
X7Y745D01*
X596Y745D02*
X605Y745D01*
X696Y745D02*
X705Y745D01*
X1196Y745D02*
X1205Y745D01*
X1296Y745D02*
X1305Y745D01*
X1889Y745D02*
X1896Y745D01*
X0Y744D02*
X7Y744D01*
X596Y744D02*
X605Y744D01*
X696Y744D02*
X705Y744D01*
X1196Y744D02*
X1205Y744D01*
X1296Y744D02*
X1305Y744D01*
X1889Y744D02*
X1896Y744D01*
X0Y743D02*
X7Y743D01*
X596Y743D02*
X605Y743D01*
X696Y743D02*
X705Y743D01*
X1196Y743D02*
X1205Y743D01*
X1296Y743D02*
X1305Y743D01*
X1889Y743D02*
X1896Y743D01*
X0Y742D02*
X7Y742D01*
X596Y742D02*
X605Y742D01*
X696Y742D02*
X705Y742D01*
X1196Y742D02*
X1205Y742D01*
X1296Y742D02*
X1305Y742D01*
X1889Y742D02*
X1896Y742D01*
X0Y741D02*
X7Y741D01*
X596Y741D02*
X605Y741D01*
X696Y741D02*
X705Y741D01*
X1196Y741D02*
X1205Y741D01*
X1296Y741D02*
X1305Y741D01*
X1889Y741D02*
X1896Y741D01*
X0Y740D02*
X7Y740D01*
X596Y740D02*
X605Y740D01*
X696Y740D02*
X705Y740D01*
X1196Y740D02*
X1205Y740D01*
X1296Y740D02*
X1305Y740D01*
X1889Y740D02*
X1896Y740D01*
X0Y739D02*
X7Y739D01*
X596Y739D02*
X605Y739D01*
X696Y739D02*
X705Y739D01*
X1196Y739D02*
X1205Y739D01*
X1296Y739D02*
X1305Y739D01*
X1889Y739D02*
X1896Y739D01*
X0Y738D02*
X7Y738D01*
X596Y738D02*
X605Y738D01*
X696Y738D02*
X705Y738D01*
X1196Y738D02*
X1205Y738D01*
X1296Y738D02*
X1305Y738D01*
X1889Y738D02*
X1896Y738D01*
X0Y737D02*
X7Y737D01*
X596Y737D02*
X605Y737D01*
X696Y737D02*
X705Y737D01*
X1196Y737D02*
X1205Y737D01*
X1296Y737D02*
X1305Y737D01*
X1889Y737D02*
X1896Y737D01*
X0Y736D02*
X7Y736D01*
X596Y736D02*
X605Y736D01*
X696Y736D02*
X705Y736D01*
X1196Y736D02*
X1205Y736D01*
X1296Y736D02*
X1305Y736D01*
X1889Y736D02*
X1896Y736D01*
X0Y735D02*
X7Y735D01*
X596Y735D02*
X605Y735D01*
X696Y735D02*
X705Y735D01*
X1196Y735D02*
X1205Y735D01*
X1296Y735D02*
X1305Y735D01*
X1889Y735D02*
X1896Y735D01*
X0Y734D02*
X7Y734D01*
X596Y734D02*
X605Y734D01*
X696Y734D02*
X705Y734D01*
X1196Y734D02*
X1205Y734D01*
X1296Y734D02*
X1305Y734D01*
X1889Y734D02*
X1896Y734D01*
X0Y733D02*
X7Y733D01*
X596Y733D02*
X605Y733D01*
X696Y733D02*
X705Y733D01*
X1196Y733D02*
X1205Y733D01*
X1296Y733D02*
X1305Y733D01*
X1889Y733D02*
X1896Y733D01*
X0Y732D02*
X7Y732D01*
X596Y732D02*
X605Y732D01*
X696Y732D02*
X705Y732D01*
X1196Y732D02*
X1205Y732D01*
X1296Y732D02*
X1305Y732D01*
X1889Y732D02*
X1896Y732D01*
X0Y731D02*
X7Y731D01*
X596Y731D02*
X605Y731D01*
X696Y731D02*
X705Y731D01*
X1196Y731D02*
X1205Y731D01*
X1296Y731D02*
X1305Y731D01*
X1889Y731D02*
X1896Y731D01*
X0Y730D02*
X7Y730D01*
X596Y730D02*
X605Y730D01*
X696Y730D02*
X705Y730D01*
X1196Y730D02*
X1205Y730D01*
X1296Y730D02*
X1305Y730D01*
X1889Y730D02*
X1896Y730D01*
X0Y729D02*
X7Y729D01*
X596Y729D02*
X605Y729D01*
X696Y729D02*
X705Y729D01*
X1196Y729D02*
X1205Y729D01*
X1296Y729D02*
X1305Y729D01*
X1889Y729D02*
X1896Y729D01*
X0Y728D02*
X7Y728D01*
X596Y728D02*
X605Y728D01*
X696Y728D02*
X705Y728D01*
X1196Y728D02*
X1205Y728D01*
X1296Y728D02*
X1305Y728D01*
X1889Y728D02*
X1896Y728D01*
X0Y727D02*
X7Y727D01*
X596Y727D02*
X605Y727D01*
X696Y727D02*
X705Y727D01*
X1196Y727D02*
X1205Y727D01*
X1296Y727D02*
X1305Y727D01*
X1889Y727D02*
X1896Y727D01*
X0Y726D02*
X7Y726D01*
X596Y726D02*
X605Y726D01*
X696Y726D02*
X705Y726D01*
X1196Y726D02*
X1205Y726D01*
X1296Y726D02*
X1305Y726D01*
X1889Y726D02*
X1896Y726D01*
X0Y725D02*
X7Y725D01*
X596Y725D02*
X605Y725D01*
X696Y725D02*
X705Y725D01*
X1196Y725D02*
X1205Y725D01*
X1296Y725D02*
X1305Y725D01*
X1889Y725D02*
X1896Y725D01*
X0Y724D02*
X7Y724D01*
X596Y724D02*
X605Y724D01*
X696Y724D02*
X705Y724D01*
X1196Y724D02*
X1205Y724D01*
X1296Y724D02*
X1305Y724D01*
X1889Y724D02*
X1896Y724D01*
X0Y723D02*
X7Y723D01*
X596Y723D02*
X605Y723D01*
X696Y723D02*
X705Y723D01*
X1196Y723D02*
X1204Y723D01*
X1296Y723D02*
X1304Y723D01*
X1889Y723D02*
X1896Y723D01*
X0Y722D02*
X7Y722D01*
X1889Y722D02*
X1896Y722D01*
X0Y721D02*
X7Y721D01*
X1889Y721D02*
X1896Y721D01*
X0Y720D02*
X7Y720D01*
X1889Y720D02*
X1896Y720D01*
X0Y719D02*
X7Y719D01*
X1889Y719D02*
X1896Y719D01*
X0Y718D02*
X7Y718D01*
X1889Y718D02*
X1896Y718D01*
X0Y717D02*
X7Y717D01*
X1889Y717D02*
X1896Y717D01*
X0Y716D02*
X7Y716D01*
X1889Y716D02*
X1896Y716D01*
X0Y715D02*
X7Y715D01*
X1889Y715D02*
X1896Y715D01*
X0Y714D02*
X7Y714D01*
X1889Y714D02*
X1896Y714D01*
X0Y713D02*
X7Y713D01*
X1889Y713D02*
X1896Y713D01*
X0Y712D02*
X7Y712D01*
X1889Y712D02*
X1896Y712D01*
X0Y711D02*
X7Y711D01*
X1889Y711D02*
X1896Y711D01*
X0Y710D02*
X7Y710D01*
X1889Y710D02*
X1896Y710D01*
X0Y709D02*
X7Y709D01*
X1889Y709D02*
X1896Y709D01*
X0Y708D02*
X7Y708D01*
X1889Y708D02*
X1896Y708D01*
X0Y707D02*
X7Y707D01*
X1889Y707D02*
X1896Y707D01*
X0Y706D02*
X7Y706D01*
X1889Y706D02*
X1896Y706D01*
X0Y705D02*
X7Y705D01*
X1889Y705D02*
X1896Y705D01*
X0Y704D02*
X7Y704D01*
X1889Y704D02*
X1896Y704D01*
X0Y703D02*
X7Y703D01*
X1889Y703D02*
X1896Y703D01*
X0Y702D02*
X7Y702D01*
X1889Y702D02*
X1896Y702D01*
X0Y701D02*
X7Y701D01*
X1889Y701D02*
X1896Y701D01*
X0Y700D02*
X7Y700D01*
X1889Y700D02*
X1896Y700D01*
X0Y699D02*
X7Y699D01*
X1889Y699D02*
X1896Y699D01*
X0Y698D02*
X7Y698D01*
X1889Y698D02*
X1896Y698D01*
X0Y697D02*
X7Y697D01*
X1889Y697D02*
X1896Y697D01*
X0Y696D02*
X7Y696D01*
X1889Y696D02*
X1896Y696D01*
X0Y695D02*
X7Y695D01*
X1889Y695D02*
X1896Y695D01*
X0Y694D02*
X7Y694D01*
X1889Y694D02*
X1896Y694D01*
X0Y693D02*
X7Y693D01*
X1889Y693D02*
X1896Y693D01*
X0Y692D02*
X7Y692D01*
X1340Y692D02*
X1343Y692D01*
X1365Y692D02*
X1387Y692D01*
X1889Y692D02*
X1896Y692D01*
X0Y691D02*
X7Y691D01*
X1145Y691D02*
X1164Y691D01*
X1339Y691D02*
X1344Y691D01*
X1364Y691D02*
X1388Y691D01*
X1889Y691D02*
X1896Y691D01*
X0Y690D02*
X7Y690D01*
X1143Y690D02*
X1165Y690D01*
X1338Y690D02*
X1344Y690D01*
X1363Y690D02*
X1389Y690D01*
X1889Y690D02*
X1896Y690D01*
X0Y689D02*
X7Y689D01*
X1143Y689D02*
X1166Y689D01*
X1338Y689D02*
X1344Y689D01*
X1362Y689D02*
X1390Y689D01*
X1889Y689D02*
X1896Y689D01*
X0Y688D02*
X7Y688D01*
X549Y688D02*
X550Y688D01*
X774Y688D02*
X791Y688D01*
X1143Y688D02*
X1166Y688D01*
X1338Y688D02*
X1344Y688D01*
X1362Y688D02*
X1390Y688D01*
X1889Y688D02*
X1896Y688D01*
X0Y687D02*
X7Y687D01*
X547Y687D02*
X551Y687D01*
X772Y687D02*
X794Y687D01*
X1143Y687D02*
X1166Y687D01*
X1338Y687D02*
X1344Y687D01*
X1362Y687D02*
X1391Y687D01*
X1889Y687D02*
X1896Y687D01*
X0Y686D02*
X7Y686D01*
X546Y686D02*
X552Y686D01*
X772Y686D02*
X794Y686D01*
X1143Y686D02*
X1166Y686D01*
X1338Y686D02*
X1344Y686D01*
X1362Y686D02*
X1391Y686D01*
X1889Y686D02*
X1896Y686D01*
X0Y685D02*
X7Y685D01*
X546Y685D02*
X552Y685D01*
X771Y685D02*
X795Y685D01*
X1144Y685D02*
X1166Y685D01*
X1338Y685D02*
X1344Y685D01*
X1362Y685D02*
X1367Y685D01*
X1385Y685D02*
X1391Y685D01*
X1889Y685D02*
X1896Y685D01*
X0Y684D02*
X7Y684D01*
X524Y684D02*
X568Y684D01*
X771Y684D02*
X795Y684D01*
X1160Y684D02*
X1166Y684D01*
X1338Y684D02*
X1344Y684D01*
X1362Y684D02*
X1367Y684D01*
X1385Y684D02*
X1391Y684D01*
X1889Y684D02*
X1896Y684D01*
X0Y683D02*
X7Y683D01*
X523Y683D02*
X569Y683D01*
X771Y683D02*
X795Y683D01*
X1160Y683D02*
X1166Y683D01*
X1338Y683D02*
X1344Y683D01*
X1362Y683D02*
X1367Y683D01*
X1385Y683D02*
X1391Y683D01*
X1889Y683D02*
X1896Y683D01*
X0Y682D02*
X7Y682D01*
X523Y682D02*
X569Y682D01*
X771Y682D02*
X795Y682D01*
X1160Y682D02*
X1166Y682D01*
X1338Y682D02*
X1344Y682D01*
X1362Y682D02*
X1367Y682D01*
X1385Y682D02*
X1391Y682D01*
X1889Y682D02*
X1896Y682D01*
X0Y681D02*
X7Y681D01*
X523Y681D02*
X570Y681D01*
X771Y681D02*
X777Y681D01*
X788Y681D02*
X795Y681D01*
X1160Y681D02*
X1166Y681D01*
X1338Y681D02*
X1344Y681D01*
X1362Y681D02*
X1367Y681D01*
X1385Y681D02*
X1391Y681D01*
X1889Y681D02*
X1896Y681D01*
X0Y680D02*
X7Y680D01*
X523Y680D02*
X569Y680D01*
X771Y680D02*
X777Y680D01*
X789Y680D02*
X795Y680D01*
X1160Y680D02*
X1166Y680D01*
X1338Y680D02*
X1344Y680D01*
X1362Y680D02*
X1367Y680D01*
X1385Y680D02*
X1391Y680D01*
X1889Y680D02*
X1896Y680D01*
X0Y679D02*
X7Y679D01*
X524Y679D02*
X569Y679D01*
X771Y679D02*
X777Y679D01*
X789Y679D02*
X795Y679D01*
X1160Y679D02*
X1166Y679D01*
X1338Y679D02*
X1344Y679D01*
X1362Y679D02*
X1367Y679D01*
X1385Y679D02*
X1391Y679D01*
X1889Y679D02*
X1896Y679D01*
X0Y678D02*
X7Y678D01*
X525Y678D02*
X567Y678D01*
X771Y678D02*
X777Y678D01*
X789Y678D02*
X795Y678D01*
X1160Y678D02*
X1166Y678D01*
X1338Y678D02*
X1344Y678D01*
X1362Y678D02*
X1367Y678D01*
X1385Y678D02*
X1391Y678D01*
X1889Y678D02*
X1896Y678D01*
X0Y677D02*
X7Y677D01*
X546Y677D02*
X552Y677D01*
X771Y677D02*
X777Y677D01*
X789Y677D02*
X795Y677D01*
X1114Y677D02*
X1166Y677D01*
X1338Y677D02*
X1344Y677D01*
X1362Y677D02*
X1367Y677D01*
X1385Y677D02*
X1391Y677D01*
X1889Y677D02*
X1896Y677D01*
X0Y676D02*
X7Y676D01*
X546Y676D02*
X552Y676D01*
X771Y676D02*
X777Y676D01*
X789Y676D02*
X795Y676D01*
X1114Y676D02*
X1166Y676D01*
X1338Y676D02*
X1344Y676D01*
X1362Y676D02*
X1367Y676D01*
X1385Y676D02*
X1391Y676D01*
X1889Y676D02*
X1896Y676D01*
X0Y675D02*
X7Y675D01*
X546Y675D02*
X552Y675D01*
X771Y675D02*
X777Y675D01*
X789Y675D02*
X795Y675D01*
X1114Y675D02*
X1166Y675D01*
X1338Y675D02*
X1344Y675D01*
X1362Y675D02*
X1367Y675D01*
X1385Y675D02*
X1391Y675D01*
X1889Y675D02*
X1896Y675D01*
X0Y674D02*
X7Y674D01*
X546Y674D02*
X552Y674D01*
X771Y674D02*
X777Y674D01*
X789Y674D02*
X795Y674D01*
X1114Y674D02*
X1166Y674D01*
X1338Y674D02*
X1344Y674D01*
X1362Y674D02*
X1367Y674D01*
X1385Y674D02*
X1391Y674D01*
X1889Y674D02*
X1896Y674D01*
X0Y673D02*
X7Y673D01*
X546Y673D02*
X552Y673D01*
X771Y673D02*
X777Y673D01*
X789Y673D02*
X795Y673D01*
X1114Y673D02*
X1166Y673D01*
X1338Y673D02*
X1344Y673D01*
X1362Y673D02*
X1367Y673D01*
X1385Y673D02*
X1391Y673D01*
X1889Y673D02*
X1896Y673D01*
X0Y672D02*
X7Y672D01*
X546Y672D02*
X552Y672D01*
X771Y672D02*
X777Y672D01*
X789Y672D02*
X795Y672D01*
X1114Y672D02*
X1166Y672D01*
X1338Y672D02*
X1367Y672D01*
X1385Y672D02*
X1391Y672D01*
X1889Y672D02*
X1896Y672D01*
X0Y671D02*
X7Y671D01*
X546Y671D02*
X552Y671D01*
X771Y671D02*
X777Y671D01*
X789Y671D02*
X795Y671D01*
X1114Y671D02*
X1166Y671D01*
X1338Y671D02*
X1367Y671D01*
X1385Y671D02*
X1391Y671D01*
X1889Y671D02*
X1896Y671D01*
X0Y670D02*
X7Y670D01*
X546Y670D02*
X552Y670D01*
X771Y670D02*
X777Y670D01*
X789Y670D02*
X795Y670D01*
X1114Y670D02*
X1119Y670D01*
X1160Y670D02*
X1166Y670D01*
X1338Y670D02*
X1367Y670D01*
X1385Y670D02*
X1391Y670D01*
X1889Y670D02*
X1896Y670D01*
X0Y669D02*
X7Y669D01*
X546Y669D02*
X552Y669D01*
X771Y669D02*
X777Y669D01*
X789Y669D02*
X795Y669D01*
X1114Y669D02*
X1119Y669D01*
X1160Y669D02*
X1166Y669D01*
X1338Y669D02*
X1367Y669D01*
X1385Y669D02*
X1391Y669D01*
X1889Y669D02*
X1896Y669D01*
X0Y668D02*
X7Y668D01*
X546Y668D02*
X552Y668D01*
X771Y668D02*
X777Y668D01*
X789Y668D02*
X795Y668D01*
X1114Y668D02*
X1119Y668D01*
X1160Y668D02*
X1166Y668D01*
X1338Y668D02*
X1367Y668D01*
X1384Y668D02*
X1391Y668D01*
X1889Y668D02*
X1896Y668D01*
X0Y667D02*
X7Y667D01*
X546Y667D02*
X552Y667D01*
X771Y667D02*
X777Y667D01*
X789Y667D02*
X795Y667D01*
X1114Y667D02*
X1119Y667D01*
X1160Y667D02*
X1166Y667D01*
X1338Y667D02*
X1367Y667D01*
X1384Y667D02*
X1390Y667D01*
X1889Y667D02*
X1896Y667D01*
X0Y666D02*
X7Y666D01*
X546Y666D02*
X552Y666D01*
X771Y666D02*
X777Y666D01*
X789Y666D02*
X795Y666D01*
X1114Y666D02*
X1119Y666D01*
X1160Y666D02*
X1166Y666D01*
X1338Y666D02*
X1367Y666D01*
X1383Y666D02*
X1390Y666D01*
X1889Y666D02*
X1896Y666D01*
X0Y665D02*
X7Y665D01*
X546Y665D02*
X552Y665D01*
X771Y665D02*
X777Y665D01*
X789Y665D02*
X795Y665D01*
X1114Y665D02*
X1119Y665D01*
X1160Y665D02*
X1166Y665D01*
X1383Y665D02*
X1390Y665D01*
X1889Y665D02*
X1896Y665D01*
X0Y664D02*
X7Y664D01*
X519Y664D02*
X552Y664D01*
X745Y664D02*
X745Y664D01*
X771Y664D02*
X777Y664D01*
X789Y664D02*
X795Y664D01*
X1114Y664D02*
X1119Y664D01*
X1160Y664D02*
X1166Y664D01*
X1383Y664D02*
X1389Y664D01*
X1889Y664D02*
X1896Y664D01*
X0Y663D02*
X7Y663D01*
X518Y663D02*
X552Y663D01*
X743Y663D02*
X747Y663D01*
X771Y663D02*
X777Y663D01*
X789Y663D02*
X795Y663D01*
X1114Y663D02*
X1119Y663D01*
X1160Y663D02*
X1166Y663D01*
X1382Y663D02*
X1389Y663D01*
X1889Y663D02*
X1896Y663D01*
X0Y662D02*
X7Y662D01*
X517Y662D02*
X552Y662D01*
X742Y662D02*
X748Y662D01*
X771Y662D02*
X777Y662D01*
X789Y662D02*
X795Y662D01*
X1114Y662D02*
X1119Y662D01*
X1160Y662D02*
X1166Y662D01*
X1382Y662D02*
X1388Y662D01*
X1889Y662D02*
X1896Y662D01*
X0Y661D02*
X7Y661D01*
X517Y661D02*
X552Y661D01*
X742Y661D02*
X748Y661D01*
X771Y661D02*
X777Y661D01*
X789Y661D02*
X795Y661D01*
X1114Y661D02*
X1119Y661D01*
X1160Y661D02*
X1166Y661D01*
X1382Y661D02*
X1388Y661D01*
X1889Y661D02*
X1896Y661D01*
X0Y660D02*
X7Y660D01*
X517Y660D02*
X552Y660D01*
X742Y660D02*
X795Y660D01*
X1114Y660D02*
X1119Y660D01*
X1160Y660D02*
X1166Y660D01*
X1383Y660D02*
X1387Y660D01*
X1889Y660D02*
X1896Y660D01*
X0Y659D02*
X7Y659D01*
X518Y659D02*
X552Y659D01*
X742Y659D02*
X795Y659D01*
X1114Y659D02*
X1119Y659D01*
X1161Y659D02*
X1166Y659D01*
X1384Y659D02*
X1386Y659D01*
X1889Y659D02*
X1896Y659D01*
X0Y658D02*
X7Y658D01*
X519Y658D02*
X552Y658D01*
X742Y658D02*
X795Y658D01*
X1115Y658D02*
X1118Y658D01*
X1161Y658D02*
X1165Y658D01*
X1889Y658D02*
X1896Y658D01*
X0Y657D02*
X7Y657D01*
X742Y657D02*
X795Y657D01*
X1889Y657D02*
X1896Y657D01*
X0Y656D02*
X7Y656D01*
X296Y656D02*
X298Y656D01*
X303Y656D02*
X305Y656D01*
X742Y656D02*
X794Y656D01*
X1889Y656D02*
X1896Y656D01*
X0Y655D02*
X7Y655D01*
X296Y655D02*
X305Y655D01*
X743Y655D02*
X794Y655D01*
X1889Y655D02*
X1896Y655D01*
X0Y654D02*
X7Y654D01*
X296Y654D02*
X305Y654D01*
X745Y654D02*
X792Y654D01*
X1889Y654D02*
X1896Y654D01*
X0Y653D02*
X7Y653D01*
X296Y653D02*
X305Y653D01*
X1889Y653D02*
X1896Y653D01*
X0Y652D02*
X7Y652D01*
X296Y652D02*
X305Y652D01*
X1889Y652D02*
X1896Y652D01*
X0Y651D02*
X7Y651D01*
X296Y651D02*
X305Y651D01*
X1889Y651D02*
X1896Y651D01*
X0Y650D02*
X7Y650D01*
X296Y650D02*
X305Y650D01*
X1889Y650D02*
X1896Y650D01*
X0Y649D02*
X7Y649D01*
X296Y649D02*
X305Y649D01*
X1889Y649D02*
X1896Y649D01*
X0Y648D02*
X7Y648D01*
X296Y648D02*
X305Y648D01*
X1889Y648D02*
X1896Y648D01*
X0Y647D02*
X7Y647D01*
X296Y647D02*
X305Y647D01*
X1889Y647D02*
X1896Y647D01*
X0Y646D02*
X7Y646D01*
X296Y646D02*
X305Y646D01*
X1889Y646D02*
X1896Y646D01*
X0Y645D02*
X7Y645D01*
X296Y645D02*
X305Y645D01*
X1889Y645D02*
X1896Y645D01*
X0Y644D02*
X7Y644D01*
X296Y644D02*
X305Y644D01*
X1889Y644D02*
X1896Y644D01*
X0Y643D02*
X7Y643D01*
X296Y643D02*
X305Y643D01*
X1348Y643D02*
X1352Y643D01*
X1889Y643D02*
X1896Y643D01*
X0Y642D02*
X7Y642D01*
X296Y642D02*
X305Y642D01*
X1344Y642D02*
X1356Y642D01*
X1386Y642D02*
X1390Y642D01*
X1889Y642D02*
X1896Y642D01*
X0Y641D02*
X7Y641D01*
X296Y641D02*
X305Y641D01*
X1120Y641D02*
X1130Y641D01*
X1162Y641D02*
X1165Y641D01*
X1343Y641D02*
X1357Y641D01*
X1384Y641D02*
X1390Y641D01*
X1889Y641D02*
X1896Y641D01*
X0Y640D02*
X7Y640D01*
X296Y640D02*
X305Y640D01*
X525Y640D02*
X532Y640D01*
X566Y640D02*
X567Y640D01*
X1118Y640D02*
X1132Y640D01*
X1160Y640D02*
X1166Y640D01*
X1341Y640D02*
X1358Y640D01*
X1382Y640D02*
X1391Y640D01*
X1889Y640D02*
X1896Y640D01*
X0Y639D02*
X7Y639D01*
X296Y639D02*
X305Y639D01*
X523Y639D02*
X535Y639D01*
X564Y639D02*
X569Y639D01*
X1117Y639D02*
X1133Y639D01*
X1158Y639D02*
X1166Y639D01*
X1341Y639D02*
X1359Y639D01*
X1380Y639D02*
X1391Y639D01*
X1889Y639D02*
X1896Y639D01*
X0Y638D02*
X7Y638D01*
X296Y638D02*
X305Y638D01*
X521Y638D02*
X536Y638D01*
X562Y638D02*
X569Y638D01*
X750Y638D02*
X758Y638D01*
X791Y638D02*
X793Y638D01*
X1116Y638D02*
X1134Y638D01*
X1156Y638D02*
X1166Y638D01*
X1340Y638D02*
X1360Y638D01*
X1379Y638D02*
X1390Y638D01*
X1889Y638D02*
X1896Y638D01*
X0Y637D02*
X7Y637D01*
X296Y637D02*
X305Y637D01*
X520Y637D02*
X537Y637D01*
X561Y637D02*
X570Y637D01*
X747Y637D02*
X760Y637D01*
X789Y637D02*
X794Y637D01*
X1115Y637D02*
X1135Y637D01*
X1155Y637D02*
X1166Y637D01*
X1339Y637D02*
X1361Y637D01*
X1377Y637D02*
X1390Y637D01*
X1889Y637D02*
X1896Y637D01*
X0Y636D02*
X7Y636D01*
X296Y636D02*
X305Y636D01*
X519Y636D02*
X538Y636D01*
X559Y636D02*
X570Y636D01*
X746Y636D02*
X762Y636D01*
X787Y636D02*
X794Y636D01*
X1115Y636D02*
X1136Y636D01*
X1153Y636D02*
X1165Y636D01*
X1339Y636D02*
X1347Y636D01*
X1353Y636D02*
X1361Y636D01*
X1375Y636D02*
X1388Y636D01*
X1889Y636D02*
X1896Y636D01*
X0Y635D02*
X7Y635D01*
X296Y635D02*
X305Y635D01*
X518Y635D02*
X539Y635D01*
X557Y635D02*
X569Y635D01*
X745Y635D02*
X763Y635D01*
X785Y635D02*
X795Y635D01*
X1114Y635D02*
X1136Y635D01*
X1151Y635D02*
X1164Y635D01*
X1339Y635D02*
X1345Y635D01*
X1355Y635D02*
X1361Y635D01*
X1374Y635D02*
X1387Y635D01*
X1889Y635D02*
X1896Y635D01*
X0Y634D02*
X7Y634D01*
X296Y634D02*
X305Y634D01*
X518Y634D02*
X540Y634D01*
X556Y634D02*
X568Y634D01*
X744Y634D02*
X763Y634D01*
X784Y634D02*
X795Y634D01*
X1114Y634D02*
X1121Y634D01*
X1129Y634D02*
X1137Y634D01*
X1150Y634D02*
X1163Y634D01*
X1338Y634D02*
X1345Y634D01*
X1355Y634D02*
X1362Y634D01*
X1372Y634D02*
X1385Y634D01*
X1889Y634D02*
X1896Y634D01*
X0Y633D02*
X7Y633D01*
X296Y633D02*
X305Y633D01*
X518Y633D02*
X525Y633D01*
X532Y633D02*
X540Y633D01*
X554Y633D02*
X567Y633D01*
X743Y633D02*
X764Y633D01*
X782Y633D02*
X794Y633D01*
X1114Y633D02*
X1120Y633D01*
X1130Y633D02*
X1137Y633D01*
X1148Y633D02*
X1161Y633D01*
X1338Y633D02*
X1344Y633D01*
X1356Y633D02*
X1362Y633D01*
X1370Y633D02*
X1383Y633D01*
X1889Y633D02*
X1896Y633D01*
X0Y632D02*
X7Y632D01*
X296Y632D02*
X305Y632D01*
X517Y632D02*
X524Y632D01*
X534Y632D02*
X540Y632D01*
X552Y632D02*
X565Y632D01*
X743Y632D02*
X765Y632D01*
X780Y632D02*
X793Y632D01*
X1114Y632D02*
X1120Y632D01*
X1131Y632D02*
X1137Y632D01*
X1146Y632D02*
X1159Y632D01*
X1338Y632D02*
X1344Y632D01*
X1356Y632D02*
X1362Y632D01*
X1368Y632D02*
X1381Y632D01*
X1889Y632D02*
X1896Y632D01*
X0Y631D02*
X7Y631D01*
X296Y631D02*
X305Y631D01*
X517Y631D02*
X523Y631D01*
X534Y631D02*
X540Y631D01*
X550Y631D02*
X563Y631D01*
X743Y631D02*
X750Y631D01*
X758Y631D02*
X765Y631D01*
X779Y631D02*
X792Y631D01*
X1114Y631D02*
X1119Y631D01*
X1131Y631D02*
X1137Y631D01*
X1144Y631D02*
X1157Y631D01*
X1338Y631D02*
X1344Y631D01*
X1356Y631D02*
X1362Y631D01*
X1367Y631D02*
X1380Y631D01*
X1889Y631D02*
X1896Y631D01*
X0Y630D02*
X7Y630D01*
X296Y630D02*
X305Y630D01*
X517Y630D02*
X523Y630D01*
X534Y630D02*
X540Y630D01*
X549Y630D02*
X562Y630D01*
X742Y630D02*
X749Y630D01*
X759Y630D02*
X765Y630D01*
X777Y630D02*
X790Y630D01*
X1114Y630D02*
X1119Y630D01*
X1131Y630D02*
X1137Y630D01*
X1143Y630D02*
X1156Y630D01*
X1338Y630D02*
X1344Y630D01*
X1356Y630D02*
X1362Y630D01*
X1365Y630D02*
X1378Y630D01*
X1889Y630D02*
X1896Y630D01*
X0Y629D02*
X7Y629D01*
X296Y629D02*
X305Y629D01*
X517Y629D02*
X523Y629D01*
X535Y629D02*
X540Y629D01*
X547Y629D02*
X560Y629D01*
X742Y629D02*
X748Y629D01*
X759Y629D02*
X765Y629D01*
X775Y629D02*
X788Y629D01*
X1114Y629D02*
X1119Y629D01*
X1131Y629D02*
X1137Y629D01*
X1141Y629D02*
X1154Y629D01*
X1338Y629D02*
X1344Y629D01*
X1356Y629D02*
X1376Y629D01*
X1889Y629D02*
X1896Y629D01*
X0Y628D02*
X7Y628D01*
X296Y628D02*
X305Y628D01*
X517Y628D02*
X523Y628D01*
X535Y628D02*
X540Y628D01*
X545Y628D02*
X558Y628D01*
X742Y628D02*
X748Y628D01*
X760Y628D02*
X766Y628D01*
X773Y628D02*
X786Y628D01*
X1114Y628D02*
X1119Y628D01*
X1131Y628D02*
X1137Y628D01*
X1139Y628D02*
X1152Y628D01*
X1338Y628D02*
X1344Y628D01*
X1356Y628D02*
X1375Y628D01*
X1889Y628D02*
X1896Y628D01*
X0Y627D02*
X7Y627D01*
X296Y627D02*
X305Y627D01*
X517Y627D02*
X523Y627D01*
X535Y627D02*
X540Y627D01*
X544Y627D02*
X556Y627D01*
X742Y627D02*
X748Y627D01*
X760Y627D02*
X766Y627D01*
X772Y627D02*
X785Y627D01*
X1114Y627D02*
X1119Y627D01*
X1131Y627D02*
X1151Y627D01*
X1338Y627D02*
X1344Y627D01*
X1356Y627D02*
X1373Y627D01*
X1889Y627D02*
X1896Y627D01*
X0Y626D02*
X7Y626D01*
X296Y626D02*
X305Y626D01*
X517Y626D02*
X523Y626D01*
X535Y626D02*
X555Y626D01*
X742Y626D02*
X748Y626D01*
X760Y626D02*
X766Y626D01*
X770Y626D02*
X783Y626D01*
X1114Y626D02*
X1119Y626D01*
X1131Y626D02*
X1149Y626D01*
X1338Y626D02*
X1344Y626D01*
X1356Y626D02*
X1371Y626D01*
X1889Y626D02*
X1896Y626D01*
X0Y625D02*
X7Y625D01*
X296Y625D02*
X305Y625D01*
X517Y625D02*
X523Y625D01*
X535Y625D02*
X553Y625D01*
X742Y625D02*
X748Y625D01*
X760Y625D02*
X766Y625D01*
X768Y625D02*
X781Y625D01*
X1114Y625D02*
X1119Y625D01*
X1131Y625D02*
X1147Y625D01*
X1338Y625D02*
X1344Y625D01*
X1356Y625D02*
X1369Y625D01*
X1889Y625D02*
X1896Y625D01*
X0Y624D02*
X7Y624D01*
X296Y624D02*
X305Y624D01*
X517Y624D02*
X523Y624D01*
X535Y624D02*
X551Y624D01*
X742Y624D02*
X748Y624D01*
X760Y624D02*
X780Y624D01*
X1114Y624D02*
X1119Y624D01*
X1131Y624D02*
X1145Y624D01*
X1338Y624D02*
X1344Y624D01*
X1356Y624D02*
X1368Y624D01*
X1889Y624D02*
X1896Y624D01*
X0Y623D02*
X7Y623D01*
X296Y623D02*
X305Y623D01*
X517Y623D02*
X523Y623D01*
X535Y623D02*
X550Y623D01*
X742Y623D02*
X748Y623D01*
X760Y623D02*
X778Y623D01*
X1114Y623D02*
X1119Y623D01*
X1131Y623D02*
X1144Y623D01*
X1338Y623D02*
X1344Y623D01*
X1356Y623D02*
X1366Y623D01*
X1889Y623D02*
X1896Y623D01*
X0Y622D02*
X7Y622D01*
X517Y622D02*
X523Y622D01*
X535Y622D02*
X548Y622D01*
X742Y622D02*
X748Y622D01*
X760Y622D02*
X776Y622D01*
X1114Y622D02*
X1119Y622D01*
X1131Y622D02*
X1142Y622D01*
X1338Y622D02*
X1344Y622D01*
X1356Y622D02*
X1364Y622D01*
X1889Y622D02*
X1896Y622D01*
X0Y621D02*
X7Y621D01*
X517Y621D02*
X523Y621D01*
X535Y621D02*
X546Y621D01*
X742Y621D02*
X748Y621D01*
X760Y621D02*
X774Y621D01*
X1114Y621D02*
X1119Y621D01*
X1131Y621D02*
X1140Y621D01*
X1338Y621D02*
X1344Y621D01*
X1356Y621D02*
X1363Y621D01*
X1889Y621D02*
X1896Y621D01*
X0Y620D02*
X7Y620D01*
X517Y620D02*
X523Y620D01*
X535Y620D02*
X544Y620D01*
X742Y620D02*
X748Y620D01*
X760Y620D02*
X773Y620D01*
X1114Y620D02*
X1119Y620D01*
X1131Y620D02*
X1139Y620D01*
X1338Y620D02*
X1344Y620D01*
X1356Y620D02*
X1362Y620D01*
X1889Y620D02*
X1896Y620D01*
X0Y619D02*
X7Y619D01*
X517Y619D02*
X523Y619D01*
X535Y619D02*
X543Y619D01*
X742Y619D02*
X748Y619D01*
X760Y619D02*
X771Y619D01*
X1114Y619D02*
X1119Y619D01*
X1131Y619D02*
X1137Y619D01*
X1338Y619D02*
X1344Y619D01*
X1356Y619D02*
X1362Y619D01*
X1889Y619D02*
X1896Y619D01*
X0Y618D02*
X7Y618D01*
X517Y618D02*
X523Y618D01*
X535Y618D02*
X541Y618D01*
X742Y618D02*
X748Y618D01*
X760Y618D02*
X769Y618D01*
X1114Y618D02*
X1119Y618D01*
X1131Y618D02*
X1137Y618D01*
X1338Y618D02*
X1344Y618D01*
X1356Y618D02*
X1362Y618D01*
X1889Y618D02*
X1896Y618D01*
X0Y617D02*
X7Y617D01*
X517Y617D02*
X523Y617D01*
X535Y617D02*
X540Y617D01*
X742Y617D02*
X748Y617D01*
X760Y617D02*
X768Y617D01*
X1114Y617D02*
X1119Y617D01*
X1131Y617D02*
X1137Y617D01*
X1338Y617D02*
X1344Y617D01*
X1356Y617D02*
X1362Y617D01*
X1889Y617D02*
X1896Y617D01*
X0Y616D02*
X7Y616D01*
X517Y616D02*
X523Y616D01*
X535Y616D02*
X540Y616D01*
X742Y616D02*
X748Y616D01*
X760Y616D02*
X766Y616D01*
X1114Y616D02*
X1119Y616D01*
X1131Y616D02*
X1137Y616D01*
X1338Y616D02*
X1344Y616D01*
X1356Y616D02*
X1362Y616D01*
X1889Y616D02*
X1896Y616D01*
X0Y615D02*
X7Y615D01*
X517Y615D02*
X523Y615D01*
X535Y615D02*
X540Y615D01*
X742Y615D02*
X748Y615D01*
X760Y615D02*
X766Y615D01*
X1114Y615D02*
X1119Y615D01*
X1131Y615D02*
X1137Y615D01*
X1338Y615D02*
X1389Y615D01*
X1889Y615D02*
X1896Y615D01*
X0Y614D02*
X7Y614D01*
X517Y614D02*
X523Y614D01*
X535Y614D02*
X540Y614D01*
X742Y614D02*
X748Y614D01*
X760Y614D02*
X766Y614D01*
X1114Y614D02*
X1164Y614D01*
X1338Y614D02*
X1390Y614D01*
X1889Y614D02*
X1896Y614D01*
X0Y613D02*
X7Y613D01*
X517Y613D02*
X523Y613D01*
X534Y613D02*
X541Y613D01*
X742Y613D02*
X748Y613D01*
X760Y613D02*
X766Y613D01*
X1114Y613D02*
X1165Y613D01*
X1338Y613D02*
X1391Y613D01*
X1889Y613D02*
X1896Y613D01*
X0Y612D02*
X7Y612D01*
X517Y612D02*
X568Y612D01*
X742Y612D02*
X748Y612D01*
X760Y612D02*
X766Y612D01*
X1114Y612D02*
X1166Y612D01*
X1338Y612D02*
X1391Y612D01*
X1889Y612D02*
X1896Y612D01*
X0Y611D02*
X7Y611D01*
X517Y611D02*
X569Y611D01*
X742Y611D02*
X792Y611D01*
X1114Y611D02*
X1166Y611D01*
X1338Y611D02*
X1391Y611D01*
X1889Y611D02*
X1896Y611D01*
X0Y610D02*
X7Y610D01*
X517Y610D02*
X570Y610D01*
X742Y610D02*
X794Y610D01*
X1114Y610D02*
X1166Y610D01*
X1338Y610D02*
X1390Y610D01*
X1889Y610D02*
X1896Y610D01*
X0Y609D02*
X7Y609D01*
X517Y609D02*
X570Y609D01*
X742Y609D02*
X794Y609D01*
X1114Y609D02*
X1166Y609D01*
X1338Y609D02*
X1388Y609D01*
X1889Y609D02*
X1896Y609D01*
X0Y608D02*
X7Y608D01*
X517Y608D02*
X569Y608D01*
X742Y608D02*
X795Y608D01*
X1114Y608D02*
X1164Y608D01*
X1889Y608D02*
X1896Y608D01*
X0Y607D02*
X7Y607D01*
X517Y607D02*
X569Y607D01*
X742Y607D02*
X795Y607D01*
X1889Y607D02*
X1896Y607D01*
X0Y606D02*
X7Y606D01*
X517Y606D02*
X566Y606D01*
X742Y606D02*
X794Y606D01*
X1889Y606D02*
X1896Y606D01*
X0Y605D02*
X7Y605D01*
X742Y605D02*
X793Y605D01*
X1889Y605D02*
X1896Y605D01*
X0Y604D02*
X7Y604D01*
X1889Y604D02*
X1896Y604D01*
X0Y603D02*
X7Y603D01*
X1889Y603D02*
X1896Y603D01*
X0Y602D02*
X7Y602D01*
X1889Y602D02*
X1896Y602D01*
X0Y601D02*
X7Y601D01*
X1889Y601D02*
X1896Y601D01*
X0Y600D02*
X7Y600D01*
X1889Y600D02*
X1896Y600D01*
X0Y599D02*
X7Y599D01*
X1889Y599D02*
X1896Y599D01*
X0Y598D02*
X7Y598D01*
X1889Y598D02*
X1896Y598D01*
X0Y597D02*
X7Y597D01*
X1889Y597D02*
X1896Y597D01*
X0Y596D02*
X7Y596D01*
X339Y596D02*
X361Y596D01*
X1889Y596D02*
X1896Y596D01*
X0Y595D02*
X7Y595D01*
X339Y595D02*
X362Y595D01*
X1889Y595D02*
X1896Y595D01*
X0Y594D02*
X7Y594D01*
X339Y594D02*
X363Y594D01*
X1889Y594D02*
X1896Y594D01*
X0Y593D02*
X7Y593D01*
X339Y593D02*
X364Y593D01*
X1889Y593D02*
X1896Y593D01*
X0Y592D02*
X7Y592D01*
X339Y592D02*
X365Y592D01*
X1889Y592D02*
X1896Y592D01*
X0Y591D02*
X7Y591D01*
X339Y591D02*
X366Y591D01*
X1889Y591D02*
X1896Y591D01*
X0Y590D02*
X7Y590D01*
X339Y590D02*
X366Y590D01*
X1889Y590D02*
X1896Y590D01*
X0Y589D02*
X7Y589D01*
X339Y589D02*
X345Y589D01*
X359Y589D02*
X367Y589D01*
X1889Y589D02*
X1896Y589D01*
X0Y588D02*
X7Y588D01*
X339Y588D02*
X345Y588D01*
X360Y588D02*
X368Y588D01*
X1889Y588D02*
X1896Y588D01*
X0Y587D02*
X7Y587D01*
X339Y587D02*
X345Y587D01*
X361Y587D02*
X369Y587D01*
X1889Y587D02*
X1896Y587D01*
X0Y586D02*
X7Y586D01*
X339Y586D02*
X345Y586D01*
X362Y586D02*
X370Y586D01*
X1889Y586D02*
X1896Y586D01*
X0Y585D02*
X7Y585D01*
X339Y585D02*
X345Y585D01*
X363Y585D02*
X371Y585D01*
X1889Y585D02*
X1896Y585D01*
X0Y584D02*
X7Y584D01*
X89Y584D02*
X111Y584D01*
X134Y584D02*
X137Y584D01*
X339Y584D02*
X345Y584D01*
X363Y584D02*
X372Y584D01*
X1889Y584D02*
X1896Y584D01*
X0Y583D02*
X7Y583D01*
X88Y583D02*
X113Y583D01*
X133Y583D02*
X138Y583D01*
X339Y583D02*
X345Y583D01*
X364Y583D02*
X372Y583D01*
X1889Y583D02*
X1896Y583D01*
X0Y582D02*
X7Y582D01*
X87Y582D02*
X114Y582D01*
X133Y582D02*
X138Y582D01*
X339Y582D02*
X345Y582D01*
X365Y582D02*
X391Y582D01*
X1889Y582D02*
X1896Y582D01*
X0Y581D02*
X7Y581D01*
X87Y581D02*
X114Y581D01*
X132Y581D02*
X138Y581D01*
X339Y581D02*
X345Y581D01*
X366Y581D02*
X391Y581D01*
X1889Y581D02*
X1896Y581D01*
X0Y580D02*
X7Y580D01*
X86Y580D02*
X115Y580D01*
X132Y580D02*
X138Y580D01*
X339Y580D02*
X345Y580D01*
X367Y580D02*
X392Y580D01*
X1889Y580D02*
X1896Y580D01*
X0Y579D02*
X7Y579D01*
X86Y579D02*
X115Y579D01*
X132Y579D02*
X138Y579D01*
X339Y579D02*
X345Y579D01*
X368Y579D02*
X392Y579D01*
X1889Y579D02*
X1896Y579D01*
X0Y578D02*
X7Y578D01*
X86Y578D02*
X115Y578D01*
X132Y578D02*
X138Y578D01*
X339Y578D02*
X345Y578D01*
X369Y578D02*
X392Y578D01*
X1889Y578D02*
X1896Y578D01*
X0Y577D02*
X7Y577D01*
X86Y577D02*
X92Y577D01*
X109Y577D02*
X115Y577D01*
X132Y577D02*
X138Y577D01*
X339Y577D02*
X345Y577D01*
X369Y577D02*
X391Y577D01*
X1889Y577D02*
X1896Y577D01*
X0Y576D02*
X7Y576D01*
X86Y576D02*
X92Y576D01*
X109Y576D02*
X115Y576D01*
X132Y576D02*
X138Y576D01*
X339Y576D02*
X345Y576D01*
X371Y576D02*
X389Y576D01*
X1889Y576D02*
X1896Y576D01*
X0Y575D02*
X7Y575D01*
X86Y575D02*
X92Y575D01*
X109Y575D02*
X115Y575D01*
X132Y575D02*
X138Y575D01*
X339Y575D02*
X345Y575D01*
X1889Y575D02*
X1896Y575D01*
X0Y574D02*
X7Y574D01*
X86Y574D02*
X92Y574D01*
X109Y574D02*
X115Y574D01*
X132Y574D02*
X138Y574D01*
X339Y574D02*
X345Y574D01*
X1889Y574D02*
X1896Y574D01*
X0Y573D02*
X7Y573D01*
X86Y573D02*
X92Y573D01*
X109Y573D02*
X115Y573D01*
X132Y573D02*
X138Y573D01*
X339Y573D02*
X345Y573D01*
X1889Y573D02*
X1896Y573D01*
X0Y572D02*
X7Y572D01*
X86Y572D02*
X92Y572D01*
X109Y572D02*
X115Y572D01*
X132Y572D02*
X138Y572D01*
X339Y572D02*
X345Y572D01*
X596Y572D02*
X605Y572D01*
X696Y572D02*
X705Y572D01*
X1196Y572D02*
X1205Y572D01*
X1296Y572D02*
X1305Y572D01*
X1889Y572D02*
X1896Y572D01*
X0Y571D02*
X7Y571D01*
X86Y571D02*
X92Y571D01*
X109Y571D02*
X115Y571D01*
X132Y571D02*
X138Y571D01*
X339Y571D02*
X345Y571D01*
X596Y571D02*
X605Y571D01*
X696Y571D02*
X705Y571D01*
X1196Y571D02*
X1205Y571D01*
X1296Y571D02*
X1305Y571D01*
X1889Y571D02*
X1896Y571D01*
X0Y570D02*
X7Y570D01*
X86Y570D02*
X92Y570D01*
X109Y570D02*
X115Y570D01*
X132Y570D02*
X138Y570D01*
X339Y570D02*
X345Y570D01*
X596Y570D02*
X605Y570D01*
X696Y570D02*
X705Y570D01*
X1196Y570D02*
X1205Y570D01*
X1296Y570D02*
X1305Y570D01*
X1889Y570D02*
X1896Y570D01*
X0Y569D02*
X7Y569D01*
X86Y569D02*
X92Y569D01*
X109Y569D02*
X115Y569D01*
X132Y569D02*
X138Y569D01*
X339Y569D02*
X346Y569D01*
X596Y569D02*
X605Y569D01*
X696Y569D02*
X705Y569D01*
X1196Y569D02*
X1205Y569D01*
X1296Y569D02*
X1305Y569D01*
X1889Y569D02*
X1896Y569D01*
X0Y568D02*
X7Y568D01*
X86Y568D02*
X92Y568D01*
X109Y568D02*
X115Y568D01*
X132Y568D02*
X138Y568D01*
X339Y568D02*
X347Y568D01*
X596Y568D02*
X605Y568D01*
X696Y568D02*
X705Y568D01*
X1196Y568D02*
X1205Y568D01*
X1296Y568D02*
X1305Y568D01*
X1889Y568D02*
X1896Y568D01*
X0Y567D02*
X7Y567D01*
X86Y567D02*
X92Y567D01*
X109Y567D02*
X115Y567D01*
X132Y567D02*
X138Y567D01*
X339Y567D02*
X348Y567D01*
X596Y567D02*
X605Y567D01*
X696Y567D02*
X705Y567D01*
X1196Y567D02*
X1205Y567D01*
X1296Y567D02*
X1305Y567D01*
X1889Y567D02*
X1896Y567D01*
X0Y566D02*
X7Y566D01*
X86Y566D02*
X92Y566D01*
X109Y566D02*
X115Y566D01*
X132Y566D02*
X138Y566D01*
X339Y566D02*
X348Y566D01*
X596Y566D02*
X605Y566D01*
X696Y566D02*
X705Y566D01*
X1196Y566D02*
X1205Y566D01*
X1296Y566D02*
X1305Y566D01*
X1889Y566D02*
X1896Y566D01*
X0Y565D02*
X7Y565D01*
X86Y565D02*
X92Y565D01*
X109Y565D02*
X115Y565D01*
X132Y565D02*
X138Y565D01*
X339Y565D02*
X348Y565D01*
X596Y565D02*
X605Y565D01*
X696Y565D02*
X705Y565D01*
X1196Y565D02*
X1205Y565D01*
X1296Y565D02*
X1305Y565D01*
X1889Y565D02*
X1896Y565D01*
X0Y564D02*
X7Y564D01*
X86Y564D02*
X92Y564D01*
X109Y564D02*
X115Y564D01*
X132Y564D02*
X138Y564D01*
X340Y564D02*
X348Y564D01*
X596Y564D02*
X605Y564D01*
X696Y564D02*
X705Y564D01*
X1196Y564D02*
X1205Y564D01*
X1296Y564D02*
X1305Y564D01*
X1889Y564D02*
X1896Y564D01*
X0Y563D02*
X7Y563D01*
X86Y563D02*
X92Y563D01*
X109Y563D02*
X115Y563D01*
X132Y563D02*
X138Y563D01*
X341Y563D02*
X347Y563D01*
X596Y563D02*
X605Y563D01*
X696Y563D02*
X705Y563D01*
X1196Y563D02*
X1205Y563D01*
X1296Y563D02*
X1305Y563D01*
X1889Y563D02*
X1896Y563D01*
X0Y562D02*
X7Y562D01*
X86Y562D02*
X92Y562D01*
X109Y562D02*
X115Y562D01*
X132Y562D02*
X138Y562D01*
X596Y562D02*
X605Y562D01*
X696Y562D02*
X705Y562D01*
X1196Y562D02*
X1205Y562D01*
X1296Y562D02*
X1305Y562D01*
X1889Y562D02*
X1896Y562D01*
X0Y561D02*
X7Y561D01*
X86Y561D02*
X92Y561D01*
X109Y561D02*
X115Y561D01*
X132Y561D02*
X138Y561D01*
X596Y561D02*
X605Y561D01*
X696Y561D02*
X705Y561D01*
X1196Y561D02*
X1205Y561D01*
X1296Y561D02*
X1305Y561D01*
X1889Y561D02*
X1896Y561D01*
X0Y560D02*
X7Y560D01*
X86Y560D02*
X92Y560D01*
X109Y560D02*
X115Y560D01*
X132Y560D02*
X138Y560D01*
X596Y560D02*
X605Y560D01*
X696Y560D02*
X705Y560D01*
X1196Y560D02*
X1205Y560D01*
X1296Y560D02*
X1305Y560D01*
X1889Y560D02*
X1896Y560D01*
X0Y559D02*
X7Y559D01*
X86Y559D02*
X92Y559D01*
X109Y559D02*
X115Y559D01*
X132Y559D02*
X138Y559D01*
X596Y559D02*
X605Y559D01*
X696Y559D02*
X705Y559D01*
X1196Y559D02*
X1205Y559D01*
X1296Y559D02*
X1305Y559D01*
X1889Y559D02*
X1896Y559D01*
X0Y558D02*
X7Y558D01*
X86Y558D02*
X92Y558D01*
X109Y558D02*
X115Y558D01*
X132Y558D02*
X138Y558D01*
X596Y558D02*
X605Y558D01*
X696Y558D02*
X705Y558D01*
X1196Y558D02*
X1205Y558D01*
X1296Y558D02*
X1305Y558D01*
X1889Y558D02*
X1896Y558D01*
X0Y557D02*
X7Y557D01*
X86Y557D02*
X92Y557D01*
X109Y557D02*
X138Y557D01*
X596Y557D02*
X605Y557D01*
X696Y557D02*
X705Y557D01*
X1196Y557D02*
X1205Y557D01*
X1296Y557D02*
X1305Y557D01*
X1889Y557D02*
X1896Y557D01*
X0Y556D02*
X7Y556D01*
X86Y556D02*
X92Y556D01*
X109Y556D02*
X138Y556D01*
X596Y556D02*
X605Y556D01*
X696Y556D02*
X705Y556D01*
X1196Y556D02*
X1205Y556D01*
X1296Y556D02*
X1305Y556D01*
X1889Y556D02*
X1896Y556D01*
X0Y555D02*
X7Y555D01*
X86Y555D02*
X92Y555D01*
X110Y555D02*
X138Y555D01*
X596Y555D02*
X605Y555D01*
X696Y555D02*
X705Y555D01*
X1196Y555D02*
X1205Y555D01*
X1296Y555D02*
X1305Y555D01*
X1889Y555D02*
X1896Y555D01*
X0Y554D02*
X7Y554D01*
X86Y554D02*
X92Y554D01*
X110Y554D02*
X138Y554D01*
X596Y554D02*
X605Y554D01*
X696Y554D02*
X705Y554D01*
X1196Y554D02*
X1205Y554D01*
X1296Y554D02*
X1305Y554D01*
X1889Y554D02*
X1896Y554D01*
X0Y553D02*
X7Y553D01*
X86Y553D02*
X91Y553D01*
X111Y553D02*
X138Y553D01*
X596Y553D02*
X605Y553D01*
X696Y553D02*
X705Y553D01*
X1196Y553D02*
X1205Y553D01*
X1296Y553D02*
X1305Y553D01*
X1889Y553D02*
X1896Y553D01*
X0Y552D02*
X7Y552D01*
X87Y552D02*
X91Y552D01*
X112Y552D02*
X138Y552D01*
X596Y552D02*
X605Y552D01*
X696Y552D02*
X705Y552D01*
X1196Y552D02*
X1205Y552D01*
X1296Y552D02*
X1305Y552D01*
X1889Y552D02*
X1896Y552D01*
X0Y551D02*
X7Y551D01*
X88Y551D02*
X90Y551D01*
X114Y551D02*
X138Y551D01*
X596Y551D02*
X605Y551D01*
X696Y551D02*
X705Y551D01*
X1196Y551D02*
X1205Y551D01*
X1296Y551D02*
X1305Y551D01*
X1889Y551D02*
X1896Y551D01*
X0Y550D02*
X7Y550D01*
X596Y550D02*
X605Y550D01*
X696Y550D02*
X705Y550D01*
X1196Y550D02*
X1205Y550D01*
X1296Y550D02*
X1305Y550D01*
X1889Y550D02*
X1896Y550D01*
X0Y549D02*
X7Y549D01*
X596Y549D02*
X605Y549D01*
X696Y549D02*
X705Y549D01*
X1196Y549D02*
X1205Y549D01*
X1296Y549D02*
X1305Y549D01*
X1889Y549D02*
X1896Y549D01*
X0Y548D02*
X7Y548D01*
X596Y548D02*
X605Y548D01*
X696Y548D02*
X705Y548D01*
X1196Y548D02*
X1205Y548D01*
X1296Y548D02*
X1305Y548D01*
X1889Y548D02*
X1896Y548D01*
X0Y547D02*
X7Y547D01*
X596Y547D02*
X605Y547D01*
X696Y547D02*
X705Y547D01*
X1196Y547D02*
X1205Y547D01*
X1296Y547D02*
X1305Y547D01*
X1889Y547D02*
X1896Y547D01*
X0Y546D02*
X7Y546D01*
X346Y546D02*
X356Y546D01*
X387Y546D02*
X391Y546D01*
X596Y546D02*
X605Y546D01*
X696Y546D02*
X705Y546D01*
X1196Y546D02*
X1205Y546D01*
X1296Y546D02*
X1305Y546D01*
X1889Y546D02*
X1896Y546D01*
X0Y545D02*
X7Y545D01*
X344Y545D02*
X358Y545D01*
X385Y545D02*
X391Y545D01*
X596Y545D02*
X605Y545D01*
X696Y545D02*
X705Y545D01*
X1196Y545D02*
X1205Y545D01*
X1296Y545D02*
X1305Y545D01*
X1889Y545D02*
X1896Y545D01*
X0Y544D02*
X7Y544D01*
X343Y544D02*
X359Y544D01*
X384Y544D02*
X392Y544D01*
X596Y544D02*
X605Y544D01*
X696Y544D02*
X705Y544D01*
X1196Y544D02*
X1205Y544D01*
X1296Y544D02*
X1305Y544D01*
X1889Y544D02*
X1896Y544D01*
X0Y543D02*
X7Y543D01*
X342Y543D02*
X360Y543D01*
X382Y543D02*
X392Y543D01*
X596Y543D02*
X605Y543D01*
X696Y543D02*
X705Y543D01*
X1196Y543D02*
X1205Y543D01*
X1296Y543D02*
X1305Y543D01*
X1889Y543D02*
X1896Y543D01*
X0Y542D02*
X7Y542D01*
X341Y542D02*
X361Y542D01*
X380Y542D02*
X392Y542D01*
X596Y542D02*
X605Y542D01*
X696Y542D02*
X705Y542D01*
X1196Y542D02*
X1205Y542D01*
X1296Y542D02*
X1305Y542D01*
X1889Y542D02*
X1896Y542D01*
X0Y541D02*
X7Y541D01*
X340Y541D02*
X362Y541D01*
X379Y541D02*
X391Y541D01*
X596Y541D02*
X605Y541D01*
X696Y541D02*
X705Y541D01*
X1196Y541D02*
X1205Y541D01*
X1296Y541D02*
X1305Y541D01*
X1889Y541D02*
X1896Y541D01*
X0Y540D02*
X7Y540D01*
X340Y540D02*
X362Y540D01*
X377Y540D02*
X390Y540D01*
X1889Y540D02*
X1896Y540D01*
X0Y539D02*
X7Y539D01*
X340Y539D02*
X347Y539D01*
X355Y539D02*
X362Y539D01*
X375Y539D02*
X388Y539D01*
X1889Y539D02*
X1896Y539D01*
X0Y538D02*
X7Y538D01*
X339Y538D02*
X346Y538D01*
X356Y538D02*
X363Y538D01*
X373Y538D02*
X386Y538D01*
X1889Y538D02*
X1896Y538D01*
X0Y537D02*
X7Y537D01*
X339Y537D02*
X345Y537D01*
X357Y537D02*
X363Y537D01*
X372Y537D02*
X385Y537D01*
X1889Y537D02*
X1896Y537D01*
X0Y536D02*
X7Y536D01*
X339Y536D02*
X345Y536D01*
X357Y536D02*
X363Y536D01*
X370Y536D02*
X383Y536D01*
X1889Y536D02*
X1896Y536D01*
X0Y535D02*
X7Y535D01*
X339Y535D02*
X345Y535D01*
X357Y535D02*
X363Y535D01*
X368Y535D02*
X381Y535D01*
X1889Y535D02*
X1896Y535D01*
X0Y534D02*
X7Y534D01*
X339Y534D02*
X345Y534D01*
X357Y534D02*
X363Y534D01*
X367Y534D02*
X379Y534D01*
X1889Y534D02*
X1896Y534D01*
X0Y533D02*
X7Y533D01*
X339Y533D02*
X345Y533D01*
X357Y533D02*
X363Y533D01*
X365Y533D02*
X378Y533D01*
X1889Y533D02*
X1896Y533D01*
X0Y532D02*
X7Y532D01*
X339Y532D02*
X345Y532D01*
X357Y532D02*
X376Y532D01*
X1889Y532D02*
X1896Y532D01*
X0Y531D02*
X7Y531D01*
X87Y531D02*
X132Y531D01*
X339Y531D02*
X345Y531D01*
X357Y531D02*
X374Y531D01*
X1889Y531D02*
X1896Y531D01*
X0Y530D02*
X7Y530D01*
X86Y530D02*
X134Y530D01*
X339Y530D02*
X345Y530D01*
X357Y530D02*
X373Y530D01*
X1889Y530D02*
X1896Y530D01*
X0Y529D02*
X7Y529D01*
X86Y529D02*
X135Y529D01*
X339Y529D02*
X345Y529D01*
X357Y529D02*
X371Y529D01*
X1889Y529D02*
X1896Y529D01*
X0Y528D02*
X7Y528D01*
X86Y528D02*
X136Y528D01*
X339Y528D02*
X345Y528D01*
X357Y528D02*
X369Y528D01*
X1889Y528D02*
X1896Y528D01*
X0Y527D02*
X7Y527D01*
X86Y527D02*
X137Y527D01*
X339Y527D02*
X345Y527D01*
X357Y527D02*
X367Y527D01*
X1889Y527D02*
X1896Y527D01*
X0Y526D02*
X7Y526D01*
X87Y526D02*
X137Y526D01*
X339Y526D02*
X345Y526D01*
X357Y526D02*
X366Y526D01*
X1889Y526D02*
X1896Y526D01*
X0Y525D02*
X7Y525D01*
X88Y525D02*
X138Y525D01*
X339Y525D02*
X345Y525D01*
X357Y525D02*
X364Y525D01*
X1889Y525D02*
X1896Y525D01*
X0Y524D02*
X7Y524D01*
X131Y524D02*
X138Y524D01*
X339Y524D02*
X345Y524D01*
X357Y524D02*
X363Y524D01*
X1889Y524D02*
X1896Y524D01*
X0Y523D02*
X7Y523D01*
X132Y523D02*
X138Y523D01*
X339Y523D02*
X345Y523D01*
X357Y523D02*
X363Y523D01*
X1889Y523D02*
X1896Y523D01*
X0Y522D02*
X7Y522D01*
X132Y522D02*
X138Y522D01*
X339Y522D02*
X345Y522D01*
X357Y522D02*
X363Y522D01*
X1889Y522D02*
X1896Y522D01*
X0Y521D02*
X7Y521D01*
X132Y521D02*
X138Y521D01*
X339Y521D02*
X345Y521D01*
X357Y521D02*
X363Y521D01*
X1889Y521D02*
X1896Y521D01*
X0Y520D02*
X7Y520D01*
X132Y520D02*
X138Y520D01*
X339Y520D02*
X345Y520D01*
X357Y520D02*
X363Y520D01*
X1889Y520D02*
X1896Y520D01*
X0Y519D02*
X7Y519D01*
X132Y519D02*
X138Y519D01*
X339Y519D02*
X390Y519D01*
X1889Y519D02*
X1896Y519D01*
X0Y518D02*
X7Y518D01*
X132Y518D02*
X138Y518D01*
X339Y518D02*
X391Y518D01*
X1889Y518D02*
X1896Y518D01*
X0Y517D02*
X7Y517D01*
X132Y517D02*
X138Y517D01*
X339Y517D02*
X392Y517D01*
X1889Y517D02*
X1896Y517D01*
X0Y516D02*
X7Y516D01*
X132Y516D02*
X138Y516D01*
X339Y516D02*
X392Y516D01*
X1889Y516D02*
X1896Y516D01*
X0Y515D02*
X7Y515D01*
X132Y515D02*
X138Y515D01*
X339Y515D02*
X392Y515D01*
X1889Y515D02*
X1896Y515D01*
X0Y514D02*
X7Y514D01*
X132Y514D02*
X138Y514D01*
X339Y514D02*
X391Y514D01*
X1889Y514D02*
X1896Y514D01*
X0Y513D02*
X7Y513D01*
X132Y513D02*
X138Y513D01*
X339Y513D02*
X390Y513D01*
X1889Y513D02*
X1896Y513D01*
X0Y512D02*
X7Y512D01*
X131Y512D02*
X138Y512D01*
X1889Y512D02*
X1896Y512D01*
X0Y511D02*
X7Y511D01*
X117Y511D02*
X138Y511D01*
X1889Y511D02*
X1896Y511D01*
X0Y510D02*
X7Y510D01*
X116Y510D02*
X137Y510D01*
X1889Y510D02*
X1896Y510D01*
X0Y509D02*
X7Y509D01*
X115Y509D02*
X137Y509D01*
X1889Y509D02*
X1896Y509D01*
X0Y508D02*
X7Y508D01*
X115Y508D02*
X136Y508D01*
X1889Y508D02*
X1896Y508D01*
X0Y507D02*
X7Y507D01*
X115Y507D02*
X135Y507D01*
X1889Y507D02*
X1896Y507D01*
X0Y506D02*
X7Y506D01*
X116Y506D02*
X134Y506D01*
X1889Y506D02*
X1896Y506D01*
X0Y505D02*
X7Y505D01*
X117Y505D02*
X132Y505D01*
X1889Y505D02*
X1896Y505D01*
X0Y504D02*
X7Y504D01*
X1889Y504D02*
X1896Y504D01*
X0Y503D02*
X7Y503D01*
X1889Y503D02*
X1896Y503D01*
X0Y502D02*
X7Y502D01*
X1889Y502D02*
X1896Y502D01*
X0Y501D02*
X7Y501D01*
X1889Y501D02*
X1896Y501D01*
X0Y500D02*
X7Y500D01*
X1889Y500D02*
X1896Y500D01*
X0Y499D02*
X7Y499D01*
X1889Y499D02*
X1896Y499D01*
X0Y498D02*
X7Y498D01*
X1889Y498D02*
X1896Y498D01*
X0Y497D02*
X7Y497D01*
X1889Y497D02*
X1896Y497D01*
X0Y496D02*
X7Y496D01*
X1889Y496D02*
X1896Y496D01*
X0Y495D02*
X7Y495D01*
X1889Y495D02*
X1896Y495D01*
X0Y494D02*
X7Y494D01*
X1889Y494D02*
X1896Y494D01*
X0Y493D02*
X7Y493D01*
X1889Y493D02*
X1896Y493D01*
X0Y492D02*
X7Y492D01*
X916Y492D02*
X939Y492D01*
X964Y492D02*
X967Y492D01*
X1889Y492D02*
X1896Y492D01*
X0Y491D02*
X7Y491D01*
X914Y491D02*
X941Y491D01*
X963Y491D02*
X968Y491D01*
X1889Y491D02*
X1896Y491D01*
X0Y490D02*
X7Y490D01*
X913Y490D02*
X942Y490D01*
X963Y490D02*
X968Y490D01*
X1889Y490D02*
X1896Y490D01*
X0Y489D02*
X7Y489D01*
X912Y489D02*
X943Y489D01*
X963Y489D02*
X969Y489D01*
X1889Y489D02*
X1896Y489D01*
X0Y488D02*
X7Y488D01*
X912Y488D02*
X943Y488D01*
X963Y488D02*
X969Y488D01*
X1889Y488D02*
X1896Y488D01*
X0Y487D02*
X7Y487D01*
X912Y487D02*
X944Y487D01*
X963Y487D02*
X969Y487D01*
X986Y487D02*
X986Y487D01*
X1889Y487D02*
X1896Y487D01*
X0Y486D02*
X7Y486D01*
X911Y486D02*
X944Y486D01*
X963Y486D02*
X969Y486D01*
X984Y486D02*
X988Y486D01*
X1889Y486D02*
X1896Y486D01*
X0Y485D02*
X7Y485D01*
X911Y485D02*
X917Y485D01*
X938Y485D02*
X944Y485D01*
X963Y485D02*
X969Y485D01*
X983Y485D02*
X989Y485D01*
X1889Y485D02*
X1896Y485D01*
X0Y484D02*
X7Y484D01*
X911Y484D02*
X918Y484D01*
X938Y484D02*
X944Y484D01*
X963Y484D02*
X969Y484D01*
X983Y484D02*
X989Y484D01*
X1889Y484D02*
X1896Y484D01*
X0Y483D02*
X7Y483D01*
X912Y483D02*
X919Y483D01*
X939Y483D02*
X944Y483D01*
X963Y483D02*
X969Y483D01*
X983Y483D02*
X989Y483D01*
X1889Y483D02*
X1896Y483D01*
X0Y482D02*
X7Y482D01*
X912Y482D02*
X919Y482D01*
X939Y482D02*
X944Y482D01*
X963Y482D02*
X969Y482D01*
X983Y482D02*
X989Y482D01*
X1889Y482D02*
X1896Y482D01*
X0Y481D02*
X7Y481D01*
X912Y481D02*
X920Y481D01*
X940Y481D02*
X943Y481D01*
X963Y481D02*
X969Y481D01*
X983Y481D02*
X989Y481D01*
X1889Y481D02*
X1896Y481D01*
X0Y480D02*
X7Y480D01*
X913Y480D02*
X921Y480D01*
X963Y480D02*
X969Y480D01*
X983Y480D02*
X989Y480D01*
X1889Y480D02*
X1896Y480D01*
X0Y479D02*
X7Y479D01*
X914Y479D02*
X922Y479D01*
X963Y479D02*
X969Y479D01*
X983Y479D02*
X989Y479D01*
X1889Y479D02*
X1896Y479D01*
X0Y478D02*
X7Y478D01*
X915Y478D02*
X922Y478D01*
X963Y478D02*
X969Y478D01*
X983Y478D02*
X989Y478D01*
X1889Y478D02*
X1896Y478D01*
X0Y477D02*
X7Y477D01*
X915Y477D02*
X923Y477D01*
X963Y477D02*
X969Y477D01*
X983Y477D02*
X989Y477D01*
X1889Y477D02*
X1896Y477D01*
X0Y476D02*
X7Y476D01*
X916Y476D02*
X924Y476D01*
X963Y476D02*
X969Y476D01*
X983Y476D02*
X989Y476D01*
X1889Y476D02*
X1896Y476D01*
X0Y475D02*
X7Y475D01*
X917Y475D02*
X925Y475D01*
X963Y475D02*
X969Y475D01*
X983Y475D02*
X989Y475D01*
X1889Y475D02*
X1896Y475D01*
X0Y474D02*
X7Y474D01*
X918Y474D02*
X926Y474D01*
X963Y474D02*
X969Y474D01*
X983Y474D02*
X989Y474D01*
X1889Y474D02*
X1896Y474D01*
X0Y473D02*
X7Y473D01*
X918Y473D02*
X926Y473D01*
X963Y473D02*
X969Y473D01*
X983Y473D02*
X989Y473D01*
X1889Y473D02*
X1896Y473D01*
X0Y472D02*
X7Y472D01*
X296Y472D02*
X305Y472D01*
X919Y472D02*
X927Y472D01*
X963Y472D02*
X969Y472D01*
X983Y472D02*
X989Y472D01*
X1889Y472D02*
X1896Y472D01*
X0Y471D02*
X7Y471D01*
X296Y471D02*
X305Y471D01*
X920Y471D02*
X928Y471D01*
X963Y471D02*
X969Y471D01*
X983Y471D02*
X989Y471D01*
X1889Y471D02*
X1896Y471D01*
X0Y470D02*
X7Y470D01*
X296Y470D02*
X305Y470D01*
X921Y470D02*
X929Y470D01*
X963Y470D02*
X969Y470D01*
X983Y470D02*
X989Y470D01*
X1889Y470D02*
X1896Y470D01*
X0Y469D02*
X7Y469D01*
X296Y469D02*
X305Y469D01*
X922Y469D02*
X929Y469D01*
X963Y469D02*
X969Y469D01*
X983Y469D02*
X989Y469D01*
X1889Y469D02*
X1896Y469D01*
X0Y468D02*
X7Y468D01*
X296Y468D02*
X305Y468D01*
X922Y468D02*
X930Y468D01*
X963Y468D02*
X969Y468D01*
X983Y468D02*
X989Y468D01*
X1889Y468D02*
X1896Y468D01*
X0Y467D02*
X7Y467D01*
X296Y467D02*
X305Y467D01*
X923Y467D02*
X931Y467D01*
X963Y467D02*
X969Y467D01*
X983Y467D02*
X989Y467D01*
X1889Y467D02*
X1896Y467D01*
X0Y466D02*
X7Y466D01*
X296Y466D02*
X305Y466D01*
X924Y466D02*
X932Y466D01*
X963Y466D02*
X969Y466D01*
X983Y466D02*
X989Y466D01*
X1889Y466D02*
X1896Y466D01*
X0Y465D02*
X7Y465D01*
X296Y465D02*
X305Y465D01*
X925Y465D02*
X933Y465D01*
X963Y465D02*
X969Y465D01*
X983Y465D02*
X989Y465D01*
X1889Y465D02*
X1896Y465D01*
X0Y464D02*
X7Y464D01*
X296Y464D02*
X305Y464D01*
X925Y464D02*
X933Y464D01*
X963Y464D02*
X969Y464D01*
X983Y464D02*
X989Y464D01*
X1889Y464D02*
X1896Y464D01*
X0Y463D02*
X7Y463D01*
X296Y463D02*
X305Y463D01*
X926Y463D02*
X934Y463D01*
X963Y463D02*
X991Y463D01*
X1889Y463D02*
X1896Y463D01*
X0Y462D02*
X7Y462D01*
X296Y462D02*
X305Y462D01*
X927Y462D02*
X935Y462D01*
X963Y462D02*
X992Y462D01*
X1889Y462D02*
X1896Y462D01*
X0Y461D02*
X7Y461D01*
X296Y461D02*
X305Y461D01*
X928Y461D02*
X936Y461D01*
X963Y461D02*
X992Y461D01*
X1889Y461D02*
X1896Y461D01*
X0Y460D02*
X7Y460D01*
X296Y460D02*
X305Y460D01*
X929Y460D02*
X936Y460D01*
X963Y460D02*
X992Y460D01*
X1889Y460D02*
X1896Y460D01*
X0Y459D02*
X7Y459D01*
X296Y459D02*
X305Y459D01*
X929Y459D02*
X937Y459D01*
X963Y459D02*
X992Y459D01*
X1889Y459D02*
X1896Y459D01*
X0Y458D02*
X7Y458D01*
X296Y458D02*
X305Y458D01*
X930Y458D02*
X938Y458D01*
X963Y458D02*
X992Y458D01*
X1889Y458D02*
X1896Y458D01*
X0Y457D02*
X7Y457D01*
X296Y457D02*
X305Y457D01*
X931Y457D02*
X939Y457D01*
X963Y457D02*
X990Y457D01*
X1889Y457D02*
X1896Y457D01*
X0Y456D02*
X7Y456D01*
X296Y456D02*
X305Y456D01*
X932Y456D02*
X940Y456D01*
X983Y456D02*
X989Y456D01*
X1889Y456D02*
X1896Y456D01*
X0Y455D02*
X7Y455D01*
X296Y455D02*
X305Y455D01*
X932Y455D02*
X940Y455D01*
X983Y455D02*
X989Y455D01*
X1889Y455D02*
X1896Y455D01*
X0Y454D02*
X7Y454D01*
X296Y454D02*
X305Y454D01*
X933Y454D02*
X941Y454D01*
X983Y454D02*
X989Y454D01*
X1889Y454D02*
X1896Y454D01*
X0Y453D02*
X7Y453D01*
X296Y453D02*
X305Y453D01*
X934Y453D02*
X942Y453D01*
X983Y453D02*
X989Y453D01*
X1889Y453D02*
X1896Y453D01*
X0Y452D02*
X7Y452D01*
X296Y452D02*
X305Y452D01*
X935Y452D02*
X943Y452D01*
X983Y452D02*
X989Y452D01*
X1889Y452D02*
X1896Y452D01*
X0Y451D02*
X7Y451D01*
X296Y451D02*
X305Y451D01*
X912Y451D02*
X916Y451D01*
X936Y451D02*
X943Y451D01*
X983Y451D02*
X989Y451D01*
X1889Y451D02*
X1896Y451D01*
X0Y450D02*
X7Y450D01*
X296Y450D02*
X305Y450D01*
X912Y450D02*
X917Y450D01*
X936Y450D02*
X944Y450D01*
X983Y450D02*
X989Y450D01*
X1889Y450D02*
X1896Y450D01*
X0Y449D02*
X7Y449D01*
X296Y449D02*
X305Y449D01*
X911Y449D02*
X917Y449D01*
X937Y449D02*
X944Y449D01*
X983Y449D02*
X989Y449D01*
X1889Y449D02*
X1896Y449D01*
X0Y448D02*
X7Y448D01*
X296Y448D02*
X305Y448D01*
X911Y448D02*
X917Y448D01*
X938Y448D02*
X944Y448D01*
X983Y448D02*
X989Y448D01*
X1889Y448D02*
X1896Y448D01*
X0Y447D02*
X7Y447D01*
X296Y447D02*
X305Y447D01*
X911Y447D02*
X918Y447D01*
X938Y447D02*
X944Y447D01*
X983Y447D02*
X989Y447D01*
X1889Y447D02*
X1896Y447D01*
X0Y446D02*
X7Y446D01*
X296Y446D02*
X305Y446D01*
X912Y446D02*
X944Y446D01*
X983Y446D02*
X989Y446D01*
X1889Y446D02*
X1896Y446D01*
X0Y445D02*
X7Y445D01*
X296Y445D02*
X305Y445D01*
X912Y445D02*
X944Y445D01*
X983Y445D02*
X989Y445D01*
X1889Y445D02*
X1896Y445D01*
X0Y444D02*
X7Y444D01*
X296Y444D02*
X305Y444D01*
X913Y444D02*
X944Y444D01*
X983Y444D02*
X989Y444D01*
X1889Y444D02*
X1896Y444D01*
X0Y443D02*
X7Y443D01*
X296Y443D02*
X305Y443D01*
X913Y443D02*
X943Y443D01*
X983Y443D02*
X989Y443D01*
X1889Y443D02*
X1896Y443D01*
X0Y442D02*
X7Y442D01*
X296Y442D02*
X305Y442D01*
X914Y442D02*
X943Y442D01*
X983Y442D02*
X989Y442D01*
X1889Y442D02*
X1896Y442D01*
X0Y441D02*
X7Y441D01*
X296Y441D02*
X305Y441D01*
X915Y441D02*
X942Y441D01*
X984Y441D02*
X988Y441D01*
X1889Y441D02*
X1896Y441D01*
X0Y440D02*
X7Y440D01*
X917Y440D02*
X940Y440D01*
X985Y440D02*
X988Y440D01*
X1889Y440D02*
X1896Y440D01*
X0Y439D02*
X7Y439D01*
X1889Y439D02*
X1896Y439D01*
X0Y438D02*
X7Y438D01*
X1889Y438D02*
X1896Y438D01*
X0Y437D02*
X7Y437D01*
X1889Y437D02*
X1896Y437D01*
X0Y436D02*
X7Y436D01*
X1889Y436D02*
X1896Y436D01*
X0Y435D02*
X7Y435D01*
X1889Y435D02*
X1896Y435D01*
X0Y434D02*
X7Y434D01*
X1889Y434D02*
X1896Y434D01*
X0Y433D02*
X7Y433D01*
X1889Y433D02*
X1896Y433D01*
X0Y432D02*
X7Y432D01*
X1889Y432D02*
X1896Y432D01*
X0Y431D02*
X7Y431D01*
X1889Y431D02*
X1896Y431D01*
X0Y430D02*
X7Y430D01*
X1889Y430D02*
X1896Y430D01*
X0Y429D02*
X7Y429D01*
X1889Y429D02*
X1896Y429D01*
X0Y428D02*
X7Y428D01*
X1889Y428D02*
X1896Y428D01*
X0Y427D02*
X7Y427D01*
X1889Y427D02*
X1896Y427D01*
X0Y426D02*
X7Y426D01*
X1889Y426D02*
X1896Y426D01*
X0Y425D02*
X7Y425D01*
X1889Y425D02*
X1896Y425D01*
X0Y424D02*
X7Y424D01*
X1889Y424D02*
X1896Y424D01*
X0Y423D02*
X7Y423D01*
X1889Y423D02*
X1896Y423D01*
X0Y422D02*
X7Y422D01*
X1889Y422D02*
X1896Y422D01*
X0Y421D02*
X7Y421D01*
X1889Y421D02*
X1896Y421D01*
X0Y420D02*
X7Y420D01*
X1889Y420D02*
X1896Y420D01*
X0Y419D02*
X7Y419D01*
X1889Y419D02*
X1896Y419D01*
X0Y418D02*
X7Y418D01*
X1889Y418D02*
X1896Y418D01*
X0Y417D02*
X7Y417D01*
X1889Y417D02*
X1896Y417D01*
X0Y416D02*
X7Y416D01*
X1889Y416D02*
X1896Y416D01*
X0Y415D02*
X7Y415D01*
X1889Y415D02*
X1896Y415D01*
X0Y414D02*
X7Y414D01*
X1889Y414D02*
X1896Y414D01*
X0Y413D02*
X7Y413D01*
X1889Y413D02*
X1896Y413D01*
X0Y412D02*
X7Y412D01*
X1889Y412D02*
X1896Y412D01*
X0Y411D02*
X7Y411D01*
X1889Y411D02*
X1896Y411D01*
X0Y410D02*
X7Y410D01*
X1889Y410D02*
X1896Y410D01*
X0Y409D02*
X7Y409D01*
X1889Y409D02*
X1896Y409D01*
X0Y408D02*
X7Y408D01*
X1889Y408D02*
X1896Y408D01*
X0Y407D02*
X7Y407D01*
X1889Y407D02*
X1896Y407D01*
X0Y406D02*
X7Y406D01*
X1889Y406D02*
X1896Y406D01*
X0Y405D02*
X7Y405D01*
X1889Y405D02*
X1896Y405D01*
X0Y404D02*
X7Y404D01*
X1889Y404D02*
X1896Y404D01*
X0Y403D02*
X7Y403D01*
X1889Y403D02*
X1896Y403D01*
X0Y402D02*
X7Y402D01*
X1889Y402D02*
X1896Y402D01*
X0Y401D02*
X7Y401D01*
X1889Y401D02*
X1896Y401D01*
X0Y400D02*
X7Y400D01*
X1889Y400D02*
X1896Y400D01*
X0Y399D02*
X7Y399D01*
X1889Y399D02*
X1896Y399D01*
X0Y398D02*
X7Y398D01*
X1889Y398D02*
X1896Y398D01*
X0Y397D02*
X7Y397D01*
X1889Y397D02*
X1896Y397D01*
X0Y396D02*
X7Y396D01*
X1889Y396D02*
X1896Y396D01*
X0Y395D02*
X7Y395D01*
X1889Y395D02*
X1896Y395D01*
X0Y394D02*
X7Y394D01*
X1889Y394D02*
X1896Y394D01*
X0Y393D02*
X7Y393D01*
X1889Y393D02*
X1896Y393D01*
X0Y392D02*
X7Y392D01*
X1889Y392D02*
X1896Y392D01*
X0Y391D02*
X7Y391D01*
X1889Y391D02*
X1896Y391D01*
X0Y390D02*
X7Y390D01*
X1889Y390D02*
X1896Y390D01*
X0Y389D02*
X7Y389D01*
X1889Y389D02*
X1896Y389D01*
X0Y388D02*
X7Y388D01*
X1889Y388D02*
X1896Y388D01*
X0Y387D02*
X7Y387D01*
X1889Y387D02*
X1896Y387D01*
X0Y386D02*
X7Y386D01*
X1889Y386D02*
X1896Y386D01*
X0Y385D02*
X7Y385D01*
X1889Y385D02*
X1896Y385D01*
X0Y384D02*
X7Y384D01*
X1889Y384D02*
X1896Y384D01*
X0Y383D02*
X7Y383D01*
X1889Y383D02*
X1896Y383D01*
X0Y382D02*
X7Y382D01*
X1889Y382D02*
X1896Y382D01*
X0Y381D02*
X7Y381D01*
X1889Y381D02*
X1896Y381D01*
X0Y380D02*
X7Y380D01*
X1889Y380D02*
X1896Y380D01*
X0Y379D02*
X7Y379D01*
X1889Y379D02*
X1896Y379D01*
X0Y378D02*
X7Y378D01*
X1889Y378D02*
X1896Y378D01*
X0Y377D02*
X7Y377D01*
X1889Y377D02*
X1896Y377D01*
X0Y376D02*
X7Y376D01*
X1889Y376D02*
X1896Y376D01*
X0Y375D02*
X7Y375D01*
X1889Y375D02*
X1896Y375D01*
X0Y374D02*
X7Y374D01*
X1889Y374D02*
X1896Y374D01*
X0Y373D02*
X7Y373D01*
X1889Y373D02*
X1896Y373D01*
X0Y372D02*
X7Y372D01*
X1889Y372D02*
X1896Y372D01*
X0Y371D02*
X7Y371D01*
X1889Y371D02*
X1896Y371D01*
X0Y370D02*
X7Y370D01*
X1889Y370D02*
X1896Y370D01*
X0Y369D02*
X7Y369D01*
X1889Y369D02*
X1896Y369D01*
X0Y368D02*
X7Y368D01*
X1889Y368D02*
X1896Y368D01*
X0Y367D02*
X7Y367D01*
X1889Y367D02*
X1896Y367D01*
X0Y366D02*
X7Y366D01*
X1889Y366D02*
X1896Y366D01*
X0Y365D02*
X7Y365D01*
X1889Y365D02*
X1896Y365D01*
X0Y364D02*
X7Y364D01*
X1889Y364D02*
X1896Y364D01*
X0Y363D02*
X7Y363D01*
X1889Y363D02*
X1896Y363D01*
X0Y362D02*
X7Y362D01*
X1889Y362D02*
X1896Y362D01*
X0Y361D02*
X7Y361D01*
X1889Y361D02*
X1896Y361D01*
X0Y360D02*
X7Y360D01*
X1889Y360D02*
X1896Y360D01*
X0Y359D02*
X7Y359D01*
X1889Y359D02*
X1896Y359D01*
X0Y358D02*
X7Y358D01*
X1889Y358D02*
X1896Y358D01*
X0Y357D02*
X7Y357D01*
X1889Y357D02*
X1896Y357D01*
X0Y356D02*
X7Y356D01*
X1889Y356D02*
X1896Y356D01*
X0Y355D02*
X7Y355D01*
X1889Y355D02*
X1896Y355D01*
X0Y354D02*
X7Y354D01*
X1889Y354D02*
X1896Y354D01*
X0Y353D02*
X7Y353D01*
X1889Y353D02*
X1896Y353D01*
X0Y352D02*
X7Y352D01*
X1889Y352D02*
X1896Y352D01*
X0Y351D02*
X7Y351D01*
X1889Y351D02*
X1896Y351D01*
X0Y350D02*
X7Y350D01*
X1889Y350D02*
X1896Y350D01*
X0Y349D02*
X7Y349D01*
X1889Y349D02*
X1896Y349D01*
X0Y348D02*
X7Y348D01*
X1889Y348D02*
X1896Y348D01*
X0Y347D02*
X7Y347D01*
X1889Y347D02*
X1896Y347D01*
X0Y346D02*
X7Y346D01*
X1889Y346D02*
X1896Y346D01*
X0Y345D02*
X7Y345D01*
X1889Y345D02*
X1896Y345D01*
X0Y344D02*
X7Y344D01*
X1889Y344D02*
X1896Y344D01*
X0Y343D02*
X7Y343D01*
X1889Y343D02*
X1896Y343D01*
X0Y342D02*
X7Y342D01*
X1889Y342D02*
X1896Y342D01*
X0Y341D02*
X7Y341D01*
X1889Y341D02*
X1896Y341D01*
X0Y340D02*
X7Y340D01*
X1889Y340D02*
X1896Y340D01*
X0Y339D02*
X7Y339D01*
X1889Y339D02*
X1896Y339D01*
X0Y338D02*
X7Y338D01*
X1889Y338D02*
X1896Y338D01*
X0Y337D02*
X7Y337D01*
X1889Y337D02*
X1896Y337D01*
X0Y336D02*
X7Y336D01*
X1889Y336D02*
X1896Y336D01*
X0Y335D02*
X7Y335D01*
X1889Y335D02*
X1896Y335D01*
X0Y334D02*
X7Y334D01*
X1889Y334D02*
X1896Y334D01*
X0Y333D02*
X7Y333D01*
X1889Y333D02*
X1896Y333D01*
X0Y332D02*
X7Y332D01*
X1889Y332D02*
X1896Y332D01*
X0Y331D02*
X7Y331D01*
X1889Y331D02*
X1896Y331D01*
X0Y330D02*
X7Y330D01*
X1889Y330D02*
X1896Y330D01*
X0Y329D02*
X7Y329D01*
X1889Y329D02*
X1896Y329D01*
X0Y328D02*
X7Y328D01*
X1889Y328D02*
X1896Y328D01*
X0Y327D02*
X7Y327D01*
X1889Y327D02*
X1896Y327D01*
X0Y326D02*
X7Y326D01*
X1889Y326D02*
X1896Y326D01*
X0Y325D02*
X7Y325D01*
X1889Y325D02*
X1896Y325D01*
X0Y324D02*
X7Y324D01*
X1889Y324D02*
X1896Y324D01*
X0Y323D02*
X7Y323D01*
X1889Y323D02*
X1896Y323D01*
X0Y322D02*
X7Y322D01*
X1889Y322D02*
X1896Y322D01*
X0Y321D02*
X7Y321D01*
X1889Y321D02*
X1896Y321D01*
X0Y320D02*
X7Y320D01*
X1889Y320D02*
X1896Y320D01*
X0Y319D02*
X7Y319D01*
X1889Y319D02*
X1896Y319D01*
X0Y318D02*
X7Y318D01*
X1889Y318D02*
X1896Y318D01*
X0Y317D02*
X7Y317D01*
X1889Y317D02*
X1896Y317D01*
X0Y316D02*
X7Y316D01*
X1889Y316D02*
X1896Y316D01*
X0Y315D02*
X7Y315D01*
X1889Y315D02*
X1896Y315D01*
X0Y314D02*
X7Y314D01*
X1889Y314D02*
X1896Y314D01*
X0Y313D02*
X7Y313D01*
X1889Y313D02*
X1896Y313D01*
X0Y312D02*
X7Y312D01*
X1889Y312D02*
X1896Y312D01*
X0Y311D02*
X7Y311D01*
X1889Y311D02*
X1896Y311D01*
X0Y310D02*
X7Y310D01*
X1889Y310D02*
X1896Y310D01*
X0Y309D02*
X7Y309D01*
X1889Y309D02*
X1896Y309D01*
X0Y308D02*
X7Y308D01*
X1889Y308D02*
X1896Y308D01*
X0Y307D02*
X7Y307D01*
X1889Y307D02*
X1896Y307D01*
X0Y306D02*
X7Y306D01*
X1889Y306D02*
X1896Y306D01*
X0Y305D02*
X7Y305D01*
X1889Y305D02*
X1896Y305D01*
X0Y304D02*
X7Y304D01*
X1889Y304D02*
X1896Y304D01*
X0Y303D02*
X7Y303D01*
X1889Y303D02*
X1896Y303D01*
X0Y302D02*
X7Y302D01*
X1889Y302D02*
X1896Y302D01*
X0Y301D02*
X7Y301D01*
X1889Y301D02*
X1896Y301D01*
X0Y300D02*
X7Y300D01*
X1889Y300D02*
X1896Y300D01*
X0Y299D02*
X7Y299D01*
X1889Y299D02*
X1896Y299D01*
X0Y298D02*
X7Y298D01*
X1889Y298D02*
X1896Y298D01*
X0Y297D02*
X7Y297D01*
X1889Y297D02*
X1896Y297D01*
X0Y296D02*
X7Y296D01*
X1889Y296D02*
X1896Y296D01*
X0Y295D02*
X7Y295D01*
X1889Y295D02*
X1896Y295D01*
X0Y294D02*
X7Y294D01*
X1889Y294D02*
X1896Y294D01*
X0Y293D02*
X7Y293D01*
X1889Y293D02*
X1896Y293D01*
X0Y292D02*
X7Y292D01*
X1889Y292D02*
X1896Y292D01*
X0Y291D02*
X7Y291D01*
X1889Y291D02*
X1896Y291D01*
X0Y290D02*
X7Y290D01*
X1889Y290D02*
X1896Y290D01*
X0Y289D02*
X7Y289D01*
X1889Y289D02*
X1896Y289D01*
X0Y288D02*
X7Y288D01*
X1889Y288D02*
X1896Y288D01*
X0Y287D02*
X7Y287D01*
X1889Y287D02*
X1896Y287D01*
X0Y286D02*
X7Y286D01*
X1889Y286D02*
X1896Y286D01*
X0Y285D02*
X7Y285D01*
X1889Y285D02*
X1896Y285D01*
X0Y284D02*
X7Y284D01*
X1889Y284D02*
X1896Y284D01*
X0Y283D02*
X7Y283D01*
X1889Y283D02*
X1896Y283D01*
X0Y282D02*
X7Y282D01*
X1889Y282D02*
X1896Y282D01*
X0Y281D02*
X7Y281D01*
X1889Y281D02*
X1896Y281D01*
X0Y280D02*
X7Y280D01*
X1889Y280D02*
X1896Y280D01*
X0Y279D02*
X7Y279D01*
X1889Y279D02*
X1896Y279D01*
X0Y278D02*
X7Y278D01*
X1889Y278D02*
X1896Y278D01*
X0Y277D02*
X7Y277D01*
X1889Y277D02*
X1896Y277D01*
X0Y276D02*
X7Y276D01*
X1889Y276D02*
X1896Y276D01*
X0Y275D02*
X7Y275D01*
X1889Y275D02*
X1896Y275D01*
X0Y274D02*
X7Y274D01*
X1889Y274D02*
X1896Y274D01*
X0Y273D02*
X7Y273D01*
X1889Y273D02*
X1896Y273D01*
X0Y272D02*
X7Y272D01*
X1889Y272D02*
X1896Y272D01*
X0Y271D02*
X7Y271D01*
X1889Y271D02*
X1896Y271D01*
X0Y270D02*
X7Y270D01*
X1889Y270D02*
X1896Y270D01*
X0Y269D02*
X7Y269D01*
X1889Y269D02*
X1896Y269D01*
X0Y268D02*
X7Y268D01*
X1889Y268D02*
X1896Y268D01*
X0Y267D02*
X7Y267D01*
X1889Y267D02*
X1896Y267D01*
X0Y266D02*
X7Y266D01*
X1889Y266D02*
X1896Y266D01*
X0Y265D02*
X7Y265D01*
X1889Y265D02*
X1896Y265D01*
X0Y264D02*
X7Y264D01*
X1889Y264D02*
X1896Y264D01*
X0Y263D02*
X7Y263D01*
X1889Y263D02*
X1896Y263D01*
X0Y262D02*
X7Y262D01*
X1889Y262D02*
X1896Y262D01*
X0Y261D02*
X7Y261D01*
X1889Y261D02*
X1896Y261D01*
X0Y260D02*
X7Y260D01*
X1889Y260D02*
X1896Y260D01*
X0Y259D02*
X7Y259D01*
X1889Y259D02*
X1896Y259D01*
X0Y258D02*
X7Y258D01*
X1889Y258D02*
X1896Y258D01*
X0Y257D02*
X7Y257D01*
X1889Y257D02*
X1896Y257D01*
X0Y256D02*
X7Y256D01*
X1889Y256D02*
X1896Y256D01*
X0Y255D02*
X7Y255D01*
X1889Y255D02*
X1896Y255D01*
X0Y254D02*
X7Y254D01*
X1889Y254D02*
X1896Y254D01*
X0Y253D02*
X7Y253D01*
X1889Y253D02*
X1896Y253D01*
X0Y252D02*
X7Y252D01*
X1889Y252D02*
X1896Y252D01*
X0Y251D02*
X7Y251D01*
X1889Y251D02*
X1896Y251D01*
X0Y250D02*
X7Y250D01*
X1889Y250D02*
X1896Y250D01*
X0Y249D02*
X7Y249D01*
X1889Y249D02*
X1896Y249D01*
X0Y248D02*
X7Y248D01*
X1889Y248D02*
X1896Y248D01*
X0Y247D02*
X7Y247D01*
X1889Y247D02*
X1896Y247D01*
X0Y246D02*
X7Y246D01*
X1889Y246D02*
X1896Y246D01*
X0Y245D02*
X7Y245D01*
X1889Y245D02*
X1896Y245D01*
X0Y244D02*
X7Y244D01*
X1889Y244D02*
X1896Y244D01*
X0Y243D02*
X7Y243D01*
X1889Y243D02*
X1896Y243D01*
X0Y242D02*
X7Y242D01*
X1889Y242D02*
X1896Y242D01*
X0Y241D02*
X7Y241D01*
X1889Y241D02*
X1896Y241D01*
X0Y240D02*
X7Y240D01*
X1889Y240D02*
X1896Y240D01*
X0Y239D02*
X7Y239D01*
X1889Y239D02*
X1896Y239D01*
X0Y238D02*
X7Y238D01*
X1889Y238D02*
X1896Y238D01*
X0Y237D02*
X7Y237D01*
X1889Y237D02*
X1896Y237D01*
X0Y236D02*
X7Y236D01*
X1889Y236D02*
X1896Y236D01*
X0Y235D02*
X7Y235D01*
X1889Y235D02*
X1896Y235D01*
X0Y234D02*
X7Y234D01*
X1889Y234D02*
X1896Y234D01*
X0Y233D02*
X7Y233D01*
X1889Y233D02*
X1896Y233D01*
X0Y232D02*
X7Y232D01*
X1889Y232D02*
X1896Y232D01*
X0Y231D02*
X7Y231D01*
X1889Y231D02*
X1896Y231D01*
X0Y230D02*
X7Y230D01*
X1889Y230D02*
X1896Y230D01*
X0Y229D02*
X7Y229D01*
X1889Y229D02*
X1896Y229D01*
X0Y228D02*
X7Y228D01*
X1889Y228D02*
X1896Y228D01*
X0Y227D02*
X7Y227D01*
X1889Y227D02*
X1896Y227D01*
X0Y226D02*
X7Y226D01*
X1889Y226D02*
X1896Y226D01*
X0Y225D02*
X7Y225D01*
X1889Y225D02*
X1896Y225D01*
X0Y224D02*
X7Y224D01*
X1889Y224D02*
X1896Y224D01*
X0Y223D02*
X7Y223D01*
X1889Y223D02*
X1896Y223D01*
X0Y222D02*
X7Y222D01*
X1889Y222D02*
X1896Y222D01*
X0Y221D02*
X7Y221D01*
X1889Y221D02*
X1896Y221D01*
X0Y220D02*
X7Y220D01*
X1889Y220D02*
X1896Y220D01*
X0Y219D02*
X7Y219D01*
X1889Y219D02*
X1896Y219D01*
X0Y218D02*
X7Y218D01*
X1889Y218D02*
X1896Y218D01*
X0Y217D02*
X7Y217D01*
X1889Y217D02*
X1896Y217D01*
X0Y216D02*
X7Y216D01*
X1889Y216D02*
X1896Y216D01*
X0Y215D02*
X7Y215D01*
X1889Y215D02*
X1896Y215D01*
X0Y214D02*
X7Y214D01*
X1889Y214D02*
X1896Y214D01*
X0Y213D02*
X7Y213D01*
X1889Y213D02*
X1896Y213D01*
X0Y212D02*
X7Y212D01*
X1889Y212D02*
X1896Y212D01*
X0Y211D02*
X7Y211D01*
X1889Y211D02*
X1896Y211D01*
X0Y210D02*
X7Y210D01*
X1889Y210D02*
X1896Y210D01*
X0Y209D02*
X7Y209D01*
X1889Y209D02*
X1896Y209D01*
X0Y208D02*
X7Y208D01*
X1889Y208D02*
X1896Y208D01*
X0Y207D02*
X7Y207D01*
X1889Y207D02*
X1896Y207D01*
X0Y206D02*
X7Y206D01*
X1889Y206D02*
X1896Y206D01*
X0Y205D02*
X7Y205D01*
X1889Y205D02*
X1896Y205D01*
X0Y204D02*
X7Y204D01*
X1889Y204D02*
X1896Y204D01*
X0Y203D02*
X7Y203D01*
X1889Y203D02*
X1896Y203D01*
X0Y202D02*
X7Y202D01*
X1889Y202D02*
X1896Y202D01*
X0Y201D02*
X7Y201D01*
X1889Y201D02*
X1896Y201D01*
X0Y200D02*
X7Y200D01*
X1889Y200D02*
X1896Y200D01*
X0Y199D02*
X7Y199D01*
X1889Y199D02*
X1896Y199D01*
X0Y198D02*
X7Y198D01*
X1889Y198D02*
X1896Y198D01*
X0Y197D02*
X7Y197D01*
X1889Y197D02*
X1896Y197D01*
X0Y196D02*
X7Y196D01*
X1889Y196D02*
X1896Y196D01*
X0Y195D02*
X7Y195D01*
X1889Y195D02*
X1896Y195D01*
X0Y194D02*
X7Y194D01*
X1889Y194D02*
X1896Y194D01*
X0Y193D02*
X7Y193D01*
X1889Y193D02*
X1896Y193D01*
X0Y192D02*
X7Y192D01*
X1889Y192D02*
X1896Y192D01*
X0Y191D02*
X7Y191D01*
X1889Y191D02*
X1896Y191D01*
X0Y190D02*
X7Y190D01*
X1889Y190D02*
X1896Y190D01*
X0Y189D02*
X7Y189D01*
X1889Y189D02*
X1896Y189D01*
X0Y188D02*
X7Y188D01*
X1889Y188D02*
X1896Y188D01*
X0Y187D02*
X7Y187D01*
X1889Y187D02*
X1896Y187D01*
X0Y186D02*
X7Y186D01*
X1889Y186D02*
X1896Y186D01*
X0Y185D02*
X7Y185D01*
X1889Y185D02*
X1896Y185D01*
X0Y184D02*
X7Y184D01*
X1889Y184D02*
X1896Y184D01*
X0Y183D02*
X7Y183D01*
X1889Y183D02*
X1896Y183D01*
X0Y182D02*
X7Y182D01*
X1889Y182D02*
X1896Y182D01*
X0Y181D02*
X7Y181D01*
X1889Y181D02*
X1896Y181D01*
X0Y180D02*
X7Y180D01*
X1889Y180D02*
X1896Y180D01*
X0Y179D02*
X7Y179D01*
X1889Y179D02*
X1896Y179D01*
X0Y178D02*
X7Y178D01*
X1889Y178D02*
X1896Y178D01*
X0Y177D02*
X7Y177D01*
X1889Y177D02*
X1896Y177D01*
X0Y176D02*
X7Y176D01*
X1889Y176D02*
X1896Y176D01*
X0Y175D02*
X7Y175D01*
X1889Y175D02*
X1896Y175D01*
X0Y174D02*
X7Y174D01*
X1889Y174D02*
X1896Y174D01*
X0Y173D02*
X7Y173D01*
X1889Y173D02*
X1896Y173D01*
X0Y172D02*
X7Y172D01*
X1889Y172D02*
X1896Y172D01*
X0Y171D02*
X7Y171D01*
X1889Y171D02*
X1896Y171D01*
X0Y170D02*
X7Y170D01*
X1889Y170D02*
X1896Y170D01*
X0Y169D02*
X7Y169D01*
X1889Y169D02*
X1896Y169D01*
X0Y168D02*
X7Y168D01*
X1889Y168D02*
X1896Y168D01*
X0Y167D02*
X7Y167D01*
X1889Y167D02*
X1896Y167D01*
X0Y166D02*
X7Y166D01*
X1889Y166D02*
X1896Y166D01*
X0Y165D02*
X7Y165D01*
X1889Y165D02*
X1896Y165D01*
X0Y164D02*
X7Y164D01*
X1889Y164D02*
X1896Y164D01*
X0Y163D02*
X7Y163D01*
X1889Y163D02*
X1896Y163D01*
X0Y162D02*
X7Y162D01*
X1889Y162D02*
X1896Y162D01*
X0Y161D02*
X7Y161D01*
X1889Y161D02*
X1896Y161D01*
X0Y160D02*
X7Y160D01*
X1889Y160D02*
X1896Y160D01*
X0Y159D02*
X7Y159D01*
X1889Y159D02*
X1896Y159D01*
X0Y158D02*
X7Y158D01*
X1889Y158D02*
X1896Y158D01*
X0Y157D02*
X7Y157D01*
X1889Y157D02*
X1896Y157D01*
X0Y156D02*
X7Y156D01*
X1889Y156D02*
X1896Y156D01*
X0Y155D02*
X7Y155D01*
X1889Y155D02*
X1896Y155D01*
X0Y154D02*
X7Y154D01*
X1889Y154D02*
X1896Y154D01*
X0Y153D02*
X7Y153D01*
X1889Y153D02*
X1896Y153D01*
X0Y152D02*
X7Y152D01*
X1889Y152D02*
X1896Y152D01*
X0Y151D02*
X7Y151D01*
X1889Y151D02*
X1896Y151D01*
X0Y150D02*
X7Y150D01*
X1889Y150D02*
X1896Y150D01*
X0Y149D02*
X7Y149D01*
X1889Y149D02*
X1896Y149D01*
X0Y148D02*
X7Y148D01*
X1889Y148D02*
X1896Y148D01*
X0Y147D02*
X7Y147D01*
X1889Y147D02*
X1896Y147D01*
X0Y146D02*
X7Y146D01*
X1889Y146D02*
X1896Y146D01*
X0Y145D02*
X7Y145D01*
X1889Y145D02*
X1896Y145D01*
X0Y144D02*
X7Y144D01*
X1889Y144D02*
X1896Y144D01*
X0Y143D02*
X7Y143D01*
X1889Y143D02*
X1896Y143D01*
X0Y142D02*
X7Y142D01*
X1889Y142D02*
X1896Y142D01*
X0Y141D02*
X7Y141D01*
X1889Y141D02*
X1896Y141D01*
X0Y140D02*
X7Y140D01*
X767Y140D02*
X785Y140D01*
X1889Y140D02*
X1896Y140D01*
X0Y139D02*
X7Y139D01*
X765Y139D02*
X787Y139D01*
X1889Y139D02*
X1896Y139D01*
X0Y138D02*
X7Y138D01*
X764Y138D02*
X787Y138D01*
X1889Y138D02*
X1896Y138D01*
X0Y137D02*
X7Y137D01*
X764Y137D02*
X788Y137D01*
X1889Y137D02*
X1896Y137D01*
X0Y136D02*
X7Y136D01*
X764Y136D02*
X788Y136D01*
X1889Y136D02*
X1896Y136D01*
X0Y135D02*
X7Y135D01*
X765Y135D02*
X788Y135D01*
X1889Y135D02*
X1896Y135D01*
X0Y134D02*
X7Y134D01*
X766Y134D02*
X788Y134D01*
X1889Y134D02*
X1896Y134D01*
X0Y133D02*
X7Y133D01*
X782Y133D02*
X788Y133D01*
X1889Y133D02*
X1896Y133D01*
X0Y132D02*
X7Y132D01*
X782Y132D02*
X788Y132D01*
X1889Y132D02*
X1896Y132D01*
X0Y131D02*
X7Y131D01*
X782Y131D02*
X788Y131D01*
X1889Y131D02*
X1896Y131D01*
X0Y130D02*
X7Y130D01*
X782Y130D02*
X788Y130D01*
X1889Y130D02*
X1896Y130D01*
X0Y129D02*
X7Y129D01*
X782Y129D02*
X788Y129D01*
X1889Y129D02*
X1896Y129D01*
X0Y128D02*
X7Y128D01*
X782Y128D02*
X788Y128D01*
X1889Y128D02*
X1896Y128D01*
X0Y127D02*
X7Y127D01*
X782Y127D02*
X788Y127D01*
X1889Y127D02*
X1896Y127D01*
X0Y126D02*
X7Y126D01*
X735Y126D02*
X788Y126D01*
X1889Y126D02*
X1896Y126D01*
X0Y125D02*
X7Y125D01*
X735Y125D02*
X788Y125D01*
X1889Y125D02*
X1896Y125D01*
X0Y124D02*
X7Y124D01*
X735Y124D02*
X788Y124D01*
X1889Y124D02*
X1896Y124D01*
X0Y123D02*
X7Y123D01*
X735Y123D02*
X788Y123D01*
X1889Y123D02*
X1896Y123D01*
X0Y122D02*
X7Y122D01*
X735Y122D02*
X788Y122D01*
X1889Y122D02*
X1896Y122D01*
X0Y121D02*
X7Y121D01*
X735Y121D02*
X788Y121D01*
X1889Y121D02*
X1896Y121D01*
X0Y120D02*
X7Y120D01*
X735Y120D02*
X788Y120D01*
X1889Y120D02*
X1896Y120D01*
X0Y119D02*
X7Y119D01*
X735Y119D02*
X741Y119D01*
X782Y119D02*
X788Y119D01*
X1889Y119D02*
X1896Y119D01*
X0Y118D02*
X7Y118D01*
X735Y118D02*
X741Y118D01*
X782Y118D02*
X788Y118D01*
X1889Y118D02*
X1896Y118D01*
X0Y117D02*
X7Y117D01*
X735Y117D02*
X741Y117D01*
X782Y117D02*
X788Y117D01*
X1889Y117D02*
X1896Y117D01*
X0Y116D02*
X7Y116D01*
X735Y116D02*
X741Y116D01*
X782Y116D02*
X788Y116D01*
X1889Y116D02*
X1896Y116D01*
X0Y115D02*
X7Y115D01*
X735Y115D02*
X741Y115D01*
X782Y115D02*
X788Y115D01*
X1889Y115D02*
X1896Y115D01*
X0Y114D02*
X7Y114D01*
X735Y114D02*
X741Y114D01*
X782Y114D02*
X788Y114D01*
X1889Y114D02*
X1896Y114D01*
X0Y113D02*
X7Y113D01*
X735Y113D02*
X741Y113D01*
X782Y113D02*
X788Y113D01*
X1889Y113D02*
X1896Y113D01*
X0Y112D02*
X7Y112D01*
X735Y112D02*
X741Y112D01*
X782Y112D02*
X788Y112D01*
X1889Y112D02*
X1896Y112D01*
X0Y111D02*
X7Y111D01*
X735Y111D02*
X741Y111D01*
X782Y111D02*
X788Y111D01*
X1889Y111D02*
X1896Y111D01*
X0Y110D02*
X7Y110D01*
X735Y110D02*
X741Y110D01*
X782Y110D02*
X788Y110D01*
X1889Y110D02*
X1896Y110D01*
X0Y109D02*
X7Y109D01*
X735Y109D02*
X741Y109D01*
X782Y109D02*
X788Y109D01*
X1889Y109D02*
X1896Y109D01*
X0Y108D02*
X7Y108D01*
X735Y108D02*
X741Y108D01*
X782Y108D02*
X787Y108D01*
X1889Y108D02*
X1896Y108D01*
X0Y107D02*
X7Y107D01*
X736Y107D02*
X740Y107D01*
X783Y107D02*
X787Y107D01*
X1889Y107D02*
X1896Y107D01*
X0Y106D02*
X7Y106D01*
X1889Y106D02*
X1896Y106D01*
X0Y105D02*
X7Y105D01*
X1889Y105D02*
X1896Y105D01*
X0Y104D02*
X7Y104D01*
X1889Y104D02*
X1896Y104D01*
X0Y103D02*
X7Y103D01*
X1889Y103D02*
X1896Y103D01*
X0Y102D02*
X7Y102D01*
X1889Y102D02*
X1896Y102D01*
X0Y101D02*
X7Y101D01*
X1889Y101D02*
X1896Y101D01*
X0Y100D02*
X7Y100D01*
X1889Y100D02*
X1896Y100D01*
X0Y99D02*
X7Y99D01*
X1889Y99D02*
X1896Y99D01*
X0Y98D02*
X7Y98D01*
X1889Y98D02*
X1896Y98D01*
X0Y97D02*
X7Y97D01*
X1889Y97D02*
X1896Y97D01*
X0Y96D02*
X7Y96D01*
X1889Y96D02*
X1896Y96D01*
X0Y95D02*
X7Y95D01*
X1889Y95D02*
X1896Y95D01*
X0Y94D02*
X7Y94D01*
X1889Y94D02*
X1896Y94D01*
X0Y93D02*
X7Y93D01*
X1889Y93D02*
X1896Y93D01*
X0Y92D02*
X7Y92D01*
X1889Y92D02*
X1896Y92D01*
X0Y91D02*
X7Y91D01*
X1889Y91D02*
X1896Y91D01*
X0Y90D02*
X7Y90D01*
X1889Y90D02*
X1896Y90D01*
X0Y89D02*
X7Y89D01*
X1889Y89D02*
X1896Y89D01*
X0Y88D02*
X7Y88D01*
X1889Y88D02*
X1896Y88D01*
X0Y87D02*
X7Y87D01*
X738Y87D02*
X778Y87D01*
X1889Y87D02*
X1896Y87D01*
X0Y86D02*
X7Y86D01*
X736Y86D02*
X782Y86D01*
X1889Y86D02*
X1896Y86D01*
X0Y85D02*
X7Y85D01*
X735Y85D02*
X783Y85D01*
X1889Y85D02*
X1896Y85D01*
X0Y84D02*
X7Y84D01*
X735Y84D02*
X785Y84D01*
X1889Y84D02*
X1896Y84D01*
X0Y83D02*
X7Y83D01*
X735Y83D02*
X785Y83D01*
X1889Y83D02*
X1896Y83D01*
X0Y82D02*
X7Y82D01*
X735Y82D02*
X786Y82D01*
X1889Y82D02*
X1896Y82D01*
X0Y81D02*
X7Y81D01*
X736Y81D02*
X787Y81D01*
X1889Y81D02*
X1896Y81D01*
X0Y80D02*
X7Y80D01*
X779Y80D02*
X787Y80D01*
X1889Y80D02*
X1896Y80D01*
X0Y79D02*
X7Y79D01*
X781Y79D02*
X787Y79D01*
X1889Y79D02*
X1896Y79D01*
X0Y78D02*
X7Y78D01*
X781Y78D02*
X788Y78D01*
X1889Y78D02*
X1896Y78D01*
X0Y77D02*
X7Y77D01*
X782Y77D02*
X788Y77D01*
X1889Y77D02*
X1896Y77D01*
X0Y76D02*
X7Y76D01*
X782Y76D02*
X788Y76D01*
X1889Y76D02*
X1896Y76D01*
X0Y75D02*
X7Y75D01*
X782Y75D02*
X788Y75D01*
X1889Y75D02*
X1896Y75D01*
X0Y74D02*
X7Y74D01*
X782Y74D02*
X788Y74D01*
X1889Y74D02*
X1896Y74D01*
X0Y73D02*
X7Y73D01*
X782Y73D02*
X788Y73D01*
X1889Y73D02*
X1896Y73D01*
X0Y72D02*
X7Y72D01*
X782Y72D02*
X788Y72D01*
X1889Y72D02*
X1896Y72D01*
X0Y71D02*
X7Y71D01*
X782Y71D02*
X788Y71D01*
X1889Y71D02*
X1896Y71D01*
X0Y70D02*
X7Y70D01*
X782Y70D02*
X788Y70D01*
X1889Y70D02*
X1896Y70D01*
X0Y69D02*
X7Y69D01*
X781Y69D02*
X788Y69D01*
X1889Y69D02*
X1896Y69D01*
X0Y68D02*
X7Y68D01*
X781Y68D02*
X787Y68D01*
X1889Y68D02*
X1896Y68D01*
X0Y67D02*
X7Y67D01*
X780Y67D02*
X787Y67D01*
X1889Y67D02*
X1896Y67D01*
X0Y66D02*
X7Y66D01*
X766Y66D02*
X787Y66D01*
X1889Y66D02*
X1896Y66D01*
X0Y65D02*
X7Y65D01*
X765Y65D02*
X786Y65D01*
X1889Y65D02*
X1896Y65D01*
X0Y64D02*
X7Y64D01*
X764Y64D02*
X786Y64D01*
X1889Y64D02*
X1896Y64D01*
X0Y63D02*
X7Y63D01*
X764Y63D02*
X785Y63D01*
X1889Y63D02*
X1896Y63D01*
X0Y62D02*
X7Y62D01*
X764Y62D02*
X784Y62D01*
X1889Y62D02*
X1896Y62D01*
X0Y61D02*
X7Y61D01*
X765Y61D02*
X782Y61D01*
X1889Y61D02*
X1896Y61D01*
X0Y60D02*
X7Y60D01*
X766Y60D02*
X780Y60D01*
X1889Y60D02*
X1896Y60D01*
X0Y59D02*
X7Y59D01*
X1889Y59D02*
X1896Y59D01*
X0Y58D02*
X7Y58D01*
X1889Y58D02*
X1896Y58D01*
X0Y57D02*
X7Y57D01*
X1889Y57D02*
X1896Y57D01*
X0Y56D02*
X7Y56D01*
X1889Y56D02*
X1896Y56D01*
X0Y55D02*
X7Y55D01*
X1889Y55D02*
X1896Y55D01*
X0Y54D02*
X7Y54D01*
X1889Y54D02*
X1896Y54D01*
X0Y53D02*
X7Y53D01*
X1889Y53D02*
X1896Y53D01*
X0Y52D02*
X7Y52D01*
X1889Y52D02*
X1896Y52D01*
X0Y51D02*
X7Y51D01*
X1889Y51D02*
X1896Y51D01*
X0Y50D02*
X7Y50D01*
X1889Y50D02*
X1896Y50D01*
X0Y49D02*
X7Y49D01*
X1889Y49D02*
X1896Y49D01*
X0Y48D02*
X7Y48D01*
X1889Y48D02*
X1896Y48D01*
X0Y47D02*
X7Y47D01*
X1889Y47D02*
X1896Y47D01*
X0Y46D02*
X7Y46D01*
X1889Y46D02*
X1896Y46D01*
X0Y45D02*
X7Y45D01*
X1889Y45D02*
X1896Y45D01*
X0Y44D02*
X7Y44D01*
X1889Y44D02*
X1896Y44D01*
X0Y43D02*
X7Y43D01*
X1889Y43D02*
X1896Y43D01*
X0Y42D02*
X7Y42D01*
X1889Y42D02*
X1896Y42D01*
X0Y41D02*
X7Y41D01*
X1889Y41D02*
X1896Y41D01*
X0Y40D02*
X7Y40D01*
X1889Y40D02*
X1896Y40D01*
X0Y39D02*
X7Y39D01*
X1889Y39D02*
X1896Y39D01*
X0Y38D02*
X7Y38D01*
X1889Y38D02*
X1896Y38D01*
X0Y37D02*
X7Y37D01*
X1889Y37D02*
X1896Y37D01*
X0Y36D02*
X7Y36D01*
X1889Y36D02*
X1896Y36D01*
X0Y35D02*
X7Y35D01*
X1889Y35D02*
X1896Y35D01*
X0Y34D02*
X7Y34D01*
X1889Y34D02*
X1896Y34D01*
X0Y33D02*
X7Y33D01*
X1889Y33D02*
X1896Y33D01*
X0Y32D02*
X7Y32D01*
X1889Y32D02*
X1896Y32D01*
X0Y31D02*
X7Y31D01*
X1889Y31D02*
X1896Y31D01*
X0Y30D02*
X7Y30D01*
X1889Y30D02*
X1896Y30D01*
X0Y29D02*
X7Y29D01*
X1889Y29D02*
X1896Y29D01*
X0Y28D02*
X7Y28D01*
X1889Y28D02*
X1896Y28D01*
X0Y27D02*
X7Y27D01*
X1889Y27D02*
X1896Y27D01*
X0Y26D02*
X7Y26D01*
X1889Y26D02*
X1896Y26D01*
X0Y25D02*
X7Y25D01*
X1889Y25D02*
X1896Y25D01*
X0Y24D02*
X7Y24D01*
X1889Y24D02*
X1896Y24D01*
X0Y23D02*
X7Y23D01*
X1889Y23D02*
X1896Y23D01*
X0Y22D02*
X7Y22D01*
X1889Y22D02*
X1896Y22D01*
X0Y21D02*
X7Y21D01*
X1889Y21D02*
X1896Y21D01*
X0Y20D02*
X7Y20D01*
X1889Y20D02*
X1896Y20D01*
X0Y19D02*
X7Y19D01*
X1889Y19D02*
X1896Y19D01*
X0Y18D02*
X7Y18D01*
X1889Y18D02*
X1896Y18D01*
X0Y17D02*
X7Y17D01*
X1889Y17D02*
X1896Y17D01*
X0Y16D02*
X7Y16D01*
X1889Y16D02*
X1896Y16D01*
X0Y15D02*
X7Y15D01*
X1889Y15D02*
X1896Y15D01*
X0Y14D02*
X7Y14D01*
X1889Y14D02*
X1896Y14D01*
X0Y13D02*
X7Y13D01*
X1889Y13D02*
X1896Y13D01*
X0Y12D02*
X7Y12D01*
X1889Y12D02*
X1896Y12D01*
X0Y11D02*
X7Y11D01*
X1889Y11D02*
X1896Y11D01*
X0Y10D02*
X7Y10D01*
X1889Y10D02*
X1896Y10D01*
X0Y9D02*
X7Y9D01*
X1889Y9D02*
X1896Y9D01*
X0Y8D02*
X1896Y8D01*
X0Y7D02*
X1896Y7D01*
X0Y6D02*
X1896Y6D01*
X0Y5D02*
X1896Y5D01*
X0Y4D02*
X1896Y4D01*
X0Y3D02*
X1896Y3D01*
X0Y2D02*
X1896Y2D01*
X0Y1D02*
X1896Y1D01*
D02*
G04 End of Silk1*
M02*