; NON-PLATED HOLES START AT T1
; THROUGH (PLATED) HOLES START AT T100
M48
INCH
T1C0.125984
T100C0.040000
T101C0.035000
%
T1
X001920Y002005
X016920Y016005
X001920Y016005
X016920Y002005
T100
X005920Y003005
X005920Y001005
X005920Y002005
T101
X014164Y008008
X003920Y007005
X010690Y009780
X012920Y009005
X002131Y009780
X016723Y008008
X006920Y005005
X008131Y002008
X008131Y015777
X004690Y008008
X005920Y005005
X008131Y009780
X011920Y005005
X006920Y008005
X012920Y005005
X005920Y008005
X010690Y008008
X002131Y008008
X010690Y014006
X010690Y003780
X011920Y008005
X014164Y009780
X008131Y008008
X012920Y008005
X016723Y009780
X008131Y014006
X005920Y012005
X008131Y003780
X004690Y009780
X003920Y004005
X005920Y009005
X012920Y012005
X010690Y002008
X010690Y015777
T00
M30
