; NON-PLATED HOLES START AT T1
; THROUGH (PLATED) HOLES START AT T100
M48
INCH
T1C0.125984
T100C0.040000
T101C0.035000
T102C0.038000
%
T1
X017006Y001979
X002006Y001979
X017006Y015979
X002006Y015979
T100
X006006Y001979
X006006Y002979
X006006Y000979
T101
X008217Y001982
X012006Y004979
X004776Y007982
X007006Y007979
X008217Y015752
X013006Y004979
X006006Y007979
X014250Y007982
X012006Y007979
X010776Y003754
X010776Y007982
X013006Y007979
X016809Y009754
X002217Y007982
X003006Y003979
X006006Y011979
X010776Y013980
X008217Y003754
X008217Y007982
X004776Y009754
X006006Y008979
X008217Y013980
X014250Y009754
X013006Y011979
X003006Y006979
X013006Y008979
X010776Y009754
X007006Y004979
X010776Y001982
X002217Y009754
X006006Y004979
X010776Y015752
X016809Y007982
X008217Y009754
T102
X002006Y005979
X002006Y004979
T00
M30
