999
dxflib 2.2.0.0
  0
SECTION
  2
HEADER
  9
$ACADVER
  1
AC1015
  9
$HANDSEED
  5
FFFF
  9
$DIMASZ
 40
2.5
  9
$PLIMMIN
 10
0.0
 20
0.0
  9
$DIMEXE
 40
1.25
  9
$DIMGAP
 40
0.625
  9
$PLIMMAX
 10
210.0
 20
297.0
  9
$EXTMIN
 10
0.0
 20
0.0
 30
0.0
  9
$EXTMAX
 10
0.0
 20
0.0
 30
0.0
  9
$INSUNITS
 70
4
  9
$DIMSTYLE
  2
Standard
  9
$DIMEXO
 40
0.625
  9
$INSBASE
 10
0.0
 20
0.0
 30
0.0
  9
$DIMTXT
 40
2.5
  0
ENDSEC
  0
SECTION
  2
TABLES
  0
TABLE
  2
VPORT
  5
8
100
AcDbSymbolTable
 70
1
  0
VPORT
  5
30
100
AcDbSymbolTableRecord
100
AcDbViewportTableRecord
  2
*Active
 70
0
 10
0.0
 20
0.0
 11
1.0
 21
1.0
 12
286.3055555555554861
 22
148.5
 13
0.0
 23
0.0
 14
10.0
 24
10.0
 15
10.0
 25
10.0
 16
0.0
 26
0.0
 36
1.0
 17
0.0
 27
0.0
 37
0.0
 40
297.0
 41
1.92798353909465
 42
50.0
 43
0.0
 44
0.0
 50
0.0
 51
0.0
 71
0
 72
100
 73
1
 74
3
 75
1
 76
1
 77
0
 78
0
281
0
 65
1
110
0.0
120
0.0
130
0.0
111
1.0
121
0.0
131
0.0
112
0.0
122
1.0
132
0.0
 79
0
146
0.0
  0
ENDTAB
  0
TABLE
  2
LTYPE
  5
5
100
AcDbSymbolTable
 70
21
  0
LTYPE
  5
14
100
AcDbSymbolTableRecord
100
AcDbLinetypeTableRecord
  2
ByBlock
 70
0
  3

 72
65
 73
0
 40
0.0
  0
LTYPE
  5
15
100
AcDbSymbolTableRecord
100
AcDbLinetypeTableRecord
  2
ByLayer
 70
0
  3

 72
65
 73
0
 40
0.0
  0
LTYPE
  5
16
100
AcDbSymbolTableRecord
100
AcDbLinetypeTableRecord
  2
CONTINUOUS
 70
0
  3
Solid line
 72
65
 73
0
 40
0.0
  0
LTYPE
  5
31
100
AcDbSymbolTableRecord
100
AcDbLinetypeTableRecord
  2
DOT
 70
0
  3
Dot . . . . . . . . . . . . . . . . . . . . . .
 72
65
 73
2
 40
6.3499999999999996
 49
0.0
 74
0
 49
-6.3499999999999996
 74
0
  0
LTYPE
  5
32
100
AcDbSymbolTableRecord
100
AcDbLinetypeTableRecord
  2
DOT2
 70
0
  3
Dot (.5x) .....................................
 72
65
 73
2
 40
3.1749999999999998
 49
0.0
 74
0
 49
-3.1749999999999998
 74
0
  0
LTYPE
  5
33
100
AcDbSymbolTableRecord
100
AcDbLinetypeTableRecord
  2
DOTX2
 70
0
  3
Dot (2x) .  .  .  .  .  .  .  .  .  .  .  .  .
 72
65
 73
2
 40
12.6999999999999993
 49
0.0
 74
0
 49
-12.6999999999999993
 74
0
  0
LTYPE
  5
34
100
AcDbSymbolTableRecord
100
AcDbLinetypeTableRecord
  2
DASHED
 70
0
  3
Dashed __ __ __ __ __ __ __ __ __ __ __ __ __ _
 72
65
 73
2
 40
19.0500000000000007
 49
12.6999999999999993
 74
0
 49
-6.3499999999999996
 74
0
  0
LTYPE
  5
35
100
AcDbSymbolTableRecord
100
AcDbLinetypeTableRecord
  2
DASHED2
 70
0
  3
Dashed (.5x) _ _ _ _ _ _ _ _ _ _ _ _ _ _ _ _ _
 72
65
 73
2
 40
9.5250000000000004
 49
6.3499999999999996
 74
0
 49
-3.1749999999999998
 74
0
  0
LTYPE
  5
36
100
AcDbSymbolTableRecord
100
AcDbLinetypeTableRecord
  2
DASHEDX2
 70
0
  3
Dashed (2x) ____  ____  ____  ____  ____  ___
 72
65
 73
2
 40
38.1000000000000014
 49
25.3999999999999986
 74
0
 49
-12.6999999999999993
 74
0
  0
LTYPE
  5
37
100
AcDbSymbolTableRecord
100
AcDbLinetypeTableRecord
  2
DASHDOT
 70
0
  3
Dash dot __ . __ . __ . __ . __ . __ . __ . __
 72
65
 73
4
 40
25.3999999999999986
 49
12.6999999999999993
 74
0
 49
-6.3499999999999996
 74
0
 49
0.0
 74
0
 49
-6.3499999999999996
 74
0
  0
LTYPE
  5
38
100
AcDbSymbolTableRecord
100
AcDbLinetypeTableRecord
  2
DASHDOT2
 70
0
  3
Dash dot (.5x) _._._._._._._._._._._._._._._.
 72
65
 73
4
 40
12.6999999999999993
 49
6.3499999999999996
 74
0
 49
-3.1749999999999998
 74
0
 49
0.0
 74
0
 49
-3.1749999999999998
 74
0
  0
LTYPE
  5
39
100
AcDbSymbolTableRecord
100
AcDbLinetypeTableRecord
  2
DASHDOTX2
 70
0
  3
Dash dot (2x) ____  .  ____  .  ____  .  ___
 72
65
 73
4
 40
50.7999999999999972
 49
25.3999999999999986
 74
0
 49
-12.6999999999999993
 74
0
 49
0.0
 74
0
 49
-12.6999999999999993
 74
0
  0
LTYPE
  5
3A
100
AcDbSymbolTableRecord
100
AcDbLinetypeTableRecord
  2
DIVIDE
 70
0
  3
Divide ____ . . ____ . . ____ . . ____ . . ____
 72
65
 73
6
 40
31.75
 49
12.6999999999999993
 74
0
 49
-6.3499999999999996
 74
0
 49
0.0
 74
0
 49
-6.3499999999999996
 74
0
 49
0.0
 74
0
 49
-6.3499999999999996
 74
0
  0
LTYPE
  5
3B
100
AcDbSymbolTableRecord
100
AcDbLinetypeTableRecord
  2
DIVIDE2
 70
0
  3
Divide (.5x) __..__..__..__..__..__..__..__.._
 72
65
 73
6
 40
15.875
 49
6.3499999999999996
 74
0
 49
-3.1749999999999998
 74
0
 49
0.0
 74
0
 49
-3.1749999999999998
 74
0
 49
0.0
 74
0
 49
-3.1749999999999998
 74
0
  0
LTYPE
  5
3C
100
AcDbSymbolTableRecord
100
AcDbLinetypeTableRecord
  2
DIVIDEX2
 70
0
  3
Divide (2x) ________  .  .  ________  .  .  _
 72
65
 73
6
 40
63.5
 49
25.3999999999999986
 74
0
 49
-12.6999999999999993
 74
0
 49
0.0
 74
0
 49
-12.6999999999999993
 74
0
 49
0.0
 74
0
 49
-12.6999999999999993
 74
0
  0
LTYPE
  5
3D
100
AcDbSymbolTableRecord
100
AcDbLinetypeTableRecord
  2
CENTER
 70
0
  3
Center ____ _ ____ _ ____ _ ____ _ ____ _ ____
 72
65
 73
4
 40
50.7999999999999972
 49
31.75
 74
0
 49
-6.3499999999999996
 74
0
 49
6.3499999999999996
 74
0
 49
-6.3499999999999996
 74
0
  0
LTYPE
  5
3E
100
AcDbSymbolTableRecord
100
AcDbLinetypeTableRecord
  2
CENTER2
 70
0
  3
Center (.5x) ___ _ ___ _ ___ _ ___ _ ___ _ ___
 72
65
 73
4
 40
28.5749999999999993
 49
19.0500000000000007
 74
0
 49
-3.1749999999999998
 74
0
 49
3.1749999999999998
 74
0
 49
-3.1749999999999998
 74
0
  0
LTYPE
  5
3F
100
AcDbSymbolTableRecord
100
AcDbLinetypeTableRecord
  2
CENTERX2
 70
0
  3
Center (2x) ________  __  ________  __  _____
 72
65
 73
4
 40
101.5999999999999943
 49
63.5
 74
0
 49
-12.6999999999999993
 74
0
 49
12.6999999999999993
 74
0
 49
-12.6999999999999993
 74
0
  0
LTYPE
  5
40
100
AcDbSymbolTableRecord
100
AcDbLinetypeTableRecord
  2
BORDER
 70
0
  3
Border __ __ . __ __ . __ __ . __ __ . __ __ .
 72
65
 73
6
 40
44.4500000000000028
 49
12.6999999999999993
 74
0
 49
-6.3499999999999996
 74
0
 49
12.6999999999999993
 74
0
 49
-6.3499999999999996
 74
0
 49
0.0
 74
0
 49
-6.3499999999999996
 74
0
  0
LTYPE
  5
41
100
AcDbSymbolTableRecord
100
AcDbLinetypeTableRecord
  2
BORDER2
 70
0
  3
Border (.5x) __.__.__.__.__.__.__.__.__.__.__.
 72
65
 73
6
 40
22.2250000000000014
 49
6.3499999999999996
 74
0
 49
-3.1749999999999998
 74
0
 49
6.3499999999999996
 74
0
 49
-3.1749999999999998
 74
0
 49
0.0
 74
0
 49
-3.1749999999999998
 74
0
  0
LTYPE
  5
42
100
AcDbSymbolTableRecord
100
AcDbLinetypeTableRecord
  2
BORDERX2
 70
0
  3
Border (2x) ____  ____  .  ____  ____  .  ___
 72
65
 73
6
 40
88.9000000000000057
 49
25.3999999999999986
 74
0
 49
-12.6999999999999993
 74
0
 49
25.3999999999999986
 74
0
 49
-12.6999999999999993
 74
0
 49
0.0
 74
0
 49
-12.6999999999999993
 74
0
  0
ENDTAB
  0
TABLE
  2
LAYER
  5
2
100
AcDbSymbolTable
 70
2
  0
LAYER
  5
10
100
AcDbSymbolTableRecord
100
AcDbLayerTableRecord
  2
0
 70
0
 62
7
  6
CONTINUOUS
290
1
390
F
  0
LAYER
  5
43
100
AcDbSymbolTableRecord
100
AcDbLayerTableRecord
  2
components
 70
0
 62
7
  6
CONTINUOUS
290
1
370
-3
390
F
  0
ENDTAB
  0
TABLE
  2
STYLE
  5
3
100
AcDbSymbolTable
 70
1
  0
STYLE
  5
11
100
AcDbSymbolTableRecord
100
AcDbTextStyleTableRecord
  2
Standard
 70
0
 40
0.0
 41
0.75
 50
0.0
 71
0
 42
2.5
  3
txt
  4

  0
ENDTAB
  0
TABLE
  2
VIEW
  5
6
100
AcDbSymbolTable
 70
0
  0
ENDTAB
  0
TABLE
  2
UCS
  5
7
100
AcDbSymbolTable
 70
0
  0
ENDTAB
  0
TABLE
  2
APPID
  5
9
100
AcDbSymbolTable
 70
1
  0
APPID
  5
12
100
AcDbSymbolTableRecord
100
AcDbRegAppTableRecord
  2
ACAD
 70
0
  0
ENDTAB
  0
TABLE
  2
DIMSTYLE
  5
A
100
AcDbSymbolTable
 70
1
100
AcDbDimStyleTable
 71
0
  0
DIMSTYLE
105
27
100
AcDbSymbolTableRecord
100
AcDbDimStyleTableRecord
  2
Standard
 41
2.5
 42
0.625
 43
3.75
 44
1.25
 70
0
 73
0
 74
0
 77
1
 78
8
140
2.5
141
2.5
143
0.03937007874016
147
0.625
171
3
172
1
271
2
272
2
274
3
278
44
283
0
284
8
340
11
  0
ENDTAB
  0
TABLE
  2
BLOCK_RECORD
  5
1
100
AcDbSymbolTable
 70
1
  0
BLOCK_RECORD
  5
1F
100
AcDbSymbolTableRecord
100
AcDbBlockTableRecord
  2
*Model_Space
340
22
  0
BLOCK_RECORD
  5
1B
100
AcDbSymbolTableRecord
100
AcDbBlockTableRecord
  2
*Paper_Space
340
1E
  0
BLOCK_RECORD
  5
23
100
AcDbSymbolTableRecord
100
AcDbBlockTableRecord
  2
*Paper_Space0
340
26
  0
BLOCK_RECORD
  5
44
100
AcDbSymbolTableRecord
100
AcDbBlockTableRecord
  2
CLONE
340
0
  0
BLOCK_RECORD
  5
45
100
AcDbSymbolTableRecord
100
AcDbBlockTableRecord
  2
PART__FEATURE
340
0
  0
BLOCK_RECORD
  5
46
100
AcDbSymbolTableRecord
100
AcDbBlockTableRecord
  2
COMPOUND
340
0
  0
BLOCK_RECORD
  5
47
100
AcDbSymbolTableRecord
100
AcDbBlockTableRecord
  2
COMPOUND001
340
0
  0
BLOCK_RECORD
  5
48
100
AcDbSymbolTableRecord
100
AcDbBlockTableRecord
  2
COMPOUND002
340
0
  0
BLOCK_RECORD
  5
49
100
AcDbSymbolTableRecord
100
AcDbBlockTableRecord
  2
COMPOUND003
340
0
  0
BLOCK_RECORD
  5
4A
100
AcDbSymbolTableRecord
100
AcDbBlockTableRecord
  2
COMPOUND004
340
0
  0
ENDTAB
  0
ENDSEC
  0
SECTION
  2
BLOCKS
  0
BLOCK
  5
20
100
AcDbEntity
  8
0
100
AcDbBlockBegin
  2
*Model_Space
 70
0
 10
0.0
 20
0.0
 30
0.0
  3
*Model_Space
  1

  0
ENDBLK
  5
21
100
AcDbEntity
  8
0
100
AcDbBlockEnd
  0
BLOCK
  5
1C
100
AcDbEntity
 67
1
  8
0
100
AcDbBlockBegin
  2
*Paper_Space
 70
0
 10
0.0
 20
0.0
 30
0.0
  3
*Paper_Space
  1

  0
ENDBLK
  5
1D
100
AcDbEntity
 67
1
  8
0
100
AcDbBlockEnd
  0
BLOCK
  5
24
100
AcDbEntity
  8
0
100
AcDbBlockBegin
  2
*Paper_Space0
 70
0
 10
0.0
 20
0.0
 30
0.0
  3
*Paper_Space0
  1

  0
ENDBLK
  5
25
100
AcDbEntity
  8
0
100
AcDbBlockEnd
  0
BLOCK
  5
4B
100
AcDbEntity
  8
0
100
AcDbBlockBegin
  2
CLONE
 70
0
 10
0.0
 20
0.0
 30
0.0
  3
CLONE
  1

  0
LINE
  5
4C
100
AcDbEntity
100
AcDbLine
  8
0
 62
0
370
-1
  6
ByLayer
 10
43.1799999999999997
 20
-5.0800000000000001
 30
0.0
 11
-5.0800000000000001
 21
-5.0800000000000001
 31
0.0
  0
LINE
  5
4D
100
AcDbEntity
100
AcDbLine
  8
0
 62
0
370
-1
  6
ByLayer
 10
43.1799999999999997
 20
40.6400000000000006
 30
0.0
 11
43.1799999999999997
 21
-5.0800000000000001
 31
0.0
  0
LINE
  5
4E
100
AcDbEntity
100
AcDbLine
  8
0
 62
0
370
-1
  6
ByLayer
 10
-5.0800000000000001
 20
-5.0800000000000001
 30
0.0
 11
-5.0800000000000001
 21
40.6400000000000006
 31
0.0
  0
CIRCLE
  5
4F
100
AcDbEntity
100
AcDbCircle
  8
0
 62
0
370
-1
  6
ByLayer
 10
0.0
 20
0.0
 30
0.0
 40
1.5
  0
CIRCLE
  5
50
100
AcDbEntity
100
AcDbCircle
  8
0
 62
0
370
-1
  6
ByLayer
 10
38.1000000000000014
 20
0.0
 30
0.0
 40
1.5
  0
CIRCLE
  5
51
100
AcDbEntity
100
AcDbCircle
  8
0
 62
0
370
-1
  6
ByLayer
 10
0.0
 20
35.5600000000000023
 30
0.0
 40
1.5
  0
CIRCLE
  5
52
100
AcDbEntity
100
AcDbCircle
  8
0
 62
0
370
-1
  6
ByLayer
 10
38.1000000000000014
 20
35.5600000000000023
 30
0.0
 40
1.5
  0
CIRCLE
  5
53
100
AcDbEntity
100
AcDbCircle
  8
0
 62
0
370
-1
  6
ByLayer
 10
40.6400000000000006
 20
38.1000000000000014
 30
0.0
 40
0.5
  0
CIRCLE
  5
54
100
AcDbEntity
100
AcDbCircle
  8
0
 62
0
370
-1
  6
ByLayer
 10
38.1000000000000014
 20
38.1000000000000014
 30
0.0
 40
0.5
  0
CIRCLE
  5
55
100
AcDbEntity
100
AcDbCircle
  8
0
 62
0
370
-1
  6
ByLayer
 10
35.5600000000000023
 20
38.1000000000000014
 30
0.0
 40
0.5
  0
CIRCLE
  5
56
100
AcDbEntity
100
AcDbCircle
  8
0
 62
0
370
-1
  6
ByLayer
 10
33.0200000000000031
 20
38.1000000000000014
 30
0.0
 40
0.5
  0
CIRCLE
  5
57
100
AcDbEntity
100
AcDbCircle
  8
0
 62
0
370
-1
  6
ByLayer
 10
30.4800000000000004
 20
38.1000000000000014
 30
0.0
 40
0.5
  0
CIRCLE
  5
58
100
AcDbEntity
100
AcDbCircle
  8
0
 62
0
370
-1
  6
ByLayer
 10
27.9400000000000013
 20
38.1000000000000014
 30
0.0
 40
0.5
  0
CIRCLE
  5
59
100
AcDbEntity
100
AcDbCircle
  8
0
 62
0
370
-1
  6
ByLayer
 10
25.3999999999999986
 20
38.1000000000000014
 30
0.0
 40
0.5
  0
CIRCLE
  5
5A
100
AcDbEntity
100
AcDbCircle
  8
0
 62
0
370
-1
  6
ByLayer
 10
22.8599999999999994
 20
38.1000000000000014
 30
0.0
 40
0.5
  0
CIRCLE
  5
5B
100
AcDbEntity
100
AcDbCircle
  8
0
 62
0
370
-1
  6
ByLayer
 10
20.3200000000000003
 20
38.1000000000000014
 30
0.0
 40
0.5
  0
CIRCLE
  5
5C
100
AcDbEntity
100
AcDbCircle
  8
0
 62
0
370
-1
  6
ByLayer
 10
17.7800000000000011
 20
38.1000000000000014
 30
0.0
 40
0.5
  0
CIRCLE
  5
5D
100
AcDbEntity
100
AcDbCircle
  8
0
 62
0
370
-1
  6
ByLayer
 10
15.2400000000000002
 20
38.1000000000000014
 30
0.0
 40
0.5
  0
CIRCLE
  5
5E
100
AcDbEntity
100
AcDbCircle
  8
0
 62
0
370
-1
  6
ByLayer
 10
12.6999999999999993
 20
38.1000000000000014
 30
0.0
 40
0.5
  0
CIRCLE
  5
5F
100
AcDbEntity
100
AcDbCircle
  8
0
 62
0
370
-1
  6
ByLayer
 10
10.1600000000000001
 20
38.1000000000000014
 30
0.0
 40
0.5
  0
CIRCLE
  5
60
100
AcDbEntity
100
AcDbCircle
  8
0
 62
0
370
-1
  6
ByLayer
 10
7.6200000000000001
 20
38.1000000000000014
 30
0.0
 40
0.5
  0
CIRCLE
  5
61
100
AcDbEntity
100
AcDbCircle
  8
0
 62
0
370
-1
  6
ByLayer
 10
5.0800000000000001
 20
38.1000000000000014
 30
0.0
 40
0.5
  0
CIRCLE
  5
62
100
AcDbEntity
100
AcDbCircle
  8
0
 62
0
370
-1
  6
ByLayer
 10
2.54
 20
38.1000000000000014
 30
0.0
 40
0.5
  0
CIRCLE
  5
63
100
AcDbEntity
100
AcDbCircle
  8
0
 62
0
370
-1
  6
ByLayer
 10
0.0
 20
38.1000000000000014
 30
0.0
 40
0.5
  0
CIRCLE
  5
64
100
AcDbEntity
100
AcDbCircle
  8
0
 62
0
370
-1
  6
ByLayer
 10
-2.54
 20
38.1000000000000014
 30
0.0
 40
0.5
  0
CIRCLE
  5
65
100
AcDbEntity
100
AcDbCircle
  8
0
 62
0
370
-1
  6
ByLayer
 10
40.6400000000000006
 20
35.5600000000000023
 30
0.0
 40
0.5
  0
CIRCLE
  5
66
100
AcDbEntity
100
AcDbCircle
  8
0
 62
0
370
-1
  6
ByLayer
 10
35.5600000000000023
 20
35.5600000000000023
 30
0.0
 40
0.5
  0
CIRCLE
  5
67
100
AcDbEntity
100
AcDbCircle
  8
0
 62
0
370
-1
  6
ByLayer
 10
33.0200000000000031
 20
35.5600000000000023
 30
0.0
 40
0.5
  0
CIRCLE
  5
68
100
AcDbEntity
100
AcDbCircle
  8
0
 62
0
370
-1
  6
ByLayer
 10
30.4800000000000004
 20
35.5600000000000023
 30
0.0
 40
0.5
  0
CIRCLE
  5
69
100
AcDbEntity
100
AcDbCircle
  8
0
 62
0
370
-1
  6
ByLayer
 10
27.9400000000000013
 20
35.5600000000000023
 30
0.0
 40
0.5
  0
CIRCLE
  5
6A
100
AcDbEntity
100
AcDbCircle
  8
0
 62
0
370
-1
  6
ByLayer
 10
25.3999999999999986
 20
35.5600000000000023
 30
0.0
 40
0.5
  0
CIRCLE
  5
6B
100
AcDbEntity
100
AcDbCircle
  8
0
 62
0
370
-1
  6
ByLayer
 10
22.8599999999999994
 20
35.5600000000000023
 30
0.0
 40
0.5
  0
CIRCLE
  5
6C
100
AcDbEntity
100
AcDbCircle
  8
0
 62
0
370
-1
  6
ByLayer
 10
20.3200000000000003
 20
35.5600000000000023
 30
0.0
 40
0.5
  0
CIRCLE
  5
6D
100
AcDbEntity
100
AcDbCircle
  8
0
 62
0
370
-1
  6
ByLayer
 10
17.7800000000000011
 20
35.5600000000000023
 30
0.0
 40
0.5
  0
CIRCLE
  5
6E
100
AcDbEntity
100
AcDbCircle
  8
0
 62
0
370
-1
  6
ByLayer
 10
15.2400000000000002
 20
35.5600000000000023
 30
0.0
 40
0.5
  0
CIRCLE
  5
6F
100
AcDbEntity
100
AcDbCircle
  8
0
 62
0
370
-1
  6
ByLayer
 10
12.6999999999999993
 20
35.5600000000000023
 30
0.0
 40
0.5
  0
CIRCLE
  5
70
100
AcDbEntity
100
AcDbCircle
  8
0
 62
0
370
-1
  6
ByLayer
 10
10.1600000000000001
 20
35.5600000000000023
 30
0.0
 40
0.5
  0
CIRCLE
  5
71
100
AcDbEntity
100
AcDbCircle
  8
0
 62
0
370
-1
  6
ByLayer
 10
7.6200000000000001
 20
35.5600000000000023
 30
0.0
 40
0.5
  0
CIRCLE
  5
72
100
AcDbEntity
100
AcDbCircle
  8
0
 62
0
370
-1
  6
ByLayer
 10
5.0800000000000001
 20
35.5600000000000023
 30
0.0
 40
0.5
  0
CIRCLE
  5
73
100
AcDbEntity
100
AcDbCircle
  8
0
 62
0
370
-1
  6
ByLayer
 10
2.54
 20
35.5600000000000023
 30
0.0
 40
0.5
  0
CIRCLE
  5
74
100
AcDbEntity
100
AcDbCircle
  8
0
 62
0
370
-1
  6
ByLayer
 10
-2.54
 20
35.5600000000000023
 30
0.0
 40
0.5
  0
CIRCLE
  5
75
100
AcDbEntity
100
AcDbCircle
  8
0
 62
0
370
-1
  6
ByLayer
 10
40.6400000000000006
 20
33.0200000000000031
 30
0.0
 40
0.5
  0
CIRCLE
  5
76
100
AcDbEntity
100
AcDbCircle
  8
0
 62
0
370
-1
  6
ByLayer
 10
38.1000000000000014
 20
33.0200000000000031
 30
0.0
 40
0.5
  0
CIRCLE
  5
77
100
AcDbEntity
100
AcDbCircle
  8
0
 62
0
370
-1
  6
ByLayer
 10
35.5600000000000023
 20
33.0200000000000031
 30
0.0
 40
0.5
  0
CIRCLE
  5
78
100
AcDbEntity
100
AcDbCircle
  8
0
 62
0
370
-1
  6
ByLayer
 10
33.0200000000000031
 20
33.0200000000000031
 30
0.0
 40
0.5
  0
CIRCLE
  5
79
100
AcDbEntity
100
AcDbCircle
  8
0
 62
0
370
-1
  6
ByLayer
 10
30.4800000000000004
 20
33.0200000000000031
 30
0.0
 40
0.5
  0
CIRCLE
  5
7A
100
AcDbEntity
100
AcDbCircle
  8
0
 62
0
370
-1
  6
ByLayer
 10
27.9400000000000013
 20
33.0200000000000031
 30
0.0
 40
0.5
  0
CIRCLE
  5
7B
100
AcDbEntity
100
AcDbCircle
  8
0
 62
0
370
-1
  6
ByLayer
 10
25.3999999999999986
 20
33.0200000000000031
 30
0.0
 40
0.5
  0
CIRCLE
  5
7C
100
AcDbEntity
100
AcDbCircle
  8
0
 62
0
370
-1
  6
ByLayer
 10
22.8599999999999994
 20
33.0200000000000031
 30
0.0
 40
0.5
  0
CIRCLE
  5
7D
100
AcDbEntity
100
AcDbCircle
  8
0
 62
0
370
-1
  6
ByLayer
 10
20.3200000000000003
 20
33.0200000000000031
 30
0.0
 40
0.5
  0
CIRCLE
  5
7E
100
AcDbEntity
100
AcDbCircle
  8
0
 62
0
370
-1
  6
ByLayer
 10
17.7800000000000011
 20
33.0200000000000031
 30
0.0
 40
0.5
  0
CIRCLE
  5
7F
100
AcDbEntity
100
AcDbCircle
  8
0
 62
0
370
-1
  6
ByLayer
 10
15.2400000000000002
 20
33.0200000000000031
 30
0.0
 40
0.5
  0
CIRCLE
  5
80
100
AcDbEntity
100
AcDbCircle
  8
0
 62
0
370
-1
  6
ByLayer
 10
12.6999999999999993
 20
33.0200000000000031
 30
0.0
 40
0.5
  0
CIRCLE
  5
81
100
AcDbEntity
100
AcDbCircle
  8
0
 62
0
370
-1
  6
ByLayer
 10
10.1600000000000001
 20
33.0200000000000031
 30
0.0
 40
0.5
  0
CIRCLE
  5
82
100
AcDbEntity
100
AcDbCircle
  8
0
 62
0
370
-1
  6
ByLayer
 10
7.6200000000000001
 20
33.0200000000000031
 30
0.0
 40
0.5
  0
CIRCLE
  5
83
100
AcDbEntity
100
AcDbCircle
  8
0
 62
0
370
-1
  6
ByLayer
 10
5.0800000000000001
 20
33.0200000000000031
 30
0.0
 40
0.5
  0
CIRCLE
  5
84
100
AcDbEntity
100
AcDbCircle
  8
0
 62
0
370
-1
  6
ByLayer
 10
2.54
 20
33.0200000000000031
 30
0.0
 40
0.5
  0
CIRCLE
  5
85
100
AcDbEntity
100
AcDbCircle
  8
0
 62
0
370
-1
  6
ByLayer
 10
0.0
 20
33.0200000000000031
 30
0.0
 40
0.5
  0
CIRCLE
  5
86
100
AcDbEntity
100
AcDbCircle
  8
0
 62
0
370
-1
  6
ByLayer
 10
-2.54
 20
33.0200000000000031
 30
0.0
 40
0.5
  0
CIRCLE
  5
87
100
AcDbEntity
100
AcDbCircle
  8
0
 62
0
370
-1
  6
ByLayer
 10
40.6400000000000006
 20
30.4800000000000004
 30
0.0
 40
0.5
  0
CIRCLE
  5
88
100
AcDbEntity
100
AcDbCircle
  8
0
 62
0
370
-1
  6
ByLayer
 10
38.1000000000000014
 20
30.4800000000000004
 30
0.0
 40
0.5
  0
CIRCLE
  5
89
100
AcDbEntity
100
AcDbCircle
  8
0
 62
0
370
-1
  6
ByLayer
 10
35.5600000000000023
 20
30.4800000000000004
 30
0.0
 40
0.5
  0
CIRCLE
  5
8A
100
AcDbEntity
100
AcDbCircle
  8
0
 62
0
370
-1
  6
ByLayer
 10
33.0200000000000031
 20
30.4800000000000004
 30
0.0
 40
0.5
  0
CIRCLE
  5
8B
100
AcDbEntity
100
AcDbCircle
  8
0
 62
0
370
-1
  6
ByLayer
 10
30.4800000000000004
 20
30.4800000000000004
 30
0.0
 40
0.5
  0
CIRCLE
  5
8C
100
AcDbEntity
100
AcDbCircle
  8
0
 62
0
370
-1
  6
ByLayer
 10
27.9400000000000013
 20
30.4800000000000004
 30
0.0
 40
0.5
  0
CIRCLE
  5
8D
100
AcDbEntity
100
AcDbCircle
  8
0
 62
0
370
-1
  6
ByLayer
 10
25.3999999999999986
 20
30.4800000000000004
 30
0.0
 40
0.5
  0
CIRCLE
  5
8E
100
AcDbEntity
100
AcDbCircle
  8
0
 62
0
370
-1
  6
ByLayer
 10
22.8599999999999994
 20
30.4800000000000004
 30
0.0
 40
0.5
  0
CIRCLE
  5
8F
100
AcDbEntity
100
AcDbCircle
  8
0
 62
0
370
-1
  6
ByLayer
 10
20.3200000000000003
 20
30.4800000000000004
 30
0.0
 40
0.5
  0
CIRCLE
  5
90
100
AcDbEntity
100
AcDbCircle
  8
0
 62
0
370
-1
  6
ByLayer
 10
17.7800000000000011
 20
30.4800000000000004
 30
0.0
 40
0.5
  0
CIRCLE
  5
91
100
AcDbEntity
100
AcDbCircle
  8
0
 62
0
370
-1
  6
ByLayer
 10
15.2400000000000002
 20
30.4800000000000004
 30
0.0
 40
0.5
  0
CIRCLE
  5
92
100
AcDbEntity
100
AcDbCircle
  8
0
 62
0
370
-1
  6
ByLayer
 10
12.6999999999999993
 20
30.4800000000000004
 30
0.0
 40
0.5
  0
CIRCLE
  5
93
100
AcDbEntity
100
AcDbCircle
  8
0
 62
0
370
-1
  6
ByLayer
 10
10.1600000000000001
 20
30.4800000000000004
 30
0.0
 40
0.5
  0
CIRCLE
  5
94
100
AcDbEntity
100
AcDbCircle
  8
0
 62
0
370
-1
  6
ByLayer
 10
7.6200000000000001
 20
30.4800000000000004
 30
0.0
 40
0.5
  0
CIRCLE
  5
95
100
AcDbEntity
100
AcDbCircle
  8
0
 62
0
370
-1
  6
ByLayer
 10
5.0800000000000001
 20
30.4800000000000004
 30
0.0
 40
0.5
  0
CIRCLE
  5
96
100
AcDbEntity
100
AcDbCircle
  8
0
 62
0
370
-1
  6
ByLayer
 10
2.54
 20
30.4800000000000004
 30
0.0
 40
0.5
  0
CIRCLE
  5
97
100
AcDbEntity
100
AcDbCircle
  8
0
 62
0
370
-1
  6
ByLayer
 10
0.0
 20
30.4800000000000004
 30
0.0
 40
0.5
  0
CIRCLE
  5
98
100
AcDbEntity
100
AcDbCircle
  8
0
 62
0
370
-1
  6
ByLayer
 10
-2.54
 20
30.4800000000000004
 30
0.0
 40
0.5
  0
CIRCLE
  5
99
100
AcDbEntity
100
AcDbCircle
  8
0
 62
0
370
-1
  6
ByLayer
 10
40.6400000000000006
 20
27.9400000000000013
 30
0.0
 40
0.5
  0
CIRCLE
  5
9A
100
AcDbEntity
100
AcDbCircle
  8
0
 62
0
370
-1
  6
ByLayer
 10
38.1000000000000014
 20
27.9400000000000013
 30
0.0
 40
0.5
  0
CIRCLE
  5
9B
100
AcDbEntity
100
AcDbCircle
  8
0
 62
0
370
-1
  6
ByLayer
 10
35.5600000000000023
 20
27.9400000000000013
 30
0.0
 40
0.5
  0
CIRCLE
  5
9C
100
AcDbEntity
100
AcDbCircle
  8
0
 62
0
370
-1
  6
ByLayer
 10
33.0200000000000031
 20
27.9400000000000013
 30
0.0
 40
0.5
  0
CIRCLE
  5
9D
100
AcDbEntity
100
AcDbCircle
  8
0
 62
0
370
-1
  6
ByLayer
 10
30.4800000000000004
 20
27.9400000000000013
 30
0.0
 40
0.5
  0
CIRCLE
  5
9E
100
AcDbEntity
100
AcDbCircle
  8
0
 62
0
370
-1
  6
ByLayer
 10
27.9400000000000013
 20
27.9400000000000013
 30
0.0
 40
0.5
  0
CIRCLE
  5
9F
100
AcDbEntity
100
AcDbCircle
  8
0
 62
0
370
-1
  6
ByLayer
 10
25.3999999999999986
 20
27.9400000000000013
 30
0.0
 40
0.5
  0
CIRCLE
  5
A0
100
AcDbEntity
100
AcDbCircle
  8
0
 62
0
370
-1
  6
ByLayer
 10
22.8599999999999994
 20
27.9400000000000013
 30
0.0
 40
0.5
  0
CIRCLE
  5
A1
100
AcDbEntity
100
AcDbCircle
  8
0
 62
0
370
-1
  6
ByLayer
 10
20.3200000000000003
 20
27.9400000000000013
 30
0.0
 40
0.5
  0
CIRCLE
  5
A2
100
AcDbEntity
100
AcDbCircle
  8
0
 62
0
370
-1
  6
ByLayer
 10
17.7800000000000011
 20
27.9400000000000013
 30
0.0
 40
0.5
  0
CIRCLE
  5
A3
100
AcDbEntity
100
AcDbCircle
  8
0
 62
0
370
-1
  6
ByLayer
 10
15.2400000000000002
 20
27.9400000000000013
 30
0.0
 40
0.5
  0
CIRCLE
  5
A4
100
AcDbEntity
100
AcDbCircle
  8
0
 62
0
370
-1
  6
ByLayer
 10
12.6999999999999993
 20
27.9400000000000013
 30
0.0
 40
0.5
  0
CIRCLE
  5
A5
100
AcDbEntity
100
AcDbCircle
  8
0
 62
0
370
-1
  6
ByLayer
 10
10.1600000000000001
 20
27.9400000000000013
 30
0.0
 40
0.5
  0
CIRCLE
  5
A6
100
AcDbEntity
100
AcDbCircle
  8
0
 62
0
370
-1
  6
ByLayer
 10
7.6200000000000001
 20
27.9400000000000013
 30
0.0
 40
0.5
  0
CIRCLE
  5
A7
100
AcDbEntity
100
AcDbCircle
  8
0
 62
0
370
-1
  6
ByLayer
 10
5.0800000000000001
 20
27.9400000000000013
 30
0.0
 40
0.5
  0
CIRCLE
  5
A8
100
AcDbEntity
100
AcDbCircle
  8
0
 62
0
370
-1
  6
ByLayer
 10
2.54
 20
27.9400000000000013
 30
0.0
 40
0.5
  0
CIRCLE
  5
A9
100
AcDbEntity
100
AcDbCircle
  8
0
 62
0
370
-1
  6
ByLayer
 10
0.0
 20
27.9400000000000013
 30
0.0
 40
0.5
  0
CIRCLE
  5
AA
100
AcDbEntity
100
AcDbCircle
  8
0
 62
0
370
-1
  6
ByLayer
 10
-2.54
 20
27.9400000000000013
 30
0.0
 40
0.5
  0
CIRCLE
  5
AB
100
AcDbEntity
100
AcDbCircle
  8
0
 62
0
370
-1
  6
ByLayer
 10
40.6400000000000006
 20
25.3999999999999986
 30
0.0
 40
0.5
  0
CIRCLE
  5
AC
100
AcDbEntity
100
AcDbCircle
  8
0
 62
0
370
-1
  6
ByLayer
 10
38.1000000000000014
 20
25.3999999999999986
 30
0.0
 40
0.5
  0
CIRCLE
  5
AD
100
AcDbEntity
100
AcDbCircle
  8
0
 62
0
370
-1
  6
ByLayer
 10
35.5600000000000023
 20
25.3999999999999986
 30
0.0
 40
0.5
  0
CIRCLE
  5
AE
100
AcDbEntity
100
AcDbCircle
  8
0
 62
0
370
-1
  6
ByLayer
 10
33.0200000000000031
 20
25.3999999999999986
 30
0.0
 40
0.5
  0
CIRCLE
  5
AF
100
AcDbEntity
100
AcDbCircle
  8
0
 62
0
370
-1
  6
ByLayer
 10
30.4800000000000004
 20
25.3999999999999986
 30
0.0
 40
0.5
  0
CIRCLE
  5
B0
100
AcDbEntity
100
AcDbCircle
  8
0
 62
0
370
-1
  6
ByLayer
 10
27.9400000000000013
 20
25.3999999999999986
 30
0.0
 40
0.5
  0
CIRCLE
  5
B1
100
AcDbEntity
100
AcDbCircle
  8
0
 62
0
370
-1
  6
ByLayer
 10
25.3999999999999986
 20
25.3999999999999986
 30
0.0
 40
0.5
  0
CIRCLE
  5
B2
100
AcDbEntity
100
AcDbCircle
  8
0
 62
0
370
-1
  6
ByLayer
 10
22.8599999999999994
 20
25.3999999999999986
 30
0.0
 40
0.5
  0
CIRCLE
  5
B3
100
AcDbEntity
100
AcDbCircle
  8
0
 62
0
370
-1
  6
ByLayer
 10
20.3200000000000003
 20
25.3999999999999986
 30
0.0
 40
0.5
  0
CIRCLE
  5
B4
100
AcDbEntity
100
AcDbCircle
  8
0
 62
0
370
-1
  6
ByLayer
 10
17.7800000000000011
 20
25.3999999999999986
 30
0.0
 40
0.5
  0
CIRCLE
  5
B5
100
AcDbEntity
100
AcDbCircle
  8
0
 62
0
370
-1
  6
ByLayer
 10
15.2400000000000002
 20
25.3999999999999986
 30
0.0
 40
0.5
  0
CIRCLE
  5
B6
100
AcDbEntity
100
AcDbCircle
  8
0
 62
0
370
-1
  6
ByLayer
 10
12.6999999999999993
 20
25.3999999999999986
 30
0.0
 40
0.5
  0
CIRCLE
  5
B7
100
AcDbEntity
100
AcDbCircle
  8
0
 62
0
370
-1
  6
ByLayer
 10
10.1600000000000001
 20
25.3999999999999986
 30
0.0
 40
0.5
  0
CIRCLE
  5
B8
100
AcDbEntity
100
AcDbCircle
  8
0
 62
0
370
-1
  6
ByLayer
 10
7.6200000000000001
 20
25.3999999999999986
 30
0.0
 40
0.5
  0
CIRCLE
  5
B9
100
AcDbEntity
100
AcDbCircle
  8
0
 62
0
370
-1
  6
ByLayer
 10
5.0800000000000001
 20
25.3999999999999986
 30
0.0
 40
0.5
  0
CIRCLE
  5
BA
100
AcDbEntity
100
AcDbCircle
  8
0
 62
0
370
-1
  6
ByLayer
 10
2.54
 20
25.3999999999999986
 30
0.0
 40
0.5
  0
CIRCLE
  5
BB
100
AcDbEntity
100
AcDbCircle
  8
0
 62
0
370
-1
  6
ByLayer
 10
0.0
 20
25.3999999999999986
 30
0.0
 40
0.5
  0
CIRCLE
  5
BC
100
AcDbEntity
100
AcDbCircle
  8
0
 62
0
370
-1
  6
ByLayer
 10
-2.54
 20
25.3999999999999986
 30
0.0
 40
0.5
  0
CIRCLE
  5
BD
100
AcDbEntity
100
AcDbCircle
  8
0
 62
0
370
-1
  6
ByLayer
 10
40.6400000000000006
 20
22.8599999999999994
 30
0.0
 40
0.5
  0
CIRCLE
  5
BE
100
AcDbEntity
100
AcDbCircle
  8
0
 62
0
370
-1
  6
ByLayer
 10
38.1000000000000014
 20
22.8599999999999994
 30
0.0
 40
0.5
  0
CIRCLE
  5
BF
100
AcDbEntity
100
AcDbCircle
  8
0
 62
0
370
-1
  6
ByLayer
 10
35.5600000000000023
 20
22.8599999999999994
 30
0.0
 40
0.5
  0
CIRCLE
  5
C0
100
AcDbEntity
100
AcDbCircle
  8
0
 62
0
370
-1
  6
ByLayer
 10
33.0200000000000031
 20
22.8599999999999994
 30
0.0
 40
0.5
  0
CIRCLE
  5
C1
100
AcDbEntity
100
AcDbCircle
  8
0
 62
0
370
-1
  6
ByLayer
 10
30.4800000000000004
 20
22.8599999999999994
 30
0.0
 40
0.5
  0
CIRCLE
  5
C2
100
AcDbEntity
100
AcDbCircle
  8
0
 62
0
370
-1
  6
ByLayer
 10
27.9400000000000013
 20
22.8599999999999994
 30
0.0
 40
0.5
  0
CIRCLE
  5
C3
100
AcDbEntity
100
AcDbCircle
  8
0
 62
0
370
-1
  6
ByLayer
 10
25.3999999999999986
 20
22.8599999999999994
 30
0.0
 40
0.5
  0
CIRCLE
  5
C4
100
AcDbEntity
100
AcDbCircle
  8
0
 62
0
370
-1
  6
ByLayer
 10
22.8599999999999994
 20
22.8599999999999994
 30
0.0
 40
0.5
  0
CIRCLE
  5
C5
100
AcDbEntity
100
AcDbCircle
  8
0
 62
0
370
-1
  6
ByLayer
 10
20.3200000000000003
 20
22.8599999999999994
 30
0.0
 40
0.5
  0
CIRCLE
  5
C6
100
AcDbEntity
100
AcDbCircle
  8
0
 62
0
370
-1
  6
ByLayer
 10
17.7800000000000011
 20
22.8599999999999994
 30
0.0
 40
0.5
  0
CIRCLE
  5
C7
100
AcDbEntity
100
AcDbCircle
  8
0
 62
0
370
-1
  6
ByLayer
 10
15.2400000000000002
 20
22.8599999999999994
 30
0.0
 40
0.5
  0
CIRCLE
  5
C8
100
AcDbEntity
100
AcDbCircle
  8
0
 62
0
370
-1
  6
ByLayer
 10
12.6999999999999993
 20
22.8599999999999994
 30
0.0
 40
0.5
  0
CIRCLE
  5
C9
100
AcDbEntity
100
AcDbCircle
  8
0
 62
0
370
-1
  6
ByLayer
 10
10.1600000000000001
 20
22.8599999999999994
 30
0.0
 40
0.5
  0
CIRCLE
  5
CA
100
AcDbEntity
100
AcDbCircle
  8
0
 62
0
370
-1
  6
ByLayer
 10
7.6200000000000001
 20
22.8599999999999994
 30
0.0
 40
0.5
  0
CIRCLE
  5
CB
100
AcDbEntity
100
AcDbCircle
  8
0
 62
0
370
-1
  6
ByLayer
 10
5.0800000000000001
 20
22.8599999999999994
 30
0.0
 40
0.5
  0
CIRCLE
  5
CC
100
AcDbEntity
100
AcDbCircle
  8
0
 62
0
370
-1
  6
ByLayer
 10
2.54
 20
22.8599999999999994
 30
0.0
 40
0.5
  0
CIRCLE
  5
CD
100
AcDbEntity
100
AcDbCircle
  8
0
 62
0
370
-1
  6
ByLayer
 10
0.0
 20
22.8599999999999994
 30
0.0
 40
0.5
  0
CIRCLE
  5
CE
100
AcDbEntity
100
AcDbCircle
  8
0
 62
0
370
-1
  6
ByLayer
 10
-2.54
 20
22.8599999999999994
 30
0.0
 40
0.5
  0
CIRCLE
  5
CF
100
AcDbEntity
100
AcDbCircle
  8
0
 62
0
370
-1
  6
ByLayer
 10
40.6400000000000006
 20
20.3200000000000003
 30
0.0
 40
0.5
  0
CIRCLE
  5
D0
100
AcDbEntity
100
AcDbCircle
  8
0
 62
0
370
-1
  6
ByLayer
 10
38.1000000000000014
 20
20.3200000000000003
 30
0.0
 40
0.5
  0
CIRCLE
  5
D1
100
AcDbEntity
100
AcDbCircle
  8
0
 62
0
370
-1
  6
ByLayer
 10
35.5600000000000023
 20
20.3200000000000003
 30
0.0
 40
0.5
  0
CIRCLE
  5
D2
100
AcDbEntity
100
AcDbCircle
  8
0
 62
0
370
-1
  6
ByLayer
 10
33.0200000000000031
 20
20.3200000000000003
 30
0.0
 40
0.5
  0
CIRCLE
  5
D3
100
AcDbEntity
100
AcDbCircle
  8
0
 62
0
370
-1
  6
ByLayer
 10
30.4800000000000004
 20
20.3200000000000003
 30
0.0
 40
0.5
  0
CIRCLE
  5
D4
100
AcDbEntity
100
AcDbCircle
  8
0
 62
0
370
-1
  6
ByLayer
 10
27.9400000000000013
 20
20.3200000000000003
 30
0.0
 40
0.5
  0
CIRCLE
  5
D5
100
AcDbEntity
100
AcDbCircle
  8
0
 62
0
370
-1
  6
ByLayer
 10
25.3999999999999986
 20
20.3200000000000003
 30
0.0
 40
0.5
  0
CIRCLE
  5
D6
100
AcDbEntity
100
AcDbCircle
  8
0
 62
0
370
-1
  6
ByLayer
 10
22.8599999999999994
 20
20.3200000000000003
 30
0.0
 40
0.5
  0
CIRCLE
  5
D7
100
AcDbEntity
100
AcDbCircle
  8
0
 62
0
370
-1
  6
ByLayer
 10
20.3200000000000003
 20
20.3200000000000003
 30
0.0
 40
0.5
  0
CIRCLE
  5
D8
100
AcDbEntity
100
AcDbCircle
  8
0
 62
0
370
-1
  6
ByLayer
 10
17.7800000000000011
 20
20.3200000000000003
 30
0.0
 40
0.5
  0
CIRCLE
  5
D9
100
AcDbEntity
100
AcDbCircle
  8
0
 62
0
370
-1
  6
ByLayer
 10
15.2400000000000002
 20
20.3200000000000003
 30
0.0
 40
0.5
  0
CIRCLE
  5
DA
100
AcDbEntity
100
AcDbCircle
  8
0
 62
0
370
-1
  6
ByLayer
 10
12.6999999999999993
 20
20.3200000000000003
 30
0.0
 40
0.5
  0
CIRCLE
  5
DB
100
AcDbEntity
100
AcDbCircle
  8
0
 62
0
370
-1
  6
ByLayer
 10
10.1600000000000001
 20
20.3200000000000003
 30
0.0
 40
0.5
  0
CIRCLE
  5
DC
100
AcDbEntity
100
AcDbCircle
  8
0
 62
0
370
-1
  6
ByLayer
 10
7.6200000000000001
 20
20.3200000000000003
 30
0.0
 40
0.5
  0
CIRCLE
  5
DD
100
AcDbEntity
100
AcDbCircle
  8
0
 62
0
370
-1
  6
ByLayer
 10
5.0800000000000001
 20
20.3200000000000003
 30
0.0
 40
0.5
  0
CIRCLE
  5
DE
100
AcDbEntity
100
AcDbCircle
  8
0
 62
0
370
-1
  6
ByLayer
 10
2.54
 20
20.3200000000000003
 30
0.0
 40
0.5
  0
CIRCLE
  5
DF
100
AcDbEntity
100
AcDbCircle
  8
0
 62
0
370
-1
  6
ByLayer
 10
0.0
 20
20.3200000000000003
 30
0.0
 40
0.5
  0
CIRCLE
  5
E0
100
AcDbEntity
100
AcDbCircle
  8
0
 62
0
370
-1
  6
ByLayer
 10
-2.54
 20
20.3200000000000003
 30
0.0
 40
0.5
  0
CIRCLE
  5
E1
100
AcDbEntity
100
AcDbCircle
  8
0
 62
0
370
-1
  6
ByLayer
 10
40.6400000000000006
 20
17.7800000000000011
 30
0.0
 40
0.5
  0
CIRCLE
  5
E2
100
AcDbEntity
100
AcDbCircle
  8
0
 62
0
370
-1
  6
ByLayer
 10
38.1000000000000014
 20
17.7800000000000011
 30
0.0
 40
0.5
  0
CIRCLE
  5
E3
100
AcDbEntity
100
AcDbCircle
  8
0
 62
0
370
-1
  6
ByLayer
 10
35.5600000000000023
 20
17.7800000000000011
 30
0.0
 40
0.5
  0
CIRCLE
  5
E4
100
AcDbEntity
100
AcDbCircle
  8
0
 62
0
370
-1
  6
ByLayer
 10
33.0200000000000031
 20
17.7800000000000011
 30
0.0
 40
0.5
  0
CIRCLE
  5
E5
100
AcDbEntity
100
AcDbCircle
  8
0
 62
0
370
-1
  6
ByLayer
 10
30.4800000000000004
 20
17.7800000000000011
 30
0.0
 40
0.5
  0
CIRCLE
  5
E6
100
AcDbEntity
100
AcDbCircle
  8
0
 62
0
370
-1
  6
ByLayer
 10
27.9400000000000013
 20
17.7800000000000011
 30
0.0
 40
0.5
  0
CIRCLE
  5
E7
100
AcDbEntity
100
AcDbCircle
  8
0
 62
0
370
-1
  6
ByLayer
 10
25.3999999999999986
 20
17.7800000000000011
 30
0.0
 40
0.5
  0
CIRCLE
  5
E8
100
AcDbEntity
100
AcDbCircle
  8
0
 62
0
370
-1
  6
ByLayer
 10
22.8599999999999994
 20
17.7800000000000011
 30
0.0
 40
0.5
  0
CIRCLE
  5
E9
100
AcDbEntity
100
AcDbCircle
  8
0
 62
0
370
-1
  6
ByLayer
 10
20.3200000000000003
 20
17.7800000000000011
 30
0.0
 40
0.5
  0
CIRCLE
  5
EA
100
AcDbEntity
100
AcDbCircle
  8
0
 62
0
370
-1
  6
ByLayer
 10
17.7800000000000011
 20
17.7800000000000011
 30
0.0
 40
0.5
  0
CIRCLE
  5
EB
100
AcDbEntity
100
AcDbCircle
  8
0
 62
0
370
-1
  6
ByLayer
 10
15.2400000000000002
 20
17.7800000000000011
 30
0.0
 40
0.5
  0
CIRCLE
  5
EC
100
AcDbEntity
100
AcDbCircle
  8
0
 62
0
370
-1
  6
ByLayer
 10
12.6999999999999993
 20
17.7800000000000011
 30
0.0
 40
0.5
  0
CIRCLE
  5
ED
100
AcDbEntity
100
AcDbCircle
  8
0
 62
0
370
-1
  6
ByLayer
 10
10.1600000000000001
 20
17.7800000000000011
 30
0.0
 40
0.5
  0
CIRCLE
  5
EE
100
AcDbEntity
100
AcDbCircle
  8
0
 62
0
370
-1
  6
ByLayer
 10
7.6200000000000001
 20
17.7800000000000011
 30
0.0
 40
0.5
  0
CIRCLE
  5
EF
100
AcDbEntity
100
AcDbCircle
  8
0
 62
0
370
-1
  6
ByLayer
 10
5.0800000000000001
 20
17.7800000000000011
 30
0.0
 40
0.5
  0
CIRCLE
  5
F0
100
AcDbEntity
100
AcDbCircle
  8
0
 62
0
370
-1
  6
ByLayer
 10
2.54
 20
17.7800000000000011
 30
0.0
 40
0.5
  0
CIRCLE
  5
F1
100
AcDbEntity
100
AcDbCircle
  8
0
 62
0
370
-1
  6
ByLayer
 10
0.0
 20
17.7800000000000011
 30
0.0
 40
0.5
  0
CIRCLE
  5
F2
100
AcDbEntity
100
AcDbCircle
  8
0
 62
0
370
-1
  6
ByLayer
 10
-2.54
 20
17.7800000000000011
 30
0.0
 40
0.5
  0
CIRCLE
  5
F3
100
AcDbEntity
100
AcDbCircle
  8
0
 62
0
370
-1
  6
ByLayer
 10
40.6400000000000006
 20
15.2400000000000002
 30
0.0
 40
0.5
  0
CIRCLE
  5
F4
100
AcDbEntity
100
AcDbCircle
  8
0
 62
0
370
-1
  6
ByLayer
 10
38.1000000000000014
 20
15.2400000000000002
 30
0.0
 40
0.5
  0
CIRCLE
  5
F5
100
AcDbEntity
100
AcDbCircle
  8
0
 62
0
370
-1
  6
ByLayer
 10
35.5600000000000023
 20
15.2400000000000002
 30
0.0
 40
0.5
  0
CIRCLE
  5
F6
100
AcDbEntity
100
AcDbCircle
  8
0
 62
0
370
-1
  6
ByLayer
 10
33.0200000000000031
 20
15.2400000000000002
 30
0.0
 40
0.5
  0
CIRCLE
  5
F7
100
AcDbEntity
100
AcDbCircle
  8
0
 62
0
370
-1
  6
ByLayer
 10
30.4800000000000004
 20
15.2400000000000002
 30
0.0
 40
0.5
  0
CIRCLE
  5
F8
100
AcDbEntity
100
AcDbCircle
  8
0
 62
0
370
-1
  6
ByLayer
 10
27.9400000000000013
 20
15.2400000000000002
 30
0.0
 40
0.5
  0
CIRCLE
  5
F9
100
AcDbEntity
100
AcDbCircle
  8
0
 62
0
370
-1
  6
ByLayer
 10
25.3999999999999986
 20
15.2400000000000002
 30
0.0
 40
0.5
  0
CIRCLE
  5
FA
100
AcDbEntity
100
AcDbCircle
  8
0
 62
0
370
-1
  6
ByLayer
 10
22.8599999999999994
 20
15.2400000000000002
 30
0.0
 40
0.5
  0
CIRCLE
  5
FB
100
AcDbEntity
100
AcDbCircle
  8
0
 62
0
370
-1
  6
ByLayer
 10
20.3200000000000003
 20
15.2400000000000002
 30
0.0
 40
0.5
  0
CIRCLE
  5
FC
100
AcDbEntity
100
AcDbCircle
  8
0
 62
0
370
-1
  6
ByLayer
 10
17.7800000000000011
 20
15.2400000000000002
 30
0.0
 40
0.5
  0
CIRCLE
  5
FD
100
AcDbEntity
100
AcDbCircle
  8
0
 62
0
370
-1
  6
ByLayer
 10
15.2400000000000002
 20
15.2400000000000002
 30
0.0
 40
0.5
  0
CIRCLE
  5
FE
100
AcDbEntity
100
AcDbCircle
  8
0
 62
0
370
-1
  6
ByLayer
 10
12.6999999999999993
 20
15.2400000000000002
 30
0.0
 40
0.5
  0
CIRCLE
  5
FF
100
AcDbEntity
100
AcDbCircle
  8
0
 62
0
370
-1
  6
ByLayer
 10
10.1600000000000001
 20
15.2400000000000002
 30
0.0
 40
0.5
  0
CIRCLE
  5
100
100
AcDbEntity
100
AcDbCircle
  8
0
 62
0
370
-1
  6
ByLayer
 10
7.6200000000000001
 20
15.2400000000000002
 30
0.0
 40
0.5
  0
CIRCLE
  5
101
100
AcDbEntity
100
AcDbCircle
  8
0
 62
0
370
-1
  6
ByLayer
 10
5.0800000000000001
 20
15.2400000000000002
 30
0.0
 40
0.5
  0
CIRCLE
  5
102
100
AcDbEntity
100
AcDbCircle
  8
0
 62
0
370
-1
  6
ByLayer
 10
2.54
 20
15.2400000000000002
 30
0.0
 40
0.5
  0
CIRCLE
  5
103
100
AcDbEntity
100
AcDbCircle
  8
0
 62
0
370
-1
  6
ByLayer
 10
0.0
 20
15.2400000000000002
 30
0.0
 40
0.5
  0
CIRCLE
  5
104
100
AcDbEntity
100
AcDbCircle
  8
0
 62
0
370
-1
  6
ByLayer
 10
-2.54
 20
15.2400000000000002
 30
0.0
 40
0.5
  0
CIRCLE
  5
105
100
AcDbEntity
100
AcDbCircle
  8
0
 62
0
370
-1
  6
ByLayer
 10
40.6400000000000006
 20
12.6999999999999993
 30
0.0
 40
0.5
  0
CIRCLE
  5
106
100
AcDbEntity
100
AcDbCircle
  8
0
 62
0
370
-1
  6
ByLayer
 10
38.1000000000000014
 20
12.6999999999999993
 30
0.0
 40
0.5
  0
CIRCLE
  5
107
100
AcDbEntity
100
AcDbCircle
  8
0
 62
0
370
-1
  6
ByLayer
 10
35.5600000000000023
 20
12.6999999999999993
 30
0.0
 40
0.5
  0
CIRCLE
  5
108
100
AcDbEntity
100
AcDbCircle
  8
0
 62
0
370
-1
  6
ByLayer
 10
33.0200000000000031
 20
12.6999999999999993
 30
0.0
 40
0.5
  0
CIRCLE
  5
109
100
AcDbEntity
100
AcDbCircle
  8
0
 62
0
370
-1
  6
ByLayer
 10
30.4800000000000004
 20
12.6999999999999993
 30
0.0
 40
0.5
  0
CIRCLE
  5
10A
100
AcDbEntity
100
AcDbCircle
  8
0
 62
0
370
-1
  6
ByLayer
 10
27.9400000000000013
 20
12.6999999999999993
 30
0.0
 40
0.5
  0
CIRCLE
  5
10B
100
AcDbEntity
100
AcDbCircle
  8
0
 62
0
370
-1
  6
ByLayer
 10
25.3999999999999986
 20
12.6999999999999993
 30
0.0
 40
0.5
  0
CIRCLE
  5
10C
100
AcDbEntity
100
AcDbCircle
  8
0
 62
0
370
-1
  6
ByLayer
 10
22.8599999999999994
 20
12.6999999999999993
 30
0.0
 40
0.5
  0
CIRCLE
  5
10D
100
AcDbEntity
100
AcDbCircle
  8
0
 62
0
370
-1
  6
ByLayer
 10
20.3200000000000003
 20
12.6999999999999993
 30
0.0
 40
0.5
  0
CIRCLE
  5
10E
100
AcDbEntity
100
AcDbCircle
  8
0
 62
0
370
-1
  6
ByLayer
 10
17.7800000000000011
 20
12.6999999999999993
 30
0.0
 40
0.5
  0
CIRCLE
  5
10F
100
AcDbEntity
100
AcDbCircle
  8
0
 62
0
370
-1
  6
ByLayer
 10
15.2400000000000002
 20
12.6999999999999993
 30
0.0
 40
0.5
  0
CIRCLE
  5
110
100
AcDbEntity
100
AcDbCircle
  8
0
 62
0
370
-1
  6
ByLayer
 10
12.6999999999999993
 20
12.6999999999999993
 30
0.0
 40
0.5
  0
CIRCLE
  5
111
100
AcDbEntity
100
AcDbCircle
  8
0
 62
0
370
-1
  6
ByLayer
 10
10.1600000000000001
 20
12.6999999999999993
 30
0.0
 40
0.5
  0
CIRCLE
  5
112
100
AcDbEntity
100
AcDbCircle
  8
0
 62
0
370
-1
  6
ByLayer
 10
7.6200000000000001
 20
12.6999999999999993
 30
0.0
 40
0.5
  0
CIRCLE
  5
113
100
AcDbEntity
100
AcDbCircle
  8
0
 62
0
370
-1
  6
ByLayer
 10
5.0800000000000001
 20
12.6999999999999993
 30
0.0
 40
0.5
  0
CIRCLE
  5
114
100
AcDbEntity
100
AcDbCircle
  8
0
 62
0
370
-1
  6
ByLayer
 10
2.54
 20
12.6999999999999993
 30
0.0
 40
0.5
  0
CIRCLE
  5
115
100
AcDbEntity
100
AcDbCircle
  8
0
 62
0
370
-1
  6
ByLayer
 10
0.0
 20
12.6999999999999993
 30
0.0
 40
0.5
  0
CIRCLE
  5
116
100
AcDbEntity
100
AcDbCircle
  8
0
 62
0
370
-1
  6
ByLayer
 10
-2.54
 20
12.6999999999999993
 30
0.0
 40
0.5
  0
CIRCLE
  5
117
100
AcDbEntity
100
AcDbCircle
  8
0
 62
0
370
-1
  6
ByLayer
 10
40.6400000000000006
 20
10.1600000000000001
 30
0.0
 40
0.5
  0
CIRCLE
  5
118
100
AcDbEntity
100
AcDbCircle
  8
0
 62
0
370
-1
  6
ByLayer
 10
38.1000000000000014
 20
10.1600000000000001
 30
0.0
 40
0.5
  0
CIRCLE
  5
119
100
AcDbEntity
100
AcDbCircle
  8
0
 62
0
370
-1
  6
ByLayer
 10
35.5600000000000023
 20
10.1600000000000001
 30
0.0
 40
0.5
  0
CIRCLE
  5
11A
100
AcDbEntity
100
AcDbCircle
  8
0
 62
0
370
-1
  6
ByLayer
 10
33.0200000000000031
 20
10.1600000000000001
 30
0.0
 40
0.5
  0
CIRCLE
  5
11B
100
AcDbEntity
100
AcDbCircle
  8
0
 62
0
370
-1
  6
ByLayer
 10
30.4800000000000004
 20
10.1600000000000001
 30
0.0
 40
0.5
  0
CIRCLE
  5
11C
100
AcDbEntity
100
AcDbCircle
  8
0
 62
0
370
-1
  6
ByLayer
 10
27.9400000000000013
 20
10.1600000000000001
 30
0.0
 40
0.5
  0
CIRCLE
  5
11D
100
AcDbEntity
100
AcDbCircle
  8
0
 62
0
370
-1
  6
ByLayer
 10
25.3999999999999986
 20
10.1600000000000001
 30
0.0
 40
0.5
  0
CIRCLE
  5
11E
100
AcDbEntity
100
AcDbCircle
  8
0
 62
0
370
-1
  6
ByLayer
 10
22.8599999999999994
 20
10.1600000000000001
 30
0.0
 40
0.5
  0
CIRCLE
  5
11F
100
AcDbEntity
100
AcDbCircle
  8
0
 62
0
370
-1
  6
ByLayer
 10
20.3200000000000003
 20
10.1600000000000001
 30
0.0
 40
0.5
  0
CIRCLE
  5
120
100
AcDbEntity
100
AcDbCircle
  8
0
 62
0
370
-1
  6
ByLayer
 10
17.7800000000000011
 20
10.1600000000000001
 30
0.0
 40
0.5
  0
CIRCLE
  5
121
100
AcDbEntity
100
AcDbCircle
  8
0
 62
0
370
-1
  6
ByLayer
 10
15.2400000000000002
 20
10.1600000000000001
 30
0.0
 40
0.5
  0
CIRCLE
  5
122
100
AcDbEntity
100
AcDbCircle
  8
0
 62
0
370
-1
  6
ByLayer
 10
12.6999999999999993
 20
10.1600000000000001
 30
0.0
 40
0.5
  0
CIRCLE
  5
123
100
AcDbEntity
100
AcDbCircle
  8
0
 62
0
370
-1
  6
ByLayer
 10
10.1600000000000001
 20
10.1600000000000001
 30
0.0
 40
0.5
  0
CIRCLE
  5
124
100
AcDbEntity
100
AcDbCircle
  8
0
 62
0
370
-1
  6
ByLayer
 10
7.6200000000000001
 20
10.1600000000000001
 30
0.0
 40
0.5
  0
CIRCLE
  5
125
100
AcDbEntity
100
AcDbCircle
  8
0
 62
0
370
-1
  6
ByLayer
 10
5.0800000000000001
 20
10.1600000000000001
 30
0.0
 40
0.5
  0
CIRCLE
  5
126
100
AcDbEntity
100
AcDbCircle
  8
0
 62
0
370
-1
  6
ByLayer
 10
2.54
 20
10.1600000000000001
 30
0.0
 40
0.5
  0
CIRCLE
  5
127
100
AcDbEntity
100
AcDbCircle
  8
0
 62
0
370
-1
  6
ByLayer
 10
0.0
 20
10.1600000000000001
 30
0.0
 40
0.5
  0
CIRCLE
  5
128
100
AcDbEntity
100
AcDbCircle
  8
0
 62
0
370
-1
  6
ByLayer
 10
-2.54
 20
10.1600000000000001
 30
0.0
 40
0.5
  0
CIRCLE
  5
129
100
AcDbEntity
100
AcDbCircle
  8
0
 62
0
370
-1
  6
ByLayer
 10
40.6400000000000006
 20
7.6200000000000001
 30
0.0
 40
0.5
  0
CIRCLE
  5
12A
100
AcDbEntity
100
AcDbCircle
  8
0
 62
0
370
-1
  6
ByLayer
 10
38.1000000000000014
 20
7.6200000000000001
 30
0.0
 40
0.5
  0
CIRCLE
  5
12B
100
AcDbEntity
100
AcDbCircle
  8
0
 62
0
370
-1
  6
ByLayer
 10
35.5600000000000023
 20
7.6200000000000001
 30
0.0
 40
0.5
  0
CIRCLE
  5
12C
100
AcDbEntity
100
AcDbCircle
  8
0
 62
0
370
-1
  6
ByLayer
 10
33.0200000000000031
 20
7.6200000000000001
 30
0.0
 40
0.5
  0
CIRCLE
  5
12D
100
AcDbEntity
100
AcDbCircle
  8
0
 62
0
370
-1
  6
ByLayer
 10
30.4800000000000004
 20
7.6200000000000001
 30
0.0
 40
0.5
  0
CIRCLE
  5
12E
100
AcDbEntity
100
AcDbCircle
  8
0
 62
0
370
-1
  6
ByLayer
 10
27.9400000000000013
 20
7.6200000000000001
 30
0.0
 40
0.5
  0
CIRCLE
  5
12F
100
AcDbEntity
100
AcDbCircle
  8
0
 62
0
370
-1
  6
ByLayer
 10
25.3999999999999986
 20
7.6200000000000001
 30
0.0
 40
0.5
  0
CIRCLE
  5
130
100
AcDbEntity
100
AcDbCircle
  8
0
 62
0
370
-1
  6
ByLayer
 10
22.8599999999999994
 20
7.6200000000000001
 30
0.0
 40
0.5
  0
CIRCLE
  5
131
100
AcDbEntity
100
AcDbCircle
  8
0
 62
0
370
-1
  6
ByLayer
 10
20.3200000000000003
 20
7.6200000000000001
 30
0.0
 40
0.5
  0
CIRCLE
  5
132
100
AcDbEntity
100
AcDbCircle
  8
0
 62
0
370
-1
  6
ByLayer
 10
17.7800000000000011
 20
7.6200000000000001
 30
0.0
 40
0.5
  0
CIRCLE
  5
133
100
AcDbEntity
100
AcDbCircle
  8
0
 62
0
370
-1
  6
ByLayer
 10
15.2400000000000002
 20
7.6200000000000001
 30
0.0
 40
0.5
  0
CIRCLE
  5
134
100
AcDbEntity
100
AcDbCircle
  8
0
 62
0
370
-1
  6
ByLayer
 10
12.6999999999999993
 20
7.6200000000000001
 30
0.0
 40
0.5
  0
CIRCLE
  5
135
100
AcDbEntity
100
AcDbCircle
  8
0
 62
0
370
-1
  6
ByLayer
 10
10.1600000000000001
 20
7.6200000000000001
 30
0.0
 40
0.5
  0
CIRCLE
  5
136
100
AcDbEntity
100
AcDbCircle
  8
0
 62
0
370
-1
  6
ByLayer
 10
7.6200000000000001
 20
7.6200000000000001
 30
0.0
 40
0.5
  0
CIRCLE
  5
137
100
AcDbEntity
100
AcDbCircle
  8
0
 62
0
370
-1
  6
ByLayer
 10
5.0800000000000001
 20
7.6200000000000001
 30
0.0
 40
0.5
  0
CIRCLE
  5
138
100
AcDbEntity
100
AcDbCircle
  8
0
 62
0
370
-1
  6
ByLayer
 10
2.54
 20
7.6200000000000001
 30
0.0
 40
0.5
  0
CIRCLE
  5
139
100
AcDbEntity
100
AcDbCircle
  8
0
 62
0
370
-1
  6
ByLayer
 10
0.0
 20
7.6200000000000001
 30
0.0
 40
0.5
  0
CIRCLE
  5
13A
100
AcDbEntity
100
AcDbCircle
  8
0
 62
0
370
-1
  6
ByLayer
 10
-2.54
 20
7.6200000000000001
 30
0.0
 40
0.5
  0
CIRCLE
  5
13B
100
AcDbEntity
100
AcDbCircle
  8
0
 62
0
370
-1
  6
ByLayer
 10
40.6400000000000006
 20
5.0800000000000001
 30
0.0
 40
0.5
  0
CIRCLE
  5
13C
100
AcDbEntity
100
AcDbCircle
  8
0
 62
0
370
-1
  6
ByLayer
 10
38.1000000000000014
 20
5.0800000000000001
 30
0.0
 40
0.5
  0
CIRCLE
  5
13D
100
AcDbEntity
100
AcDbCircle
  8
0
 62
0
370
-1
  6
ByLayer
 10
35.5600000000000023
 20
5.0800000000000001
 30
0.0
 40
0.5
  0
CIRCLE
  5
13E
100
AcDbEntity
100
AcDbCircle
  8
0
 62
0
370
-1
  6
ByLayer
 10
33.0200000000000031
 20
5.0800000000000001
 30
0.0
 40
0.5
  0
CIRCLE
  5
13F
100
AcDbEntity
100
AcDbCircle
  8
0
 62
0
370
-1
  6
ByLayer
 10
30.4800000000000004
 20
5.0800000000000001
 30
0.0
 40
0.5
  0
CIRCLE
  5
140
100
AcDbEntity
100
AcDbCircle
  8
0
 62
0
370
-1
  6
ByLayer
 10
27.9400000000000013
 20
5.0800000000000001
 30
0.0
 40
0.5
  0
CIRCLE
  5
141
100
AcDbEntity
100
AcDbCircle
  8
0
 62
0
370
-1
  6
ByLayer
 10
25.3999999999999986
 20
5.0800000000000001
 30
0.0
 40
0.5
  0
CIRCLE
  5
142
100
AcDbEntity
100
AcDbCircle
  8
0
 62
0
370
-1
  6
ByLayer
 10
22.8599999999999994
 20
5.0800000000000001
 30
0.0
 40
0.5
  0
CIRCLE
  5
143
100
AcDbEntity
100
AcDbCircle
  8
0
 62
0
370
-1
  6
ByLayer
 10
20.3200000000000003
 20
5.0800000000000001
 30
0.0
 40
0.5
  0
CIRCLE
  5
144
100
AcDbEntity
100
AcDbCircle
  8
0
 62
0
370
-1
  6
ByLayer
 10
17.7800000000000011
 20
5.0800000000000001
 30
0.0
 40
0.5
  0
CIRCLE
  5
145
100
AcDbEntity
100
AcDbCircle
  8
0
 62
0
370
-1
  6
ByLayer
 10
15.2400000000000002
 20
5.0800000000000001
 30
0.0
 40
0.5
  0
CIRCLE
  5
146
100
AcDbEntity
100
AcDbCircle
  8
0
 62
0
370
-1
  6
ByLayer
 10
12.6999999999999993
 20
5.0800000000000001
 30
0.0
 40
0.5
  0
CIRCLE
  5
147
100
AcDbEntity
100
AcDbCircle
  8
0
 62
0
370
-1
  6
ByLayer
 10
10.1600000000000001
 20
5.0800000000000001
 30
0.0
 40
0.5
  0
CIRCLE
  5
148
100
AcDbEntity
100
AcDbCircle
  8
0
 62
0
370
-1
  6
ByLayer
 10
7.6200000000000001
 20
5.0800000000000001
 30
0.0
 40
0.5
  0
CIRCLE
  5
149
100
AcDbEntity
100
AcDbCircle
  8
0
 62
0
370
-1
  6
ByLayer
 10
5.0800000000000001
 20
5.0800000000000001
 30
0.0
 40
0.5
  0
CIRCLE
  5
14A
100
AcDbEntity
100
AcDbCircle
  8
0
 62
0
370
-1
  6
ByLayer
 10
2.54
 20
5.0800000000000001
 30
0.0
 40
0.5
  0
CIRCLE
  5
14B
100
AcDbEntity
100
AcDbCircle
  8
0
 62
0
370
-1
  6
ByLayer
 10
0.0
 20
5.0800000000000001
 30
0.0
 40
0.5
  0
CIRCLE
  5
14C
100
AcDbEntity
100
AcDbCircle
  8
0
 62
0
370
-1
  6
ByLayer
 10
-2.54
 20
5.0800000000000001
 30
0.0
 40
0.5
  0
CIRCLE
  5
14D
100
AcDbEntity
100
AcDbCircle
  8
0
 62
0
370
-1
  6
ByLayer
 10
40.6400000000000006
 20
2.54
 30
0.0
 40
0.5
  0
CIRCLE
  5
14E
100
AcDbEntity
100
AcDbCircle
  8
0
 62
0
370
-1
  6
ByLayer
 10
38.1000000000000014
 20
2.54
 30
0.0
 40
0.5
  0
CIRCLE
  5
14F
100
AcDbEntity
100
AcDbCircle
  8
0
 62
0
370
-1
  6
ByLayer
 10
35.5600000000000023
 20
2.54
 30
0.0
 40
0.5
  0
CIRCLE
  5
150
100
AcDbEntity
100
AcDbCircle
  8
0
 62
0
370
-1
  6
ByLayer
 10
33.0200000000000031
 20
2.54
 30
0.0
 40
0.5
  0
CIRCLE
  5
151
100
AcDbEntity
100
AcDbCircle
  8
0
 62
0
370
-1
  6
ByLayer
 10
30.4800000000000004
 20
2.54
 30
0.0
 40
0.5
  0
CIRCLE
  5
152
100
AcDbEntity
100
AcDbCircle
  8
0
 62
0
370
-1
  6
ByLayer
 10
27.9400000000000013
 20
2.54
 30
0.0
 40
0.5
  0
CIRCLE
  5
153
100
AcDbEntity
100
AcDbCircle
  8
0
 62
0
370
-1
  6
ByLayer
 10
25.3999999999999986
 20
2.54
 30
0.0
 40
0.5
  0
CIRCLE
  5
154
100
AcDbEntity
100
AcDbCircle
  8
0
 62
0
370
-1
  6
ByLayer
 10
22.8599999999999994
 20
2.54
 30
0.0
 40
0.5
  0
CIRCLE
  5
155
100
AcDbEntity
100
AcDbCircle
  8
0
 62
0
370
-1
  6
ByLayer
 10
20.3200000000000003
 20
2.54
 30
0.0
 40
0.5
  0
CIRCLE
  5
156
100
AcDbEntity
100
AcDbCircle
  8
0
 62
0
370
-1
  6
ByLayer
 10
17.7800000000000011
 20
2.54
 30
0.0
 40
0.5
  0
CIRCLE
  5
157
100
AcDbEntity
100
AcDbCircle
  8
0
 62
0
370
-1
  6
ByLayer
 10
15.2400000000000002
 20
2.54
 30
0.0
 40
0.5
  0
CIRCLE
  5
158
100
AcDbEntity
100
AcDbCircle
  8
0
 62
0
370
-1
  6
ByLayer
 10
12.6999999999999993
 20
2.54
 30
0.0
 40
0.5
  0
CIRCLE
  5
159
100
AcDbEntity
100
AcDbCircle
  8
0
 62
0
370
-1
  6
ByLayer
 10
10.1600000000000001
 20
2.54
 30
0.0
 40
0.5
  0
CIRCLE
  5
15A
100
AcDbEntity
100
AcDbCircle
  8
0
 62
0
370
-1
  6
ByLayer
 10
7.6200000000000001
 20
2.54
 30
0.0
 40
0.5
  0
CIRCLE
  5
15B
100
AcDbEntity
100
AcDbCircle
  8
0
 62
0
370
-1
  6
ByLayer
 10
5.0800000000000001
 20
2.54
 30
0.0
 40
0.5
  0
CIRCLE
  5
15C
100
AcDbEntity
100
AcDbCircle
  8
0
 62
0
370
-1
  6
ByLayer
 10
2.54
 20
2.54
 30
0.0
 40
0.5
  0
CIRCLE
  5
15D
100
AcDbEntity
100
AcDbCircle
  8
0
 62
0
370
-1
  6
ByLayer
 10
0.0
 20
2.54
 30
0.0
 40
0.5
  0
CIRCLE
  5
15E
100
AcDbEntity
100
AcDbCircle
  8
0
 62
0
370
-1
  6
ByLayer
 10
-2.54
 20
2.54
 30
0.0
 40
0.5
  0
CIRCLE
  5
15F
100
AcDbEntity
100
AcDbCircle
  8
0
 62
0
370
-1
  6
ByLayer
 10
40.6400000000000006
 20
0.0
 30
0.0
 40
0.5
  0
CIRCLE
  5
160
100
AcDbEntity
100
AcDbCircle
  8
0
 62
0
370
-1
  6
ByLayer
 10
35.5600000000000023
 20
0.0
 30
0.0
 40
0.5
  0
CIRCLE
  5
161
100
AcDbEntity
100
AcDbCircle
  8
0
 62
0
370
-1
  6
ByLayer
 10
33.0200000000000031
 20
0.0
 30
0.0
 40
0.5
  0
CIRCLE
  5
162
100
AcDbEntity
100
AcDbCircle
  8
0
 62
0
370
-1
  6
ByLayer
 10
30.4800000000000004
 20
0.0
 30
0.0
 40
0.5
  0
CIRCLE
  5
163
100
AcDbEntity
100
AcDbCircle
  8
0
 62
0
370
-1
  6
ByLayer
 10
27.9400000000000013
 20
0.0
 30
0.0
 40
0.5
  0
CIRCLE
  5
164
100
AcDbEntity
100
AcDbCircle
  8
0
 62
0
370
-1
  6
ByLayer
 10
25.3999999999999986
 20
0.0
 30
0.0
 40
0.5
  0
CIRCLE
  5
165
100
AcDbEntity
100
AcDbCircle
  8
0
 62
0
370
-1
  6
ByLayer
 10
22.8599999999999994
 20
0.0
 30
0.0
 40
0.5
  0
CIRCLE
  5
166
100
AcDbEntity
100
AcDbCircle
  8
0
 62
0
370
-1
  6
ByLayer
 10
20.3200000000000003
 20
0.0
 30
0.0
 40
0.5
  0
CIRCLE
  5
167
100
AcDbEntity
100
AcDbCircle
  8
0
 62
0
370
-1
  6
ByLayer
 10
17.7800000000000011
 20
0.0
 30
0.0
 40
0.5
  0
CIRCLE
  5
168
100
AcDbEntity
100
AcDbCircle
  8
0
 62
0
370
-1
  6
ByLayer
 10
15.2400000000000002
 20
0.0
 30
0.0
 40
0.5
  0
CIRCLE
  5
169
100
AcDbEntity
100
AcDbCircle
  8
0
 62
0
370
-1
  6
ByLayer
 10
12.6999999999999993
 20
0.0
 30
0.0
 40
0.5
  0
CIRCLE
  5
16A
100
AcDbEntity
100
AcDbCircle
  8
0
 62
0
370
-1
  6
ByLayer
 10
10.1600000000000001
 20
0.0
 30
0.0
 40
0.5
  0
CIRCLE
  5
16B
100
AcDbEntity
100
AcDbCircle
  8
0
 62
0
370
-1
  6
ByLayer
 10
7.6200000000000001
 20
0.0
 30
0.0
 40
0.5
  0
CIRCLE
  5
16C
100
AcDbEntity
100
AcDbCircle
  8
0
 62
0
370
-1
  6
ByLayer
 10
5.0800000000000001
 20
0.0
 30
0.0
 40
0.5
  0
CIRCLE
  5
16D
100
AcDbEntity
100
AcDbCircle
  8
0
 62
0
370
-1
  6
ByLayer
 10
2.54
 20
0.0
 30
0.0
 40
0.5
  0
CIRCLE
  5
16E
100
AcDbEntity
100
AcDbCircle
  8
0
 62
0
370
-1
  6
ByLayer
 10
-2.54
 20
0.0
 30
0.0
 40
0.5
  0
CIRCLE
  5
16F
100
AcDbEntity
100
AcDbCircle
  8
0
 62
0
370
-1
  6
ByLayer
 10
40.6400000000000006
 20
-2.54
 30
0.0
 40
0.5
  0
CIRCLE
  5
170
100
AcDbEntity
100
AcDbCircle
  8
0
 62
0
370
-1
  6
ByLayer
 10
38.1000000000000014
 20
-2.54
 30
0.0
 40
0.5
  0
CIRCLE
  5
171
100
AcDbEntity
100
AcDbCircle
  8
0
 62
0
370
-1
  6
ByLayer
 10
35.5600000000000023
 20
-2.54
 30
0.0
 40
0.5
  0
CIRCLE
  5
172
100
AcDbEntity
100
AcDbCircle
  8
0
 62
0
370
-1
  6
ByLayer
 10
33.0200000000000031
 20
-2.54
 30
0.0
 40
0.5
  0
CIRCLE
  5
173
100
AcDbEntity
100
AcDbCircle
  8
0
 62
0
370
-1
  6
ByLayer
 10
30.4800000000000004
 20
-2.54
 30
0.0
 40
0.5
  0
CIRCLE
  5
174
100
AcDbEntity
100
AcDbCircle
  8
0
 62
0
370
-1
  6
ByLayer
 10
27.9400000000000013
 20
-2.54
 30
0.0
 40
0.5
  0
CIRCLE
  5
175
100
AcDbEntity
100
AcDbCircle
  8
0
 62
0
370
-1
  6
ByLayer
 10
25.3999999999999986
 20
-2.54
 30
0.0
 40
0.5
  0
CIRCLE
  5
176
100
AcDbEntity
100
AcDbCircle
  8
0
 62
0
370
-1
  6
ByLayer
 10
22.8599999999999994
 20
-2.54
 30
0.0
 40
0.5
  0
CIRCLE
  5
177
100
AcDbEntity
100
AcDbCircle
  8
0
 62
0
370
-1
  6
ByLayer
 10
20.3200000000000003
 20
-2.54
 30
0.0
 40
0.5
  0
CIRCLE
  5
178
100
AcDbEntity
100
AcDbCircle
  8
0
 62
0
370
-1
  6
ByLayer
 10
17.7800000000000011
 20
-2.54
 30
0.0
 40
0.5
  0
CIRCLE
  5
179
100
AcDbEntity
100
AcDbCircle
  8
0
 62
0
370
-1
  6
ByLayer
 10
15.2400000000000002
 20
-2.54
 30
0.0
 40
0.5
  0
CIRCLE
  5
17A
100
AcDbEntity
100
AcDbCircle
  8
0
 62
0
370
-1
  6
ByLayer
 10
12.6999999999999993
 20
-2.54
 30
0.0
 40
0.5
  0
CIRCLE
  5
17B
100
AcDbEntity
100
AcDbCircle
  8
0
 62
0
370
-1
  6
ByLayer
 10
10.1600000000000001
 20
-2.54
 30
0.0
 40
0.5
  0
CIRCLE
  5
17C
100
AcDbEntity
100
AcDbCircle
  8
0
 62
0
370
-1
  6
ByLayer
 10
7.6200000000000001
 20
-2.54
 30
0.0
 40
0.5
  0
CIRCLE
  5
17D
100
AcDbEntity
100
AcDbCircle
  8
0
 62
0
370
-1
  6
ByLayer
 10
5.0800000000000001
 20
-2.54
 30
0.0
 40
0.5
  0
CIRCLE
  5
17E
100
AcDbEntity
100
AcDbCircle
  8
0
 62
0
370
-1
  6
ByLayer
 10
2.54
 20
-2.54
 30
0.0
 40
0.5
  0
CIRCLE
  5
17F
100
AcDbEntity
100
AcDbCircle
  8
0
 62
0
370
-1
  6
ByLayer
 10
0.0
 20
-2.54
 30
0.0
 40
0.5
  0
CIRCLE
  5
180
100
AcDbEntity
100
AcDbCircle
  8
0
 62
0
370
-1
  6
ByLayer
 10
-2.54
 20
-2.54
 30
0.0
 40
0.5
  0
LINE
  5
181
100
AcDbEntity
100
AcDbLine
  8
0
 62
0
370
-1
  6
ByLayer
 10
-5.0800000000000001
 20
40.6400000000000006
 30
0.0
 11
43.1799999999999997
 21
40.6400000000000006
 31
0.0
  0
ENDBLK
  5
182
100
AcDbEntity
  8
0
100
AcDbBlockEnd
  0
BLOCK
  5
183
100
AcDbEntity
  8
0
100
AcDbBlockBegin
  2
PART__FEATURE
 70
0
 10
0.0
 20
0.0
 30
0.0
  3
PART__FEATURE
  1

  0
LWPOLYLINE
  5
184
  8
components
 62
0
370
-1
  6
ByLayer
100
AcDbEntity
100
AcDbPolyline
 90
15
 70
0
 10
10.4299999999999997
 20
2.1899999999999999
 10
10.3800000000000008
 20
2.1899999999999999
 10
10.3300000000000001
 20
2.1899999999999999
 10
10.2799999999999994
 20
2.1899999999999999
 10
10.2300000000000004
 20
2.1899999999999999
 10
10.1799999999999997
 20
2.1899999999999999
 10
10.1300000000000008
 20
2.1899999999999999
 10
10.0800000000000001
 20
2.1899999999999999
 10
10.0299999999999994
 20
2.1899999999999999
 10
9.9800000000000004
 20
2.1899999999999999
 10
9.9299999999999997
 20
2.1899999999999999
 10
9.8800000000000008
 20
2.1899999999999999
 10
9.8300000000000001
 20
2.1899999999999999
 10
9.7799999999999994
 20
2.1899999999999999
 10
9.7300000000000004
 20
2.1899999999999999
  0
LWPOLYLINE
  5
185
  8
components
 62
0
370
-1
  6
ByLayer
100
AcDbEntity
100
AcDbPolyline
 90
15
 70
0
 10
10.4299999999999997
 20
2.8900000000000001
 10
10.3800000000000008
 20
2.8900000000000001
 10
10.3300000000000001
 20
2.8900000000000001
 10
10.2799999999999994
 20
2.8900000000000001
 10
10.2300000000000004
 20
2.8900000000000001
 10
10.1799999999999997
 20
2.8900000000000001
 10
10.1300000000000008
 20
2.8900000000000001
 10
10.0800000000000001
 20
2.8900000000000001
 10
10.0299999999999994
 20
2.8900000000000001
 10
9.9800000000000004
 20
2.8900000000000001
 10
9.9299999999999997
 20
2.8900000000000001
 10
9.8800000000000008
 20
2.8900000000000001
 10
9.8300000000000001
 20
2.8900000000000001
 10
9.7799999999999994
 20
2.8900000000000001
 10
9.7300000000000004
 20
2.8900000000000001
  0
LWPOLYLINE
  5
186
  8
components
 62
0
370
-1
  6
ByLayer
100
AcDbEntity
100
AcDbPolyline
 90
15
 70
0
 10
10.4299999999999997
 20
-2.8900000000000001
 10
10.3800000000000008
 20
-2.8900000000000001
 10
10.3300000000000001
 20
-2.8900000000000001
 10
10.2799999999999994
 20
-2.8900000000000001
 10
10.2300000000000004
 20
-2.8900000000000001
 10
10.1799999999999997
 20
-2.8900000000000001
 10
10.1300000000000008
 20
-2.8900000000000001
 10
10.0800000000000001
 20
-2.8900000000000001
 10
10.0299999999999994
 20
-2.8900000000000001
 10
9.9800000000000004
 20
-2.8900000000000001
 10
9.9299999999999997
 20
-2.8900000000000001
 10
9.8800000000000008
 20
-2.8900000000000001
 10
9.8300000000000001
 20
-2.8900000000000001
 10
9.7799999999999994
 20
-2.8900000000000001
 10
9.7300000000000004
 20
-2.8900000000000001
  0
LWPOLYLINE
  5
187
  8
components
 62
0
370
-1
  6
ByLayer
100
AcDbEntity
100
AcDbPolyline
 90
15
 70
0
 10
10.4299999999999997
 20
-2.1899999999999999
 10
10.3800000000000008
 20
-2.1899999999999999
 10
10.3300000000000001
 20
-2.1899999999999999
 10
10.2799999999999994
 20
-2.1899999999999999
 10
10.2300000000000004
 20
-2.1899999999999999
 10
10.1799999999999997
 20
-2.1899999999999999
 10
10.1300000000000008
 20
-2.1899999999999999
 10
10.0800000000000001
 20
-2.1899999999999999
 10
10.0299999999999994
 20
-2.1899999999999999
 10
9.9800000000000004
 20
-2.1899999999999999
 10
9.9299999999999997
 20
-2.1899999999999999
 10
9.8800000000000008
 20
-2.1899999999999999
 10
9.8300000000000001
 20
-2.1899999999999999
 10
9.7799999999999994
 20
-2.1899999999999999
 10
9.7300000000000004
 20
-2.1899999999999999
  0
LWPOLYLINE
  5
188
  8
components
 62
0
370
-1
  6
ByLayer
100
AcDbEntity
100
AcDbPolyline
 90
15
 70
0
 10
10.4299999999999997
 20
-0.35
 10
10.3800000000000008
 20
-0.35
 10
10.3300000000000001
 20
-0.35
 10
10.2799999999999994
 20
-0.35
 10
10.2300000000000004
 20
-0.35
 10
10.1799999999999997
 20
-0.35
 10
10.1300000000000008
 20
-0.35
 10
10.0800000000000001
 20
-0.35
 10
10.0299999999999994
 20
-0.35
 10
9.9800000000000004
 20
-0.35
 10
9.9299999999999997
 20
-0.35
 10
9.8800000000000008
 20
-0.35
 10
9.8300000000000001
 20
-0.35
 10
9.7799999999999994
 20
-0.35
 10
9.7300000000000004
 20
-0.35
  0
LWPOLYLINE
  5
189
  8
components
 62
0
370
-1
  6
ByLayer
100
AcDbEntity
100
AcDbPolyline
 90
15
 70
0
 10
10.4299999999999997
 20
0.35
 10
10.3800000000000008
 20
0.35
 10
10.3300000000000001
 20
0.35
 10
10.2799999999999994
 20
0.35
 10
10.2300000000000004
 20
0.35
 10
10.1799999999999997
 20
0.35
 10
10.1300000000000008
 20
0.35
 10
10.0800000000000001
 20
0.35
 10
10.0299999999999994
 20
0.35
 10
9.9800000000000004
 20
0.35
 10
9.9299999999999997
 20
0.35
 10
9.8800000000000008
 20
0.35
 10
9.8300000000000001
 20
0.35
 10
9.7799999999999994
 20
0.35
 10
9.7300000000000004
 20
0.35
  0
LINE
  5
18A
100
AcDbEntity
100
AcDbLine
  8
components
 62
0
370
-1
  6
ByLayer
 10
9.7300000000000004
 20
2.1899999999999999
 30
0.0
 11
7.2800000000000002
 21
2.1899999999999999
 31
0.0
  0
LINE
  5
18B
100
AcDbEntity
100
AcDbLine
  8
components
 62
0
370
-1
  6
ByLayer
 10
9.7300000000000004
 20
2.8900000000000001
 30
0.0
 11
7.2800000000000002
 21
2.8900000000000001
 31
0.0
  0
LINE
  5
18C
100
AcDbEntity
100
AcDbLine
  8
components
 62
0
370
-1
  6
ByLayer
 10
10.4299999999999997
 20
2.8900000000000001
 30
0.0
 11
10.4299999999999997
 21
2.1899999999999999
 31
0.0
  0
LINE
  5
18D
100
AcDbEntity
100
AcDbLine
  8
components
 62
0
370
-1
  6
ByLayer
 10
7.2800000000000002
 20
2.1899999999999999
 30
0.0
 11
7.2800000000000002
 21
2.8900000000000001
 31
0.0
  0
LINE
  5
18E
100
AcDbEntity
100
AcDbLine
  8
components
 62
0
370
-1
  6
ByLayer
 10
7.2800000000000002
 20
1.9399999999999999
 30
0.0
 11
7.2800000000000002
 21
3.1400000000000001
 31
0.0
  0
LINE
  5
18F
100
AcDbEntity
100
AcDbLine
  8
components
 62
0
370
-1
  6
ByLayer
 10
8.2799999999999994
 20
1.9399999999999999
 30
0.0
 11
7.2800000000000002
 21
1.9399999999999999
 31
0.0
  0
LINE
  5
190
100
AcDbEntity
100
AcDbLine
  8
components
 62
0
370
-1
  6
ByLayer
 10
5.0800000000000001
 20
-3.8100000000000001
 30
0.0
 11
5.0800000000000001
 21
3.8100000000000001
 31
0.0
  0
LINE
  5
191
100
AcDbEntity
100
AcDbLine
  8
components
 62
0
370
-1
  6
ByLayer
 10
8.2799999999999994
 20
-3.8100000000000001
 30
0.0
 11
5.0800000000000001
 21
-3.8100000000000001
 31
0.0
  0
LINE
  5
192
100
AcDbEntity
100
AcDbLine
  8
components
 62
0
370
-1
  6
ByLayer
 10
8.2799999999999994
 20
-3.8100000000000001
 30
0.0
 11
8.2799999999999994
 21
-3.1400000000000001
 31
0.0
  0
LINE
  5
193
100
AcDbEntity
100
AcDbLine
  8
components
 62
0
370
-1
  6
ByLayer
 10
8.2799999999999994
 20
-3.1400000000000001
 30
0.0
 11
7.2800000000000002
 21
-3.1400000000000001
 31
0.0
  0
LINE
  5
194
100
AcDbEntity
100
AcDbLine
  8
components
 62
0
370
-1
  6
ByLayer
 10
7.2800000000000002
 20
-3.1400000000000001
 30
0.0
 11
7.2800000000000002
 21
-1.9399999999999999
 31
0.0
  0
LINE
  5
195
100
AcDbEntity
100
AcDbLine
  8
components
 62
0
370
-1
  6
ByLayer
 10
7.2800000000000002
 20
-1.9399999999999999
 30
0.0
 11
8.2799999999999994
 21
-1.9399999999999999
 31
0.0
  0
LINE
  5
196
100
AcDbEntity
100
AcDbLine
  8
components
 62
0
370
-1
  6
ByLayer
 10
8.2799999999999994
 20
-1.9399999999999999
 30
0.0
 11
8.2799999999999994
 21
-0.6
 31
0.0
  0
LINE
  5
197
100
AcDbEntity
100
AcDbLine
  8
components
 62
0
370
-1
  6
ByLayer
 10
8.2799999999999994
 20
-0.6
 30
0.0
 11
7.2800000000000002
 21
-0.6
 31
0.0
  0
LINE
  5
198
100
AcDbEntity
100
AcDbLine
  8
components
 62
0
370
-1
  6
ByLayer
 10
7.2800000000000002
 20
-0.6
 30
0.0
 11
7.2800000000000002
 21
0.6
 31
0.0
  0
LINE
  5
199
100
AcDbEntity
100
AcDbLine
  8
components
 62
0
370
-1
  6
ByLayer
 10
7.2800000000000002
 20
0.6
 30
0.0
 11
8.2799999999999994
 21
0.6
 31
0.0
  0
LINE
  5
19A
100
AcDbEntity
100
AcDbLine
  8
components
 62
0
370
-1
  6
ByLayer
 10
8.2799999999999994
 20
0.6
 30
0.0
 11
8.2799999999999994
 21
1.9399999999999999
 31
0.0
  0
LINE
  5
19B
100
AcDbEntity
100
AcDbLine
  8
components
 62
0
370
-1
  6
ByLayer
 10
7.2800000000000002
 20
3.1400000000000001
 30
0.0
 11
8.2799999999999994
 21
3.1400000000000001
 31
0.0
  0
LINE
  5
19C
100
AcDbEntity
100
AcDbLine
  8
components
 62
0
370
-1
  6
ByLayer
 10
8.2799999999999994
 20
3.1400000000000001
 30
0.0
 11
8.2799999999999994
 21
3.8100000000000001
 31
0.0
  0
LINE
  5
19D
100
AcDbEntity
100
AcDbLine
  8
components
 62
0
370
-1
  6
ByLayer
 10
5.0800000000000001
 20
3.8100000000000001
 30
0.0
 11
8.2799999999999994
 21
3.8100000000000001
 31
0.0
  0
ARC
  5
19E
100
AcDbEntity
  8
components
 62
0
370
-1
  6
ByLayer
100
AcDbCircle
 10
-2.2200000000000002
 20
-1.54
 30
0.0
 40
1.0
100
AcDbArc
 50
-107.457603124000002
 51
180.0
  0
LINE
  5
19F
100
AcDbEntity
100
AcDbLine
  8
components
 62
0
370
-1
  6
ByLayer
 10
-3.2200000000000002
 20
-1.54
 30
0.0
 11
-3.2200000000000002
 21
1.54
 31
0.0
  0
ARC
  5
1A0
100
AcDbEntity
  8
components
 62
0
370
-1
  6
ByLayer
100
AcDbCircle
 10
-2.2200000000000002
 20
1.54
 30
0.0
 40
1.0
100
AcDbArc
 50
107.457603124000002
 51
180.0
  0
LINE
  5
1A1
100
AcDbEntity
100
AcDbLine
  8
components
 62
0
370
-1
  6
ByLayer
 10
7.2800000000000002
 20
-2.8900000000000001
 30
0.0
 11
7.2800000000000002
 21
-2.1899999999999999
 31
0.0
  0
LINE
  5
1A2
100
AcDbEntity
100
AcDbLine
  8
components
 62
0
370
-1
  6
ByLayer
 10
5.0800000000000001
 20
-2.8900000000000001
 30
0.0
 11
-2.52
 21
-2.8900000000000001
 31
0.0
  0
LINE
  5
1A3
100
AcDbEntity
100
AcDbLine
  8
components
 62
0
370
-1
  6
ByLayer
 10
-2.52
 20
-2.1899999999999999
 30
0.0
 11
-2.52
 21
-2.8900000000000001
 31
0.0
  0
LINE
  5
1A4
100
AcDbEntity
100
AcDbLine
  8
components
 62
0
370
-1
  6
ByLayer
 10
5.0800000000000001
 20
-2.1899999999999999
 30
0.0
 11
-2.52
 21
-2.1899999999999999
 31
0.0
  0
LINE
  5
1A5
100
AcDbEntity
100
AcDbLine
  8
components
 62
0
370
-1
  6
ByLayer
 10
5.0800000000000001
 20
-0.35
 30
0.0
 11
-2.52
 21
-0.35
 31
0.0
  0
LINE
  5
1A6
100
AcDbEntity
100
AcDbLine
  8
components
 62
0
370
-1
  6
ByLayer
 10
-2.52
 20
0.35
 30
0.0
 11
-2.52
 21
-0.35
 31
0.0
  0
LINE
  5
1A7
100
AcDbEntity
100
AcDbLine
  8
components
 62
0
370
-1
  6
ByLayer
 10
5.0800000000000001
 20
0.35
 30
0.0
 11
-2.52
 21
0.35
 31
0.0
  0
LINE
  5
1A8
100
AcDbEntity
100
AcDbLine
  8
components
 62
0
370
-1
  6
ByLayer
 10
5.0800000000000001
 20
2.1899999999999999
 30
0.0
 11
-2.52
 21
2.1899999999999999
 31
0.0
  0
LINE
  5
1A9
100
AcDbEntity
100
AcDbLine
  8
components
 62
0
370
-1
  6
ByLayer
 10
-2.52
 20
2.8900000000000001
 30
0.0
 11
-2.52
 21
2.1899999999999999
 31
0.0
  0
LINE
  5
1AA
100
AcDbEntity
100
AcDbLine
  8
components
 62
0
370
-1
  6
ByLayer
 10
5.0800000000000001
 20
2.8900000000000001
 30
0.0
 11
-2.52
 21
2.8900000000000001
 31
0.0
  0
LINE
  5
1AB
100
AcDbEntity
100
AcDbLine
  8
components
 62
0
370
-1
  6
ByLayer
 10
9.7300000000000004
 20
-2.8900000000000001
 30
0.0
 11
7.2800000000000002
 21
-2.8900000000000001
 31
0.0
  0
LINE
  5
1AC
100
AcDbEntity
100
AcDbLine
  8
components
 62
0
370
-1
  6
ByLayer
 10
9.7300000000000004
 20
-2.1899999999999999
 30
0.0
 11
7.2800000000000002
 21
-2.1899999999999999
 31
0.0
  0
LINE
  5
1AD
100
AcDbEntity
100
AcDbLine
  8
components
 62
0
370
-1
  6
ByLayer
 10
9.7300000000000004
 20
-0.35
 30
0.0
 11
7.2800000000000002
 21
-0.35
 31
0.0
  0
LINE
  5
1AE
100
AcDbEntity
100
AcDbLine
  8
components
 62
0
370
-1
  6
ByLayer
 10
9.7300000000000004
 20
0.35
 30
0.0
 11
7.2800000000000002
 21
0.35
 31
0.0
  0
LINE
  5
1AF
100
AcDbEntity
100
AcDbLine
  8
components
 62
0
370
-1
  6
ByLayer
 10
10.4299999999999997
 20
-2.1899999999999999
 30
0.0
 11
10.4299999999999997
 21
-2.8900000000000001
 31
0.0
  0
LINE
  5
1B0
100
AcDbEntity
100
AcDbLine
  8
components
 62
0
370
-1
  6
ByLayer
 10
10.4299999999999997
 20
0.35
 30
0.0
 11
10.4299999999999997
 21
-0.35
 31
0.0
  0
LINE
  5
1B1
100
AcDbEntity
100
AcDbLine
  8
components
 62
0
370
-1
  6
ByLayer
 10
9.7300000000000004
 20
2.8900000000000001
 30
0.0
 11
9.7300000000000004
 21
2.1899999999999999
 31
0.0
  0
LINE
  5
1B2
100
AcDbEntity
100
AcDbLine
  8
components
 62
0
370
-1
  6
ByLayer
 10
9.7300000000000004
 20
-2.1899999999999999
 30
0.0
 11
9.7300000000000004
 21
-2.8900000000000001
 31
0.0
  0
LINE
  5
1B3
100
AcDbEntity
100
AcDbLine
  8
components
 62
0
370
-1
  6
ByLayer
 10
9.7300000000000004
 20
0.35
 30
0.0
 11
9.7300000000000004
 21
-0.35
 31
0.0
  0
ENDBLK
  5
1B4
100
AcDbEntity
  8
0
100
AcDbBlockEnd
  0
BLOCK
  5
1B5
100
AcDbEntity
  8
0
100
AcDbBlockBegin
  2
COMPOUND
 70
0
 10
0.0
 20
0.0
 30
0.0
  3
COMPOUND
  1

  0
LWPOLYLINE
  5
1B6
  8
components
 62
0
370
-1
  6
ByLayer
100
AcDbEntity
100
AcDbPolyline
 90
2
 70
0
 10
22.7460791610999991
 20
14.9800000000000004
 10
22.7720155238000004
 20
14.9800000000000004
  0
LWPOLYLINE
  5
1B7
  8
components
 62
0
370
-1
  6
ByLayer
100
AcDbEntity
100
AcDbPolyline
 90
9
 70
0
 10
22.1499999999999986
 20
14.9800000000000004
 10
22.1999999999999993
 20
14.9800000000000004
 10
22.25
 20
14.9800000000000004
 10
22.3000000000000007
 20
14.9800000000000004
 10
22.3500000000000014
 20
14.9800000000000004
 10
22.3999999999999986
 20
14.9800000000000004
 10
22.4499999999999993
 20
14.9800000000000004
 10
22.5
 20
14.9800000000000004
 10
22.5500000000000007
 20
14.9800000000000004
  0
LWPOLYLINE
  5
1B8
  8
components
 62
0
370
-1
  6
ByLayer
100
AcDbEntity
100
AcDbPolyline
 90
3
 70
0
 10
23.0201427983999984
 20
14.9800000000000004
 10
23.0701427983999992
 20
14.9800000000000004
 10
23.0720155238000011
 20
14.9800000000000004
  0
LWPOLYLINE
  5
1B9
  8
components
 62
0
370
-1
  6
ByLayer
100
AcDbEntity
100
AcDbPolyline
 90
9
 70
0
 10
22.1499999999999986
 20
15.6799999999999997
 10
22.1999999999999993
 20
15.6799999999999997
 10
22.25
 20
15.6799999999999997
 10
22.3000000000000007
 20
15.6799999999999997
 10
22.3500000000000014
 20
15.6799999999999997
 10
22.3999999999999986
 20
15.6799999999999997
 10
22.4499999999999993
 20
15.6799999999999997
 10
22.5
 20
15.6799999999999997
 10
22.5500000000000007
 20
15.6799999999999997
  0
LWPOLYLINE
  5
1BA
  8
components
 62
0
370
-1
  6
ByLayer
100
AcDbEntity
100
AcDbPolyline
 90
3
 70
0
 10
23.0201427983999984
 20
15.6799999999999997
 10
23.0701427983999992
 20
15.6799999999999997
 10
23.0720155238000011
 20
15.6799999999999997
  0
LWPOLYLINE
  5
1BB
  8
components
 62
0
370
-1
  6
ByLayer
100
AcDbEntity
100
AcDbPolyline
 90
9
 70
0
 10
15.9499999999999993
 20
15.5800000000000001
 10
15.9000000000000004
 20
15.5800000000000001
 10
15.8499999999999996
 20
15.5800000000000001
 10
15.8000000000000007
 20
15.5800000000000001
 10
15.75
 20
15.5800000000000001
 10
15.6999999999999993
 20
15.5800000000000001
 10
15.6500000000000004
 20
15.5800000000000001
 10
15.5999999999999996
 20
15.5800000000000001
 10
15.5500000000000007
 20
15.5800000000000001
  0
LWPOLYLINE
  5
1BC
  8
components
 62
0
370
-1
  6
ByLayer
100
AcDbEntity
100
AcDbPolyline
 90
3
 70
0
 10
15.0798572015999994
 20
15.5800000000000001
 10
15.0298572016000005
 20
15.5800000000000001
 10
15.0279844762000003
 20
15.5800000000000001
  0
LWPOLYLINE
  5
1BD
  8
components
 62
0
370
-1
  6
ByLayer
100
AcDbEntity
100
AcDbPolyline
 90
2
 70
0
 10
15.3539208389000006
 20
14.8800000000000008
 10
15.3279844761999993
 20
14.8800000000000008
  0
LWPOLYLINE
  5
1BE
  8
components
 62
0
370
-1
  6
ByLayer
100
AcDbEntity
100
AcDbPolyline
 90
9
 70
0
 10
15.9499999999999993
 20
14.8800000000000008
 10
15.9000000000000004
 20
14.8800000000000008
 10
15.8499999999999996
 20
14.8800000000000008
 10
15.8000000000000007
 20
14.8800000000000008
 10
15.75
 20
14.8800000000000008
 10
15.6999999999999993
 20
14.8800000000000008
 10
15.6500000000000004
 20
14.8800000000000008
 10
15.5999999999999996
 20
14.8800000000000008
 10
15.5500000000000007
 20
14.8800000000000008
  0
LWPOLYLINE
  5
1BF
  8
components
 62
0
370
-1
  6
ByLayer
100
AcDbEntity
100
AcDbPolyline
 90
3
 70
0
 10
15.0798572015999994
 20
14.8800000000000008
 10
15.0298572016000005
 20
14.8800000000000008
 10
15.0279844762000003
 20
14.8800000000000008
  0
LWPOLYLINE
  5
1C0
  8
components
 62
0
370
-1
  6
ByLayer
100
AcDbEntity
100
AcDbPolyline
 90
9
 70
0
 10
22.1499999999999986
 20
19.9800000000000004
 10
22.1999999999999993
 20
19.9800000000000004
 10
22.25
 20
19.9800000000000004
 10
22.3000000000000007
 20
19.9800000000000004
 10
22.3500000000000014
 20
19.9800000000000004
 10
22.3999999999999986
 20
19.9800000000000004
 10
22.4499999999999993
 20
19.9800000000000004
 10
22.5
 20
19.9800000000000004
 10
22.5500000000000007
 20
19.9800000000000004
  0
LWPOLYLINE
  5
1C1
  8
components
 62
0
370
-1
  6
ByLayer
100
AcDbEntity
100
AcDbPolyline
 90
3
 70
0
 10
23.0201427983999984
 20
19.9800000000000004
 10
23.0701427983999992
 20
19.9800000000000004
 10
23.0720155238000011
 20
19.9800000000000004
  0
LWPOLYLINE
  5
1C2
  8
components
 62
0
370
-1
  6
ByLayer
100
AcDbEntity
100
AcDbPolyline
 90
9
 70
0
 10
22.1499999999999986
 20
20.6799999999999997
 10
22.1999999999999993
 20
20.6799999999999997
 10
22.25
 20
20.6799999999999997
 10
22.3000000000000007
 20
20.6799999999999997
 10
22.3500000000000014
 20
20.6799999999999997
 10
22.3999999999999986
 20
20.6799999999999997
 10
22.4499999999999993
 20
20.6799999999999997
 10
22.5
 20
20.6799999999999997
 10
22.5500000000000007
 20
20.6799999999999997
  0
LWPOLYLINE
  5
1C3
  8
components
 62
0
370
-1
  6
ByLayer
100
AcDbEntity
100
AcDbPolyline
 90
3
 70
0
 10
23.0201427983999984
 20
20.6799999999999997
 10
23.0701427983999992
 20
20.6799999999999997
 10
23.0720155238000011
 20
20.6799999999999997
  0
LWPOLYLINE
  5
1C4
  8
components
 62
0
370
-1
  6
ByLayer
100
AcDbEntity
100
AcDbPolyline
 90
9
 70
0
 10
15.9499999999999993
 20
20.5799999999999983
 10
15.9000000000000004
 20
20.5799999999999983
 10
15.8499999999999996
 20
20.5799999999999983
 10
15.8000000000000007
 20
20.5799999999999983
 10
15.75
 20
20.5799999999999983
 10
15.6999999999999993
 20
20.5799999999999983
 10
15.6500000000000004
 20
20.5799999999999983
 10
15.5999999999999996
 20
20.5799999999999983
 10
15.5500000000000007
 20
20.5799999999999983
  0
LWPOLYLINE
  5
1C5
  8
components
 62
0
370
-1
  6
ByLayer
100
AcDbEntity
100
AcDbPolyline
 90
3
 70
0
 10
15.0798572015999994
 20
20.5799999999999983
 10
15.0298572016000005
 20
20.5799999999999983
 10
15.0279844762000003
 20
20.5799999999999983
  0
LWPOLYLINE
  5
1C6
  8
components
 62
0
370
-1
  6
ByLayer
100
AcDbEntity
100
AcDbPolyline
 90
9
 70
0
 10
15.9499999999999993
 20
19.879999999999999
 10
15.9000000000000004
 20
19.879999999999999
 10
15.8499999999999996
 20
19.879999999999999
 10
15.8000000000000007
 20
19.879999999999999
 10
15.75
 20
19.879999999999999
 10
15.6999999999999993
 20
19.879999999999999
 10
15.6500000000000004
 20
19.879999999999999
 10
15.5999999999999996
 20
19.879999999999999
 10
15.5500000000000007
 20
19.879999999999999
  0
LWPOLYLINE
  5
1C7
  8
components
 62
0
370
-1
  6
ByLayer
100
AcDbEntity
100
AcDbPolyline
 90
3
 70
0
 10
15.0798572015999994
 20
19.879999999999999
 10
15.0298572016000005
 20
19.879999999999999
 10
15.0279844762000003
 20
19.879999999999999
  0
LWPOLYLINE
  5
1C8
  8
components
 62
0
370
-1
  6
ByLayer
100
AcDbEntity
100
AcDbPolyline
 90
3
 70
0
 10
20.75
 20
17.7800000000000011
 10
20.6999999999999993
 20
17.7800000000000011
 10
20.6499999999999986
 20
17.7800000000000011
  0
CIRCLE
  5
1C9
100
AcDbEntity
100
AcDbCircle
  8
components
 62
0
370
-1
  6
ByLayer
 10
19.0500000000000007
 20
17.7800000000000011
 30
0.0
 40
1.7
  0
LINE
  5
1CA
100
AcDbEntity
100
AcDbLine
  8
components
 62
0
370
-1
  6
ByLayer
 10
15.9499999999999993
 20
14.8800000000000008
 30
0.0
 11
15.9499999999999993
 21
20.6799999999999997
 31
0.0
  0
LINE
  5
1CB
100
AcDbEntity
100
AcDbLine
  8
components
 62
0
370
-1
  6
ByLayer
 10
21.9499999999999993
 20
14.6799999999999997
 30
0.0
 11
16.1499999999999986
 21
14.6799999999999997
 31
0.0
  0
LINE
  5
1CC
100
AcDbEntity
100
AcDbLine
  8
components
 62
0
370
-1
  6
ByLayer
 10
22.1499999999999986
 20
20.6799999999999997
 30
0.0
 11
22.1499999999999986
 21
14.8800000000000008
 31
0.0
  0
LINE
  5
1CD
100
AcDbEntity
100
AcDbLine
  8
components
 62
0
370
-1
  6
ByLayer
 10
16.1499999999999986
 20
20.879999999999999
 30
0.0
 11
21.9499999999999993
 21
20.879999999999999
 31
0.0
  0
CIRCLE
  5
1CE
100
AcDbEntity
100
AcDbCircle
  8
components
 62
0
370
-1
  6
ByLayer
 10
16.75
 20
15.4800000000000004
 30
0.0
 40
0.6
  0
CIRCLE
  5
1CF
100
AcDbEntity
100
AcDbCircle
  8
components
 62
0
370
-1
  6
ByLayer
 10
16.75
 20
20.0799999999999983
 30
0.0
 40
0.6
  0
CIRCLE
  5
1D0
100
AcDbEntity
100
AcDbCircle
  8
components
 62
0
370
-1
  6
ByLayer
 10
21.3500000000000014
 20
20.0799999999999983
 30
0.0
 40
0.6
  0
CIRCLE
  5
1D1
100
AcDbEntity
100
AcDbCircle
  8
components
 62
0
370
-1
  6
ByLayer
 10
21.3500000000000014
 20
15.4800000000000004
 30
0.0
 40
0.6
  0
LINE
  5
1D2
100
AcDbEntity
100
AcDbLine
  8
components
 62
0
370
-1
  6
ByLayer
 10
22.5500000000000007
 20
14.9800000000000004
 30
0.0
 11
23.0201427983999984
 21
14.9800000000000004
 31
0.0
  0
LINE
  5
1D3
100
AcDbEntity
100
AcDbLine
  8
components
 62
0
370
-1
  6
ByLayer
 10
22.5500000000000007
 20
15.6799999999999997
 30
0.0
 11
23.0201427983999984
 21
15.6799999999999997
 31
0.0
  0
LINE
  5
1D4
100
AcDbEntity
100
AcDbLine
  8
components
 62
0
370
-1
  6
ByLayer
 10
22.5500000000000007
 20
14.9800000000000004
 30
0.0
 11
22.5500000000000007
 21
15.6799999999999997
 31
0.0
  0
LINE
  5
1D5
100
AcDbEntity
100
AcDbLine
  8
components
 62
0
370
-1
  6
ByLayer
 10
22.5500000000000007
 20
14.9800000000000004
 30
0.0
 11
22.5500000000000007
 21
15.6799999999999997
 31
0.0
  0
LINE
  5
1D6
100
AcDbEntity
100
AcDbLine
  8
components
 62
0
370
-1
  6
ByLayer
 10
15.5500000000000007
 20
15.5800000000000001
 30
0.0
 11
15.0798572015999994
 21
15.5800000000000001
 31
0.0
  0
LINE
  5
1D7
100
AcDbEntity
100
AcDbLine
  8
components
 62
0
370
-1
  6
ByLayer
 10
15.5500000000000007
 20
14.8800000000000008
 30
0.0
 11
15.0798572015999994
 21
14.8800000000000008
 31
0.0
  0
LINE
  5
1D8
100
AcDbEntity
100
AcDbLine
  8
components
 62
0
370
-1
  6
ByLayer
 10
15.5500000000000007
 20
15.5800000000000001
 30
0.0
 11
15.5500000000000007
 21
14.8800000000000008
 31
0.0
  0
LINE
  5
1D9
100
AcDbEntity
100
AcDbLine
  8
components
 62
0
370
-1
  6
ByLayer
 10
15.5500000000000007
 20
15.5800000000000001
 30
0.0
 11
15.5500000000000007
 21
14.8800000000000008
 31
0.0
  0
LINE
  5
1DA
100
AcDbEntity
100
AcDbLine
  8
components
 62
0
370
-1
  6
ByLayer
 10
15.9499999999999993
 20
15.5800000000000001
 30
0.0
 11
15.9499999999999993
 21
14.8800000000000008
 31
0.0
  0
LINE
  5
1DB
100
AcDbEntity
100
AcDbLine
  8
components
 62
0
370
-1
  6
ByLayer
 10
22.5500000000000007
 20
19.9800000000000004
 30
0.0
 11
23.0201427983999984
 21
19.9800000000000004
 31
0.0
  0
LINE
  5
1DC
100
AcDbEntity
100
AcDbLine
  8
components
 62
0
370
-1
  6
ByLayer
 10
22.5500000000000007
 20
20.6799999999999997
 30
0.0
 11
23.0201427983999984
 21
20.6799999999999997
 31
0.0
  0
LINE
  5
1DD
100
AcDbEntity
100
AcDbLine
  8
components
 62
0
370
-1
  6
ByLayer
 10
22.5500000000000007
 20
19.9800000000000004
 30
0.0
 11
22.5500000000000007
 21
20.6799999999999997
 31
0.0
  0
LINE
  5
1DE
100
AcDbEntity
100
AcDbLine
  8
components
 62
0
370
-1
  6
ByLayer
 10
22.5500000000000007
 20
19.9800000000000004
 30
0.0
 11
22.5500000000000007
 21
20.6799999999999997
 31
0.0
  0
LINE
  5
1DF
100
AcDbEntity
100
AcDbLine
  8
components
 62
0
370
-1
  6
ByLayer
 10
22.1499999999999986
 20
19.9800000000000004
 30
0.0
 11
22.1499999999999986
 21
20.6799999999999997
 31
0.0
  0
LINE
  5
1E0
100
AcDbEntity
100
AcDbLine
  8
components
 62
0
370
-1
  6
ByLayer
 10
15.5500000000000007
 20
20.5799999999999983
 30
0.0
 11
15.0798572015999994
 21
20.5799999999999983
 31
0.0
  0
LINE
  5
1E1
100
AcDbEntity
100
AcDbLine
  8
components
 62
0
370
-1
  6
ByLayer
 10
15.5500000000000007
 20
19.879999999999999
 30
0.0
 11
15.0798572015999994
 21
19.879999999999999
 31
0.0
  0
LINE
  5
1E2
100
AcDbEntity
100
AcDbLine
  8
components
 62
0
370
-1
  6
ByLayer
 10
15.5500000000000007
 20
20.5799999999999983
 30
0.0
 11
15.5500000000000007
 21
19.879999999999999
 31
0.0
  0
LINE
  5
1E3
100
AcDbEntity
100
AcDbLine
  8
components
 62
0
370
-1
  6
ByLayer
 10
15.9499999999999993
 20
14.8800000000000008
 30
0.0
 11
15.9499999999999993
 21
20.6799999999999997
 31
0.0
  0
ARC
  5
1E4
100
AcDbEntity
  8
components
 62
0
370
-1
  6
ByLayer
100
AcDbCircle
 10
16.1499999999999986
 20
20.6799999999999997
 30
0.0
 40
0.2
100
AcDbArc
 50
90.0
 51
-180.0
  0
LINE
  5
1E5
100
AcDbEntity
100
AcDbLine
  8
components
 62
0
370
-1
  6
ByLayer
 10
16.1499999999999986
 20
20.879999999999999
 30
0.0
 11
21.9499999999999993
 21
20.879999999999999
 31
0.0
  0
ARC
  5
1E6
100
AcDbEntity
  8
components
 62
0
370
-1
  6
ByLayer
100
AcDbCircle
 10
21.9499999999999993
 20
20.6799999999999997
 30
0.0
 40
0.2
100
AcDbArc
 50
-0.0
 51
90.0
  0
LINE
  5
1E7
100
AcDbEntity
100
AcDbLine
  8
components
 62
0
370
-1
  6
ByLayer
 10
22.1499999999999986
 20
20.6799999999999997
 30
0.0
 11
22.1499999999999986
 21
14.8800000000000008
 31
0.0
  0
ARC
  5
1E8
100
AcDbEntity
  8
components
 62
0
370
-1
  6
ByLayer
100
AcDbCircle
 10
21.9499999999999993
 20
14.8800000000000008
 30
0.0
 40
0.2
100
AcDbArc
 50
-90.0
 51
-0.0
  0
LINE
  5
1E9
100
AcDbEntity
100
AcDbLine
  8
components
 62
0
370
-1
  6
ByLayer
 10
21.9499999999999993
 20
14.6799999999999997
 30
0.0
 11
16.1499999999999986
 21
14.6799999999999997
 31
0.0
  0
ARC
  5
1EA
100
AcDbEntity
  8
components
 62
0
370
-1
  6
ByLayer
100
AcDbCircle
 10
16.1499999999999986
 20
14.8800000000000008
 30
0.0
 40
0.2
100
AcDbArc
 50
-180.0
 51
-90.0
  0
CIRCLE
  5
1EB
100
AcDbEntity
100
AcDbCircle
  8
components
 62
0
370
-1
  6
ByLayer
 10
19.0500000000000007
 20
17.7800000000000011
 30
0.0
 40
1.75
  0
CIRCLE
  5
1EC
100
AcDbEntity
100
AcDbCircle
  8
components
 62
0
370
-1
  6
ByLayer
 10
21.3500000000000014
 20
15.4800000000000004
 30
0.0
 40
0.65
  0
CIRCLE
  5
1ED
100
AcDbEntity
100
AcDbCircle
  8
components
 62
0
370
-1
  6
ByLayer
 10
16.75
 20
15.4800000000000004
 30
0.0
 40
0.65
  0
CIRCLE
  5
1EE
100
AcDbEntity
100
AcDbCircle
  8
components
 62
0
370
-1
  6
ByLayer
 10
21.3500000000000014
 20
20.0799999999999983
 30
0.0
 40
0.65
  0
CIRCLE
  5
1EF
100
AcDbEntity
100
AcDbCircle
  8
components
 62
0
370
-1
  6
ByLayer
 10
16.75
 20
20.0799999999999983
 30
0.0
 40
0.65
  0
CIRCLE
  5
1F0
100
AcDbEntity
100
AcDbCircle
  8
components
 62
0
370
-1
  6
ByLayer
 10
19.0500000000000007
 20
17.7800000000000011
 30
0.0
 40
1.7
  0
CIRCLE
  5
1F1
100
AcDbEntity
100
AcDbCircle
  8
components
 62
0
370
-1
  6
ByLayer
 10
19.0500000000000007
 20
17.7800000000000011
 30
0.0
 40
1.6000000000000001
  0
LINE
  5
1F2
100
AcDbEntity
100
AcDbLine
  8
components
 62
0
370
-1
  6
ByLayer
 10
23.0201427983999984
 20
14.9800000000000004
 30
0.0
 11
23.0201427983999984
 21
15.6799999999999997
 31
0.0
  0
LINE
  5
1F3
100
AcDbEntity
100
AcDbLine
  8
components
 62
0
370
-1
  6
ByLayer
 10
15.0798572015999994
 20
15.5800000000000001
 30
0.0
 11
15.0798572015999994
 21
14.8800000000000008
 31
0.0
  0
LINE
  5
1F4
100
AcDbEntity
100
AcDbLine
  8
components
 62
0
370
-1
  6
ByLayer
 10
23.0201427983999984
 20
19.9800000000000004
 30
0.0
 11
23.0201427983999984
 21
20.6799999999999997
 31
0.0
  0
LINE
  5
1F5
100
AcDbEntity
100
AcDbLine
  8
components
 62
0
370
-1
  6
ByLayer
 10
15.0798572015999994
 20
20.5799999999999983
 30
0.0
 11
15.0798572015999994
 21
19.879999999999999
 31
0.0
  0
LINE
  5
1F6
100
AcDbEntity
100
AcDbLine
  8
components
 62
0
370
-1
  6
ByLayer
 10
23.0720155238000011
 20
15.6799999999999997
 30
0.0
 11
23.0720155238000011
 21
14.9800000000000004
 31
0.0
  0
LINE
  5
1F7
100
AcDbEntity
100
AcDbLine
  8
components
 62
0
370
-1
  6
ByLayer
 10
15.0279844762000003
 20
14.8800000000000008
 30
0.0
 11
15.0279844762000003
 21
15.5800000000000001
 31
0.0
  0
LINE
  5
1F8
100
AcDbEntity
100
AcDbLine
  8
components
 62
0
370
-1
  6
ByLayer
 10
23.0720155238000011
 20
20.6799999999999997
 30
0.0
 11
23.0720155238000011
 21
19.9800000000000004
 31
0.0
  0
LINE
  5
1F9
100
AcDbEntity
100
AcDbLine
  8
components
 62
0
370
-1
  6
ByLayer
 10
15.0279844762000003
 20
19.879999999999999
 30
0.0
 11
15.0279844762000003
 21
20.5799999999999983
 31
0.0
  0
ENDBLK
  5
1FA
100
AcDbEntity
  8
0
100
AcDbBlockEnd
  0
BLOCK
  5
1FB
100
AcDbEntity
  8
0
100
AcDbBlockBegin
  2
COMPOUND001
 70
0
 10
0.0
 20
0.0
 30
0.0
  3
COMPOUND001
  1

  0
LWPOLYLINE
  5
1FC
  8
components
 62
0
370
-1
  6
ByLayer
100
AcDbEntity
100
AcDbPolyline
 90
2
 70
0
 10
22.7460791610999991
 20
30.2199999999999989
 10
22.7720155238000004
 20
30.2199999999999989
  0
LWPOLYLINE
  5
1FD
  8
components
 62
0
370
-1
  6
ByLayer
100
AcDbEntity
100
AcDbPolyline
 90
9
 70
0
 10
22.1499999999999986
 20
30.2199999999999989
 10
22.1999999999999993
 20
30.2199999999999989
 10
22.25
 20
30.2199999999999989
 10
22.3000000000000007
 20
30.2199999999999989
 10
22.3500000000000014
 20
30.2199999999999989
 10
22.3999999999999986
 20
30.2199999999999989
 10
22.4499999999999993
 20
30.2199999999999989
 10
22.5
 20
30.2199999999999989
 10
22.5500000000000007
 20
30.2199999999999989
  0
LWPOLYLINE
  5
1FE
  8
components
 62
0
370
-1
  6
ByLayer
100
AcDbEntity
100
AcDbPolyline
 90
3
 70
0
 10
23.0201427983999984
 20
30.2199999999999989
 10
23.0701427983999992
 20
30.2199999999999989
 10
23.0720155238000011
 20
30.2199999999999989
  0
LWPOLYLINE
  5
1FF
  8
components
 62
0
370
-1
  6
ByLayer
100
AcDbEntity
100
AcDbPolyline
 90
9
 70
0
 10
22.1499999999999986
 20
30.9200000000000017
 10
22.1999999999999993
 20
30.9200000000000017
 10
22.25
 20
30.9200000000000017
 10
22.3000000000000007
 20
30.9200000000000017
 10
22.3500000000000014
 20
30.9200000000000017
 10
22.3999999999999986
 20
30.9200000000000017
 10
22.4499999999999993
 20
30.9200000000000017
 10
22.5
 20
30.9200000000000017
 10
22.5500000000000007
 20
30.9200000000000017
  0
LWPOLYLINE
  5
200
  8
components
 62
0
370
-1
  6
ByLayer
100
AcDbEntity
100
AcDbPolyline
 90
3
 70
0
 10
23.0201427983999984
 20
30.9200000000000017
 10
23.0701427983999992
 20
30.9200000000000017
 10
23.0720155238000011
 20
30.9200000000000017
  0
LWPOLYLINE
  5
201
  8
components
 62
0
370
-1
  6
ByLayer
100
AcDbEntity
100
AcDbPolyline
 90
9
 70
0
 10
15.9499999999999993
 20
30.8200000000000003
 10
15.9000000000000004
 20
30.8200000000000003
 10
15.8499999999999996
 20
30.8200000000000003
 10
15.8000000000000007
 20
30.8200000000000003
 10
15.75
 20
30.8200000000000003
 10
15.6999999999999993
 20
30.8200000000000003
 10
15.6500000000000004
 20
30.8200000000000003
 10
15.5999999999999996
 20
30.8200000000000003
 10
15.5500000000000007
 20
30.8200000000000003
  0
LWPOLYLINE
  5
202
  8
components
 62
0
370
-1
  6
ByLayer
100
AcDbEntity
100
AcDbPolyline
 90
3
 70
0
 10
15.0798572015999994
 20
30.8200000000000003
 10
15.0298572016000005
 20
30.8200000000000003
 10
15.0279844762000003
 20
30.8200000000000003
  0
LWPOLYLINE
  5
203
  8
components
 62
0
370
-1
  6
ByLayer
100
AcDbEntity
100
AcDbPolyline
 90
9
 70
0
 10
15.9499999999999993
 20
30.120000000000001
 10
15.9000000000000004
 20
30.120000000000001
 10
15.8499999999999996
 20
30.120000000000001
 10
15.8000000000000007
 20
30.120000000000001
 10
15.75
 20
30.120000000000001
 10
15.6999999999999993
 20
30.120000000000001
 10
15.6500000000000004
 20
30.120000000000001
 10
15.5999999999999996
 20
30.120000000000001
 10
15.5500000000000007
 20
30.120000000000001
  0
LWPOLYLINE
  5
204
  8
components
 62
0
370
-1
  6
ByLayer
100
AcDbEntity
100
AcDbPolyline
 90
3
 70
0
 10
15.0798572015999994
 20
30.120000000000001
 10
15.0298572016000005
 20
30.120000000000001
 10
15.0279844762000003
 20
30.120000000000001
  0
LWPOLYLINE
  5
205
  8
components
 62
0
370
-1
  6
ByLayer
100
AcDbEntity
100
AcDbPolyline
 90
9
 70
0
 10
22.1499999999999986
 20
35.2199999999999989
 10
22.1999999999999993
 20
35.2199999999999989
 10
22.25
 20
35.2199999999999989
 10
22.3000000000000007
 20
35.2199999999999989
 10
22.3500000000000014
 20
35.2199999999999989
 10
22.3999999999999986
 20
35.2199999999999989
 10
22.4499999999999993
 20
35.2199999999999989
 10
22.5
 20
35.2199999999999989
 10
22.5500000000000007
 20
35.2199999999999989
  0
LWPOLYLINE
  5
206
  8
components
 62
0
370
-1
  6
ByLayer
100
AcDbEntity
100
AcDbPolyline
 90
3
 70
0
 10
23.0201427983999984
 20
35.2199999999999989
 10
23.0701427983999992
 20
35.2199999999999989
 10
23.0720155238000011
 20
35.2199999999999989
  0
LWPOLYLINE
  5
207
  8
components
 62
0
370
-1
  6
ByLayer
100
AcDbEntity
100
AcDbPolyline
 90
9
 70
0
 10
22.1499999999999986
 20
35.9200000000000017
 10
22.1999999999999993
 20
35.9200000000000017
 10
22.25
 20
35.9200000000000017
 10
22.3000000000000007
 20
35.9200000000000017
 10
22.3500000000000014
 20
35.9200000000000017
 10
22.3999999999999986
 20
35.9200000000000017
 10
22.4499999999999993
 20
35.9200000000000017
 10
22.5
 20
35.9200000000000017
 10
22.5500000000000007
 20
35.9200000000000017
  0
LWPOLYLINE
  5
208
  8
components
 62
0
370
-1
  6
ByLayer
100
AcDbEntity
100
AcDbPolyline
 90
3
 70
0
 10
23.0201427983999984
 20
35.9200000000000017
 10
23.0701427983999992
 20
35.9200000000000017
 10
23.0720155238000011
 20
35.9200000000000017
  0
LWPOLYLINE
  5
209
  8
components
 62
0
370
-1
  6
ByLayer
100
AcDbEntity
100
AcDbPolyline
 90
9
 70
0
 10
15.9499999999999993
 20
35.8200000000000003
 10
15.9000000000000004
 20
35.8200000000000003
 10
15.8499999999999996
 20
35.8200000000000003
 10
15.8000000000000007
 20
35.8200000000000003
 10
15.75
 20
35.8200000000000003
 10
15.6999999999999993
 20
35.8200000000000003
 10
15.6500000000000004
 20
35.8200000000000003
 10
15.5999999999999996
 20
35.8200000000000003
 10
15.5500000000000007
 20
35.8200000000000003
  0
LWPOLYLINE
  5
20A
  8
components
 62
0
370
-1
  6
ByLayer
100
AcDbEntity
100
AcDbPolyline
 90
3
 70
0
 10
15.0798572015999994
 20
35.8200000000000003
 10
15.0298572016000005
 20
35.8200000000000003
 10
15.0279844762000003
 20
35.8200000000000003
  0
LWPOLYLINE
  5
20B
  8
components
 62
0
370
-1
  6
ByLayer
100
AcDbEntity
100
AcDbPolyline
 90
9
 70
0
 10
15.9499999999999993
 20
35.1199999999999974
 10
15.9000000000000004
 20
35.1199999999999974
 10
15.8499999999999996
 20
35.1199999999999974
 10
15.8000000000000007
 20
35.1199999999999974
 10
15.75
 20
35.1199999999999974
 10
15.6999999999999993
 20
35.1199999999999974
 10
15.6500000000000004
 20
35.1199999999999974
 10
15.5999999999999996
 20
35.1199999999999974
 10
15.5500000000000007
 20
35.1199999999999974
  0
LWPOLYLINE
  5
20C
  8
components
 62
0
370
-1
  6
ByLayer
100
AcDbEntity
100
AcDbPolyline
 90
3
 70
0
 10
15.0798572015999994
 20
35.1199999999999974
 10
15.0298572016000005
 20
35.1199999999999974
 10
15.0279844762000003
 20
35.1199999999999974
  0
LWPOLYLINE
  5
20D
  8
components
 62
0
370
-1
  6
ByLayer
100
AcDbEntity
100
AcDbPolyline
 90
3
 70
0
 10
20.75
 20
33.0200000000000031
 10
20.6999999999999993
 20
33.0200000000000031
 10
20.6499999999999986
 20
33.0200000000000031
  0
CIRCLE
  5
20E
100
AcDbEntity
100
AcDbCircle
  8
components
 62
0
370
-1
  6
ByLayer
 10
19.0500000000000007
 20
33.0200000000000031
 30
0.0
 40
1.7
  0
LINE
  5
20F
100
AcDbEntity
100
AcDbLine
  8
components
 62
0
370
-1
  6
ByLayer
 10
15.9499999999999993
 20
30.120000000000001
 30
0.0
 11
15.9499999999999993
 21
35.9200000000000017
 31
0.0
  0
LINE
  5
210
100
AcDbEntity
100
AcDbLine
  8
components
 62
0
370
-1
  6
ByLayer
 10
21.9499999999999993
 20
29.9200000000000017
 30
0.0
 11
16.1499999999999986
 21
29.9200000000000017
 31
0.0
  0
LINE
  5
211
100
AcDbEntity
100
AcDbLine
  8
components
 62
0
370
-1
  6
ByLayer
 10
22.1499999999999986
 20
35.9200000000000017
 30
0.0
 11
22.1499999999999986
 21
30.120000000000001
 31
0.0
  0
LINE
  5
212
100
AcDbEntity
100
AcDbLine
  8
components
 62
0
370
-1
  6
ByLayer
 10
16.1499999999999986
 20
36.1199999999999974
 30
0.0
 11
21.9499999999999993
 21
36.1199999999999974
 31
0.0
  0
CIRCLE
  5
213
100
AcDbEntity
100
AcDbCircle
  8
components
 62
0
370
-1
  6
ByLayer
 10
16.75
 20
30.7199999999999989
 30
0.0
 40
0.6
  0
CIRCLE
  5
214
100
AcDbEntity
100
AcDbCircle
  8
components
 62
0
370
-1
  6
ByLayer
 10
16.75
 20
35.3200000000000003
 30
0.0
 40
0.6
  0
CIRCLE
  5
215
100
AcDbEntity
100
AcDbCircle
  8
components
 62
0
370
-1
  6
ByLayer
 10
16.75
 20
30.7199999999999989
 30
0.0
 40
0.6
  0
CIRCLE
  5
216
100
AcDbEntity
100
AcDbCircle
  8
components
 62
0
370
-1
  6
ByLayer
 10
16.75
 20
35.3200000000000003
 30
0.0
 40
0.6
  0
CIRCLE
  5
217
100
AcDbEntity
100
AcDbCircle
  8
components
 62
0
370
-1
  6
ByLayer
 10
21.3500000000000014
 20
35.3200000000000003
 30
0.0
 40
0.6
  0
CIRCLE
  5
218
100
AcDbEntity
100
AcDbCircle
  8
components
 62
0
370
-1
  6
ByLayer
 10
21.3500000000000014
 20
30.7199999999999989
 30
0.0
 40
0.6
  0
LINE
  5
219
100
AcDbEntity
100
AcDbLine
  8
components
 62
0
370
-1
  6
ByLayer
 10
22.5500000000000007
 20
30.2199999999999989
 30
0.0
 11
23.0201427983999984
 21
30.2199999999999989
 31
0.0
  0
LINE
  5
21A
100
AcDbEntity
100
AcDbLine
  8
components
 62
0
370
-1
  6
ByLayer
 10
22.5500000000000007
 20
30.9200000000000017
 30
0.0
 11
23.0201427983999984
 21
30.9200000000000017
 31
0.0
  0
LINE
  5
21B
100
AcDbEntity
100
AcDbLine
  8
components
 62
0
370
-1
  6
ByLayer
 10
22.5500000000000007
 20
30.2199999999999989
 30
0.0
 11
22.5500000000000007
 21
30.9200000000000017
 31
0.0
  0
LINE
  5
21C
100
AcDbEntity
100
AcDbLine
  8
components
 62
0
370
-1
  6
ByLayer
 10
15.5500000000000007
 20
30.8200000000000003
 30
0.0
 11
15.0798572015999994
 21
30.8200000000000003
 31
0.0
  0
LINE
  5
21D
100
AcDbEntity
100
AcDbLine
  8
components
 62
0
370
-1
  6
ByLayer
 10
15.5500000000000007
 20
30.120000000000001
 30
0.0
 11
15.0798572015999994
 21
30.120000000000001
 31
0.0
  0
LINE
  5
21E
100
AcDbEntity
100
AcDbLine
  8
components
 62
0
370
-1
  6
ByLayer
 10
15.5500000000000007
 20
30.8200000000000003
 30
0.0
 11
15.5500000000000007
 21
30.120000000000001
 31
0.0
  0
LINE
  5
21F
100
AcDbEntity
100
AcDbLine
  8
components
 62
0
370
-1
  6
ByLayer
 10
15.9499999999999993
 20
30.8200000000000003
 30
0.0
 11
15.9499999999999993
 21
30.120000000000001
 31
0.0
  0
LINE
  5
220
100
AcDbEntity
100
AcDbLine
  8
components
 62
0
370
-1
  6
ByLayer
 10
22.5500000000000007
 20
35.2199999999999989
 30
0.0
 11
23.0201427983999984
 21
35.2199999999999989
 31
0.0
  0
LINE
  5
221
100
AcDbEntity
100
AcDbLine
  8
components
 62
0
370
-1
  6
ByLayer
 10
22.5500000000000007
 20
35.9200000000000017
 30
0.0
 11
23.0201427983999984
 21
35.9200000000000017
 31
0.0
  0
LINE
  5
222
100
AcDbEntity
100
AcDbLine
  8
components
 62
0
370
-1
  6
ByLayer
 10
22.5500000000000007
 20
35.2199999999999989
 30
0.0
 11
22.5500000000000007
 21
35.9200000000000017
 31
0.0
  0
LINE
  5
223
100
AcDbEntity
100
AcDbLine
  8
components
 62
0
370
-1
  6
ByLayer
 10
22.5500000000000007
 20
35.2199999999999989
 30
0.0
 11
22.5500000000000007
 21
35.9200000000000017
 31
0.0
  0
LINE
  5
224
100
AcDbEntity
100
AcDbLine
  8
components
 62
0
370
-1
  6
ByLayer
 10
22.1499999999999986
 20
35.2199999999999989
 30
0.0
 11
22.1499999999999986
 21
35.9200000000000017
 31
0.0
  0
LINE
  5
225
100
AcDbEntity
100
AcDbLine
  8
components
 62
0
370
-1
  6
ByLayer
 10
15.5500000000000007
 20
35.8200000000000003
 30
0.0
 11
15.0798572015999994
 21
35.8200000000000003
 31
0.0
  0
LINE
  5
226
100
AcDbEntity
100
AcDbLine
  8
components
 62
0
370
-1
  6
ByLayer
 10
15.5500000000000007
 20
35.1199999999999974
 30
0.0
 11
15.0798572015999994
 21
35.1199999999999974
 31
0.0
  0
LINE
  5
227
100
AcDbEntity
100
AcDbLine
  8
components
 62
0
370
-1
  6
ByLayer
 10
15.5500000000000007
 20
35.8200000000000003
 30
0.0
 11
15.5500000000000007
 21
35.1199999999999974
 31
0.0
  0
LINE
  5
228
100
AcDbEntity
100
AcDbLine
  8
components
 62
0
370
-1
  6
ByLayer
 10
15.9499999999999993
 20
30.120000000000001
 30
0.0
 11
15.9499999999999993
 21
35.9200000000000017
 31
0.0
  0
ARC
  5
229
100
AcDbEntity
  8
components
 62
0
370
-1
  6
ByLayer
100
AcDbCircle
 10
16.1499999999999986
 20
35.9200000000000017
 30
0.0
 40
0.2
100
AcDbArc
 50
90.0
 51
-180.0
  0
LINE
  5
22A
100
AcDbEntity
100
AcDbLine
  8
components
 62
0
370
-1
  6
ByLayer
 10
16.1499999999999986
 20
36.1199999999999974
 30
0.0
 11
21.9499999999999993
 21
36.1199999999999974
 31
0.0
  0
ARC
  5
22B
100
AcDbEntity
  8
components
 62
0
370
-1
  6
ByLayer
100
AcDbCircle
 10
21.9499999999999993
 20
35.9200000000000017
 30
0.0
 40
0.2
100
AcDbArc
 50
-0.0
 51
90.0
  0
LINE
  5
22C
100
AcDbEntity
100
AcDbLine
  8
components
 62
0
370
-1
  6
ByLayer
 10
22.1499999999999986
 20
35.9200000000000017
 30
0.0
 11
22.1499999999999986
 21
30.120000000000001
 31
0.0
  0
ARC
  5
22D
100
AcDbEntity
  8
components
 62
0
370
-1
  6
ByLayer
100
AcDbCircle
 10
21.9499999999999993
 20
30.120000000000001
 30
0.0
 40
0.2
100
AcDbArc
 50
-90.0
 51
0.0
  0
LINE
  5
22E
100
AcDbEntity
100
AcDbLine
  8
components
 62
0
370
-1
  6
ByLayer
 10
21.9499999999999993
 20
29.9200000000000017
 30
0.0
 11
16.1499999999999986
 21
29.9200000000000017
 31
0.0
  0
ARC
  5
22F
100
AcDbEntity
  8
components
 62
0
370
-1
  6
ByLayer
100
AcDbCircle
 10
16.1499999999999986
 20
30.120000000000001
 30
0.0
 40
0.2
100
AcDbArc
 50
180.0
 51
-90.0
  0
CIRCLE
  5
230
100
AcDbEntity
100
AcDbCircle
  8
components
 62
0
370
-1
  6
ByLayer
 10
19.0500000000000007
 20
33.0200000000000031
 30
0.0
 40
1.75
  0
CIRCLE
  5
231
100
AcDbEntity
100
AcDbCircle
  8
components
 62
0
370
-1
  6
ByLayer
 10
21.3500000000000014
 20
30.7199999999999989
 30
0.0
 40
0.65
  0
CIRCLE
  5
232
100
AcDbEntity
100
AcDbCircle
  8
components
 62
0
370
-1
  6
ByLayer
 10
16.75
 20
30.7199999999999989
 30
0.0
 40
0.65
  0
CIRCLE
  5
233
100
AcDbEntity
100
AcDbCircle
  8
components
 62
0
370
-1
  6
ByLayer
 10
21.3500000000000014
 20
35.3200000000000003
 30
0.0
 40
0.65
  0
CIRCLE
  5
234
100
AcDbEntity
100
AcDbCircle
  8
components
 62
0
370
-1
  6
ByLayer
 10
16.75
 20
35.3200000000000003
 30
0.0
 40
0.65
  0
CIRCLE
  5
235
100
AcDbEntity
100
AcDbCircle
  8
components
 62
0
370
-1
  6
ByLayer
 10
19.0500000000000007
 20
33.0200000000000031
 30
0.0
 40
1.7
  0
CIRCLE
  5
236
100
AcDbEntity
100
AcDbCircle
  8
components
 62
0
370
-1
  6
ByLayer
 10
19.0500000000000007
 20
33.0200000000000031
 30
0.0
 40
1.6000000000000001
  0
LINE
  5
237
100
AcDbEntity
100
AcDbLine
  8
components
 62
0
370
-1
  6
ByLayer
 10
23.0201427983999984
 20
30.2199999999999989
 30
0.0
 11
23.0201427983999984
 21
30.9200000000000017
 31
0.0
  0
LINE
  5
238
100
AcDbEntity
100
AcDbLine
  8
components
 62
0
370
-1
  6
ByLayer
 10
15.0798572015999994
 20
30.8200000000000003
 30
0.0
 11
15.0798572015999994
 21
30.120000000000001
 31
0.0
  0
LINE
  5
239
100
AcDbEntity
100
AcDbLine
  8
components
 62
0
370
-1
  6
ByLayer
 10
23.0201427983999984
 20
35.2199999999999989
 30
0.0
 11
23.0201427983999984
 21
35.9200000000000017
 31
0.0
  0
LINE
  5
23A
100
AcDbEntity
100
AcDbLine
  8
components
 62
0
370
-1
  6
ByLayer
 10
15.0798572015999994
 20
35.8200000000000003
 30
0.0
 11
15.0798572015999994
 21
35.1199999999999974
 31
0.0
  0
LINE
  5
23B
100
AcDbEntity
100
AcDbLine
  8
components
 62
0
370
-1
  6
ByLayer
 10
23.0720155238000011
 20
30.9200000000000017
 30
0.0
 11
23.0720155238000011
 21
30.2199999999999989
 31
0.0
  0
LINE
  5
23C
100
AcDbEntity
100
AcDbLine
  8
components
 62
0
370
-1
  6
ByLayer
 10
15.0279844762000003
 20
30.120000000000001
 30
0.0
 11
15.0279844762000003
 21
30.8200000000000003
 31
0.0
  0
LINE
  5
23D
100
AcDbEntity
100
AcDbLine
  8
components
 62
0
370
-1
  6
ByLayer
 10
23.0720155238000011
 20
35.9200000000000017
 30
0.0
 11
23.0720155238000011
 21
35.2199999999999989
 31
0.0
  0
LINE
  5
23E
100
AcDbEntity
100
AcDbLine
  8
components
 62
0
370
-1
  6
ByLayer
 10
15.0279844762000003
 20
35.1199999999999974
 30
0.0
 11
15.0279844762000003
 21
35.8200000000000003
 31
0.0
  0
ENDBLK
  5
23F
100
AcDbEntity
  8
0
100
AcDbBlockEnd
  0
BLOCK
  5
240
100
AcDbEntity
  8
0
100
AcDbBlockBegin
  2
COMPOUND002
 70
0
 10
0.0
 20
0.0
 30
0.0
  3
COMPOUND002
  1

  0
LWPOLYLINE
  5
241
  8
components
 62
0
370
-1
  6
ByLayer
100
AcDbEntity
100
AcDbPolyline
 90
2
 70
0
 10
7.5060791610899997
 20
14.9800000000000004
 10
7.5320155238000002
 20
14.9800000000000004
  0
LWPOLYLINE
  5
242
  8
components
 62
0
370
-1
  6
ByLayer
100
AcDbEntity
100
AcDbPolyline
 90
9
 70
0
 10
6.9100000000000001
 20
14.9800000000000004
 10
6.96
 20
14.9800000000000004
 10
7.0099999999999998
 20
14.9800000000000004
 10
7.0599999999999996
 20
14.9800000000000004
 10
7.1100000000000003
 20
14.9800000000000004
 10
7.1600000000000001
 20
14.9800000000000004
 10
7.21
 20
14.9800000000000004
 10
7.2599999999999998
 20
14.9800000000000004
 10
7.3099999999999996
 20
14.9800000000000004
  0
LWPOLYLINE
  5
243
  8
components
 62
0
370
-1
  6
ByLayer
100
AcDbEntity
100
AcDbPolyline
 90
3
 70
0
 10
7.78014279838
 20
14.9800000000000004
 10
7.8301427983799998
 20
14.9800000000000004
 10
7.8320155238
 20
14.9800000000000004
  0
LWPOLYLINE
  5
244
  8
components
 62
0
370
-1
  6
ByLayer
100
AcDbEntity
100
AcDbPolyline
 90
9
 70
0
 10
6.9100000000000001
 20
15.6799999999999997
 10
6.96
 20
15.6799999999999997
 10
7.0099999999999998
 20
15.6799999999999997
 10
7.0599999999999996
 20
15.6799999999999997
 10
7.1100000000000003
 20
15.6799999999999997
 10
7.1600000000000001
 20
15.6799999999999997
 10
7.21
 20
15.6799999999999997
 10
7.2599999999999998
 20
15.6799999999999997
 10
7.3099999999999996
 20
15.6799999999999997
  0
LWPOLYLINE
  5
245
  8
components
 62
0
370
-1
  6
ByLayer
100
AcDbEntity
100
AcDbPolyline
 90
3
 70
0
 10
7.78014279838
 20
15.6799999999999997
 10
7.8301427983799998
 20
15.6799999999999997
 10
7.8320155238
 20
15.6799999999999997
  0
LWPOLYLINE
  5
246
  8
components
 62
0
370
-1
  6
ByLayer
100
AcDbEntity
100
AcDbPolyline
 90
9
 70
0
 10
0.71
 20
15.5800000000000001
 10
0.66
 20
15.5800000000000001
 10
0.61
 20
15.5800000000000001
 10
0.5600000000000001
 20
15.5800000000000001
 10
0.51
 20
15.5800000000000001
 10
0.46
 20
15.5800000000000001
 10
0.41
 20
15.5800000000000001
 10
0.36
 20
15.5800000000000001
 10
0.31
 20
15.5800000000000001
  0
LWPOLYLINE
  5
247
  8
components
 62
0
370
-1
  6
ByLayer
100
AcDbEntity
100
AcDbPolyline
 90
3
 70
0
 10
-0.160142798383
 20
15.5800000000000001
 10
-0.210142798383
 20
15.5800000000000001
 10
-0.212015523797
 20
15.5800000000000001
  0
LWPOLYLINE
  5
248
  8
components
 62
0
370
-1
  6
ByLayer
100
AcDbEntity
100
AcDbPolyline
 90
2
 70
0
 10
0.11392083891
 20
14.8800000000000008
 10
0.087984476203
 20
14.8800000000000008
  0
LWPOLYLINE
  5
249
  8
components
 62
0
370
-1
  6
ByLayer
100
AcDbEntity
100
AcDbPolyline
 90
9
 70
0
 10
0.71
 20
14.8800000000000008
 10
0.66
 20
14.8800000000000008
 10
0.61
 20
14.8800000000000008
 10
0.5600000000000001
 20
14.8800000000000008
 10
0.51
 20
14.8800000000000008
 10
0.46
 20
14.8800000000000008
 10
0.41
 20
14.8800000000000008
 10
0.36
 20
14.8800000000000008
 10
0.31
 20
14.8800000000000008
  0
LWPOLYLINE
  5
24A
  8
components
 62
0
370
-1
  6
ByLayer
100
AcDbEntity
100
AcDbPolyline
 90
3
 70
0
 10
-0.160142798383
 20
14.8800000000000008
 10
-0.210142798383
 20
14.8800000000000008
 10
-0.212015523797
 20
14.8800000000000008
  0
LWPOLYLINE
  5
24B
  8
components
 62
0
370
-1
  6
ByLayer
100
AcDbEntity
100
AcDbPolyline
 90
9
 70
0
 10
6.9100000000000001
 20
19.9800000000000004
 10
6.96
 20
19.9800000000000004
 10
7.0099999999999998
 20
19.9800000000000004
 10
7.0599999999999996
 20
19.9800000000000004
 10
7.1100000000000003
 20
19.9800000000000004
 10
7.1600000000000001
 20
19.9800000000000004
 10
7.21
 20
19.9800000000000004
 10
7.2599999999999998
 20
19.9800000000000004
 10
7.3099999999999996
 20
19.9800000000000004
  0
LWPOLYLINE
  5
24C
  8
components
 62
0
370
-1
  6
ByLayer
100
AcDbEntity
100
AcDbPolyline
 90
3
 70
0
 10
7.78014279838
 20
19.9800000000000004
 10
7.8301427983799998
 20
19.9800000000000004
 10
7.8320155238
 20
19.9800000000000004
  0
LWPOLYLINE
  5
24D
  8
components
 62
0
370
-1
  6
ByLayer
100
AcDbEntity
100
AcDbPolyline
 90
9
 70
0
 10
6.9100000000000001
 20
20.6799999999999997
 10
6.96
 20
20.6799999999999997
 10
7.0099999999999998
 20
20.6799999999999997
 10
7.0599999999999996
 20
20.6799999999999997
 10
7.1100000000000003
 20
20.6799999999999997
 10
7.1600000000000001
 20
20.6799999999999997
 10
7.21
 20
20.6799999999999997
 10
7.2599999999999998
 20
20.6799999999999997
 10
7.3099999999999996
 20
20.6799999999999997
  0
LWPOLYLINE
  5
24E
  8
components
 62
0
370
-1
  6
ByLayer
100
AcDbEntity
100
AcDbPolyline
 90
3
 70
0
 10
7.78014279838
 20
20.6799999999999997
 10
7.8301427983799998
 20
20.6799999999999997
 10
7.8320155238
 20
20.6799999999999997
  0
LWPOLYLINE
  5
24F
  8
components
 62
0
370
-1
  6
ByLayer
100
AcDbEntity
100
AcDbPolyline
 90
9
 70
0
 10
0.71
 20
20.5799999999999983
 10
0.66
 20
20.5799999999999983
 10
0.61
 20
20.5799999999999983
 10
0.5600000000000001
 20
20.5799999999999983
 10
0.51
 20
20.5799999999999983
 10
0.46
 20
20.5799999999999983
 10
0.41
 20
20.5799999999999983
 10
0.36
 20
20.5799999999999983
 10
0.31
 20
20.5799999999999983
  0
LWPOLYLINE
  5
250
  8
components
 62
0
370
-1
  6
ByLayer
100
AcDbEntity
100
AcDbPolyline
 90
3
 70
0
 10
-0.160142798383
 20
20.5799999999999983
 10
-0.210142798383
 20
20.5799999999999983
 10
-0.212015523797
 20
20.5799999999999983
  0
LWPOLYLINE
  5
251
  8
components
 62
0
370
-1
  6
ByLayer
100
AcDbEntity
100
AcDbPolyline
 90
9
 70
0
 10
0.71
 20
19.879999999999999
 10
0.66
 20
19.879999999999999
 10
0.61
 20
19.879999999999999
 10
0.5600000000000001
 20
19.879999999999999
 10
0.51
 20
19.879999999999999
 10
0.46
 20
19.879999999999999
 10
0.41
 20
19.879999999999999
 10
0.36
 20
19.879999999999999
 10
0.31
 20
19.879999999999999
  0
LWPOLYLINE
  5
252
  8
components
 62
0
370
-1
  6
ByLayer
100
AcDbEntity
100
AcDbPolyline
 90
3
 70
0
 10
-0.160142798383
 20
19.879999999999999
 10
-0.210142798383
 20
19.879999999999999
 10
-0.212015523797
 20
19.879999999999999
  0
LWPOLYLINE
  5
253
  8
components
 62
0
370
-1
  6
ByLayer
100
AcDbEntity
100
AcDbPolyline
 90
3
 70
0
 10
5.5099999999999998
 20
17.7800000000000011
 10
5.46
 20
17.7800000000000011
 10
5.4100000000000001
 20
17.7800000000000011
  0
CIRCLE
  5
254
100
AcDbEntity
100
AcDbCircle
  8
components
 62
0
370
-1
  6
ByLayer
 10
3.8100000000000001
 20
17.7800000000000011
 30
0.0
 40
1.7
  0
LINE
  5
255
100
AcDbEntity
100
AcDbLine
  8
components
 62
0
370
-1
  6
ByLayer
 10
0.71
 20
14.8800000000000008
 30
0.0
 11
0.71
 21
20.6799999999999997
 31
0.0
  0
LINE
  5
256
100
AcDbEntity
100
AcDbLine
  8
components
 62
0
370
-1
  6
ByLayer
 10
6.71
 20
14.6799999999999997
 30
0.0
 11
0.91
 21
14.6799999999999997
 31
0.0
  0
LINE
  5
257
100
AcDbEntity
100
AcDbLine
  8
components
 62
0
370
-1
  6
ByLayer
 10
6.9100000000000001
 20
20.6799999999999997
 30
0.0
 11
6.9100000000000001
 21
14.8800000000000008
 31
0.0
  0
LINE
  5
258
100
AcDbEntity
100
AcDbLine
  8
components
 62
0
370
-1
  6
ByLayer
 10
0.91
 20
20.879999999999999
 30
0.0
 11
6.71
 21
20.879999999999999
 31
0.0
  0
CIRCLE
  5
259
100
AcDbEntity
100
AcDbCircle
  8
components
 62
0
370
-1
  6
ByLayer
 10
6.1100000000000003
 20
20.0799999999999983
 30
0.0
 40
0.6
  0
CIRCLE
  5
25A
100
AcDbEntity
100
AcDbCircle
  8
components
 62
0
370
-1
  6
ByLayer
 10
1.51
 20
15.4800000000000004
 30
0.0
 40
0.6
  0
CIRCLE
  5
25B
100
AcDbEntity
100
AcDbCircle
  8
components
 62
0
370
-1
  6
ByLayer
 10
1.51
 20
20.0799999999999983
 30
0.0
 40
0.6
  0
CIRCLE
  5
25C
100
AcDbEntity
100
AcDbCircle
  8
components
 62
0
370
-1
  6
ByLayer
 10
6.1100000000000003
 20
20.0799999999999983
 30
0.0
 40
0.6
  0
CIRCLE
  5
25D
100
AcDbEntity
100
AcDbCircle
  8
components
 62
0
370
-1
  6
ByLayer
 10
6.1100000000000003
 20
15.4800000000000004
 30
0.0
 40
0.6
  0
LINE
  5
25E
100
AcDbEntity
100
AcDbLine
  8
components
 62
0
370
-1
  6
ByLayer
 10
7.3099999999999996
 20
14.9800000000000004
 30
0.0
 11
7.78014279838
 21
14.9800000000000004
 31
0.0
  0
LINE
  5
25F
100
AcDbEntity
100
AcDbLine
  8
components
 62
0
370
-1
  6
ByLayer
 10
7.3099999999999996
 20
15.6799999999999997
 30
0.0
 11
7.78014279838
 21
15.6799999999999997
 31
0.0
  0
LINE
  5
260
100
AcDbEntity
100
AcDbLine
  8
components
 62
0
370
-1
  6
ByLayer
 10
7.3099999999999996
 20
14.9800000000000004
 30
0.0
 11
7.3099999999999996
 21
15.6799999999999997
 31
0.0
  0
LINE
  5
261
100
AcDbEntity
100
AcDbLine
  8
components
 62
0
370
-1
  6
ByLayer
 10
0.31
 20
15.5800000000000001
 30
0.0
 11
-0.160142798383
 21
15.5800000000000001
 31
0.0
  0
LINE
  5
262
100
AcDbEntity
100
AcDbLine
  8
components
 62
0
370
-1
  6
ByLayer
 10
0.31
 20
14.8800000000000008
 30
0.0
 11
-0.160142798383
 21
14.8800000000000008
 31
0.0
  0
LINE
  5
263
100
AcDbEntity
100
AcDbLine
  8
components
 62
0
370
-1
  6
ByLayer
 10
0.31
 20
15.5800000000000001
 30
0.0
 11
0.31
 21
14.8800000000000008
 31
0.0
  0
LINE
  5
264
100
AcDbEntity
100
AcDbLine
  8
components
 62
0
370
-1
  6
ByLayer
 10
0.71
 20
15.5800000000000001
 30
0.0
 11
0.71
 21
14.8800000000000008
 31
0.0
  0
LINE
  5
265
100
AcDbEntity
100
AcDbLine
  8
components
 62
0
370
-1
  6
ByLayer
 10
7.3099999999999996
 20
19.9800000000000004
 30
0.0
 11
7.78014279838
 21
19.9800000000000004
 31
0.0
  0
LINE
  5
266
100
AcDbEntity
100
AcDbLine
  8
components
 62
0
370
-1
  6
ByLayer
 10
7.3099999999999996
 20
20.6799999999999997
 30
0.0
 11
7.78014279838
 21
20.6799999999999997
 31
0.0
  0
LINE
  5
267
100
AcDbEntity
100
AcDbLine
  8
components
 62
0
370
-1
  6
ByLayer
 10
7.3099999999999996
 20
19.9800000000000004
 30
0.0
 11
7.3099999999999996
 21
20.6799999999999997
 31
0.0
  0
LINE
  5
268
100
AcDbEntity
100
AcDbLine
  8
components
 62
0
370
-1
  6
ByLayer
 10
6.9100000000000001
 20
19.9800000000000004
 30
0.0
 11
6.9100000000000001
 21
20.6799999999999997
 31
0.0
  0
LINE
  5
269
100
AcDbEntity
100
AcDbLine
  8
components
 62
0
370
-1
  6
ByLayer
 10
0.31
 20
20.5799999999999983
 30
0.0
 11
-0.160142798383
 21
20.5799999999999983
 31
0.0
  0
LINE
  5
26A
100
AcDbEntity
100
AcDbLine
  8
components
 62
0
370
-1
  6
ByLayer
 10
0.31
 20
19.879999999999999
 30
0.0
 11
-0.160142798383
 21
19.879999999999999
 31
0.0
  0
LINE
  5
26B
100
AcDbEntity
100
AcDbLine
  8
components
 62
0
370
-1
  6
ByLayer
 10
0.31
 20
20.5799999999999983
 30
0.0
 11
0.31
 21
19.879999999999999
 31
0.0
  0
LINE
  5
26C
100
AcDbEntity
100
AcDbLine
  8
components
 62
0
370
-1
  6
ByLayer
 10
0.71
 20
14.8800000000000008
 30
0.0
 11
0.71
 21
20.6799999999999997
 31
0.0
  0
ARC
  5
26D
100
AcDbEntity
  8
components
 62
0
370
-1
  6
ByLayer
100
AcDbCircle
 10
0.91
 20
20.6799999999999997
 30
0.0
 40
0.2
100
AcDbArc
 50
90.0
 51
-180.0
  0
LINE
  5
26E
100
AcDbEntity
100
AcDbLine
  8
components
 62
0
370
-1
  6
ByLayer
 10
0.91
 20
20.879999999999999
 30
0.0
 11
6.71
 21
20.879999999999999
 31
0.0
  0
ARC
  5
26F
100
AcDbEntity
  8
components
 62
0
370
-1
  6
ByLayer
100
AcDbCircle
 10
6.71
 20
20.6799999999999997
 30
0.0
 40
0.2
100
AcDbArc
 50
-0.0
 51
90.0
  0
LINE
  5
270
100
AcDbEntity
100
AcDbLine
  8
components
 62
0
370
-1
  6
ByLayer
 10
6.9100000000000001
 20
20.6799999999999997
 30
0.0
 11
6.9100000000000001
 21
14.8800000000000008
 31
0.0
  0
ARC
  5
271
100
AcDbEntity
  8
components
 62
0
370
-1
  6
ByLayer
100
AcDbCircle
 10
6.71
 20
14.8800000000000008
 30
0.0
 40
0.2
100
AcDbArc
 50
-90.0
 51
0.0
  0
LINE
  5
272
100
AcDbEntity
100
AcDbLine
  8
components
 62
0
370
-1
  6
ByLayer
 10
6.71
 20
14.6799999999999997
 30
0.0
 11
0.91
 21
14.6799999999999997
 31
0.0
  0
ARC
  5
273
100
AcDbEntity
  8
components
 62
0
370
-1
  6
ByLayer
100
AcDbCircle
 10
0.91
 20
14.8800000000000008
 30
0.0
 40
0.2
100
AcDbArc
 50
-180.0
 51
-90.0
  0
CIRCLE
  5
274
100
AcDbEntity
100
AcDbCircle
  8
components
 62
0
370
-1
  6
ByLayer
 10
3.8100000000000001
 20
17.7800000000000011
 30
0.0
 40
1.75
  0
CIRCLE
  5
275
100
AcDbEntity
100
AcDbCircle
  8
components
 62
0
370
-1
  6
ByLayer
 10
6.1100000000000003
 20
15.4800000000000004
 30
0.0
 40
0.65
  0
CIRCLE
  5
276
100
AcDbEntity
100
AcDbCircle
  8
components
 62
0
370
-1
  6
ByLayer
 10
1.51
 20
15.4800000000000004
 30
0.0
 40
0.65
  0
CIRCLE
  5
277
100
AcDbEntity
100
AcDbCircle
  8
components
 62
0
370
-1
  6
ByLayer
 10
6.1100000000000003
 20
20.0799999999999983
 30
0.0
 40
0.65
  0
CIRCLE
  5
278
100
AcDbEntity
100
AcDbCircle
  8
components
 62
0
370
-1
  6
ByLayer
 10
1.51
 20
20.0799999999999983
 30
0.0
 40
0.65
  0
CIRCLE
  5
279
100
AcDbEntity
100
AcDbCircle
  8
components
 62
0
370
-1
  6
ByLayer
 10
3.8100000000000001
 20
17.7800000000000011
 30
0.0
 40
1.7
  0
CIRCLE
  5
27A
100
AcDbEntity
100
AcDbCircle
  8
components
 62
0
370
-1
  6
ByLayer
 10
3.8100000000000001
 20
17.7800000000000011
 30
0.0
 40
1.6000000000000001
  0
LINE
  5
27B
100
AcDbEntity
100
AcDbLine
  8
components
 62
0
370
-1
  6
ByLayer
 10
7.78014279838
 20
14.9800000000000004
 30
0.0
 11
7.78014279838
 21
15.6799999999999997
 31
0.0
  0
LINE
  5
27C
100
AcDbEntity
100
AcDbLine
  8
components
 62
0
370
-1
  6
ByLayer
 10
-0.160142798383
 20
15.5800000000000001
 30
0.0
 11
-0.160142798383
 21
14.8800000000000008
 31
0.0
  0
LINE
  5
27D
100
AcDbEntity
100
AcDbLine
  8
components
 62
0
370
-1
  6
ByLayer
 10
7.78014279838
 20
19.9800000000000004
 30
0.0
 11
7.78014279838
 21
20.6799999999999997
 31
0.0
  0
LINE
  5
27E
100
AcDbEntity
100
AcDbLine
  8
components
 62
0
370
-1
  6
ByLayer
 10
-0.160142798383
 20
20.5799999999999983
 30
0.0
 11
-0.160142798383
 21
19.879999999999999
 31
0.0
  0
LINE
  5
27F
100
AcDbEntity
100
AcDbLine
  8
components
 62
0
370
-1
  6
ByLayer
 10
7.8320155238
 20
15.6799999999999997
 30
0.0
 11
7.8320155238
 21
14.9800000000000004
 31
0.0
  0
LINE
  5
280
100
AcDbEntity
100
AcDbLine
  8
components
 62
0
370
-1
  6
ByLayer
 10
-0.212015523797
 20
14.8800000000000008
 30
0.0
 11
-0.212015523797
 21
15.5800000000000001
 31
0.0
  0
LINE
  5
281
100
AcDbEntity
100
AcDbLine
  8
components
 62
0
370
-1
  6
ByLayer
 10
7.8320155238
 20
20.6799999999999997
 30
0.0
 11
7.8320155238
 21
19.9800000000000004
 31
0.0
  0
LINE
  5
282
100
AcDbEntity
100
AcDbLine
  8
components
 62
0
370
-1
  6
ByLayer
 10
-0.212015523797
 20
19.879999999999999
 30
0.0
 11
-0.212015523797
 21
20.5799999999999983
 31
0.0
  0
ENDBLK
  5
283
100
AcDbEntity
  8
0
100
AcDbBlockEnd
  0
BLOCK
  5
284
100
AcDbEntity
  8
0
100
AcDbBlockBegin
  2
COMPOUND003
 70
0
 10
0.0
 20
0.0
 30
0.0
  3
COMPOUND003
  1

  0
LWPOLYLINE
  5
285
  8
components
 62
0
370
-1
  6
ByLayer
100
AcDbEntity
100
AcDbPolyline
 90
2
 70
0
 10
22.7460791610999991
 20
-0.26
 10
22.7720155238000004
 20
-0.26
  0
LWPOLYLINE
  5
286
  8
components
 62
0
370
-1
  6
ByLayer
100
AcDbEntity
100
AcDbPolyline
 90
9
 70
0
 10
22.1499999999999986
 20
-0.26
 10
22.1999999999999993
 20
-0.26
 10
22.25
 20
-0.26
 10
22.3000000000000007
 20
-0.26
 10
22.3500000000000014
 20
-0.26
 10
22.3999999999999986
 20
-0.26
 10
22.4499999999999993
 20
-0.26
 10
22.5
 20
-0.26
 10
22.5500000000000007
 20
-0.26
  0
LWPOLYLINE
  5
287
  8
components
 62
0
370
-1
  6
ByLayer
100
AcDbEntity
100
AcDbPolyline
 90
3
 70
0
 10
23.0201427983999984
 20
-0.26
 10
23.0701427983999992
 20
-0.26
 10
23.0720155238000011
 20
-0.26
  0
LWPOLYLINE
  5
288
  8
components
 62
0
370
-1
  6
ByLayer
100
AcDbEntity
100
AcDbPolyline
 90
9
 70
0
 10
22.1499999999999986
 20
0.44
 10
22.1999999999999993
 20
0.44
 10
22.25
 20
0.44
 10
22.3000000000000007
 20
0.44
 10
22.3500000000000014
 20
0.44
 10
22.3999999999999986
 20
0.44
 10
22.4499999999999993
 20
0.44
 10
22.5
 20
0.44
 10
22.5500000000000007
 20
0.44
  0
LWPOLYLINE
  5
289
  8
components
 62
0
370
-1
  6
ByLayer
100
AcDbEntity
100
AcDbPolyline
 90
3
 70
0
 10
23.0201427983999984
 20
0.44
 10
23.0701427983999992
 20
0.44
 10
23.0720155238000011
 20
0.44
  0
LWPOLYLINE
  5
28A
  8
components
 62
0
370
-1
  6
ByLayer
100
AcDbEntity
100
AcDbPolyline
 90
2
 70
0
 10
15.3539208389000006
 20
0.34
 10
15.3279844761999993
 20
0.34
  0
LWPOLYLINE
  5
28B
  8
components
 62
0
370
-1
  6
ByLayer
100
AcDbEntity
100
AcDbPolyline
 90
9
 70
0
 10
15.9499999999999993
 20
0.34
 10
15.9000000000000004
 20
0.34
 10
15.8499999999999996
 20
0.34
 10
15.8000000000000007
 20
0.34
 10
15.75
 20
0.34
 10
15.6999999999999993
 20
0.34
 10
15.6500000000000004
 20
0.34
 10
15.5999999999999996
 20
0.34
 10
15.5500000000000007
 20
0.34
  0
LWPOLYLINE
  5
28C
  8
components
 62
0
370
-1
  6
ByLayer
100
AcDbEntity
100
AcDbPolyline
 90
3
 70
0
 10
15.0798572015999994
 20
0.34
 10
15.0298572016000005
 20
0.34
 10
15.0279844762000003
 20
0.34
  0
LWPOLYLINE
  5
28D
  8
components
 62
0
370
-1
  6
ByLayer
100
AcDbEntity
100
AcDbPolyline
 90
9
 70
0
 10
15.9499999999999993
 20
-0.36
 10
15.9000000000000004
 20
-0.36
 10
15.8499999999999996
 20
-0.36
 10
15.8000000000000007
 20
-0.36
 10
15.75
 20
-0.36
 10
15.6999999999999993
 20
-0.36
 10
15.6500000000000004
 20
-0.36
 10
15.5999999999999996
 20
-0.36
 10
15.5500000000000007
 20
-0.36
  0
LWPOLYLINE
  5
28E
  8
components
 62
0
370
-1
  6
ByLayer
100
AcDbEntity
100
AcDbPolyline
 90
3
 70
0
 10
15.0798572015999994
 20
-0.36
 10
15.0298572016000005
 20
-0.36
 10
15.0279844762000003
 20
-0.36
  0
LWPOLYLINE
  5
28F
  8
components
 62
0
370
-1
  6
ByLayer
100
AcDbEntity
100
AcDbPolyline
 90
9
 70
0
 10
22.1499999999999986
 20
4.7400000000000002
 10
22.1999999999999993
 20
4.7400000000000002
 10
22.25
 20
4.7400000000000002
 10
22.3000000000000007
 20
4.7400000000000002
 10
22.3500000000000014
 20
4.7400000000000002
 10
22.3999999999999986
 20
4.7400000000000002
 10
22.4499999999999993
 20
4.7400000000000002
 10
22.5
 20
4.7400000000000002
 10
22.5500000000000007
 20
4.7400000000000002
  0
LWPOLYLINE
  5
290
  8
components
 62
0
370
-1
  6
ByLayer
100
AcDbEntity
100
AcDbPolyline
 90
3
 70
0
 10
23.0201427983999984
 20
4.7400000000000002
 10
23.0701427983999992
 20
4.7400000000000002
 10
23.0720155238000011
 20
4.7400000000000002
  0
LWPOLYLINE
  5
291
  8
components
 62
0
370
-1
  6
ByLayer
100
AcDbEntity
100
AcDbPolyline
 90
9
 70
0
 10
22.1499999999999986
 20
5.4400000000000004
 10
22.1999999999999993
 20
5.4400000000000004
 10
22.25
 20
5.4400000000000004
 10
22.3000000000000007
 20
5.4400000000000004
 10
22.3500000000000014
 20
5.4400000000000004
 10
22.3999999999999986
 20
5.4400000000000004
 10
22.4499999999999993
 20
5.4400000000000004
 10
22.5
 20
5.4400000000000004
 10
22.5500000000000007
 20
5.4400000000000004
  0
LWPOLYLINE
  5
292
  8
components
 62
0
370
-1
  6
ByLayer
100
AcDbEntity
100
AcDbPolyline
 90
3
 70
0
 10
23.0201427983999984
 20
5.4400000000000004
 10
23.0701427983999992
 20
5.4400000000000004
 10
23.0720155238000011
 20
5.4400000000000004
  0
LWPOLYLINE
  5
293
  8
components
 62
0
370
-1
  6
ByLayer
100
AcDbEntity
100
AcDbPolyline
 90
9
 70
0
 10
15.9499999999999993
 20
5.3399999999999999
 10
15.9000000000000004
 20
5.3399999999999999
 10
15.8499999999999996
 20
5.3399999999999999
 10
15.8000000000000007
 20
5.3399999999999999
 10
15.75
 20
5.3399999999999999
 10
15.6999999999999993
 20
5.3399999999999999
 10
15.6500000000000004
 20
5.3399999999999999
 10
15.5999999999999996
 20
5.3399999999999999
 10
15.5500000000000007
 20
5.3399999999999999
  0
LWPOLYLINE
  5
294
  8
components
 62
0
370
-1
  6
ByLayer
100
AcDbEntity
100
AcDbPolyline
 90
3
 70
0
 10
15.0798572015999994
 20
5.3399999999999999
 10
15.0298572016000005
 20
5.3399999999999999
 10
15.0279844762000003
 20
5.3399999999999999
  0
LWPOLYLINE
  5
295
  8
components
 62
0
370
-1
  6
ByLayer
100
AcDbEntity
100
AcDbPolyline
 90
9
 70
0
 10
15.9499999999999993
 20
4.6399999999999997
 10
15.9000000000000004
 20
4.6399999999999997
 10
15.8499999999999996
 20
4.6399999999999997
 10
15.8000000000000007
 20
4.6399999999999997
 10
15.75
 20
4.6399999999999997
 10
15.6999999999999993
 20
4.6399999999999997
 10
15.6500000000000004
 20
4.6399999999999997
 10
15.5999999999999996
 20
4.6399999999999997
 10
15.5500000000000007
 20
4.6399999999999997
  0
LWPOLYLINE
  5
296
  8
components
 62
0
370
-1
  6
ByLayer
100
AcDbEntity
100
AcDbPolyline
 90
3
 70
0
 10
15.0798572015999994
 20
4.6399999999999997
 10
15.0298572016000005
 20
4.6399999999999997
 10
15.0279844762000003
 20
4.6399999999999997
  0
LWPOLYLINE
  5
297
  8
components
 62
0
370
-1
  6
ByLayer
100
AcDbEntity
100
AcDbPolyline
 90
3
 70
0
 10
20.75
 20
2.54
 10
20.6999999999999993
 20
2.54
 10
20.6499999999999986
 20
2.54
  0
CIRCLE
  5
298
100
AcDbEntity
100
AcDbCircle
  8
components
 62
0
370
-1
  6
ByLayer
 10
19.0500000000000007
 20
2.54
 30
0.0
 40
1.7
  0
LINE
  5
299
100
AcDbEntity
100
AcDbLine
  8
components
 62
0
370
-1
  6
ByLayer
 10
15.9499999999999993
 20
-0.36
 30
0.0
 11
15.9499999999999993
 21
5.4400000000000004
 31
0.0
  0
LINE
  5
29A
100
AcDbEntity
100
AcDbLine
  8
components
 62
0
370
-1
  6
ByLayer
 10
21.9499999999999993
 20
-0.5600000000000001
 30
0.0
 11
16.1499999999999986
 21
-0.5600000000000001
 31
0.0
  0
LINE
  5
29B
100
AcDbEntity
100
AcDbLine
  8
components
 62
0
370
-1
  6
ByLayer
 10
22.1499999999999986
 20
5.4400000000000004
 30
0.0
 11
22.1499999999999986
 21
-0.36
 31
0.0
  0
LINE
  5
29C
100
AcDbEntity
100
AcDbLine
  8
components
 62
0
370
-1
  6
ByLayer
 10
16.1499999999999986
 20
5.6399999999999997
 30
0.0
 11
21.9499999999999993
 21
5.6399999999999997
 31
0.0
  0
CIRCLE
  5
29D
100
AcDbEntity
100
AcDbCircle
  8
components
 62
0
370
-1
  6
ByLayer
 10
16.75
 20
0.24
 30
0.0
 40
0.6
  0
CIRCLE
  5
29E
100
AcDbEntity
100
AcDbCircle
  8
components
 62
0
370
-1
  6
ByLayer
 10
16.75
 20
4.8399999999999999
 30
0.0
 40
0.6
  0
CIRCLE
  5
29F
100
AcDbEntity
100
AcDbCircle
  8
components
 62
0
370
-1
  6
ByLayer
 10
21.3500000000000014
 20
4.8399999999999999
 30
0.0
 40
0.6
  0
CIRCLE
  5
2A0
100
AcDbEntity
100
AcDbCircle
  8
components
 62
0
370
-1
  6
ByLayer
 10
21.3500000000000014
 20
0.24
 30
0.0
 40
0.6
  0
LINE
  5
2A1
100
AcDbEntity
100
AcDbLine
  8
components
 62
0
370
-1
  6
ByLayer
 10
22.5500000000000007
 20
-0.26
 30
0.0
 11
23.0201427983999984
 21
-0.26
 31
0.0
  0
LINE
  5
2A2
100
AcDbEntity
100
AcDbLine
  8
components
 62
0
370
-1
  6
ByLayer
 10
22.5500000000000007
 20
0.44
 30
0.0
 11
23.0201427983999984
 21
0.44
 31
0.0
  0
LINE
  5
2A3
100
AcDbEntity
100
AcDbLine
  8
components
 62
0
370
-1
  6
ByLayer
 10
22.5500000000000007
 20
-0.26
 30
0.0
 11
22.5500000000000007
 21
0.44
 31
0.0
  0
LINE
  5
2A4
100
AcDbEntity
100
AcDbLine
  8
components
 62
0
370
-1
  6
ByLayer
 10
15.5500000000000007
 20
0.34
 30
0.0
 11
15.0798572015999994
 21
0.34
 31
0.0
  0
LINE
  5
2A5
100
AcDbEntity
100
AcDbLine
  8
components
 62
0
370
-1
  6
ByLayer
 10
15.5500000000000007
 20
-0.36
 30
0.0
 11
15.0798572015999994
 21
-0.36
 31
0.0
  0
LINE
  5
2A6
100
AcDbEntity
100
AcDbLine
  8
components
 62
0
370
-1
  6
ByLayer
 10
15.5500000000000007
 20
0.34
 30
0.0
 11
15.5500000000000007
 21
-0.36
 31
0.0
  0
LINE
  5
2A7
100
AcDbEntity
100
AcDbLine
  8
components
 62
0
370
-1
  6
ByLayer
 10
15.5500000000000007
 20
0.34
 30
0.0
 11
15.5500000000000007
 21
-0.36
 31
0.0
  0
LINE
  5
2A8
100
AcDbEntity
100
AcDbLine
  8
components
 62
0
370
-1
  6
ByLayer
 10
15.9499999999999993
 20
0.34
 30
0.0
 11
15.9499999999999993
 21
-0.36
 31
0.0
  0
LINE
  5
2A9
100
AcDbEntity
100
AcDbLine
  8
components
 62
0
370
-1
  6
ByLayer
 10
22.5500000000000007
 20
4.7400000000000002
 30
0.0
 11
23.0201427983999984
 21
4.7400000000000002
 31
0.0
  0
LINE
  5
2AA
100
AcDbEntity
100
AcDbLine
  8
components
 62
0
370
-1
  6
ByLayer
 10
22.5500000000000007
 20
5.4400000000000004
 30
0.0
 11
23.0201427983999984
 21
5.4400000000000004
 31
0.0
  0
LINE
  5
2AB
100
AcDbEntity
100
AcDbLine
  8
components
 62
0
370
-1
  6
ByLayer
 10
22.5500000000000007
 20
4.7400000000000002
 30
0.0
 11
22.5500000000000007
 21
5.4400000000000004
 31
0.0
  0
LINE
  5
2AC
100
AcDbEntity
100
AcDbLine
  8
components
 62
0
370
-1
  6
ByLayer
 10
22.1499999999999986
 20
4.7400000000000002
 30
0.0
 11
22.1499999999999986
 21
5.4400000000000004
 31
0.0
  0
LINE
  5
2AD
100
AcDbEntity
100
AcDbLine
  8
components
 62
0
370
-1
  6
ByLayer
 10
15.5500000000000007
 20
5.3399999999999999
 30
0.0
 11
15.0798572015999994
 21
5.3399999999999999
 31
0.0
  0
LINE
  5
2AE
100
AcDbEntity
100
AcDbLine
  8
components
 62
0
370
-1
  6
ByLayer
 10
15.5500000000000007
 20
4.6399999999999997
 30
0.0
 11
15.0798572015999994
 21
4.6399999999999997
 31
0.0
  0
LINE
  5
2AF
100
AcDbEntity
100
AcDbLine
  8
components
 62
0
370
-1
  6
ByLayer
 10
15.5500000000000007
 20
5.3399999999999999
 30
0.0
 11
15.5500000000000007
 21
4.6399999999999997
 31
0.0
  0
LINE
  5
2B0
100
AcDbEntity
100
AcDbLine
  8
components
 62
0
370
-1
  6
ByLayer
 10
15.5500000000000007
 20
5.3399999999999999
 30
0.0
 11
15.5500000000000007
 21
4.6399999999999997
 31
0.0
  0
LINE
  5
2B1
100
AcDbEntity
100
AcDbLine
  8
components
 62
0
370
-1
  6
ByLayer
 10
15.9499999999999993
 20
-0.36
 30
0.0
 11
15.9499999999999993
 21
5.4400000000000004
 31
0.0
  0
ARC
  5
2B2
100
AcDbEntity
  8
components
 62
0
370
-1
  6
ByLayer
100
AcDbCircle
 10
16.1499999999999986
 20
5.4400000000000004
 30
0.0
 40
0.2
100
AcDbArc
 50
90.0
 51
180.0
  0
LINE
  5
2B3
100
AcDbEntity
100
AcDbLine
  8
components
 62
0
370
-1
  6
ByLayer
 10
16.1499999999999986
 20
5.6399999999999997
 30
0.0
 11
21.9499999999999993
 21
5.6399999999999997
 31
0.0
  0
ARC
  5
2B4
100
AcDbEntity
  8
components
 62
0
370
-1
  6
ByLayer
100
AcDbCircle
 10
21.9499999999999993
 20
5.4400000000000004
 30
0.0
 40
0.2
100
AcDbArc
 50
-0.0
 51
90.0
  0
LINE
  5
2B5
100
AcDbEntity
100
AcDbLine
  8
components
 62
0
370
-1
  6
ByLayer
 10
22.1499999999999986
 20
5.4400000000000004
 30
0.0
 11
22.1499999999999986
 21
-0.36
 31
0.0
  0
ARC
  5
2B6
100
AcDbEntity
  8
components
 62
0
370
-1
  6
ByLayer
100
AcDbCircle
 10
21.9499999999999993
 20
-0.36
 30
0.0
 40
0.2
100
AcDbArc
 50
-90.0
 51
0.0
  0
LINE
  5
2B7
100
AcDbEntity
100
AcDbLine
  8
components
 62
0
370
-1
  6
ByLayer
 10
21.9499999999999993
 20
-0.5600000000000001
 30
0.0
 11
16.1499999999999986
 21
-0.5600000000000001
 31
0.0
  0
ARC
  5
2B8
100
AcDbEntity
  8
components
 62
0
370
-1
  6
ByLayer
100
AcDbCircle
 10
16.1499999999999986
 20
-0.36
 30
0.0
 40
0.2
100
AcDbArc
 50
180.0
 51
-90.0
  0
CIRCLE
  5
2B9
100
AcDbEntity
100
AcDbCircle
  8
components
 62
0
370
-1
  6
ByLayer
 10
19.0500000000000007
 20
2.54
 30
0.0
 40
1.75
  0
CIRCLE
  5
2BA
100
AcDbEntity
100
AcDbCircle
  8
components
 62
0
370
-1
  6
ByLayer
 10
21.3500000000000014
 20
0.24
 30
0.0
 40
0.65
  0
CIRCLE
  5
2BB
100
AcDbEntity
100
AcDbCircle
  8
components
 62
0
370
-1
  6
ByLayer
 10
16.75
 20
0.24
 30
0.0
 40
0.65
  0
CIRCLE
  5
2BC
100
AcDbEntity
100
AcDbCircle
  8
components
 62
0
370
-1
  6
ByLayer
 10
21.3500000000000014
 20
4.8399999999999999
 30
0.0
 40
0.65
  0
CIRCLE
  5
2BD
100
AcDbEntity
100
AcDbCircle
  8
components
 62
0
370
-1
  6
ByLayer
 10
16.75
 20
4.8399999999999999
 30
0.0
 40
0.65
  0
CIRCLE
  5
2BE
100
AcDbEntity
100
AcDbCircle
  8
components
 62
0
370
-1
  6
ByLayer
 10
19.0500000000000007
 20
2.54
 30
0.0
 40
1.7
  0
CIRCLE
  5
2BF
100
AcDbEntity
100
AcDbCircle
  8
components
 62
0
370
-1
  6
ByLayer
 10
19.0500000000000007
 20
2.54
 30
0.0
 40
1.6000000000000001
  0
LINE
  5
2C0
100
AcDbEntity
100
AcDbLine
  8
components
 62
0
370
-1
  6
ByLayer
 10
23.0201427983999984
 20
-0.26
 30
0.0
 11
23.0201427983999984
 21
0.44
 31
0.0
  0
LINE
  5
2C1
100
AcDbEntity
100
AcDbLine
  8
components
 62
0
370
-1
  6
ByLayer
 10
15.0798572015999994
 20
0.34
 30
0.0
 11
15.0798572015999994
 21
-0.36
 31
0.0
  0
LINE
  5
2C2
100
AcDbEntity
100
AcDbLine
  8
components
 62
0
370
-1
  6
ByLayer
 10
23.0201427983999984
 20
4.7400000000000002
 30
0.0
 11
23.0201427983999984
 21
5.4400000000000004
 31
0.0
  0
LINE
  5
2C3
100
AcDbEntity
100
AcDbLine
  8
components
 62
0
370
-1
  6
ByLayer
 10
15.0798572015999994
 20
5.3399999999999999
 30
0.0
 11
15.0798572015999994
 21
4.6399999999999997
 31
0.0
  0
LINE
  5
2C4
100
AcDbEntity
100
AcDbLine
  8
components
 62
0
370
-1
  6
ByLayer
 10
23.0720155238000011
 20
0.44
 30
0.0
 11
23.0720155238000011
 21
-0.26
 31
0.0
  0
LINE
  5
2C5
100
AcDbEntity
100
AcDbLine
  8
components
 62
0
370
-1
  6
ByLayer
 10
15.0279844762000003
 20
-0.36
 30
0.0
 11
15.0279844762000003
 21
0.34
 31
0.0
  0
LINE
  5
2C6
100
AcDbEntity
100
AcDbLine
  8
components
 62
0
370
-1
  6
ByLayer
 10
23.0720155238000011
 20
5.4400000000000004
 30
0.0
 11
23.0720155238000011
 21
4.7400000000000002
 31
0.0
  0
LINE
  5
2C7
100
AcDbEntity
100
AcDbLine
  8
components
 62
0
370
-1
  6
ByLayer
 10
15.0279844762000003
 20
4.6399999999999997
 30
0.0
 11
15.0279844762000003
 21
5.3399999999999999
 31
0.0
  0
ENDBLK
  5
2C8
100
AcDbEntity
  8
0
100
AcDbBlockEnd
  0
BLOCK
  5
2C9
100
AcDbEntity
  8
0
100
AcDbBlockBegin
  2
COMPOUND004
 70
0
 10
0.0
 20
0.0
 30
0.0
  3
COMPOUND004
  1

  0
LWPOLYLINE
  5
2CA
  8
components
 62
0
370
-1
  6
ByLayer
100
AcDbEntity
100
AcDbPolyline
 90
2
 70
0
 10
37.986079161100001
 20
14.9800000000000004
 10
38.0120155238000024
 20
14.9800000000000004
  0
LWPOLYLINE
  5
2CB
  8
components
 62
0
370
-1
  6
ByLayer
100
AcDbEntity
100
AcDbPolyline
 90
9
 70
0
 10
37.3900000000000006
 20
14.9800000000000004
 10
37.4399999999999977
 20
14.9800000000000004
 10
37.490000000000002
 20
14.9800000000000004
 10
37.5399999999999991
 20
14.9800000000000004
 10
37.5900000000000034
 20
14.9800000000000004
 10
37.6400000000000006
 20
14.9800000000000004
 10
37.6899999999999977
 20
14.9800000000000004
 10
37.740000000000002
 20
14.9800000000000004
 10
37.7899999999999991
 20
14.9800000000000004
  0
LWPOLYLINE
  5
2CC
  8
components
 62
0
370
-1
  6
ByLayer
100
AcDbEntity
100
AcDbPolyline
 90
3
 70
0
 10
38.2601427983999969
 20
14.9800000000000004
 10
38.3101427984000011
 20
14.9800000000000004
 10
38.3120155237999995
 20
14.9800000000000004
  0
LWPOLYLINE
  5
2CD
  8
components
 62
0
370
-1
  6
ByLayer
100
AcDbEntity
100
AcDbPolyline
 90
9
 70
0
 10
37.3900000000000006
 20
15.6799999999999997
 10
37.4399999999999977
 20
15.6799999999999997
 10
37.490000000000002
 20
15.6799999999999997
 10
37.5399999999999991
 20
15.6799999999999997
 10
37.5900000000000034
 20
15.6799999999999997
 10
37.6400000000000006
 20
15.6799999999999997
 10
37.6899999999999977
 20
15.6799999999999997
 10
37.740000000000002
 20
15.6799999999999997
 10
37.7899999999999991
 20
15.6799999999999997
  0
LWPOLYLINE
  5
2CE
  8
components
 62
0
370
-1
  6
ByLayer
100
AcDbEntity
100
AcDbPolyline
 90
3
 70
0
 10
38.2601427983999969
 20
15.6799999999999997
 10
38.3101427984000011
 20
15.6799999999999997
 10
38.3120155237999995
 20
15.6799999999999997
  0
LWPOLYLINE
  5
2CF
  8
components
 62
0
370
-1
  6
ByLayer
100
AcDbEntity
100
AcDbPolyline
 90
9
 70
0
 10
31.1900000000000013
 20
15.5800000000000001
 10
31.1400000000000006
 20
15.5800000000000001
 10
31.0899999999999999
 20
15.5800000000000001
 10
31.0399999999999991
 20
15.5800000000000001
 10
30.9899999999999984
 20
15.5800000000000001
 10
30.9400000000000013
 20
15.5800000000000001
 10
30.8900000000000006
 20
15.5800000000000001
 10
30.8399999999999999
 20
15.5800000000000001
 10
30.7899999999999991
 20
15.5800000000000001
  0
LWPOLYLINE
  5
2D0
  8
components
 62
0
370
-1
  6
ByLayer
100
AcDbEntity
100
AcDbPolyline
 90
3
 70
0
 10
30.3198572016000014
 20
15.5800000000000001
 10
30.2698572016000007
 20
15.5800000000000001
 10
30.2679844761999988
 20
15.5800000000000001
  0
LWPOLYLINE
  5
2D1
  8
components
 62
0
370
-1
  6
ByLayer
100
AcDbEntity
100
AcDbPolyline
 90
2
 70
0
 10
30.5939208389000008
 20
14.8800000000000008
 10
30.5679844761999995
 20
14.8800000000000008
  0
LWPOLYLINE
  5
2D2
  8
components
 62
0
370
-1
  6
ByLayer
100
AcDbEntity
100
AcDbPolyline
 90
9
 70
0
 10
31.1900000000000013
 20
14.8800000000000008
 10
31.1400000000000006
 20
14.8800000000000008
 10
31.0899999999999999
 20
14.8800000000000008
 10
31.0399999999999991
 20
14.8800000000000008
 10
30.9899999999999984
 20
14.8800000000000008
 10
30.9400000000000013
 20
14.8800000000000008
 10
30.8900000000000006
 20
14.8800000000000008
 10
30.8399999999999999
 20
14.8800000000000008
 10
30.7899999999999991
 20
14.8800000000000008
  0
LWPOLYLINE
  5
2D3
  8
components
 62
0
370
-1
  6
ByLayer
100
AcDbEntity
100
AcDbPolyline
 90
3
 70
0
 10
30.3198572016000014
 20
14.8800000000000008
 10
30.2698572016000007
 20
14.8800000000000008
 10
30.2679844761999988
 20
14.8800000000000008
  0
LWPOLYLINE
  5
2D4
  8
components
 62
0
370
-1
  6
ByLayer
100
AcDbEntity
100
AcDbPolyline
 90
9
 70
0
 10
37.3900000000000006
 20
19.9800000000000004
 10
37.4399999999999977
 20
19.9800000000000004
 10
37.490000000000002
 20
19.9800000000000004
 10
37.5399999999999991
 20
19.9800000000000004
 10
37.5900000000000034
 20
19.9800000000000004
 10
37.6400000000000006
 20
19.9800000000000004
 10
37.6899999999999977
 20
19.9800000000000004
 10
37.740000000000002
 20
19.9800000000000004
 10
37.7899999999999991
 20
19.9800000000000004
  0
LWPOLYLINE
  5
2D5
  8
components
 62
0
370
-1
  6
ByLayer
100
AcDbEntity
100
AcDbPolyline
 90
3
 70
0
 10
38.2601427983999969
 20
19.9800000000000004
 10
38.3101427984000011
 20
19.9800000000000004
 10
38.3120155237999995
 20
19.9800000000000004
  0
LWPOLYLINE
  5
2D6
  8
components
 62
0
370
-1
  6
ByLayer
100
AcDbEntity
100
AcDbPolyline
 90
9
 70
0
 10
37.3900000000000006
 20
20.6799999999999997
 10
37.4399999999999977
 20
20.6799999999999997
 10
37.490000000000002
 20
20.6799999999999997
 10
37.5399999999999991
 20
20.6799999999999997
 10
37.5900000000000034
 20
20.6799999999999997
 10
37.6400000000000006
 20
20.6799999999999997
 10
37.6899999999999977
 20
20.6799999999999997
 10
37.740000000000002
 20
20.6799999999999997
 10
37.7899999999999991
 20
20.6799999999999997
  0
LWPOLYLINE
  5
2D7
  8
components
 62
0
370
-1
  6
ByLayer
100
AcDbEntity
100
AcDbPolyline
 90
3
 70
0
 10
38.2601427983999969
 20
20.6799999999999997
 10
38.3101427984000011
 20
20.6799999999999997
 10
38.3120155237999995
 20
20.6799999999999997
  0
LWPOLYLINE
  5
2D8
  8
components
 62
0
370
-1
  6
ByLayer
100
AcDbEntity
100
AcDbPolyline
 90
9
 70
0
 10
31.1900000000000013
 20
20.5799999999999983
 10
31.1400000000000006
 20
20.5799999999999983
 10
31.0899999999999999
 20
20.5799999999999983
 10
31.0399999999999991
 20
20.5799999999999983
 10
30.9899999999999984
 20
20.5799999999999983
 10
30.9400000000000013
 20
20.5799999999999983
 10
30.8900000000000006
 20
20.5799999999999983
 10
30.8399999999999999
 20
20.5799999999999983
 10
30.7899999999999991
 20
20.5799999999999983
  0
LWPOLYLINE
  5
2D9
  8
components
 62
0
370
-1
  6
ByLayer
100
AcDbEntity
100
AcDbPolyline
 90
3
 70
0
 10
30.3198572016000014
 20
20.5799999999999983
 10
30.2698572016000007
 20
20.5799999999999983
 10
30.2679844761999988
 20
20.5799999999999983
  0
LWPOLYLINE
  5
2DA
  8
components
 62
0
370
-1
  6
ByLayer
100
AcDbEntity
100
AcDbPolyline
 90
9
 70
0
 10
31.1900000000000013
 20
19.879999999999999
 10
31.1400000000000006
 20
19.879999999999999
 10
31.0899999999999999
 20
19.879999999999999
 10
31.0399999999999991
 20
19.879999999999999
 10
30.9899999999999984
 20
19.879999999999999
 10
30.9400000000000013
 20
19.879999999999999
 10
30.8900000000000006
 20
19.879999999999999
 10
30.8399999999999999
 20
19.879999999999999
 10
30.7899999999999991
 20
19.879999999999999
  0
LWPOLYLINE
  5
2DB
  8
components
 62
0
370
-1
  6
ByLayer
100
AcDbEntity
100
AcDbPolyline
 90
3
 70
0
 10
30.3198572016000014
 20
19.879999999999999
 10
30.2698572016000007
 20
19.879999999999999
 10
30.2679844761999988
 20
19.879999999999999
  0
LWPOLYLINE
  5
2DC
  8
components
 62
0
370
-1
  6
ByLayer
100
AcDbEntity
100
AcDbPolyline
 90
3
 70
0
 10
35.990000000000002
 20
17.7800000000000011
 10
35.9399999999999977
 20
17.7800000000000011
 10
35.8900000000000006
 20
17.7800000000000011
  0
CIRCLE
  5
2DD
100
AcDbEntity
100
AcDbCircle
  8
components
 62
0
370
-1
  6
ByLayer
 10
34.2899999999999991
 20
17.7800000000000011
 30
0.0
 40
1.7
  0
LINE
  5
2DE
100
AcDbEntity
100
AcDbLine
  8
components
 62
0
370
-1
  6
ByLayer
 10
31.1900000000000013
 20
14.8800000000000008
 30
0.0
 11
31.1900000000000013
 21
20.6799999999999997
 31
0.0
  0
LINE
  5
2DF
100
AcDbEntity
100
AcDbLine
  8
components
 62
0
370
-1
  6
ByLayer
 10
37.1899999999999977
 20
14.6799999999999997
 30
0.0
 11
31.3900000000000006
 21
14.6799999999999997
 31
0.0
  0
LINE
  5
2E0
100
AcDbEntity
100
AcDbLine
  8
components
 62
0
370
-1
  6
ByLayer
 10
37.3900000000000006
 20
20.6799999999999997
 30
0.0
 11
37.3900000000000006
 21
14.8800000000000008
 31
0.0
  0
LINE
  5
2E1
100
AcDbEntity
100
AcDbLine
  8
components
 62
0
370
-1
  6
ByLayer
 10
31.3900000000000006
 20
20.879999999999999
 30
0.0
 11
37.1899999999999977
 21
20.879999999999999
 31
0.0
  0
CIRCLE
  5
2E2
100
AcDbEntity
100
AcDbCircle
  8
components
 62
0
370
-1
  6
ByLayer
 10
31.9899999999999984
 20
15.4800000000000004
 30
0.0
 40
0.6
  0
CIRCLE
  5
2E3
100
AcDbEntity
100
AcDbCircle
  8
components
 62
0
370
-1
  6
ByLayer
 10
31.9899999999999984
 20
20.0799999999999983
 30
0.0
 40
0.6
  0
CIRCLE
  5
2E4
100
AcDbEntity
100
AcDbCircle
  8
components
 62
0
370
-1
  6
ByLayer
 10
36.5900000000000034
 20
20.0799999999999983
 30
0.0
 40
0.6
  0
CIRCLE
  5
2E5
100
AcDbEntity
100
AcDbCircle
  8
components
 62
0
370
-1
  6
ByLayer
 10
36.5900000000000034
 20
15.4800000000000004
 30
0.0
 40
0.6
  0
LINE
  5
2E6
100
AcDbEntity
100
AcDbLine
  8
components
 62
0
370
-1
  6
ByLayer
 10
37.7899999999999991
 20
14.9800000000000004
 30
0.0
 11
38.2601427983999969
 21
14.9800000000000004
 31
0.0
  0
LINE
  5
2E7
100
AcDbEntity
100
AcDbLine
  8
components
 62
0
370
-1
  6
ByLayer
 10
37.7899999999999991
 20
15.6799999999999997
 30
0.0
 11
38.2601427983999969
 21
15.6799999999999997
 31
0.0
  0
LINE
  5
2E8
100
AcDbEntity
100
AcDbLine
  8
components
 62
0
370
-1
  6
ByLayer
 10
37.7899999999999991
 20
14.9800000000000004
 30
0.0
 11
37.7899999999999991
 21
15.6799999999999997
 31
0.0
  0
LINE
  5
2E9
100
AcDbEntity
100
AcDbLine
  8
components
 62
0
370
-1
  6
ByLayer
 10
37.7899999999999991
 20
14.9800000000000004
 30
0.0
 11
37.7899999999999991
 21
15.6799999999999997
 31
0.0
  0
LINE
  5
2EA
100
AcDbEntity
100
AcDbLine
  8
components
 62
0
370
-1
  6
ByLayer
 10
30.7899999999999991
 20
15.5800000000000001
 30
0.0
 11
30.3198572016000014
 21
15.5800000000000001
 31
0.0
  0
LINE
  5
2EB
100
AcDbEntity
100
AcDbLine
  8
components
 62
0
370
-1
  6
ByLayer
 10
30.7899999999999991
 20
14.8800000000000008
 30
0.0
 11
30.3198572016000014
 21
14.8800000000000008
 31
0.0
  0
LINE
  5
2EC
100
AcDbEntity
100
AcDbLine
  8
components
 62
0
370
-1
  6
ByLayer
 10
30.7899999999999991
 20
15.5800000000000001
 30
0.0
 11
30.7899999999999991
 21
14.8800000000000008
 31
0.0
  0
LINE
  5
2ED
100
AcDbEntity
100
AcDbLine
  8
components
 62
0
370
-1
  6
ByLayer
 10
30.7899999999999991
 20
15.5800000000000001
 30
0.0
 11
30.7899999999999991
 21
14.8800000000000008
 31
0.0
  0
LINE
  5
2EE
100
AcDbEntity
100
AcDbLine
  8
components
 62
0
370
-1
  6
ByLayer
 10
31.1900000000000013
 20
15.5800000000000001
 30
0.0
 11
31.1900000000000013
 21
14.8800000000000008
 31
0.0
  0
LINE
  5
2EF
100
AcDbEntity
100
AcDbLine
  8
components
 62
0
370
-1
  6
ByLayer
 10
37.7899999999999991
 20
19.9800000000000004
 30
0.0
 11
38.2601427983999969
 21
19.9800000000000004
 31
0.0
  0
LINE
  5
2F0
100
AcDbEntity
100
AcDbLine
  8
components
 62
0
370
-1
  6
ByLayer
 10
37.7899999999999991
 20
20.6799999999999997
 30
0.0
 11
38.2601427983999969
 21
20.6799999999999997
 31
0.0
  0
LINE
  5
2F1
100
AcDbEntity
100
AcDbLine
  8
components
 62
0
370
-1
  6
ByLayer
 10
37.7899999999999991
 20
19.9800000000000004
 30
0.0
 11
37.7899999999999991
 21
20.6799999999999997
 31
0.0
  0
LINE
  5
2F2
100
AcDbEntity
100
AcDbLine
  8
components
 62
0
370
-1
  6
ByLayer
 10
37.7899999999999991
 20
19.9800000000000004
 30
0.0
 11
37.7899999999999991
 21
20.6799999999999997
 31
0.0
  0
LINE
  5
2F3
100
AcDbEntity
100
AcDbLine
  8
components
 62
0
370
-1
  6
ByLayer
 10
37.3900000000000006
 20
19.9800000000000004
 30
0.0
 11
37.3900000000000006
 21
20.6799999999999997
 31
0.0
  0
LINE
  5
2F4
100
AcDbEntity
100
AcDbLine
  8
components
 62
0
370
-1
  6
ByLayer
 10
30.7899999999999991
 20
20.5799999999999983
 30
0.0
 11
30.3198572016000014
 21
20.5799999999999983
 31
0.0
  0
LINE
  5
2F5
100
AcDbEntity
100
AcDbLine
  8
components
 62
0
370
-1
  6
ByLayer
 10
30.7899999999999991
 20
19.879999999999999
 30
0.0
 11
30.3198572016000014
 21
19.879999999999999
 31
0.0
  0
LINE
  5
2F6
100
AcDbEntity
100
AcDbLine
  8
components
 62
0
370
-1
  6
ByLayer
 10
30.7899999999999991
 20
20.5799999999999983
 30
0.0
 11
30.7899999999999991
 21
19.879999999999999
 31
0.0
  0
LINE
  5
2F7
100
AcDbEntity
100
AcDbLine
  8
components
 62
0
370
-1
  6
ByLayer
 10
30.7899999999999991
 20
20.5799999999999983
 30
0.0
 11
30.7899999999999991
 21
19.879999999999999
 31
0.0
  0
LINE
  5
2F8
100
AcDbEntity
100
AcDbLine
  8
components
 62
0
370
-1
  6
ByLayer
 10
31.1900000000000013
 20
14.8800000000000008
 30
0.0
 11
31.1900000000000013
 21
20.6799999999999997
 31
0.0
  0
ARC
  5
2F9
100
AcDbEntity
  8
components
 62
0
370
-1
  6
ByLayer
100
AcDbCircle
 10
31.3900000000000006
 20
20.6799999999999997
 30
0.0
 40
0.2
100
AcDbArc
 50
90.0
 51
-180.0
  0
LINE
  5
2FA
100
AcDbEntity
100
AcDbLine
  8
components
 62
0
370
-1
  6
ByLayer
 10
31.3900000000000006
 20
20.879999999999999
 30
0.0
 11
37.1899999999999977
 21
20.879999999999999
 31
0.0
  0
ARC
  5
2FB
100
AcDbEntity
  8
components
 62
0
370
-1
  6
ByLayer
100
AcDbCircle
 10
37.1899999999999977
 20
20.6799999999999997
 30
0.0
 40
0.2
100
AcDbArc
 50
-0.0
 51
90.0
  0
LINE
  5
2FC
100
AcDbEntity
100
AcDbLine
  8
components
 62
0
370
-1
  6
ByLayer
 10
37.3900000000000006
 20
20.6799999999999997
 30
0.0
 11
37.3900000000000006
 21
14.8800000000000008
 31
0.0
  0
ARC
  5
2FD
100
AcDbEntity
  8
components
 62
0
370
-1
  6
ByLayer
100
AcDbCircle
 10
37.1899999999999977
 20
14.8800000000000008
 30
0.0
 40
0.2
100
AcDbArc
 50
-90.0
 51
-0.0
  0
LINE
  5
2FE
100
AcDbEntity
100
AcDbLine
  8
components
 62
0
370
-1
  6
ByLayer
 10
37.1899999999999977
 20
14.6799999999999997
 30
0.0
 11
31.3900000000000006
 21
14.6799999999999997
 31
0.0
  0
ARC
  5
2FF
100
AcDbEntity
  8
components
 62
0
370
-1
  6
ByLayer
100
AcDbCircle
 10
31.3900000000000006
 20
14.8800000000000008
 30
0.0
 40
0.2
100
AcDbArc
 50
180.0
 51
-90.0
  0
CIRCLE
  5
300
100
AcDbEntity
100
AcDbCircle
  8
components
 62
0
370
-1
  6
ByLayer
 10
34.2899999999999991
 20
17.7800000000000011
 30
0.0
 40
1.75
  0
CIRCLE
  5
301
100
AcDbEntity
100
AcDbCircle
  8
components
 62
0
370
-1
  6
ByLayer
 10
36.5900000000000034
 20
15.4800000000000004
 30
0.0
 40
0.65
  0
CIRCLE
  5
302
100
AcDbEntity
100
AcDbCircle
  8
components
 62
0
370
-1
  6
ByLayer
 10
31.9899999999999984
 20
15.4800000000000004
 30
0.0
 40
0.65
  0
CIRCLE
  5
303
100
AcDbEntity
100
AcDbCircle
  8
components
 62
0
370
-1
  6
ByLayer
 10
36.5900000000000034
 20
20.0799999999999983
 30
0.0
 40
0.65
  0
CIRCLE
  5
304
100
AcDbEntity
100
AcDbCircle
  8
components
 62
0
370
-1
  6
ByLayer
 10
31.9899999999999984
 20
20.0799999999999983
 30
0.0
 40
0.65
  0
CIRCLE
  5
305
100
AcDbEntity
100
AcDbCircle
  8
components
 62
0
370
-1
  6
ByLayer
 10
34.2899999999999991
 20
17.7800000000000011
 30
0.0
 40
1.7
  0
CIRCLE
  5
306
100
AcDbEntity
100
AcDbCircle
  8
components
 62
0
370
-1
  6
ByLayer
 10
34.2899999999999991
 20
17.7800000000000011
 30
0.0
 40
1.6000000000000001
  0
LINE
  5
307
100
AcDbEntity
100
AcDbLine
  8
components
 62
0
370
-1
  6
ByLayer
 10
38.2601427983999969
 20
14.9800000000000004
 30
0.0
 11
38.2601427983999969
 21
15.6799999999999997
 31
0.0
  0
LINE
  5
308
100
AcDbEntity
100
AcDbLine
  8
components
 62
0
370
-1
  6
ByLayer
 10
30.3198572016000014
 20
15.5800000000000001
 30
0.0
 11
30.3198572016000014
 21
14.8800000000000008
 31
0.0
  0
LINE
  5
309
100
AcDbEntity
100
AcDbLine
  8
components
 62
0
370
-1
  6
ByLayer
 10
38.2601427983999969
 20
19.9800000000000004
 30
0.0
 11
38.2601427983999969
 21
20.6799999999999997
 31
0.0
  0
LINE
  5
30A
100
AcDbEntity
100
AcDbLine
  8
components
 62
0
370
-1
  6
ByLayer
 10
30.3198572016000014
 20
20.5799999999999983
 30
0.0
 11
30.3198572016000014
 21
19.879999999999999
 31
0.0
  0
LINE
  5
30B
100
AcDbEntity
100
AcDbLine
  8
components
 62
0
370
-1
  6
ByLayer
 10
38.3120155237999995
 20
15.6799999999999997
 30
0.0
 11
38.3120155237999995
 21
14.9800000000000004
 31
0.0
  0
LINE
  5
30C
100
AcDbEntity
100
AcDbLine
  8
components
 62
0
370
-1
  6
ByLayer
 10
30.2679844761999988
 20
14.8800000000000008
 30
0.0
 11
30.2679844761999988
 21
15.5800000000000001
 31
0.0
  0
LINE
  5
30D
100
AcDbEntity
100
AcDbLine
  8
components
 62
0
370
-1
  6
ByLayer
 10
38.3120155237999995
 20
20.6799999999999997
 30
0.0
 11
38.3120155237999995
 21
19.9800000000000004
 31
0.0
  0
LINE
  5
30E
100
AcDbEntity
100
AcDbLine
  8
components
 62
0
370
-1
  6
ByLayer
 10
30.2679844761999988
 20
19.879999999999999
 30
0.0
 11
30.2679844761999988
 21
20.5799999999999983
 31
0.0
  0
ENDBLK
  5
30F
100
AcDbEntity
  8
0
100
AcDbBlockEnd
  0
ENDSEC
  0
SECTION
  2
ENTITIES
  0
INSERT
  5
310
100
AcDbEntity
100
AcDbBlockReference
  8
0
 62
256
370
-1
  6
ByLayer
  2
COMPOUND
 10
0.0
 20
0.0
 30
0.0
  0
INSERT
  5
311
100
AcDbEntity
100
AcDbBlockReference
  8
0
 62
256
370
-1
  6
ByLayer
  2
COMPOUND001
 10
0.0
 20
0.0
 30
0.0
  0
INSERT
  5
312
100
AcDbEntity
100
AcDbBlockReference
  8
0
 62
256
370
-1
  6
ByLayer
  2
COMPOUND002
 10
0.0
 20
0.0
 30
0.0
  0
INSERT
  5
313
100
AcDbEntity
100
AcDbBlockReference
  8
0
 62
256
370
-1
  6
ByLayer
  2
COMPOUND004
 10
0.0
 20
0.0
 30
0.0
  0
LWPOLYLINE
  5
314
  8
components
 62
256
370
-1
  6
ByLayer
100
AcDbEntity
100
AcDbPolyline
 90
15
 70
0
 10
10.4299999999999997
 20
2.1899999999999995
 10
10.3800000000000008
 20
2.1899999999999999
 10
10.3300000000000001
 20
2.1899999999999999
 10
10.2799999999999976
 20
2.1899999999999995
 10
10.2300000000000004
 20
2.1899999999999995
 10
10.1799999999999979
 20
2.1899999999999995
 10
10.1300000000000008
 20
2.1899999999999999
 10
10.0800000000000001
 20
2.1899999999999995
 10
10.0299999999999976
 20
2.1899999999999999
 10
9.9800000000000004
 20
2.1899999999999999
 10
9.9299999999999997
 20
2.1899999999999999
 10
9.8800000000000008
 20
2.1899999999999999
 10
9.8300000000000001
 20
2.1899999999999999
 10
9.7799999999999976
 20
2.1899999999999999
 10
9.7300000000000004
 20
2.1899999999999999
  0
LWPOLYLINE
  5
315
  8
components
 62
256
370
-1
  6
ByLayer
100
AcDbEntity
100
AcDbPolyline
 90
15
 70
0
 10
10.4299999999999997
 20
2.8900000000000001
 10
10.3800000000000008
 20
2.8900000000000006
 10
10.3300000000000001
 20
2.8899999999999997
 10
10.2799999999999976
 20
2.8900000000000001
 10
10.2300000000000004
 20
2.8899999999999997
 10
10.1799999999999997
 20
2.8900000000000001
 10
10.1300000000000008
 20
2.8899999999999997
 10
10.0800000000000018
 20
2.8900000000000001
 10
10.0299999999999994
 20
2.8900000000000001
 10
9.9800000000000004
 20
2.8900000000000006
 10
9.9299999999999997
 20
2.8900000000000006
 10
9.8800000000000008
 20
2.8900000000000001
 10
9.8300000000000001
 20
2.8900000000000001
 10
9.7799999999999994
 20
2.8900000000000001
 10
9.7300000000000004
 20
2.8900000000000001
  0
LWPOLYLINE
  5
316
  8
components
 62
256
370
-1
  6
ByLayer
100
AcDbEntity
100
AcDbPolyline
 90
15
 70
0
 10
10.4299999999999979
 20
-2.890000000000005
 10
10.3800000000000008
 20
-2.8899999999999988
 10
10.3300000000000001
 20
-2.8899999999999992
 10
10.2799999999999976
 20
-2.8900000000000023
 10
10.2300000000000004
 20
-2.8900000000000001
 10
10.1799999999999979
 20
-2.8900000000000059
 10
10.1300000000000008
 20
-2.8900000000000006
 10
10.0799999999999983
 20
-2.8900000000000072
 10
10.0299999999999994
 20
-2.8899999999999997
 10
9.9800000000000004
 20
-2.8900000000000006
 10
9.9299999999999997
 20
-2.8900000000000015
 10
9.879999999999999
 20
-2.8900000000000059
 10
9.8300000000000001
 20
-2.890000000000001
 10
9.7799999999999994
 20
-2.8899999999999992
 10
9.7299999999999986
 20
-2.8900000000000059
  0
LWPOLYLINE
  5
317
  8
components
 62
256
370
-1
  6
ByLayer
100
AcDbEntity
100
AcDbPolyline
 90
15
 70
0
 10
10.4299999999999997
 20
-2.1900000000000008
 10
10.3800000000000008
 20
-2.1900000000000008
 10
10.3299999999999983
 20
-2.1900000000000035
 10
10.2799999999999976
 20
-2.1900000000000031
 10
10.2300000000000004
 20
-2.1899999999999986
 10
10.1799999999999979
 20
-2.1900000000000044
 10
10.1300000000000008
 20
-2.1900000000000039
 10
10.0799999999999983
 20
-2.1900000000000026
 10
10.0299999999999976
 20
-2.1900000000000057
 10
9.9799999999999986
 20
-2.1900000000000017
 10
9.9299999999999997
 20
-2.1900000000000008
 10
9.8800000000000008
 20
-2.1900000000000026
 10
9.8299999999999983
 20
-2.1900000000000017
 10
9.7799999999999994
 20
-2.1899999999999986
 10
9.7300000000000004
 20
-2.1899999999999977
  0
LWPOLYLINE
  5
318
  8
components
 62
256
370
-1
  6
ByLayer
100
AcDbEntity
100
AcDbPolyline
 90
15
 70
0
 10
10.4299999999999979
 20
-0.3500000000000036
 10
10.3800000000000026
 20
-0.3500000000000037
 10
10.3299999999999983
 20
-0.3500000000000039
 10
10.2799999999999994
 20
-0.3500000000000045
 10
10.2300000000000004
 20
-0.3499999999999986
 10
10.1799999999999997
 20
-0.3500000000000063
 10
10.1300000000000008
 20
-0.3500000000000051
 10
10.0800000000000001
 20
-0.3500000000000033
 10
10.0299999999999994
 20
-0.3500000000000046
 10
9.9800000000000004
 20
-0.350000000000002
 10
9.9299999999999997
 20
-0.3500000000000021
 10
9.8800000000000026
 20
-0.3500000000000012
 10
9.8300000000000001
 20
-0.3499999999999996
 10
9.7799999999999994
 20
-0.350000000000005
 10
9.7300000000000004
 20
-0.3499999999999986
  0
LWPOLYLINE
  5
319
  8
components
 62
256
370
-1
  6
ByLayer
100
AcDbEntity
100
AcDbPolyline
 90
15
 70
0
 10
10.4299999999999979
 20
0.3499999999999999
 10
10.3800000000000026
 20
0.35
 10
10.3299999999999983
 20
0.3499999999999999
 10
10.2799999999999994
 20
0.35
 10
10.2300000000000004
 20
0.3499999999999999
 10
10.1799999999999997
 20
0.35
 10
10.1300000000000008
 20
0.35
 10
10.0800000000000001
 20
0.35
 10
10.0299999999999994
 20
0.35
 10
9.9800000000000004
 20
0.35
 10
9.9300000000000015
 20
0.35
 10
9.8800000000000026
 20
0.35
 10
9.8300000000000001
 20
0.3499999999999999
 10
9.7799999999999994
 20
0.3499999999999999
 10
9.7300000000000004
 20
0.35
  0
LINE
  5
31A
100
AcDbEntity
100
AcDbLine
  8
components
 62
256
370
-1
  6
ByLayer
 10
9.7300000000000004
 20
2.1899999999999999
 30
0.0
 11
7.2800000000000002
 21
2.1899999999999999
 31
0.0
  0
LINE
  5
31B
100
AcDbEntity
100
AcDbLine
  8
components
 62
256
370
-1
  6
ByLayer
 10
9.7300000000000004
 20
2.8900000000000001
 30
0.0
 11
7.2800000000000002
 21
2.8900000000000001
 31
0.0
  0
LINE
  5
31C
100
AcDbEntity
100
AcDbLine
  8
components
 62
256
370
-1
  6
ByLayer
 10
10.4299999999999997
 20
2.8900000000000001
 30
0.0
 11
10.4299999999999997
 21
2.1899999999999995
 31
0.0
  0
LINE
  5
31D
100
AcDbEntity
100
AcDbLine
  8
components
 62
256
370
-1
  6
ByLayer
 10
7.2800000000000002
 20
2.1899999999999999
 30
0.0
 11
7.2800000000000002
 21
2.8900000000000001
 31
0.0
  0
LINE
  5
31E
100
AcDbEntity
100
AcDbLine
  8
components
 62
256
370
-1
  6
ByLayer
 10
7.2800000000000002
 20
1.9399999999999997
 30
0.0
 11
7.2800000000000002
 21
3.1400000000000001
 31
0.0
  0
LINE
  5
31F
100
AcDbEntity
100
AcDbLine
  8
components
 62
256
370
-1
  6
ByLayer
 10
8.2800000000000011
 20
1.9400000000000002
 30
0.0
 11
7.2800000000000002
 21
1.9399999999999997
 31
0.0
  0
LINE
  5
320
100
AcDbEntity
100
AcDbLine
  8
components
 62
256
370
-1
  6
ByLayer
 10
5.0799999999999992
 20
-3.8100000000000005
 30
0.0
 11
5.0800000000000001
 21
3.8099999999999996
 31
0.0
  0
LINE
  5
321
100
AcDbEntity
100
AcDbLine
  8
components
 62
256
370
-1
  6
ByLayer
 10
8.2799999999999994
 20
-3.8099999999999987
 30
0.0
 11
5.0799999999999992
 21
-3.8100000000000005
 31
0.0
  0
LINE
  5
322
100
AcDbEntity
100
AcDbLine
  8
components
 62
256
370
-1
  6
ByLayer
 10
8.2799999999999994
 20
-3.8099999999999987
 30
0.0
 11
8.2799999999999994
 21
-3.1400000000000041
 31
0.0
  0
LINE
  5
323
100
AcDbEntity
100
AcDbLine
  8
components
 62
256
370
-1
  6
ByLayer
 10
8.2799999999999994
 20
-3.1400000000000041
 30
0.0
 11
7.2799999999999985
 21
-3.1400000000000041
 31
0.0
  0
LINE
  5
324
100
AcDbEntity
100
AcDbLine
  8
components
 62
256
370
-1
  6
ByLayer
 10
7.2799999999999985
 20
-3.1400000000000041
 30
0.0
 11
7.2800000000000002
 21
-1.9399999999999988
 31
0.0
  0
LINE
  5
325
100
AcDbEntity
100
AcDbLine
  8
components
 62
256
370
-1
  6
ByLayer
 10
7.2800000000000002
 20
-1.9399999999999988
 30
0.0
 11
8.2799999999999994
 21
-1.9400000000000008
 31
0.0
  0
LINE
  5
326
100
AcDbEntity
100
AcDbLine
  8
components
 62
256
370
-1
  6
ByLayer
 10
8.2799999999999994
 20
-1.9400000000000008
 30
0.0
 11
8.2799999999999994
 21
-0.6000000000000006
 31
0.0
  0
LINE
  5
327
100
AcDbEntity
100
AcDbLine
  8
components
 62
256
370
-1
  6
ByLayer
 10
8.2799999999999994
 20
-0.6000000000000006
 30
0.0
 11
7.2800000000000002
 21
-0.5999999999999999
 31
0.0
  0
LINE
  5
328
100
AcDbEntity
100
AcDbLine
  8
components
 62
256
370
-1
  6
ByLayer
 10
7.2800000000000002
 20
-0.5999999999999999
 30
0.0
 11
7.2800000000000002
 21
0.5999999999999999
 31
0.0
  0
LINE
  5
329
100
AcDbEntity
100
AcDbLine
  8
components
 62
256
370
-1
  6
ByLayer
 10
7.2800000000000002
 20
0.5999999999999999
 30
0.0
 11
8.2799999999999994
 21
0.6
 31
0.0
  0
LINE
  5
32A
100
AcDbEntity
100
AcDbLine
  8
components
 62
256
370
-1
  6
ByLayer
 10
8.2799999999999994
 20
0.6
 30
0.0
 11
8.2800000000000011
 21
1.9400000000000002
 31
0.0
  0
LINE
  5
32B
100
AcDbEntity
100
AcDbLine
  8
components
 62
256
370
-1
  6
ByLayer
 10
7.2800000000000002
 20
3.1400000000000001
 30
0.0
 11
8.2800000000000011
 21
3.1400000000000001
 31
0.0
  0
LINE
  5
32C
100
AcDbEntity
100
AcDbLine
  8
components
 62
256
370
-1
  6
ByLayer
 10
8.2800000000000011
 20
3.1400000000000001
 30
0.0
 11
8.2799999999999976
 21
3.8099999999999996
 31
0.0
  0
LINE
  5
32D
100
AcDbEntity
100
AcDbLine
  8
components
 62
256
370
-1
  6
ByLayer
 10
5.0800000000000001
 20
3.8099999999999996
 30
0.0
 11
8.2799999999999976
 21
3.8099999999999996
 31
0.0
  0
LINE
  5
32E
100
AcDbEntity
100
AcDbLine
  8
components
 62
256
370
-1
  6
ByLayer
 10
-3.2200000000000006
 20
-1.5399999999999987
 30
0.0
 11
-3.2200000000000002
 21
1.5399999999999996
 31
0.0
  0
ARC
  5
32F
100
AcDbEntity
  8
components
 62
256
370
-1
  6
ByLayer
100
AcDbCircle
 10
-2.2200000000000002
 20
1.5399999999999998
 30
0.0
 40
1.0
100
AcDbArc
 50
107.457603124000002
 51
180.0
  0
LINE
  5
330
100
AcDbEntity
100
AcDbLine
  8
components
 62
256
370
-1
  6
ByLayer
 10
7.2799999999999994
 20
-2.8900000000000019
 30
0.0
 11
7.2800000000000002
 21
-2.1900000000000031
 31
0.0
  0
LINE
  5
331
100
AcDbEntity
100
AcDbLine
  8
components
 62
256
370
-1
  6
ByLayer
 10
5.080000000000001
 20
-2.8899999999999992
 30
0.0
 11
-2.5200000000000005
 21
-2.8899999999999997
 31
0.0
  0
LINE
  5
332
100
AcDbEntity
100
AcDbLine
  8
components
 62
256
370
-1
  6
ByLayer
 10
-2.5200000000000009
 20
-2.1899999999999991
 30
0.0
 11
-2.5200000000000005
 21
-2.8899999999999997
 31
0.0
  0
LINE
  5
333
100
AcDbEntity
100
AcDbLine
  8
components
 62
256
370
-1
  6
ByLayer
 10
5.0799999999999983
 20
-2.1900000000000022
 30
0.0
 11
-2.5200000000000009
 21
-2.1899999999999991
 31
0.0
  0
LINE
  5
334
100
AcDbEntity
100
AcDbLine
  8
components
 62
256
370
-1
  6
ByLayer
 10
5.0800000000000001
 20
-0.3500000000000001
 30
0.0
 11
-2.5199999999999996
 21
-0.3499999999999994
 31
0.0
  0
LINE
  5
335
100
AcDbEntity
100
AcDbLine
  8
components
 62
256
370
-1
  6
ByLayer
 10
-2.5199999999999996
 20
0.35
 30
0.0
 11
-2.5199999999999996
 21
-0.3499999999999994
 31
0.0
  0
LINE
  5
336
100
AcDbEntity
100
AcDbLine
  8
components
 62
256
370
-1
  6
ByLayer
 10
5.0800000000000001
 20
0.35
 30
0.0
 11
-2.5199999999999996
 21
0.35
 31
0.0
  0
LINE
  5
337
100
AcDbEntity
100
AcDbLine
  8
components
 62
256
370
-1
  6
ByLayer
 10
5.0800000000000001
 20
2.1899999999999999
 30
0.0
 11
-2.5200000000000005
 21
2.1899999999999995
 31
0.0
  0
LINE
  5
338
100
AcDbEntity
100
AcDbLine
  8
components
 62
256
370
-1
  6
ByLayer
 10
-2.5199999999999996
 20
2.8900000000000006
 30
0.0
 11
-2.5200000000000005
 21
2.1899999999999995
 31
0.0
  0
LINE
  5
339
100
AcDbEntity
100
AcDbLine
  8
components
 62
256
370
-1
  6
ByLayer
 10
5.0800000000000001
 20
2.8900000000000006
 30
0.0
 11
-2.5199999999999996
 21
2.8900000000000006
 31
0.0
  0
LINE
  5
33A
100
AcDbEntity
100
AcDbLine
  8
components
 62
256
370
-1
  6
ByLayer
 10
9.7299999999999986
 20
-2.8900000000000059
 30
0.0
 11
7.2799999999999994
 21
-2.8900000000000019
 31
0.0
  0
LINE
  5
33B
100
AcDbEntity
100
AcDbLine
  8
components
 62
256
370
-1
  6
ByLayer
 10
9.7300000000000004
 20
-2.1899999999999977
 30
0.0
 11
7.2800000000000002
 21
-2.1900000000000031
 31
0.0
  0
LINE
  5
33C
100
AcDbEntity
100
AcDbLine
  8
components
 62
256
370
-1
  6
ByLayer
 10
9.7300000000000004
 20
-0.3499999999999986
 30
0.0
 11
7.2800000000000002
 21
-0.3500000000000033
 31
0.0
  0
LINE
  5
33D
100
AcDbEntity
100
AcDbLine
  8
components
 62
256
370
-1
  6
ByLayer
 10
9.7300000000000004
 20
0.35
 30
0.0
 11
7.2800000000000002
 21
0.35
 31
0.0
  0
LINE
  5
33E
100
AcDbEntity
100
AcDbLine
  8
components
 62
256
370
-1
  6
ByLayer
 10
10.4299999999999997
 20
-2.1900000000000008
 30
0.0
 11
10.4299999999999979
 21
-2.890000000000005
 31
0.0
  0
LINE
  5
33F
100
AcDbEntity
100
AcDbLine
  8
components
 62
256
370
-1
  6
ByLayer
 10
10.4299999999999979
 20
0.3499999999999999
 30
0.0
 11
10.4299999999999979
 21
-0.3500000000000036
 31
0.0
  0
LINE
  5
340
100
AcDbEntity
100
AcDbLine
  8
components
 62
256
370
-1
  6
ByLayer
 10
9.7300000000000004
 20
2.8900000000000001
 30
0.0
 11
9.7300000000000004
 21
2.1899999999999999
 31
0.0
  0
LINE
  5
341
100
AcDbEntity
100
AcDbLine
  8
components
 62
256
370
-1
  6
ByLayer
 10
9.7300000000000004
 20
-2.1899999999999977
 30
0.0
 11
9.7299999999999986
 21
-2.8900000000000059
 31
0.0
  0
LINE
  5
342
100
AcDbEntity
100
AcDbLine
  8
components
 62
256
370
-1
  6
ByLayer
 10
9.7300000000000004
 20
0.35
 30
0.0
 11
9.7300000000000004
 21
-0.3499999999999986
 31
0.0
  0
ARC
  5
343
100
AcDbEntity
  8
components
 62
256
370
-1
  6
ByLayer
100
AcDbCircle
 10
-2.2200000000000006
 20
-1.5399999999999996
 30
0.0
 40
1.0
100
AcDbArc
 50
180.0
 51
252.542396875999998
  0
LINE
  5
344
100
AcDbEntity
100
AcDbLine
  8
0
 62
256
370
-1
  6
ByLayer
 10
43.1799999999999926
 20
-5.0800000000000045
 30
0.0
 11
-5.080000000000001
 21
-5.0799999999999992
 31
0.0
  0
LINE
  5
345
100
AcDbEntity
100
AcDbLine
  8
0
 62
256
370
-1
  6
ByLayer
 10
43.1799999999999997
 20
40.6400000000000006
 30
0.0
 11
43.1799999999999926
 21
-5.0800000000000045
 31
0.0
  0
LINE
  5
346
100
AcDbEntity
100
AcDbLine
  8
0
 62
256
370
-1
  6
ByLayer
 10
-5.080000000000001
 20
-5.0799999999999992
 30
0.0
 11
-5.0799999999999992
 21
40.6400000000000006
 31
0.0
  0
CIRCLE
  5
347
100
AcDbEntity
100
AcDbCircle
  8
0
 62
256
370
-1
  6
ByLayer
 10
0.0
 20
0.0
 30
0.0
 40
1.5
  0
CIRCLE
  5
348
100
AcDbEntity
100
AcDbCircle
  8
0
 62
256
370
-1
  6
ByLayer
 10
38.1000000000000014
 20
0.0
 30
0.0
 40
1.5
  0
CIRCLE
  5
349
100
AcDbEntity
100
AcDbCircle
  8
0
 62
256
370
-1
  6
ByLayer
 10
0.0000000000000022
 20
35.5600000000000023
 30
0.0
 40
1.5
  0
CIRCLE
  5
34A
100
AcDbEntity
100
AcDbCircle
  8
0
 62
256
370
-1
  6
ByLayer
 10
38.1000000000000014
 20
35.5600000000000023
 30
0.0
 40
1.5
  0
CIRCLE
  5
34B
100
AcDbEntity
100
AcDbCircle
  8
0
 62
256
370
-1
  6
ByLayer
 10
22.8599999999999994
 20
35.5600000000000023
 30
0.0
 40
0.5
  0
CIRCLE
  5
34C
100
AcDbEntity
100
AcDbCircle
  8
0
 62
256
370
-1
  6
ByLayer
 10
15.2400000000000002
 20
35.5600000000000023
 30
0.0
 40
0.5
  0
CIRCLE
  5
34D
100
AcDbEntity
100
AcDbCircle
  8
0
 62
256
370
-1
  6
ByLayer
 10
22.8599999999999994
 20
30.480000000000004
 30
0.0
 40
0.5
  0
CIRCLE
  5
34E
100
AcDbEntity
100
AcDbCircle
  8
0
 62
256
370
-1
  6
ByLayer
 10
15.2400000000000038
 20
30.4800000000000004
 30
0.0
 40
0.5
  0
CIRCLE
  5
34F
100
AcDbEntity
100
AcDbCircle
  8
0
 62
256
370
-1
  6
ByLayer
 10
38.1000000000000014
 20
20.3200000000000003
 30
0.0
 40
0.5
  0
CIRCLE
  5
350
100
AcDbEntity
100
AcDbCircle
  8
0
 62
256
370
-1
  6
ByLayer
 10
30.4800000000000004
 20
20.3199999999999967
 30
0.0
 40
0.5
  0
CIRCLE
  5
351
100
AcDbEntity
100
AcDbCircle
  8
0
 62
256
370
-1
  6
ByLayer
 10
22.8599999999999994
 20
20.3200000000000003
 30
0.0
 40
0.5
  0
CIRCLE
  5
352
100
AcDbEntity
100
AcDbCircle
  8
0
 62
256
370
-1
  6
ByLayer
 10
15.240000000000002
 20
20.3199999999999967
 30
0.0
 40
0.5
  0
CIRCLE
  5
353
100
AcDbEntity
100
AcDbCircle
  8
0
 62
256
370
-1
  6
ByLayer
 10
7.620000000000001
 20
20.3200000000000003
 30
0.0
 40
0.5
  0
CIRCLE
  5
354
100
AcDbEntity
100
AcDbCircle
  8
0
 62
256
370
-1
  6
ByLayer
 10
0.0000000000000012
 20
20.3200000000000003
 30
0.0
 40
0.5
  0
CIRCLE
  5
355
100
AcDbEntity
100
AcDbCircle
  8
0
 62
256
370
-1
  6
ByLayer
 10
38.1000000000000014
 20
15.2400000000000002
 30
0.0
 40
0.5
  0
CIRCLE
  5
356
100
AcDbEntity
100
AcDbCircle
  8
0
 62
256
370
-1
  6
ByLayer
 10
30.4800000000000004
 20
15.2400000000000002
 30
0.0
 40
0.5
  0
CIRCLE
  5
357
100
AcDbEntity
100
AcDbCircle
  8
0
 62
256
370
-1
  6
ByLayer
 10
22.8599999999999994
 20
15.240000000000002
 30
0.0
 40
0.5
  0
CIRCLE
  5
358
100
AcDbEntity
100
AcDbCircle
  8
0
 62
256
370
-1
  6
ByLayer
 10
15.2400000000000002
 20
15.2399999999999984
 30
0.0
 40
0.5
  0
CIRCLE
  5
359
100
AcDbEntity
100
AcDbCircle
  8
0
 62
256
370
-1
  6
ByLayer
 10
7.6200000000000019
 20
15.2400000000000002
 30
0.0
 40
0.5
  0
CIRCLE
  5
35A
100
AcDbEntity
100
AcDbCircle
  8
0
 62
256
370
-1
  6
ByLayer
 10
0.0000000000000009
 20
15.2400000000000002
 30
0.0
 40
0.5
  0
CIRCLE
  5
35B
100
AcDbEntity
100
AcDbCircle
  8
0
 62
256
370
-1
  6
ByLayer
 10
22.8599999999999994
 20
5.080000000000001
 30
0.0
 40
0.5
  0
CIRCLE
  5
35C
100
AcDbEntity
100
AcDbCircle
  8
0
 62
256
370
-1
  6
ByLayer
 10
15.240000000000002
 20
5.080000000000001
 30
0.0
 40
0.5
  0
CIRCLE
  5
35D
100
AcDbEntity
100
AcDbCircle
  8
0
 62
256
370
-1
  6
ByLayer
 10
10.1600000000000001
 20
2.54
 30
0.0
 40
0.5
  0
CIRCLE
  5
35E
100
AcDbEntity
100
AcDbCircle
  8
0
 62
256
370
-1
  6
ByLayer
 10
22.8599999999999994
 20
0.0
 30
0.0
 40
0.5
  0
CIRCLE
  5
35F
100
AcDbEntity
100
AcDbCircle
  8
0
 62
256
370
-1
  6
ByLayer
 10
15.2400000000000002
 20
0.0
 30
0.0
 40
0.5
  0
CIRCLE
  5
360
100
AcDbEntity
100
AcDbCircle
  8
0
 62
256
370
-1
  6
ByLayer
 10
10.1600000000000001
 20
0.0
 30
0.0
 40
0.5
  0
CIRCLE
  5
361
100
AcDbEntity
100
AcDbCircle
  8
0
 62
256
370
-1
  6
ByLayer
 10
10.1599999999999984
 20
-2.5400000000000031
 30
0.0
 40
0.5
  0
LINE
  5
362
100
AcDbEntity
100
AcDbLine
  8
0
 62
256
370
-1
  6
ByLayer
 10
-5.0799999999999992
 20
40.6400000000000006
 30
0.0
 11
43.1799999999999997
 21
40.6400000000000006
 31
0.0
  0
INSERT
  5
363
100
AcDbEntity
100
AcDbBlockReference
  8
0
 62
256
370
-1
  6
ByLayer
  2
COMPOUND
 10
0.0
 20
-15.240000000000002
 30
0.0
  0
DIMENSION
  5
364
100
AcDbEntity
  8
components
 62
256
370
-1
  6
ByLayer
100
AcDbDimension
 10
-19.9999999999999964
 20
-5.0799999999999974
 30
0.0
 11
-21.8749999999999929
 21
17.7800000000000011
 31
0.0
 70
0
 71
5
 72
1
 41
1.0
 42
0.0
  1

  3
Standard
100
AcDbAlignedDimension
 13
-5.0799999999999992
 23
40.6400000000000006
 33
0.0
 14
-5.080000000000001
 24
-5.0799999999999992
 34
0.0
 50
90.0
100
AcDbRotatedDimension
  0
DIMENSION
  5
365
100
AcDbEntity
  8
components
 62
256
370
-1
  6
ByLayer
100
AcDbDimension
 10
43.1799999999999926
 20
-20.0
 30
0.0
 11
19.0499999999999972
 21
-18.125
 31
0.0
 70
0
 71
5
 72
1
 41
1.0
 42
0.0
  1

  3
Standard
100
AcDbAlignedDimension
 13
-5.080000000000001
 23
-5.0799999999999992
 33
0.0
 14
43.1799999999999926
 24
-5.0800000000000045
 34
0.0
 50
0.0
100
AcDbRotatedDimension
  0
DIMENSION
  5
366
100
AcDbEntity
  8
components
 62
256
370
-1
  6
ByLayer
100
AcDbDimension
 10
-10.0000000000000018
 20
0.0000000000000012
 30
0.0
 11
-11.875
 21
17.7800000000000011
 31
0.0
 70
0
 71
5
 72
1
 41
1.0
 42
0.0
  1

  3
Standard
100
AcDbAlignedDimension
 13
0.0000000000000022
 23
35.5600000000000023
 33
0.0
 14
0.0
 24
0.0
 34
0.0
 50
90.0
100
AcDbRotatedDimension
  0
DIMENSION
  5
367
100
AcDbEntity
  8
components
 62
256
370
-1
  6
ByLayer
100
AcDbDimension
 10
38.1000000000000014
 20
-10.0
 30
0.0
 11
19.0500000000000007
 21
-8.125
 31
0.0
 70
0
 71
5
 72
1
 41
1.0
 42
0.0
  1

  3
Standard
100
AcDbAlignedDimension
 13
0.0
 23
0.0
 33
0.0
 14
38.1000000000000014
 24
0.0
 34
0.0
 50
0.0
100
AcDbRotatedDimension
  0
DIMENSION
  5
368
100
AcDbEntity
  8
components
 62
256
370
-1
  6
ByLayer
100
AcDbDimension
 10
-10.0000000000000036
 20
-5.0799999999999983
 30
0.0
 11
-11.8750000000000036
 21
-2.5399999999999987
 31
0.0
 70
0
 71
5
 72
1
 41
1.0
 42
0.0
  1

  3
Standard
100
AcDbAlignedDimension
 13
0.0
 23
0.0
 33
0.0
 14
-5.080000000000001
 24
-5.0799999999999992
 34
0.0
 50
90.0
100
AcDbRotatedDimension
  0
DIMENSION
  5
369
100
AcDbEntity
  8
components
 62
256
370
-1
  6
ByLayer
100
AcDbDimension
 10
-5.080000000000001
 20
-10.0
 30
0.0
 11
-2.5400000000000005
 21
-8.125
 31
0.0
 70
0
 71
5
 72
1
 41
1.0
 42
0.0
  1

  3
Standard
100
AcDbAlignedDimension
 13
0.0
 23
0.0
 33
0.0
 14
-5.080000000000001
 24
-5.0799999999999992
 34
0.0
 50
0.0
100
AcDbRotatedDimension
  0
DIMENSION
  5
36A
100
AcDbEntity
  8
components
 62
256
370
-1
  6
ByLayer
100
AcDbDimension
 10
-5.0800000000000001
 20
6.9999999999999973
 30
0.0
 11
2.5399999999999996
 21
8.8749999999999964
 31
0.0
 70
0
 71
5
 72
1
 41
1.0
 42
0.0
  1

  3
Standard
100
AcDbAlignedDimension
 13
10.1600000000000001
 23
2.54
 33
0.0
 14
-5.080000000000001
 24
-5.0799999999999992
 34
0.0
 50
0.0
100
AcDbRotatedDimension
  0
DIMENSION
  5
36B
100
AcDbEntity
  8
components
 62
256
370
-1
  6
ByLayer
100
AcDbDimension
 10
3.8100000000000018
 20
46.0
 30
0.0
 11
11.4299999999999979
 21
47.875
 31
0.0
 70
0
 71
5
 72
1
 41
1.0
 42
0.0
  1

  3
Standard
100
AcDbAlignedDimension
 13
19.0500000000000007
 23
17.7800000000000011
 33
0.0
 14
3.8100000000000001
 24
17.7800000000000047
 34
0.0
 50
0.0
100
AcDbRotatedDimension
  0
DIMENSION
  5
36C
100
AcDbEntity
  8
components
 62
256
370
-1
  6
ByLayer
100
AcDbDimension
 10
-5.0799999999999992
 20
46.0
 30
0.0
 11
-0.6349999999999997
 21
47.875
 31
0.0
 70
0
 71
5
 72
1
 41
1.0
 42
0.0
  1

  3
Standard
100
AcDbAlignedDimension
 13
3.8100000000000001
 23
17.7800000000000047
 33
0.0
 14
-5.0799999999999992
 24
40.6400000000000006
 34
0.0
 50
0.0
100
AcDbRotatedDimension
  0
DIMENSION
  5
36D
100
AcDbEntity
  8
components
 62
256
370
-1
  6
ByLayer
100
AcDbDimension
 10
49.0
 20
2.5399999999999956
 30
0.0
 11
47.125
 21
10.1599999999999984
 31
0.0
 70
0
 71
5
 72
1
 41
1.0
 42
0.0
  1

  3
Standard
100
AcDbAlignedDimension
 13
19.0500000000000007
 23
17.7800000000000011
 33
0.0
 14
19.0500000000000007
 24
2.5399999999999991
 34
0.0
 50
90.0
100
AcDbRotatedDimension
  0
DIMENSION
  5
36E
100
AcDbEntity
  8
components
 62
256
370
-1
  6
ByLayer
100
AcDbDimension
 10
49.0
 20
-5.0800000000000054
 30
0.0
 11
47.125
 21
-1.2700000000000033
 31
0.0
 70
0
 71
5
 72
1
 41
1.0
 42
0.0
  1

  3
Standard
100
AcDbAlignedDimension
 13
19.0500000000000007
 23
2.5399999999999991
 33
0.0
 14
43.1799999999999926
 24
-5.0800000000000045
 34
0.0
 50
90.0
100
AcDbRotatedDimension
  0
ENDSEC
  0
SECTION
  2
OBJECTS
  0
DICTIONARY
  5
C
100
AcDbDictionary
280
0
281
1
  3
ACAD_GROUP
350
D
  3
ACAD_LAYOUT
350
1A
  3
ACAD_MLINESTYLE
350
17
  3
ACAD_PLOTSETTINGS
350
19
  3
ACAD_PLOTSTYLENAME
350
E
  3
AcDbVariableDictionary
350
36F
  0
DICTIONARY
  5
D
100
AcDbDictionary
280
0
281
1
  0
ACDBDICTIONARYWDFLT
  5
E
100
AcDbDictionary
281
1
  3
Normal
350
F
100
AcDbDictionaryWithDefault
340
F
  0
ACDBPLACEHOLDER
  5
F
  0
DICTIONARY
  5
17
100
AcDbDictionary
280
0
281
1
  3
Standard
350
18
  0
MLINESTYLE
  5
18
100
AcDbMlineStyle
  2
STANDARD
 70
0
  3

 62
256
 51
90.0
 52
90.0
 71
2
 49
0.5
 62
256
  6
BYLAYER
 49
-0.5
 62
256
  6
BYLAYER
  0
DICTIONARY
  5
19
100
AcDbDictionary
280
0
281
1
  0
DICTIONARY
  5
1A
100
AcDbDictionary
281
1
  3
Layout1
350
1E
  3
Layout2
350
26
  3
Model
350
22
  0
LAYOUT
  5
1E
100
AcDbPlotSettings
  1

  2
C:\Program Files\AutoCAD 2002\plotters\DWF ePlot (optimized for plotting).pc3
  4

  6

 40
0.0
 41
0.0
 42
0.0
 43
0.0
 44
0.0
 45
0.0
 46
0.0
 47
0.0
 48
0.0
 49
0.0
140
0.0
141
0.0
142
1.0
143
1.0
 70
688
 72
0
 73
0
 74
5
  7

 75
16
147
1.0
148
0.0
149
0.0
100
AcDbLayout
  1
Layout1
 70
1
 71
1
 10
0.0
 20
0.0
 11
420.0
 21
297.0
 12
0.0
 22
0.0
 32
0.0
 14
100000000000000000000.0
 24
100000000000000000000.0
 34
100000000000000000000.0
 15
-100000000000000000000.0
 25
-100000000000000000000.0
 35
-100000000000000000000.0
146
0.0
 13
0.0
 23
0.0
 33
0.0
 16
1.0
 26
0.0
 36
0.0
 17
0.0
 27
1.0
 37
0.0
 76
0
330
1B
  0
LAYOUT
  5
22
100
AcDbPlotSettings
  1

  2
C:\Program Files\AutoCAD 2002\plotters\DWF ePlot (optimized for plotting).pc3
  4

  6

 40
0.0
 41
0.0
 42
0.0
 43
0.0
 44
0.0
 45
0.0
 46
0.0
 47
0.0
 48
0.0
 49
0.0
140
0.0
141
0.0
142
1.0
143
1.0
 70
1712
 72
0
 73
0
 74
0
  7

 75
0
147
1.0
148
0.0
149
0.0
100
AcDbLayout
  1
Model
 70
1
 71
0
 10
0.0
 20
0.0
 11
12.0
 21
9.0
 12
0.0
 22
0.0
 32
0.0
 14
0.0
 24
0.0
 34
0.0
 15
0.0
 25
0.0
 35
0.0
146
0.0
 13
0.0
 23
0.0
 33
0.0
 16
1.0
 26
0.0
 36
0.0
 17
0.0
 27
1.0
 37
0.0
 76
0
330
1F
  0
LAYOUT
  5
26
100
AcDbPlotSettings
  1

  2
C:\Program Files\AutoCAD 2002\plotters\DWF ePlot (optimized for plotting).pc3
  4

  6

 40
0.0
 41
0.0
 42
0.0
 43
0.0
 44
0.0
 45
0.0
 46
0.0
 47
0.0
 48
0.0
 49
0.0
140
0.0
141
0.0
142
1.0
143
1.0
 70
688
 72
0
 73
0
 74
5
  7

 75
16
147
1.0
148
0.0
149
0.0
100
AcDbLayout
  1
Layout2
 70
1
 71
2
 10
0.0
 20
0.0
 11
12.0
 21
9.0
 12
0.0
 22
0.0
 32
0.0
 14
0.0
 24
0.0
 34
0.0
 15
0.0
 25
0.0
 35
0.0
146
0.0
 13
0.0
 23
0.0
 33
0.0
 16
1.0
 26
0.0
 36
0.0
 17
0.0
 27
1.0
 37
0.0
 76
0
330
23
  0
DICTIONARY
  5
36F
100
AcDbDictionary
281
1
  3
DIMASSOC
350
371
  3
HIDETEXT
350
370
  0
DICTIONARYVAR
  5
370
100
DictionaryVariables
280
0
  1
2
  0
DICTIONARYVAR
  5
371
100
DictionaryVariables
280
0
  1
1
  0
ENDSEC
  0
EOF
